<svg width="330" height="108" viewBox="0 0 330 108" fill="none" xmlns="http://www.w3.org/2000/svg">
<g clip-path="url(#clip0_2638_811)">
<rect width="330" height="108" rx="10" fill="#FC9338"/>
<path d="M227.721 103.985H233.417L236.265 99.053L233.417 94.1211H227.721L224.874 99.053L227.721 103.985Z" stroke="#E5E5E5" stroke-linecap="round" stroke-linejoin="round"/>
<path d="M219.115 99.0531H224.811L227.658 94.1213L224.811 89.1846H219.115L216.267 94.1213L219.115 99.0531Z" stroke="#E5E5E5" stroke-linecap="round" stroke-linejoin="round"/>
<path d="M227.721 94.1215H233.417L236.265 89.1848L233.417 84.2529H227.721L224.874 89.1848L227.721 94.1215Z" stroke="#E5E5E5" stroke-linecap="round" stroke-linejoin="round"/>
<path d="M227.658 94.8853C228.08 94.8853 228.422 94.5433 228.422 94.1214C228.422 93.6995 228.08 93.3574 227.658 93.3574C227.237 93.3574 226.895 93.6995 226.895 94.1214C226.895 94.5433 227.237 94.8853 227.658 94.8853Z" fill="#E5E5E5"/>
<path d="M215.764 84.5279C216.186 84.5279 216.528 84.1859 216.528 83.764C216.528 83.342 216.186 83 215.764 83C215.342 83 215 83.342 215 83.764C215 84.1859 215.342 84.5279 215.764 84.5279Z" fill="#E5E5E5"/>
<path d="M241.777 89.3244C241.777 89.1722 241.822 89.0234 241.907 88.8968C241.991 88.7703 242.112 88.6718 242.253 88.6137C242.393 88.5557 242.548 88.5407 242.697 88.5708C242.847 88.6009 242.984 88.6746 243.091 88.7826C243.198 88.8906 243.271 89.028 243.3 89.1774C243.329 89.3269 243.313 89.4816 243.255 89.622C243.196 89.7624 243.096 89.8821 242.969 89.966C242.842 90.0499 242.693 90.0942 242.541 90.0932C242.44 90.0932 242.34 90.0733 242.247 90.0346C242.154 89.9959 242.07 89.9392 241.999 89.8678C241.928 89.7963 241.872 89.7115 241.834 89.6183C241.796 89.525 241.776 89.4252 241.777 89.3244Z" fill="#E5E5E5"/>
<path d="M235.501 89.3245C235.501 89.1724 235.546 89.0238 235.631 88.8973C235.715 88.7709 235.835 88.6724 235.976 88.6142C236.116 88.556 236.271 88.5408 236.42 88.5704C236.569 88.6001 236.706 88.6733 236.813 88.7808C236.921 88.8884 236.994 89.0253 237.024 89.1745C237.053 89.3236 237.038 89.4782 236.98 89.6187C236.922 89.7591 236.823 89.8792 236.697 89.9637C236.57 90.0482 236.422 90.0932 236.27 90.0932C236.066 90.0932 235.87 90.0122 235.726 89.8681C235.582 89.7239 235.501 89.5284 235.501 89.3245Z" fill="#E5E5E5"/>
<path d="M226.895 103.99C226.894 103.838 226.938 103.689 227.022 103.561C227.106 103.434 227.226 103.335 227.367 103.276C227.508 103.217 227.663 103.202 227.812 103.231C227.962 103.261 228.099 103.334 228.207 103.442C228.315 103.55 228.388 103.687 228.418 103.837C228.447 103.986 228.431 104.141 228.373 104.282C228.314 104.423 228.215 104.543 228.087 104.627C227.96 104.711 227.811 104.755 227.659 104.754C227.456 104.753 227.263 104.672 227.12 104.529C226.977 104.386 226.896 104.193 226.895 103.99Z" fill="#E5E5E5"/>
<path d="M236.27 89.3145H242.541" stroke="#E5E5E5" stroke-linecap="round" stroke-linejoin="round"/>
<path d="M227.658 103.989L223.988 109.878" stroke="#E5E5E5" stroke-linecap="round" stroke-linejoin="round"/>
<path d="M219.115 89.1839L215.764 83.7637" stroke="#E5E5E5" stroke-linecap="round" stroke-linejoin="round"/>
<path d="M287.721 70.9848H293.417L296.265 66.053L293.417 61.1211H287.721L284.874 66.053L287.721 70.9848Z" stroke="#E5E5E5" stroke-linecap="round" stroke-linejoin="round"/>
<path d="M286.895 81.8108L284.047 76.8789H278.351" stroke="#E5E5E5" stroke-linecap="round" stroke-linejoin="round"/>
<path d="M279.115 66.0531H284.811L287.658 61.1213L284.811 56.1846H279.115L276.267 61.1213L279.115 66.0531Z" stroke="#E5E5E5" stroke-linecap="round" stroke-linejoin="round"/>
<path d="M287.721 61.1215H293.417L296.265 56.1848L293.417 51.2529H287.721L284.874 56.1848L287.721 61.1215Z" stroke="#E5E5E5" stroke-linecap="round" stroke-linejoin="round"/>
<path d="M287.658 61.8853C288.08 61.8853 288.422 61.5433 288.422 61.1214C288.422 60.6995 288.08 60.3574 287.658 60.3574C287.237 60.3574 286.895 60.6995 286.895 61.1214C286.895 61.5433 287.237 61.8853 287.658 61.8853Z" fill="#E5E5E5"/>
<path d="M275.764 51.5279C276.186 51.5279 276.528 51.1859 276.528 50.764C276.528 50.342 276.186 50 275.764 50C275.342 50 275 50.342 275 50.764C275 51.1859 275.342 51.5279 275.764 51.5279Z" fill="#E5E5E5"/>
<path d="M286.131 81.8108C286.131 81.6597 286.175 81.512 286.259 81.3864C286.343 81.2608 286.463 81.1629 286.602 81.105C286.742 81.0472 286.895 81.0321 287.044 81.0616C287.192 81.091 287.328 81.1638 287.435 81.2706C287.542 81.3775 287.614 81.5136 287.644 81.6618C287.673 81.81 287.658 81.9636 287.6 82.1032C287.543 82.2428 287.445 82.3621 287.319 82.446C287.193 82.53 287.046 82.5748 286.895 82.5748C286.794 82.5748 286.695 82.555 286.602 82.5166C286.51 82.4782 286.425 82.422 286.354 82.351C286.283 82.2801 286.227 82.1959 286.189 82.1032C286.15 82.0105 286.131 81.9112 286.131 81.8108Z" fill="#E5E5E5"/>
<path d="M278.351 77.6431C278.773 77.6431 279.115 77.3011 279.115 76.8792C279.115 76.4573 278.773 76.1152 278.351 76.1152C277.929 76.1152 277.587 76.4573 277.587 76.8792C277.587 77.3011 277.929 77.6431 278.351 77.6431Z" fill="#E5E5E5"/>
<path d="M301.777 56.3244C301.777 56.1722 301.822 56.0234 301.907 55.8968C301.991 55.7703 302.112 55.6718 302.253 55.6137C302.393 55.5557 302.548 55.5407 302.697 55.5708C302.847 55.6009 302.984 55.6746 303.091 55.7826C303.198 55.8906 303.271 56.028 303.3 56.1774C303.329 56.3269 303.313 56.4816 303.255 56.622C303.196 56.7624 303.096 56.8821 302.969 56.966C302.842 57.0499 302.693 57.0942 302.541 57.0932C302.44 57.0932 302.34 57.0733 302.247 57.0346C302.154 56.9959 302.07 56.9392 301.999 56.8678C301.928 56.7963 301.872 56.7115 301.834 56.6183C301.796 56.525 301.776 56.4252 301.777 56.3244Z" fill="#E5E5E5"/>
<path d="M283.989 77.6431C284.411 77.6431 284.753 77.3011 284.753 76.8792C284.753 76.4573 284.411 76.1152 283.989 76.1152C283.567 76.1152 283.225 76.4573 283.225 76.8792C283.225 77.3011 283.567 77.6431 283.989 77.6431Z" fill="#E5E5E5"/>
<path d="M295.501 56.3245C295.501 56.1724 295.546 56.0238 295.631 55.8973C295.715 55.7709 295.835 55.6724 295.976 55.6142C296.116 55.556 296.271 55.5408 296.42 55.5704C296.569 55.6001 296.706 55.6733 296.813 55.7808C296.921 55.8884 296.994 56.0253 297.024 56.1745C297.053 56.3236 297.038 56.4782 296.98 56.6187C296.922 56.7591 296.823 56.8792 296.697 56.9637C296.57 57.0482 296.422 57.0932 296.27 57.0932C296.066 57.0932 295.87 57.0122 295.726 56.8681C295.582 56.7239 295.501 56.5284 295.501 56.3245Z" fill="#E5E5E5"/>
<path d="M286.895 70.9904C286.894 70.8379 286.938 70.6886 287.022 70.5615C287.106 70.4343 287.226 70.335 287.367 70.2762C287.508 70.2175 287.663 70.2018 287.812 70.2313C287.962 70.2608 288.099 70.3342 288.207 70.442C288.315 70.5498 288.388 70.6872 288.418 70.8368C288.447 70.9864 288.431 71.1413 288.373 71.282C288.314 71.4227 288.215 71.5427 288.087 71.6268C287.96 71.7109 287.811 71.7553 287.659 71.7544C287.456 71.7531 287.263 71.6722 287.12 71.5292C286.977 71.3862 286.896 71.1926 286.895 70.9904Z" fill="#E5E5E5"/>
<path d="M296.27 56.3145H302.541" stroke="#E5E5E5" stroke-linecap="round" stroke-linejoin="round"/>
<path d="M287.658 70.9893L283.988 76.8785" stroke="#E5E5E5" stroke-linecap="round" stroke-linejoin="round"/>
<path d="M279.115 56.1839L275.764 50.7637" stroke="#E5E5E5" stroke-linecap="round" stroke-linejoin="round"/>
<path d="M315.721 103.985H321.417L324.265 99.053L321.417 94.1211H315.721L312.874 99.053L315.721 103.985Z" stroke="#E5E5E5" stroke-linecap="round" stroke-linejoin="round"/>
<path d="M307.115 99.0531H312.811L315.658 94.1213L312.811 89.1846H307.115L304.267 94.1213L307.115 99.0531Z" stroke="#E5E5E5" stroke-linecap="round" stroke-linejoin="round"/>
<path d="M315.721 94.1215H321.417L324.265 89.1848L321.417 84.2529H315.721L312.874 89.1848L315.721 94.1215Z" stroke="#E5E5E5" stroke-linecap="round" stroke-linejoin="round"/>
<path d="M315.658 94.8853C316.08 94.8853 316.422 94.5433 316.422 94.1214C316.422 93.6995 316.08 93.3574 315.658 93.3574C315.237 93.3574 314.895 93.6995 314.895 94.1214C314.895 94.5433 315.237 94.8853 315.658 94.8853Z" fill="#E5E5E5"/>
<path d="M303.764 84.5279C304.186 84.5279 304.528 84.1859 304.528 83.764C304.528 83.342 304.186 83 303.764 83C303.342 83 303 83.342 303 83.764C303 84.1859 303.342 84.5279 303.764 84.5279Z" fill="#E5E5E5"/>
<path d="M329.777 89.3244C329.777 89.1722 329.822 89.0234 329.907 88.8968C329.991 88.7703 330.112 88.6718 330.253 88.6137C330.393 88.5557 330.548 88.5407 330.697 88.5708C330.847 88.6009 330.984 88.6746 331.091 88.7826C331.198 88.8906 331.271 89.028 331.3 89.1774C331.329 89.3269 331.313 89.4816 331.255 89.622C331.196 89.7624 331.096 89.8821 330.969 89.966C330.842 90.0499 330.693 90.0942 330.541 90.0932C330.44 90.0932 330.34 90.0733 330.247 90.0346C330.154 89.9959 330.07 89.9392 329.999 89.8678C329.928 89.7963 329.872 89.7115 329.834 89.6183C329.796 89.525 329.776 89.4252 329.777 89.3244Z" fill="#E5E5E5"/>
<path d="M323.501 89.3245C323.501 89.1724 323.546 89.0238 323.631 88.8973C323.715 88.7709 323.835 88.6724 323.976 88.6142C324.116 88.556 324.271 88.5408 324.42 88.5704C324.569 88.6001 324.706 88.6733 324.813 88.7808C324.921 88.8884 324.994 89.0253 325.024 89.1745C325.053 89.3236 325.038 89.4782 324.98 89.6187C324.922 89.7591 324.823 89.8792 324.697 89.9637C324.57 90.0482 324.422 90.0932 324.27 90.0932C324.066 90.0932 323.87 90.0122 323.726 89.8681C323.582 89.7239 323.501 89.5284 323.501 89.3245Z" fill="#E5E5E5"/>
<path d="M314.895 103.99C314.894 103.838 314.938 103.689 315.022 103.561C315.106 103.434 315.226 103.335 315.367 103.276C315.508 103.217 315.663 103.202 315.812 103.231C315.962 103.261 316.099 103.334 316.207 103.442C316.315 103.55 316.388 103.687 316.418 103.837C316.447 103.986 316.431 104.141 316.373 104.282C316.314 104.423 316.215 104.543 316.087 104.627C315.96 104.711 315.811 104.755 315.659 104.754C315.456 104.753 315.263 104.672 315.12 104.529C314.977 104.386 314.896 104.193 314.895 103.99Z" fill="#E5E5E5"/>
<path d="M324.27 89.3145H330.541" stroke="#E5E5E5" stroke-linecap="round" stroke-linejoin="round"/>
<path d="M315.658 103.989L311.988 109.878" stroke="#E5E5E5" stroke-linecap="round" stroke-linejoin="round"/>
<path d="M307.115 89.1839L303.764 83.7637" stroke="#E5E5E5" stroke-linecap="round" stroke-linejoin="round"/>
<path d="M319.721 23.9848H325.417L328.265 19.053L325.417 14.1211H319.721L316.874 19.053L319.721 23.9848Z" stroke="#E5E5E5" stroke-linecap="round" stroke-linejoin="round"/>
<path d="M318.895 34.8108L316.047 29.8789H310.351" stroke="#E5E5E5" stroke-linecap="round" stroke-linejoin="round"/>
<path d="M311.115 19.0531H316.811L319.658 14.1213L316.811 9.18457H311.115L308.267 14.1213L311.115 19.0531Z" stroke="#E5E5E5" stroke-linecap="round" stroke-linejoin="round"/>
<path d="M319.721 14.1215H325.417L328.265 9.1848L325.417 4.25293H319.721L316.874 9.1848L319.721 14.1215Z" stroke="#E5E5E5" stroke-linecap="round" stroke-linejoin="round"/>
<path d="M319.658 14.8853C320.08 14.8853 320.422 14.5433 320.422 14.1214C320.422 13.6995 320.08 13.3574 319.658 13.3574C319.237 13.3574 318.895 13.6995 318.895 14.1214C318.895 14.5433 319.237 14.8853 319.658 14.8853Z" fill="#E5E5E5"/>
<path d="M307.764 4.52791C308.186 4.52791 308.528 4.18588 308.528 3.76396C308.528 3.34204 308.186 3 307.764 3C307.342 3 307 3.34204 307 3.76396C307 4.18588 307.342 4.52791 307.764 4.52791Z" fill="#E5E5E5"/>
<path d="M318.131 34.8108C318.131 34.6597 318.175 34.512 318.259 34.3864C318.343 34.2608 318.463 34.1629 318.602 34.105C318.742 34.0472 318.895 34.0321 319.044 34.0616C319.192 34.091 319.328 34.1638 319.435 34.2706C319.542 34.3775 319.614 34.5136 319.644 34.6618C319.673 34.81 319.658 34.9636 319.6 35.1032C319.543 35.2428 319.445 35.3621 319.319 35.446C319.193 35.53 319.046 35.5748 318.895 35.5748C318.794 35.5748 318.695 35.555 318.602 35.5166C318.51 35.4782 318.425 35.422 318.354 35.351C318.283 35.2801 318.227 35.1959 318.189 35.1032C318.15 35.0105 318.131 34.9112 318.131 34.8108Z" fill="#E5E5E5"/>
<path d="M310.351 30.6431C310.773 30.6431 311.115 30.3011 311.115 29.8792C311.115 29.4573 310.773 29.1152 310.351 29.1152C309.929 29.1152 309.587 29.4573 309.587 29.8792C309.587 30.3011 309.929 30.6431 310.351 30.6431Z" fill="#E5E5E5"/>
<path d="M315.989 30.6431C316.411 30.6431 316.753 30.3011 316.753 29.8792C316.753 29.4573 316.411 29.1152 315.989 29.1152C315.567 29.1152 315.225 29.4573 315.225 29.8792C315.225 30.3011 315.567 30.6431 315.989 30.6431Z" fill="#E5E5E5"/>
<path d="M327.501 9.32445C327.501 9.1724 327.546 9.02376 327.631 8.89733C327.715 8.77091 327.835 8.67237 327.976 8.61419C328.116 8.556 328.271 8.54077 328.42 8.57044C328.569 8.6001 328.706 8.67332 328.813 8.78084C328.921 8.88836 328.994 9.02534 329.024 9.17447C329.053 9.3236 329.038 9.47818 328.98 9.61865C328.922 9.75913 328.823 9.87921 328.697 9.96368C328.57 10.0482 328.422 10.0932 328.27 10.0932C328.066 10.0932 327.87 10.0122 327.726 9.86807C327.582 9.7239 327.501 9.52835 327.501 9.32445Z" fill="#E5E5E5"/>
<path d="M318.895 23.9904C318.894 23.8379 318.938 23.6886 319.022 23.5615C319.106 23.4343 319.226 23.335 319.367 23.2762C319.508 23.2175 319.663 23.2018 319.812 23.2313C319.962 23.2608 320.099 23.3342 320.207 23.442C320.315 23.5498 320.388 23.6872 320.418 23.8368C320.447 23.9864 320.431 24.1413 320.373 24.282C320.314 24.4227 320.215 24.5427 320.087 24.6268C319.96 24.7109 319.811 24.7553 319.659 24.7544C319.456 24.7531 319.263 24.6722 319.12 24.5292C318.977 24.3862 318.896 24.1926 318.895 23.9904Z" fill="#E5E5E5"/>
<path d="M328.27 9.31445H334.541" stroke="#E5E5E5" stroke-linecap="round" stroke-linejoin="round"/>
<path d="M319.658 23.9893L315.988 29.8785" stroke="#E5E5E5" stroke-linecap="round" stroke-linejoin="round"/>
<path d="M311.115 9.18389L307.764 3.76367" stroke="#E5E5E5" stroke-linecap="round" stroke-linejoin="round"/>
<path d="M259.721 40.9848H265.417L268.265 36.053L265.417 31.1211H259.721L256.874 36.053L259.721 40.9848Z" stroke="#E5E5E5" stroke-linecap="round" stroke-linejoin="round"/>
<path d="M258.895 51.8108L256.047 46.8789H250.351" stroke="#E5E5E5" stroke-linecap="round" stroke-linejoin="round"/>
<path d="M251.115 36.0531H256.811L259.658 31.1213L256.811 26.1846H251.115L248.267 31.1213L251.115 36.0531Z" stroke="#E5E5E5" stroke-linecap="round" stroke-linejoin="round"/>
<path d="M259.721 31.1215H265.417L268.265 26.1848L265.417 21.2529H259.721L256.874 26.1848L259.721 31.1215Z" stroke="#E5E5E5" stroke-linecap="round" stroke-linejoin="round"/>
<path d="M259.658 31.8853C260.08 31.8853 260.422 31.5433 260.422 31.1214C260.422 30.6995 260.08 30.3574 259.658 30.3574C259.237 30.3574 258.895 30.6995 258.895 31.1214C258.895 31.5433 259.237 31.8853 259.658 31.8853Z" fill="#E5E5E5"/>
<path d="M247.764 21.5279C248.186 21.5279 248.528 21.1859 248.528 20.764C248.528 20.342 248.186 20 247.764 20C247.342 20 247 20.342 247 20.764C247 21.1859 247.342 21.5279 247.764 21.5279Z" fill="#E5E5E5"/>
<path d="M258.131 51.8108C258.131 51.6597 258.175 51.512 258.259 51.3864C258.343 51.2608 258.463 51.1629 258.602 51.105C258.742 51.0472 258.895 51.0321 259.044 51.0616C259.192 51.091 259.328 51.1638 259.435 51.2706C259.542 51.3775 259.614 51.5136 259.644 51.6618C259.673 51.81 259.658 51.9636 259.6 52.1032C259.543 52.2428 259.445 52.3621 259.319 52.446C259.193 52.53 259.046 52.5748 258.895 52.5748C258.794 52.5748 258.695 52.555 258.602 52.5166C258.51 52.4782 258.425 52.422 258.354 52.351C258.283 52.2801 258.227 52.1959 258.189 52.1032C258.15 52.0105 258.131 51.9112 258.131 51.8108Z" fill="#E5E5E5"/>
<path d="M250.351 47.6431C250.773 47.6431 251.115 47.3011 251.115 46.8792C251.115 46.4573 250.773 46.1152 250.351 46.1152C249.929 46.1152 249.587 46.4573 249.587 46.8792C249.587 47.3011 249.929 47.6431 250.351 47.6431Z" fill="#E5E5E5"/>
<path d="M273.777 26.3244C273.777 26.1722 273.822 26.0234 273.907 25.8968C273.991 25.7703 274.112 25.6718 274.253 25.6137C274.393 25.5557 274.548 25.5407 274.697 25.5708C274.847 25.6009 274.984 25.6746 275.091 25.7826C275.198 25.8906 275.271 26.028 275.3 26.1774C275.329 26.3269 275.313 26.4816 275.255 26.622C275.196 26.7624 275.096 26.8821 274.969 26.966C274.842 27.0499 274.693 27.0942 274.541 27.0932C274.44 27.0932 274.34 27.0733 274.247 27.0346C274.154 26.9959 274.07 26.9392 273.999 26.8678C273.928 26.7963 273.872 26.7115 273.834 26.6183C273.796 26.525 273.776 26.4252 273.777 26.3244Z" fill="#E5E5E5"/>
<path d="M255.989 47.6431C256.411 47.6431 256.753 47.3011 256.753 46.8792C256.753 46.4573 256.411 46.1152 255.989 46.1152C255.567 46.1152 255.225 46.4573 255.225 46.8792C255.225 47.3011 255.567 47.6431 255.989 47.6431Z" fill="#E5E5E5"/>
<path d="M267.501 26.3245C267.501 26.1724 267.546 26.0238 267.631 25.8973C267.715 25.7709 267.835 25.6724 267.976 25.6142C268.116 25.556 268.271 25.5408 268.42 25.5704C268.569 25.6001 268.706 25.6733 268.813 25.7808C268.921 25.8884 268.994 26.0253 269.024 26.1745C269.053 26.3236 269.038 26.4782 268.98 26.6187C268.922 26.7591 268.823 26.8792 268.697 26.9637C268.57 27.0482 268.422 27.0932 268.27 27.0932C268.066 27.0932 267.87 27.0122 267.726 26.8681C267.582 26.7239 267.501 26.5284 267.501 26.3245Z" fill="#E5E5E5"/>
<path d="M258.895 40.9904C258.894 40.8379 258.938 40.6886 259.022 40.5615C259.106 40.4343 259.226 40.335 259.367 40.2762C259.508 40.2175 259.663 40.2018 259.812 40.2313C259.962 40.2608 260.099 40.3342 260.207 40.442C260.315 40.5498 260.388 40.6872 260.418 40.8368C260.447 40.9864 260.431 41.1413 260.373 41.282C260.314 41.4227 260.215 41.5427 260.087 41.6268C259.96 41.7109 259.811 41.7553 259.659 41.7544C259.456 41.7531 259.263 41.6722 259.12 41.5292C258.977 41.3862 258.896 41.1926 258.895 40.9904Z" fill="#E5E5E5"/>
<path d="M268.27 26.3145H274.541" stroke="#E5E5E5" stroke-linecap="round" stroke-linejoin="round"/>
<path d="M259.658 40.9893L255.988 46.8785" stroke="#E5E5E5" stroke-linecap="round" stroke-linejoin="round"/>
<path d="M251.115 26.1839L247.764 20.7637" stroke="#E5E5E5" stroke-linecap="round" stroke-linejoin="round"/>
<path d="M234.721 60.9848H240.417L243.265 56.053L240.417 51.1211H234.721L231.874 56.053L234.721 60.9848Z" stroke="#E5E5E5" stroke-linecap="round" stroke-linejoin="round"/>
<path d="M233.895 71.8108L231.047 66.8789H225.351" stroke="#E5E5E5" stroke-linecap="round" stroke-linejoin="round"/>
<path d="M226.115 56.0531H231.811L234.658 51.1213L231.811 46.1846H226.115L223.267 51.1213L226.115 56.0531Z" stroke="#E5E5E5" stroke-linecap="round" stroke-linejoin="round"/>
<path d="M234.721 51.1215H240.417L243.265 46.1848L240.417 41.2529H234.721L231.874 46.1848L234.721 51.1215Z" stroke="#E5E5E5" stroke-linecap="round" stroke-linejoin="round"/>
<path d="M234.658 51.8853C235.08 51.8853 235.422 51.5433 235.422 51.1214C235.422 50.6995 235.08 50.3574 234.658 50.3574C234.237 50.3574 233.895 50.6995 233.895 51.1214C233.895 51.5433 234.237 51.8853 234.658 51.8853Z" fill="#E5E5E5"/>
<path d="M222.764 41.5279C223.186 41.5279 223.528 41.1859 223.528 40.764C223.528 40.342 223.186 40 222.764 40C222.342 40 222 40.342 222 40.764C222 41.1859 222.342 41.5279 222.764 41.5279Z" fill="#E5E5E5"/>
<path d="M233.131 71.8108C233.131 71.6597 233.175 71.512 233.259 71.3864C233.343 71.2608 233.463 71.1629 233.602 71.105C233.742 71.0472 233.895 71.0321 234.044 71.0616C234.192 71.091 234.328 71.1638 234.435 71.2706C234.542 71.3775 234.614 71.5136 234.644 71.6618C234.673 71.81 234.658 71.9636 234.6 72.1032C234.543 72.2428 234.445 72.3621 234.319 72.446C234.193 72.53 234.046 72.5748 233.895 72.5748C233.794 72.5748 233.695 72.555 233.602 72.5166C233.51 72.4782 233.425 72.422 233.354 72.351C233.283 72.2801 233.227 72.1959 233.189 72.1032C233.15 72.0105 233.131 71.9112 233.131 71.8108Z" fill="#E5E5E5"/>
<path d="M225.351 67.6431C225.773 67.6431 226.115 67.3011 226.115 66.8792C226.115 66.4573 225.773 66.1152 225.351 66.1152C224.929 66.1152 224.587 66.4573 224.587 66.8792C224.587 67.3011 224.929 67.6431 225.351 67.6431Z" fill="#E5E5E5"/>
<path d="M248.777 46.3244C248.777 46.1722 248.822 46.0234 248.907 45.8968C248.991 45.7703 249.112 45.6718 249.253 45.6137C249.393 45.5557 249.548 45.5407 249.697 45.5708C249.847 45.6009 249.984 45.6746 250.091 45.7826C250.198 45.8906 250.271 46.028 250.3 46.1774C250.329 46.3269 250.313 46.4816 250.255 46.622C250.196 46.7624 250.096 46.8821 249.969 46.966C249.842 47.0499 249.693 47.0942 249.541 47.0932C249.44 47.0932 249.34 47.0733 249.247 47.0346C249.154 46.9959 249.07 46.9392 248.999 46.8678C248.928 46.7963 248.872 46.7115 248.834 46.6183C248.796 46.525 248.776 46.4252 248.777 46.3244Z" fill="#E5E5E5"/>
<path d="M230.989 67.6431C231.411 67.6431 231.753 67.3011 231.753 66.8792C231.753 66.4573 231.411 66.1152 230.989 66.1152C230.567 66.1152 230.225 66.4573 230.225 66.8792C230.225 67.3011 230.567 67.6431 230.989 67.6431Z" fill="#E5E5E5"/>
<path d="M242.501 46.3245C242.501 46.1724 242.546 46.0238 242.631 45.8973C242.715 45.7709 242.835 45.6724 242.976 45.6142C243.116 45.556 243.271 45.5408 243.42 45.5704C243.569 45.6001 243.706 45.6733 243.813 45.7808C243.921 45.8884 243.994 46.0253 244.024 46.1745C244.053 46.3236 244.038 46.4782 243.98 46.6187C243.922 46.7591 243.823 46.8792 243.697 46.9637C243.57 47.0482 243.422 47.0932 243.27 47.0932C243.066 47.0932 242.87 47.0122 242.726 46.8681C242.582 46.7239 242.501 46.5284 242.501 46.3245Z" fill="#E5E5E5"/>
<path d="M233.895 60.9904C233.894 60.8379 233.938 60.6886 234.022 60.5615C234.106 60.4343 234.226 60.335 234.367 60.2762C234.508 60.2175 234.663 60.2018 234.812 60.2313C234.962 60.2608 235.099 60.3342 235.207 60.442C235.315 60.5498 235.388 60.6872 235.418 60.8368C235.447 60.9864 235.431 61.1413 235.373 61.282C235.314 61.4227 235.215 61.5427 235.087 61.6268C234.96 61.7109 234.811 61.7553 234.659 61.7544C234.456 61.7531 234.263 61.6722 234.12 61.5292C233.977 61.3862 233.896 61.1926 233.895 60.9904Z" fill="#E5E5E5"/>
<path d="M243.27 46.3145H249.541" stroke="#E5E5E5" stroke-linecap="round" stroke-linejoin="round"/>
<path d="M234.658 60.9893L230.988 66.8785" stroke="#E5E5E5" stroke-linecap="round" stroke-linejoin="round"/>
<path d="M226.115 46.1839L222.764 40.7637" stroke="#E5E5E5" stroke-linecap="round" stroke-linejoin="round"/>
</g>
<defs>
<clipPath id="clip0_2638_811">
<rect width="330" height="108" rx="10" fill="white"/>
</clipPath>
</defs>
</svg>
