<svg width="330" height="108" viewBox="0 0 330 108" fill="none" xmlns="http://www.w3.org/2000/svg">
<g clip-path="url(#clip0_2638_913)">
<rect width="330" height="108" rx="10" fill="#2F55DD"/>
<path d="M170.966 49L165 67.5365L183.567 65.0305L170.966 49Z" stroke="#D2D2D2" stroke-linecap="round" stroke-linejoin="round"/>
<path d="M170.966 49L174.283 66.177" stroke="#D2D2D2" stroke-linecap="round" stroke-linejoin="round"/>
<path d="M-4.81583 34L-14 62.5365L14.5833 58.6785L-4.81583 34Z" stroke="#D2D2D2" stroke-linecap="round" stroke-linejoin="round"/>
<path d="M-4.81677 34L0.290731 60.4435" stroke="#D2D2D2" stroke-linecap="round" stroke-linejoin="round"/>
<path d="M222.328 -8L217 8.55618L233.583 6.31788L222.328 -8Z" stroke="#D2D2D2" stroke-linecap="round" stroke-linejoin="round"/>
<path d="M222.328 -8L225.291 7.34188" stroke="#D2D2D2" stroke-linecap="round" stroke-linejoin="round"/>
<path d="M302.966 15L297 33.5365L315.567 31.0305L302.966 15Z" stroke="#D2D2D2" stroke-linecap="round" stroke-linejoin="round"/>
<path d="M302.966 15L306.283 32.177" stroke="#D2D2D2" stroke-linecap="round" stroke-linejoin="round"/>
<path d="M252.966 89L247 107.537L265.567 105.03L252.966 89Z" stroke="#D2D2D2" stroke-linecap="round" stroke-linejoin="round"/>
<path d="M252.966 89L256.283 106.177" stroke="#D2D2D2" stroke-linecap="round" stroke-linejoin="round"/>
</g>
<defs>
<clipPath id="clip0_2638_913">
<rect width="330" height="108" rx="10" fill="white"/>
</clipPath>
</defs>
</svg>
