<svg width="330" height="108" viewBox="0 0 330 108" fill="none" xmlns="http://www.w3.org/2000/svg">
<g clip-path="url(#clip0_2638_1085)">
<rect width="330" height="108" rx="10" fill="#FC9338"/>
<path d="M-22 39.5537L-3.75385 27L20.4048 28.6913L21.9173 59.3261L4.17984 72.0035L-17.71 70.4085L-22 39.5537Z" stroke="#C3C3C3" stroke-linecap="round" stroke-linejoin="round"/>
<path d="M-17.71 70.4081L-0.0413036 57.6895L21.9173 59.3257" stroke="#C3C3C3" stroke-linecap="round" stroke-linejoin="round"/>
<path d="M-0.0408207 57.6898L-3.7533 27" stroke="#C3C3C3" stroke-linecap="round" stroke-linejoin="round"/>
<path d="M-22 39.5538L2.10361 42.3451L20.4048 28.6914" stroke="#C3C3C3" stroke-linecap="round" stroke-linejoin="round"/>
<path d="M2.10413 42.3457L4.18036 72.0043" stroke="#C3C3C3" stroke-linecap="round" stroke-linejoin="round"/>
<path d="M133 -10.4463L151.246 -23L175.405 -21.3087L176.917 9.32608L159.18 22.0035L137.29 20.4085L133 -10.4463Z" stroke="#C3C3C3" stroke-linecap="round" stroke-linejoin="round"/>
<path d="M137.29 20.4081L154.959 7.68945L176.917 9.3257" stroke="#C3C3C3" stroke-linecap="round" stroke-linejoin="round"/>
<path d="M154.959 7.68984L151.247 -23" stroke="#C3C3C3" stroke-linecap="round" stroke-linejoin="round"/>
<path d="M157.104 -7.6543L159.18 22.0043" stroke="#C3C3C3" stroke-linecap="round" stroke-linejoin="round"/>
<path d="M296 12.5537L314.246 0L338.405 1.69126L339.917 32.3261L322.18 45.0035L300.29 43.4085L296 12.5537Z" stroke="#C3C3C3" stroke-linecap="round" stroke-linejoin="round"/>
<path d="M300.29 43.4081L317.959 30.6895L339.917 32.3257" stroke="#C3C3C3" stroke-linecap="round" stroke-linejoin="round"/>
<path d="M317.959 30.6898L314.247 0" stroke="#C3C3C3" stroke-linecap="round" stroke-linejoin="round"/>
<path d="M296 12.5538L320.104 15.3451L338.405 1.69141" stroke="#C3C3C3" stroke-linecap="round" stroke-linejoin="round"/>
<path d="M320.104 15.3457L322.18 45.0043" stroke="#C3C3C3" stroke-linecap="round" stroke-linejoin="round"/>
<path d="M153.257 118.772L162.818 98.7948L184.606 88.2203L201.185 114.025L192.126 133.856L172.354 143.383L153.257 118.772Z" stroke="#C3C3C3" stroke-linecap="round" stroke-linejoin="round"/>
<path d="M181.334 123.55L162.82 98.7939" stroke="#C3C3C3" stroke-linecap="round" stroke-linejoin="round"/>
<path d="M153.258 118.773L175.545 109.179L184.606 88.2209" stroke="#C3C3C3" stroke-linecap="round" stroke-linejoin="round"/>
<path d="M175.546 109.181L192.128 133.858" stroke="#C3C3C3" stroke-linecap="round" stroke-linejoin="round"/>
</g>
<defs>
<clipPath id="clip0_2638_1085">
<rect width="330" height="108" rx="10" fill="white"/>
</clipPath>
</defs>
</svg>
