<svg width="330" height="108" viewBox="0 0 330 108" fill="none" xmlns="http://www.w3.org/2000/svg">
<g clip-path="url(#clip0_2638_960)">
<rect width="330" height="108" rx="10" fill="#FC9338"/>
<path d="M140.594 90.7905C141.568 94.6517 141.089 87.5481 142.995 78.8686C144.901 70.1891 148.176 73.7038 148.176 73.7038" stroke="#BCBCBC" stroke-linecap="round" stroke-linejoin="round"/>
<path d="M140 81.9211L145.982 79.4707" stroke="#BCBCBC" stroke-linecap="round" stroke-linejoin="round"/>
<path d="M150.924 76.5254C150.924 76.5254 147.351 83.9508 152.739 87.0695" stroke="#BCBCBC" stroke-linecap="round" stroke-linejoin="round"/>
<path d="M155.998 74.4463C155.998 74.4463 161.905 77.7465 158.209 84.8254" stroke="#BCBCBC" stroke-linecap="round" stroke-linejoin="round"/>
<path d="M151.955 79.0332L156.188 82.1189" stroke="#BCBCBC" stroke-linecap="round" stroke-linejoin="round"/>
<path d="M155.272 77.6719L151.963 82.9439" stroke="#BCBCBC" stroke-linecap="round" stroke-linejoin="round"/>
<path d="M254.594 14.7905C255.568 18.6517 255.089 11.5481 256.995 2.86858C258.901 -5.81092 262.176 -2.29623 262.176 -2.29623" stroke="#BCBCBC" stroke-linecap="round" stroke-linejoin="round"/>
<path d="M254 5.9211L259.982 3.4707" stroke="#BCBCBC" stroke-linecap="round" stroke-linejoin="round"/>
<path d="M264.924 0.525391C264.924 0.525391 261.351 7.95082 266.739 11.0695" stroke="#BCBCBC" stroke-linecap="round" stroke-linejoin="round"/>
<path d="M269.998 -1.55371C269.998 -1.55371 275.905 1.74648 272.209 8.82539" stroke="#BCBCBC" stroke-linecap="round" stroke-linejoin="round"/>
<path d="M265.955 3.0332L270.188 6.11889" stroke="#BCBCBC" stroke-linecap="round" stroke-linejoin="round"/>
<path d="M269.272 1.67188L265.963 6.94393" stroke="#BCBCBC" stroke-linecap="round" stroke-linejoin="round"/>
<path d="M286.594 71.7905C287.568 75.6517 287.089 68.5481 288.995 59.8686C290.901 51.1891 294.176 54.7038 294.176 54.7038" stroke="#BCBCBC" stroke-linecap="round" stroke-linejoin="round"/>
<path d="M286 62.9211L291.982 60.4707" stroke="#BCBCBC" stroke-linecap="round" stroke-linejoin="round"/>
<path d="M296.924 57.5254C296.924 57.5254 293.351 64.9508 298.739 68.0695" stroke="#BCBCBC" stroke-linecap="round" stroke-linejoin="round"/>
<path d="M301.998 55.4463C301.998 55.4463 307.905 58.7465 304.209 65.8254" stroke="#BCBCBC" stroke-linecap="round" stroke-linejoin="round"/>
<path d="M297.955 60.0332L302.188 63.1189" stroke="#BCBCBC" stroke-linecap="round" stroke-linejoin="round"/>
<path d="M301.272 58.6719L297.963 63.9439" stroke="#BCBCBC" stroke-linecap="round" stroke-linejoin="round"/>
<path d="M-6.40576 52.7905C-5.43221 56.6517 -5.91073 49.5481 -4.00487 40.8686C-2.09901 32.1891 1.17643 35.7038 1.17643 35.7038" stroke="#BCBCBC" stroke-linecap="round" stroke-linejoin="round"/>
<path d="M3.92384 38.5254C3.92384 38.5254 0.351385 45.9508 5.73895 49.0695" stroke="#BCBCBC" stroke-linecap="round" stroke-linejoin="round"/>
<path d="M8.99756 36.4463C8.99756 36.4463 14.9049 39.7465 11.2087 46.8254" stroke="#BCBCBC" stroke-linecap="round" stroke-linejoin="round"/>
<path d="M4.95508 41.0332L9.18757 44.1189" stroke="#BCBCBC" stroke-linecap="round" stroke-linejoin="round"/>
<path d="M8.27182 39.6719L4.96338 44.9439" stroke="#BCBCBC" stroke-linecap="round" stroke-linejoin="round"/>
<path d="M273.594 114.791C274.568 118.652 274.089 111.548 275.995 102.869C277.901 94.1891 281.176 97.7038 281.176 97.7038" stroke="#BCBCBC" stroke-linecap="round" stroke-linejoin="round"/>
<path d="M273 105.921L278.982 103.471" stroke="#BCBCBC" stroke-linecap="round" stroke-linejoin="round"/>
<path d="M283.924 100.525C283.924 100.525 280.351 107.951 285.739 111.07" stroke="#BCBCBC" stroke-linecap="round" stroke-linejoin="round"/>
<path d="M288.998 98.4463C288.998 98.4463 294.905 101.746 291.209 108.825" stroke="#BCBCBC" stroke-linecap="round" stroke-linejoin="round"/>
<path d="M284.955 103.033L289.188 106.119" stroke="#BCBCBC" stroke-linecap="round" stroke-linejoin="round"/>
<path d="M288.272 101.672L284.963 106.944" stroke="#BCBCBC" stroke-linecap="round" stroke-linejoin="round"/>
<path d="M196 87.0225L203.541 90.7269" stroke="#EBEBEB" stroke-linecap="round" stroke-linejoin="round"/>
<path d="M201.107 84.1924L198.945 92.0716" stroke="#EBEBEB" stroke-linecap="round" stroke-linejoin="round"/>
<path d="M202.155 80.3477C202.278 80.2196 202.43 80.1223 202.599 80.0636C202.767 80.005 202.946 79.9865 203.123 80.0098C203.299 80.033 203.468 80.0974 203.615 80.1976C203.762 80.2979 203.884 80.4312 203.97 80.587C204.729 81.775 203.244 84.2667 203.244 84.2667L206.272 83.1116" stroke="#EBEBEB" stroke-linecap="round" stroke-linejoin="round"/>
<path d="M259 42.0225L266.541 45.7269" stroke="#EBEBEB" stroke-linecap="round" stroke-linejoin="round"/>
<path d="M264.107 39.1924L261.945 47.0716" stroke="#EBEBEB" stroke-linecap="round" stroke-linejoin="round"/>
<path d="M265.155 35.3477C265.278 35.2196 265.43 35.1223 265.599 35.0636C265.767 35.005 265.946 34.9865 266.123 35.0098C266.299 35.033 266.468 35.0974 266.615 35.1976C266.762 35.2979 266.884 35.4312 266.97 35.587C267.729 36.775 266.244 39.2667 266.244 39.2667L269.272 38.1116" stroke="#EBEBEB" stroke-linecap="round" stroke-linejoin="round"/>
<path d="M130 42.0225L137.541 45.7269" stroke="#EBEBEB" stroke-linecap="round" stroke-linejoin="round"/>
<path d="M135.107 39.1924L132.945 47.0716" stroke="#EBEBEB" stroke-linecap="round" stroke-linejoin="round"/>
<path d="M136.155 35.3477C136.278 35.2196 136.43 35.1223 136.599 35.0636C136.767 35.005 136.946 34.9865 137.123 35.0098C137.299 35.033 137.468 35.0974 137.615 35.1976C137.762 35.2979 137.884 35.4312 137.97 35.587C138.729 36.775 137.244 39.2667 137.244 39.2667L140.272 38.1116" stroke="#EBEBEB" stroke-linecap="round" stroke-linejoin="round"/>
<path d="M303 13.0225L310.541 16.7269" stroke="#EBEBEB" stroke-linecap="round" stroke-linejoin="round"/>
<path d="M308.107 10.1924L305.945 18.0716" stroke="#EBEBEB" stroke-linecap="round" stroke-linejoin="round"/>
<path d="M309.155 6.34771C309.278 6.21963 309.43 6.12234 309.599 6.06365C309.767 6.00495 309.946 5.9865 310.123 6.00976C310.299 6.03303 310.468 6.09738 310.615 6.19762C310.762 6.29787 310.884 6.43123 310.97 6.58698C311.729 7.77505 310.244 10.2667 310.244 10.2667L313.272 9.11162" stroke="#EBEBEB" stroke-linecap="round" stroke-linejoin="round"/>
</g>
<defs>
<clipPath id="clip0_2638_960">
<rect width="330" height="108" rx="10" fill="white"/>
</clipPath>
</defs>
</svg>
