<svg width="360" height="800" viewBox="0 0 360 800" fill="none" xmlns="http://www.w3.org/2000/svg">
<g clip-path="url(#clip0_2638_632)">
<rect width="360" height="800" fill="#2997CC"/>
<path d="M308.77 133.563H290.563V109.607H269V93.2402H290.563V70H308.77V93.3425H330.476V109.709H308.77V133.563ZM292.608 131.517H306.724V107.561H328.43V95.286H306.724V72.0458H292.608V95.3883H271.046V107.663H292.608V131.517Z" fill="#5AB1DB"/>
<path d="M391.092 109.014H341.707V92.1357H391.194L391.092 109.014ZM343.65 106.968H389.046V94.1815H343.752L343.65 106.968Z" fill="#5AB1DB"/>
<path d="M380.312 204.225L366.258 190.252L352.285 204.225L338.148 190.089L352.121 176.116L338.148 162.143L352.285 148.007L366.258 161.98L380.23 148.007L394.367 162.143L380.578 176.116L394.551 190.089L380.312 204.225ZM341.135 190.089L352.367 201.32L366.339 187.347L380.312 201.32L391.564 190.089L377.591 176.116L391.564 162.143L380.312 150.891L366.258 164.864L352.367 150.85L341.135 162.102L355.108 176.075L341.135 190.089Z" fill="#5AB1DB"/>
<path d="M323.89 186.469H274.381V169.612H323.89V186.469ZM276.427 184.423H321.844V171.658H276.427V184.423Z" fill="#5AB1DB"/>
<path d="M298.972 168.811C296.992 168.811 295.057 168.223 293.412 167.123C291.766 166.023 290.484 164.459 289.727 162.63C288.971 160.801 288.774 158.789 289.162 156.847C289.549 154.906 290.504 153.124 291.905 151.726C293.306 150.327 295.091 149.376 297.033 148.992C298.974 148.609 300.987 148.81 302.814 149.57C304.642 150.33 306.203 151.616 307.3 153.264C308.396 154.912 308.98 156.848 308.976 158.827C308.97 161.477 307.914 164.016 306.038 165.888C304.163 167.759 301.621 168.811 298.972 168.811ZM298.972 150.869C297.398 150.869 295.859 151.336 294.55 152.21C293.242 153.085 292.222 154.328 291.619 155.782C291.017 157.236 290.859 158.836 291.166 160.38C291.474 161.923 292.231 163.341 293.344 164.454C294.457 165.567 295.875 166.325 297.419 166.632C298.963 166.939 300.563 166.782 302.017 166.179C303.471 165.577 304.714 164.557 305.589 163.248C306.463 161.94 306.93 160.401 306.93 158.827C306.933 157.78 306.729 156.743 306.33 155.775C305.931 154.808 305.345 153.928 304.606 153.187C303.867 152.446 302.989 151.857 302.022 151.456C301.055 151.055 300.018 150.849 298.972 150.849V150.869Z" fill="#5AB1DB"/>
<path d="M298.97 207.845C296.995 207.841 295.065 207.251 293.425 206.15C291.785 205.049 290.509 203.486 289.757 201.659C289.006 199.832 288.814 197.823 289.205 195.887C289.596 193.95 290.552 192.173 291.953 190.781C293.354 189.388 295.137 188.443 297.076 188.064C299.015 187.685 301.022 187.89 302.844 188.652C304.667 189.415 306.222 190.701 307.313 192.347C308.404 193.994 308.982 195.927 308.974 197.903C308.958 200.545 307.897 203.074 306.023 204.937C304.148 206.8 301.613 207.845 298.97 207.845ZM298.97 189.924C297.403 189.928 295.872 190.396 294.57 191.269C293.268 192.142 292.254 193.381 291.655 194.829C291.057 196.277 290.9 197.871 291.205 199.408C291.51 200.945 292.264 202.358 293.371 203.467C294.478 204.577 295.888 205.334 297.425 205.644C298.961 205.953 300.555 205.8 302.005 205.205C303.455 204.61 304.696 203.599 305.572 202.299C306.448 201 306.92 199.47 306.928 197.903C306.934 196.855 306.732 195.817 306.334 194.848C305.936 193.879 305.351 192.998 304.611 192.256C303.871 191.515 302.992 190.927 302.024 190.526C301.056 190.126 300.018 189.921 298.97 189.924Z" fill="#5AB1DB"/>
</g>
<defs>
<clipPath id="clip0_2638_632">
<rect width="360" height="800" fill="white"/>
</clipPath>
</defs>
</svg>
