<svg width="330" height="108" viewBox="0 0 330 108" fill="none" xmlns="http://www.w3.org/2000/svg">
<g clip-path="url(#clip0_2148_1414)">
<rect width="330" height="108" rx="10" fill="#8F8F8F"/>
<g filter="url(#filter0_d_2148_1414)">
<path d="M243.927 93.415L248.862 125.849H277.537L284.191 93.8817L243.927 93.415Z" fill="#FF725E"/>
<path d="M271.982 29.4161C271.973 29.4702 271.96 29.5236 271.944 29.5759L271.81 30.0298L271.266 31.7812C271.017 32.5419 270.729 33.4687 270.422 34.5554C270.116 35.6421 269.732 36.8758 269.387 38.2565C269.042 39.6372 268.633 41.1393 268.275 42.7693C267.917 44.3993 267.54 46.1508 267.169 47.9981C266.478 51.6928 265.852 55.7838 265.411 60.0985C264.97 64.4132 264.772 68.5553 264.772 72.3139C264.772 74.1932 264.772 75.983 264.823 77.6513C264.874 79.3197 264.938 80.8794 265.027 82.2984C265.117 83.7175 265.219 85.0023 265.309 86.1337C265.398 87.2651 265.494 88.2303 265.584 89.023C265.673 89.8156 265.731 90.4037 265.775 90.8447C265.775 91.0365 265.788 91.1963 265.814 91.3241C265.814 91.4264 265.814 91.4839 265.814 91.4839C265.793 91.433 265.78 91.3791 265.775 91.3241C265.775 91.2027 265.731 91.0429 265.699 90.8575C265.639 90.4101 265.556 89.8028 265.449 89.0358C265.341 88.2495 265.213 87.2843 265.117 86.1529C265.021 85.0215 264.861 83.7494 264.785 82.3176C264.708 80.8858 264.58 79.3389 264.535 77.6641C264.49 75.9894 264.465 74.1932 264.452 72.3075C264.497 68.5425 264.682 64.394 265.091 60.0665C265.5 55.739 266.178 51.6416 266.881 47.9214C267.265 46.0805 267.61 44.3226 268.019 42.6926C268.428 41.0626 268.799 39.5541 269.176 38.1798C269.553 36.8055 269.937 35.5718 270.263 34.4915C270.589 33.4112 270.902 32.478 271.158 31.7301L271.797 29.9978C271.867 29.8188 271.918 29.6718 271.963 29.5504C272.008 29.4289 271.982 29.4097 271.982 29.4161Z" fill="#2997CC"/>
<path d="M266.793 49.4943C267.587 47.1571 269.168 45.1686 271.267 43.8692C271.977 43.4281 272.878 43.0702 273.626 43.4345C274.629 43.9203 274.706 45.3521 274.412 46.3941C273.897 48.2112 272.744 49.7817 271.165 50.8174C269.767 51.8542 268.016 52.2954 266.294 52.0448" fill="#2997CC"/>
<path d="M265.048 63.0582C265.789 60.2584 268.026 56.2825 270.34 54.5438C270.698 54.2544 271.108 54.0373 271.548 53.9046C271.768 53.8426 272 53.8359 272.223 53.8849C272.446 53.934 272.653 54.0374 272.827 54.1859C273.026 54.4463 273.156 54.7523 273.206 55.0761C273.257 55.3999 273.225 55.7312 273.114 56.0396C272.639 58.0822 271.605 59.9523 270.127 61.4402C268.649 62.9282 266.786 63.9754 264.747 64.4645" fill="#2997CC"/>
<path d="M264.567 74.9983C265.721 72.3244 267.565 70.0057 269.911 68.2802C270.164 68.0561 270.458 67.8842 270.777 67.7745C271.097 67.6648 271.434 67.6194 271.771 67.6409C272.788 67.8263 273.248 69.06 273.158 70.0891C272.973 72.1985 271.356 73.8925 269.694 75.2029C268.165 76.2666 266.504 77.1262 264.753 77.7597" fill="#2997CC"/>
<path d="M264.836 83.5769C265.952 81.5401 267.504 79.7744 269.381 78.4057C269.779 78.09 270.245 77.8711 270.742 77.7664C270.991 77.7225 271.248 77.7468 271.484 77.8368C271.72 77.9269 271.928 78.0793 272.085 78.2778C272.538 78.917 272.085 79.8503 271.618 80.4959C270.014 82.729 267.742 84.3945 265.13 85.2517" fill="#2997CC"/>
<path d="M264.611 80.0935C262.654 77.6915 260.48 75.4747 258.117 73.4712C257.746 73.158 257.28 72.832 256.839 72.9854C256.666 73.0579 256.519 73.1784 256.413 73.3326C256.308 73.4867 256.249 73.6681 256.244 73.8548C256.244 74.2312 256.329 74.6028 256.493 74.9414C257.27 76.6661 258.424 78.1937 259.872 79.411C261.319 80.6283 263.022 81.5039 264.854 81.9728" fill="#2997CC"/>
<path d="M264.823 68.9259L259.709 62.7C259.259 62.0785 258.698 61.5455 258.054 61.1275C257.74 60.8949 257.361 60.7673 256.971 60.7628C256.58 60.7583 256.198 60.8772 255.88 61.1025C255.561 61.3279 255.321 61.6481 255.195 62.0176C255.069 62.3871 255.063 62.787 255.177 63.1602C255.365 63.9037 255.704 64.6002 256.174 65.2057C257.17 66.7331 258.43 68.0708 259.895 69.1561C261.39 70.1852 262.752 70.8564 264.555 70.5879" fill="#2997CC"/>
<path d="M265.532 56.353C264.539 53.3766 262.774 50.7167 260.419 48.644C260.05 48.2696 259.589 47.9985 259.083 47.8578C258.06 47.666 257.069 48.497 256.743 49.507C256.579 50.0707 256.536 50.6627 256.616 51.2443C256.697 51.8258 256.899 52.3839 257.21 52.882C257.829 53.8864 258.645 54.7559 259.607 55.4389C261.326 56.7535 263.242 57.789 265.283 58.5071" fill="#2997CC"/>
<path d="M267.571 45.1406C267.073 41.5354 265.2 38.5311 263.02 35.6163C262.566 34.9771 261.927 34.3378 261.166 34.4593C260.927 34.5115 260.704 34.6223 260.518 34.7818C260.331 34.9414 260.187 35.1446 260.099 35.3734C259.931 35.8353 259.863 36.3278 259.901 36.818C259.994 39.0039 260.73 41.1138 262.015 42.884C263.301 44.6541 265.08 46.006 267.13 46.7706" fill="#2997CC"/>
<path d="M268.997 39.4203C268.759 37.5701 268.697 35.7017 268.811 33.8399C268.929 31.968 269.571 30.167 270.665 28.6431C271.131 27.9858 271.774 27.4739 272.519 27.1665C272.891 27.018 273.295 26.9676 273.692 27.0202C274.09 27.0728 274.467 27.2267 274.788 27.4669C275.06 27.7214 275.272 28.034 275.407 28.3815C275.542 28.729 275.597 29.1024 275.568 29.4741C275.507 30.2147 275.312 30.9382 274.992 31.6091C273.631 34.8818 271.368 38.4998 268.997 39.4203Z" fill="#2997CC"/>
<path d="M246.765 43.7158C246.78 43.8689 246.78 44.023 246.765 44.1761C246.765 44.5084 246.765 44.9346 246.765 45.4545C246.765 46.0234 246.765 46.7329 246.765 47.5256C246.765 48.3182 246.765 49.2514 246.861 50.2678C246.951 52.2941 247.149 54.7039 247.456 57.3695C247.762 60.035 248.331 62.9818 248.971 66.0117C249.61 69.0415 250.345 71.9308 251.112 74.4877C251.879 77.0445 252.691 79.3393 253.426 81.2314C253.771 82.1902 254.135 83.034 254.436 83.7882C254.736 84.5425 255.005 85.1753 255.235 85.7059C255.465 86.2364 255.618 86.6008 255.746 86.9076C255.815 87.044 255.869 87.1877 255.906 87.3359C255.823 87.2076 255.751 87.0729 255.689 86.9332C255.542 86.6392 255.35 86.2428 255.12 85.757C254.89 85.2712 254.576 84.6128 254.263 83.8394C253.95 83.0659 253.567 82.2605 253.202 81.2825C252.442 79.3649 251.623 77.1084 250.818 74.5388C250.012 71.9691 249.258 69.1055 248.613 66.0628C247.967 63.0201 247.539 60.0861 247.226 57.4142C246.912 54.7423 246.759 52.3005 246.701 50.2806C246.65 49.2642 246.663 48.3629 246.65 47.5383C246.637 46.7137 246.65 46.0298 246.65 45.4609C246.65 44.892 246.689 44.4829 246.701 44.1505C246.708 44.0038 246.729 43.8581 246.765 43.7158Z" fill="#0D77AD"/>
<path d="M247.564 58.5077C247.597 56.7487 248.241 55.0559 249.386 53.72C249.552 53.4727 249.775 53.2694 250.037 53.128C250.298 52.9865 250.591 52.9111 250.888 52.9082C251.675 53.0233 252.033 53.9629 252.058 54.7555C252.095 56.1053 251.64 57.4225 250.78 58.463C250.054 59.4709 248.957 60.1492 247.731 60.3487" fill="#0D77AD"/>
<path d="M249.297 68.0954C249.201 66.0307 249.866 62.841 251.068 61.1663C251.245 60.8891 251.478 60.6518 251.752 60.4695C251.888 60.3793 252.045 60.3239 252.207 60.3083C252.37 60.2927 252.534 60.3173 252.685 60.38C252.877 60.5147 253.033 60.6951 253.137 60.9049C253.242 61.1147 253.293 61.3473 253.286 61.5818C253.403 63.0751 253.101 64.5715 252.415 65.9028C251.728 67.2341 250.684 68.3476 249.399 69.1181" fill="#0D77AD"/>
<path d="M251.527 76.3416C251.746 74.2835 252.507 72.3204 253.733 70.6526C253.852 70.4416 254.014 70.2573 254.207 70.1111C254.401 69.9649 254.622 69.8599 254.858 69.8024C255.586 69.7065 256.136 70.4416 256.321 71.1703C256.654 72.6469 255.919 74.1427 255.043 75.3955C254.229 76.4456 253.282 77.3847 252.224 78.1889" fill="#0D77AD"/>
<path d="M253.573 82.1576C253.894 80.5387 254.568 79.0106 255.548 77.6831C255.757 77.3886 256.03 77.1458 256.347 76.9736C256.507 76.8897 256.687 76.8508 256.867 76.8609C257.047 76.8711 257.221 76.9299 257.37 77.0311C257.824 77.3891 257.722 78.0986 257.53 78.6419C256.918 80.5071 255.729 82.1299 254.136 83.2762" fill="#0D77AD"/>
<path d="M252.665 79.8C250.814 78.5898 248.856 77.55 246.817 76.6934C246.67 76.6027 246.503 76.5504 246.331 76.5414C246.159 76.5325 245.987 76.5672 245.832 76.6423C245.729 76.7281 245.654 76.8423 245.615 76.9708C245.576 77.0992 245.576 77.2361 245.615 77.3646C245.696 77.62 245.833 77.8538 246.018 78.0486C246.918 79.0562 248.034 79.8482 249.282 80.3661C250.53 80.8839 251.879 81.1143 253.228 81.0401" fill="#0D77AD"/>
<path d="M250.402 72.1547L245.589 69.0162C245.15 68.6884 244.653 68.4456 244.125 68.3002C243.859 68.2326 243.58 68.2391 243.317 68.3191C243.055 68.3991 242.819 68.5496 242.636 68.7541C242.487 68.9832 242.404 69.2496 242.399 69.523C242.393 69.7964 242.464 70.0659 242.604 70.301C242.888 70.7707 243.269 71.1739 243.722 71.4835C244.727 72.3104 245.873 72.9492 247.104 73.3692C248.344 73.7464 249.418 73.9126 250.588 73.3692" fill="#0D77AD"/>
<path d="M248.185 63.4414C246.861 61.6292 245.082 60.2001 243.026 59.2993C242.694 59.1236 242.322 59.0377 241.946 59.05C241.584 59.1355 241.262 59.344 241.036 59.64C240.81 59.9361 240.693 60.3013 240.706 60.6736C240.718 61.0932 240.816 61.5059 240.996 61.8854C241.175 62.265 241.431 62.6033 241.748 62.8789C242.388 63.4207 243.129 63.8312 243.928 64.087C245.381 64.6124 246.909 64.9036 248.453 64.9499" fill="#0D77AD"/>
<path d="M247.155 55.3681C246.043 53.0222 244.119 51.3794 242.042 49.8644C241.846 49.6729 241.604 49.536 241.339 49.4676C241.075 49.3992 240.797 49.4015 240.533 49.4745C240.379 49.5603 240.249 49.684 240.157 49.8339C240.064 49.9838 240.011 50.1549 240.002 50.3311C239.987 50.6803 240.046 51.029 240.175 51.3538C240.708 52.8166 241.658 54.091 242.908 55.0193C244.157 55.9476 245.652 56.4889 247.206 56.5762" fill="#0D77AD"/>
<path d="M246.899 51.163C246.337 49.9576 245.892 48.7012 245.57 47.4108C245.248 46.1109 245.296 44.7468 245.71 43.4732C245.889 42.9256 246.216 42.4385 246.656 42.067C246.878 41.8863 247.143 41.7656 247.425 41.7164C247.707 41.6671 247.997 41.691 248.267 41.7857C248.508 41.8989 248.72 42.0653 248.887 42.2723C249.054 42.4794 249.172 42.7217 249.232 42.981C249.343 43.4999 249.365 44.0338 249.296 44.5599C249.079 47.0784 248.312 50.0316 246.899 51.163Z" fill="#0D77AD"/>
<path d="M283.015 43.4033C283.045 43.5527 283.06 43.7048 283.06 43.8572C283.06 44.1895 283.06 44.6242 283.104 45.1676C283.149 45.7109 283.143 46.446 283.104 47.2386C283.066 48.0312 283.104 48.9709 283.053 49.9873C282.996 52.02 282.823 54.4617 282.536 57.1209C282.248 59.78 281.775 62.7204 281.142 65.7695C280.509 68.8185 279.729 71.6694 278.943 74.2455C278.157 76.8215 277.32 79.1035 276.553 80.9892C276.195 81.9416 275.811 82.779 275.498 83.5461C275.185 84.3131 274.859 84.9268 274.641 85.4637L274.066 86.6399C274.007 86.7812 273.935 86.9161 273.849 87.0426C273.886 86.8943 273.939 86.7507 274.008 86.6143L274.539 85.355C274.769 84.8373 275.044 84.1981 275.338 83.4374C275.632 82.6767 275.977 81.8457 276.348 80.8805C277.083 78.9629 277.876 76.7001 278.662 74.1368C279.448 71.5736 280.19 68.7099 280.829 65.68C281.468 62.6501 281.916 59.7289 282.242 57.0634C282.568 54.3978 282.747 51.988 282.836 49.9617C282.906 48.9453 282.906 48.044 282.938 47.2194C282.97 46.3948 282.938 45.7173 282.938 45.1484C282.938 44.5795 282.938 44.1704 282.938 43.838C282.95 43.691 282.976 43.5454 283.015 43.4033Z" fill="#2997CC"/>
<path d="M282.21 58.1879C282.177 56.4269 281.533 54.7322 280.388 53.3938C280.22 53.1466 279.994 52.9444 279.73 52.8051C279.466 52.6658 279.172 52.5935 278.873 52.5947C278.093 52.7098 277.735 53.6495 277.703 54.4421C277.667 55.7919 278.121 57.1091 278.982 58.1495C279.709 59.1559 280.805 59.8337 282.031 60.0352" fill="#2997CC"/>
<path d="M280.483 67.7951C280.579 65.7305 279.921 62.5408 278.713 60.8596C278.533 60.5858 278.301 60.351 278.029 60.1693C277.893 60.0774 277.737 60.0211 277.573 60.0054C277.41 59.9898 277.246 60.0154 277.095 60.0798C276.903 60.2135 276.747 60.3939 276.643 60.6041C276.539 60.8142 276.49 61.0473 276.501 61.2815C276.385 62.774 276.686 64.2694 277.371 65.6004C278.057 66.9314 279.099 68.0454 280.381 68.8179" fill="#2997CC"/>
<path d="M278.241 76.0281C278.039 73.9496 277.284 71.9632 276.055 70.2752C275.933 70.0653 275.771 69.8816 275.578 69.7346C275.385 69.5876 275.164 69.4802 274.93 69.4186C274.195 69.3291 273.651 70.0578 273.459 70.7865C273.127 72.2631 273.862 73.7653 274.738 75.0181C275.553 76.0666 276.501 77.0055 277.557 77.8115" fill="#2997CC"/>
<path d="M276.215 81.8131C275.89 80.1945 275.213 78.6671 274.233 77.3386C274.025 77.044 273.751 76.8013 273.434 76.629C273.276 76.5451 273.097 76.5061 272.918 76.5162C272.739 76.5264 272.566 76.5853 272.418 76.6866C271.964 77.0445 272.06 77.754 272.258 78.2974C272.865 80.1634 274.052 81.7869 275.646 82.9317" fill="#2997CC"/>
<path d="M277.097 79.4865C278.948 78.2763 280.906 77.2365 282.946 76.3799C283.092 76.2898 283.259 76.2374 283.43 76.2274C283.602 76.2173 283.774 76.25 283.93 76.3224C284.032 76.4093 284.106 76.5235 284.145 76.6516C284.183 76.7797 284.184 76.9162 284.147 77.0447C284.068 77.3027 283.93 77.5389 283.745 77.7351C282.844 78.7423 281.728 79.5342 280.48 80.052C279.232 80.5698 277.883 80.8004 276.534 80.7266" fill="#2997CC"/>
<path d="M279.377 71.8415L284.191 68.7349C284.63 68.407 285.126 68.1642 285.654 68.019C285.92 67.9513 286.2 67.9579 286.462 68.0379C286.725 68.1179 286.961 68.2683 287.144 68.4728C287.293 68.7019 287.375 68.9683 287.381 69.2417C287.386 69.5151 287.315 69.7846 287.176 70.0197C286.885 70.4781 286.499 70.8684 286.044 71.1639C285.045 72.0066 283.899 72.6568 282.663 73.0816C281.423 73.4587 280.349 73.6249 279.186 73.0816" fill="#2997CC"/>
<path d="M281.603 63.1288C282.922 61.3137 284.7 59.8819 286.755 58.9803C287.089 58.8095 287.461 58.726 287.835 58.7374C288.198 58.8229 288.52 59.0314 288.746 59.3274C288.972 59.6235 289.088 59.9887 289.075 60.361C289.064 60.7797 288.965 61.1915 288.786 61.5701C288.607 61.9487 288.35 62.2858 288.033 62.5599C287.394 63.104 286.653 63.5167 285.854 63.7744C284.4 64.2997 282.873 64.591 281.328 64.6373" fill="#2997CC"/>
<path d="M282.625 55.0557C283.737 52.7034 285.661 51.067 287.739 49.5456C287.936 49.3547 288.179 49.2187 288.445 49.1514C288.711 49.0841 288.99 49.0878 289.254 49.1621C289.405 49.2486 289.533 49.3717 289.624 49.5203C289.716 49.6688 289.769 49.838 289.778 50.0123C289.797 50.3639 289.738 50.7154 289.605 51.0414C289.07 52.509 288.115 53.7868 286.859 54.7154C285.603 55.6441 284.102 56.1826 282.542 56.2638" fill="#2997CC"/>
<path d="M282.888 50.8365C283.446 49.6281 283.889 48.3696 284.211 47.0779C284.533 45.7802 284.484 44.4181 284.07 43.1468C283.892 42.5991 283.564 42.112 283.124 41.7405C282.903 41.5587 282.638 41.4373 282.356 41.3881C282.074 41.3388 281.783 41.3633 281.513 41.4592C281.273 41.5728 281.062 41.7394 280.896 41.9465C280.73 42.1536 280.613 42.3957 280.555 42.6546C280.438 43.1726 280.415 43.7071 280.484 44.2334C280.708 46.752 281.469 49.7051 282.888 50.8365Z" fill="#2997CC"/>
<path d="M240.661 86.9902V93.0564C240.66 93.3706 240.722 93.6818 240.841 93.9723C240.961 94.2627 241.137 94.5266 241.359 94.7487C241.582 94.9709 241.846 95.147 242.136 95.2668C242.426 95.3866 242.738 95.4479 243.052 95.4471H284.601C284.914 95.4471 285.225 95.3852 285.515 95.265C285.804 95.1447 286.068 94.9685 286.289 94.7465C286.51 94.5244 286.686 94.2608 286.805 93.9708C286.925 93.6808 286.986 93.37 286.985 93.0564V86.9902H240.661Z" fill="#FF725E"/>
<g opacity="0.4">
<path d="M244.234 95.4482L244.58 97.3787L282.894 100.115L283.866 95.4482H244.234Z" fill="black"/>
</g>
</g>
<g filter="url(#filter1_d_2148_1414)">
<path d="M288.927 77.415L293.862 109.849H322.537L329.191 77.8817L288.927 77.415Z" fill="#FF725E"/>
<path d="M325.184 98.2019C325.184 98.2914 317.833 98.3681 308.775 98.3681C299.718 98.3681 292.36 98.2914 292.36 98.2019C292.36 98.1124 299.711 98.0293 308.775 98.0293C317.839 98.0293 325.184 98.1188 325.184 98.2019Z" fill="#FAFAFA"/>
<path d="M325.292 96.6037C325.292 96.6996 317.896 96.7699 308.775 96.7699C299.653 96.7699 292.251 96.6996 292.251 96.6037C292.251 96.5078 299.647 96.4375 308.775 96.4375C317.903 96.4375 325.292 96.5142 325.292 96.6037Z" fill="#FAFAFA"/>
<path d="M325.234 94.801C325.234 94.8969 317.839 94.9735 308.717 94.9735C299.595 94.9735 292.193 94.8969 292.193 94.801C292.193 94.7051 299.589 94.6348 308.717 94.6348C317.845 94.6348 325.234 94.7115 325.234 94.801Z" fill="#FAFAFA"/>
<path d="M297.167 107.995C296.765 106.659 296.472 105.293 296.291 103.91C295.998 102.548 295.814 101.165 295.741 99.7744C296.14 101.115 296.431 102.485 296.611 103.872C296.907 105.229 297.093 106.608 297.167 107.995Z" fill="#FAFAFA"/>
<path d="M299.085 107.649C298.882 106.331 298.764 105.001 298.733 103.667C298.59 102.34 298.526 101.006 298.541 99.6719C299.058 102.297 299.24 104.978 299.085 107.649Z" fill="#FAFAFA"/>
<path d="M302.665 107.649C302.271 106.318 302.02 104.949 301.917 103.565C301.701 102.193 301.628 100.803 301.699 99.416C301.96 100.775 302.144 102.147 302.249 103.526C302.462 104.892 302.6 106.268 302.665 107.649Z" fill="#FAFAFA"/>
<path d="M305.157 107.822C304.882 106.456 304.749 105.066 304.76 103.673C304.661 102.281 304.703 100.882 304.888 99.499C305.039 100.881 305.108 102.27 305.093 103.66C305.197 105.045 305.218 106.434 305.157 107.822Z" fill="#FAFAFA"/>
<path d="M309.574 107.65C309.265 105.032 309.178 102.394 309.312 99.7617C309.631 102.378 309.721 105.018 309.58 107.65H309.574Z" fill="#FAFAFA"/>
<path d="M312.803 107.822C312.644 106.471 312.599 105.109 312.668 103.75C312.626 102.388 312.692 101.024 312.866 99.6719C313.025 101.025 313.07 102.389 313.001 103.75C313.047 105.11 312.98 106.472 312.803 107.822Z" fill="#FAFAFA"/>
<path d="M315.825 107.388C315.798 105.964 315.879 104.541 316.068 103.13C316.153 101.709 316.347 100.297 316.65 98.9053C316.681 100.329 316.6 101.752 316.407 103.162C316.326 104.584 316.132 105.997 315.825 107.388Z" fill="#FAFAFA"/>
<path d="M319.731 106.966C319.851 104.523 320.374 102.117 321.278 99.8447C321.099 101.047 320.852 102.238 320.537 103.412C320.331 104.61 320.062 105.796 319.731 106.966Z" fill="#FAFAFA"/>
<path d="M316.982 13.4161C316.973 13.4702 316.96 13.5236 316.944 13.5759L316.81 14.0298L316.266 15.7812C316.017 16.5419 315.729 17.4687 315.422 18.5554C315.116 19.6421 314.732 20.8758 314.387 22.2565C314.042 23.6372 313.633 25.1393 313.275 26.7693C312.917 28.3993 312.54 30.1508 312.169 31.9981C311.478 35.6928 310.852 39.7838 310.411 44.0985C309.97 48.4132 309.772 52.5553 309.772 56.3139C309.772 58.1932 309.772 59.983 309.823 61.6513C309.874 63.3197 309.938 64.8794 310.027 66.2984C310.117 67.7175 310.219 69.0023 310.309 70.1337C310.398 71.2651 310.494 72.2303 310.584 73.023C310.673 73.8156 310.731 74.4037 310.775 74.8447C310.775 75.0365 310.788 75.1963 310.814 75.3241C310.814 75.4264 310.814 75.4839 310.814 75.4839C310.793 75.433 310.78 75.3791 310.775 75.3241C310.775 75.2027 310.731 75.0429 310.699 74.8575C310.639 74.4101 310.556 73.8028 310.449 73.0358C310.341 72.2495 310.213 71.2843 310.117 70.1529C310.021 69.0215 309.861 67.7494 309.785 66.3176C309.708 64.8858 309.58 63.3389 309.535 61.6641C309.49 59.9894 309.465 58.1932 309.452 56.3075C309.497 52.5425 309.682 48.394 310.091 44.0665C310.5 39.739 311.178 35.6416 311.881 31.9214C312.265 30.0805 312.61 28.3226 313.019 26.6926C313.428 25.0626 313.799 23.5541 314.176 22.1798C314.553 20.8055 314.937 19.5718 315.263 18.4915C315.589 17.4112 315.902 16.478 316.158 15.7301L316.797 13.9978C316.867 13.8188 316.918 13.6718 316.963 13.5504C317.008 13.4289 316.982 13.4097 316.982 13.4161Z" fill="#2997CC"/>
<path d="M311.793 33.4943C312.587 31.1571 314.168 29.1686 316.267 27.8692C316.977 27.4281 317.878 27.0702 318.626 27.4345C319.629 27.9203 319.706 29.3521 319.412 30.3941C318.897 32.2112 317.744 33.7817 316.165 34.8174C314.767 35.8542 313.016 36.2954 311.294 36.0448" fill="#2997CC"/>
<path d="M310.048 47.0582C310.789 44.2584 313.026 40.2825 315.34 38.5438C315.698 38.2544 316.108 38.0373 316.548 37.9046C316.768 37.8426 317 37.8359 317.223 37.8849C317.446 37.934 317.653 38.0374 317.827 38.1859C318.026 38.4463 318.156 38.7523 318.206 39.0761C318.257 39.3999 318.225 39.7312 318.114 40.0396C317.639 42.0822 316.605 43.9523 315.127 45.4402C313.649 46.9282 311.786 47.9754 309.747 48.4645" fill="#2997CC"/>
<path d="M309.567 58.9983C310.721 56.3244 312.565 54.0057 314.911 52.2802C315.164 52.0561 315.458 51.8842 315.777 51.7745C316.097 51.6648 316.434 51.6194 316.771 51.6409C317.788 51.8263 318.248 53.06 318.158 54.0891C317.973 56.1985 316.356 57.8925 314.694 59.2029C313.165 60.2666 311.504 61.1262 309.753 61.7597" fill="#2997CC"/>
<path d="M309.836 67.5769C310.952 65.5401 312.504 63.7744 314.381 62.4057C314.779 62.09 315.245 61.8711 315.742 61.7664C315.991 61.7225 316.248 61.7468 316.484 61.8368C316.72 61.9269 316.928 62.0793 317.085 62.2778C317.538 62.917 317.085 63.8503 316.618 64.4959C315.014 66.729 312.742 68.3945 310.13 69.2517" fill="#2997CC"/>
<path d="M309.611 64.0935C307.654 61.6915 305.48 59.4747 303.117 57.4712C302.746 57.158 302.28 56.832 301.839 56.9854C301.666 57.0579 301.519 57.1784 301.413 57.3326C301.308 57.4867 301.249 57.6681 301.244 57.8548C301.244 58.2312 301.329 58.6028 301.493 58.9414C302.27 60.6661 303.424 62.1937 304.872 63.411C306.319 64.6283 308.022 65.5039 309.854 65.9728" fill="#2997CC"/>
<path d="M309.823 52.9259L304.709 46.7C304.259 46.0785 303.698 45.5455 303.054 45.1275C302.74 44.8949 302.361 44.7673 301.971 44.7628C301.58 44.7583 301.198 44.8772 300.88 45.1025C300.561 45.3279 300.321 45.6481 300.195 46.0176C300.069 46.3871 300.063 46.787 300.177 47.1602C300.365 47.9037 300.704 48.6002 301.174 49.2057C302.17 50.7331 303.43 52.0708 304.895 53.1561C306.39 54.1852 307.752 54.8564 309.555 54.5879" fill="#2997CC"/>
<path d="M310.532 40.353C309.539 37.3766 307.774 34.7167 305.419 32.644C305.05 32.2696 304.589 31.9985 304.083 31.8578C303.06 31.666 302.069 32.497 301.743 33.507C301.579 34.0707 301.536 34.6627 301.616 35.2443C301.697 35.8258 301.899 36.3839 302.21 36.882C302.829 37.8864 303.645 38.7559 304.607 39.4389C306.326 40.7535 308.242 41.789 310.283 42.5071" fill="#2997CC"/>
<path d="M312.571 29.1406C312.073 25.5354 310.2 22.5311 308.02 19.6163C307.566 18.9771 306.927 18.3378 306.166 18.4593C305.927 18.5115 305.704 18.6223 305.518 18.7818C305.331 18.9414 305.187 19.1446 305.099 19.3734C304.931 19.8353 304.863 20.3278 304.901 20.818C304.994 23.0039 305.73 25.1138 307.015 26.884C308.301 28.6541 310.08 30.006 312.13 30.7706" fill="#2997CC"/>
<path d="M313.997 23.4203C313.759 21.5701 313.697 19.7017 313.811 17.8399C313.929 15.968 314.571 14.167 315.665 12.6431C316.131 11.9858 316.774 11.4739 317.519 11.1665C317.891 11.018 318.295 10.9676 318.692 11.0202C319.09 11.0728 319.467 11.2267 319.788 11.4669C320.06 11.7214 320.272 12.034 320.407 12.3815C320.542 12.729 320.597 13.1024 320.568 13.4741C320.507 14.2147 320.312 14.9382 319.992 15.6091C318.631 18.8818 316.368 22.4998 313.997 23.4203Z" fill="#2997CC"/>
<path d="M291.765 27.7158C291.78 27.8689 291.78 28.023 291.765 28.1761C291.765 28.5084 291.765 28.9346 291.765 29.4545C291.765 30.0234 291.765 30.7329 291.765 31.5256C291.765 32.3182 291.765 33.2514 291.861 34.2678C291.951 36.2941 292.149 38.7039 292.456 41.3695C292.762 44.035 293.331 46.9818 293.971 50.0117C294.61 53.0415 295.345 55.9308 296.112 58.4877C296.879 61.0445 297.691 63.3393 298.426 65.2314C298.771 66.1902 299.135 67.034 299.436 67.7882C299.736 68.5425 300.005 69.1753 300.235 69.7059C300.465 70.2364 300.618 70.6008 300.746 70.9076C300.815 71.044 300.869 71.1877 300.906 71.3359C300.823 71.2076 300.751 71.0729 300.689 70.9332C300.542 70.6392 300.35 70.2428 300.12 69.757C299.89 69.2712 299.576 68.6128 299.263 67.8394C298.95 67.0659 298.567 66.2605 298.202 65.2825C297.442 63.3649 296.623 61.1084 295.818 58.5388C295.012 55.9691 294.258 53.1055 293.613 50.0628C292.967 47.0201 292.539 44.0861 292.226 41.4142C291.912 38.7423 291.759 36.3005 291.701 34.2806C291.65 33.2642 291.663 32.3629 291.65 31.5383C291.637 30.7137 291.65 30.0298 291.65 29.4609C291.65 28.892 291.689 28.4829 291.701 28.1505C291.708 28.0038 291.729 27.8581 291.765 27.7158Z" fill="#0D77AD"/>
<path d="M292.564 42.5077C292.597 40.7487 293.241 39.0559 294.386 37.72C294.552 37.4727 294.775 37.2694 295.037 37.128C295.298 36.9865 295.591 36.9111 295.888 36.9082C296.675 37.0233 297.033 37.9629 297.058 38.7555C297.095 40.1053 296.64 41.4225 295.78 42.463C295.054 43.4709 293.957 44.1492 292.731 44.3487" fill="#0D77AD"/>
<path d="M294.297 52.0954C294.201 50.0307 294.866 46.841 296.068 45.1663C296.245 44.8891 296.478 44.6518 296.752 44.4695C296.888 44.3793 297.045 44.3239 297.207 44.3083C297.37 44.2927 297.534 44.3173 297.685 44.38C297.877 44.5147 298.033 44.6951 298.137 44.9049C298.242 45.1147 298.293 45.3473 298.286 45.5818C298.403 47.0751 298.101 48.5715 297.415 49.9028C296.728 51.2341 295.684 52.3476 294.399 53.1181" fill="#0D77AD"/>
<path d="M296.527 60.3416C296.746 58.2835 297.507 56.3204 298.733 54.6526C298.852 54.4416 299.014 54.2573 299.207 54.1111C299.401 53.9649 299.622 53.8599 299.858 53.8024C300.586 53.7065 301.136 54.4416 301.321 55.1703C301.654 56.6469 300.919 58.1427 300.043 59.3955C299.229 60.4456 298.282 61.3847 297.224 62.1889" fill="#0D77AD"/>
<path d="M298.573 66.1576C298.894 64.5387 299.568 63.0106 300.548 61.6831C300.757 61.3886 301.03 61.1458 301.347 60.9736C301.507 60.8897 301.687 60.8508 301.867 60.8609C302.047 60.8711 302.221 60.9299 302.37 61.0311C302.824 61.3891 302.722 62.0986 302.53 62.6419C301.918 64.5071 300.729 66.1299 299.136 67.2762" fill="#0D77AD"/>
<path d="M297.665 63.8C295.814 62.5898 293.856 61.55 291.817 60.6934C291.67 60.6027 291.503 60.5504 291.331 60.5414C291.159 60.5325 290.987 60.5672 290.832 60.6423C290.729 60.7281 290.654 60.8423 290.615 60.9708C290.576 61.0992 290.576 61.2361 290.615 61.3646C290.696 61.62 290.833 61.8538 291.018 62.0486C291.918 63.0562 293.034 63.8482 294.282 64.3661C295.53 64.8839 296.879 65.1143 298.228 65.0401" fill="#0D77AD"/>
<path d="M295.402 56.1547L290.589 53.0162C290.15 52.6884 289.653 52.4456 289.125 52.3002C288.859 52.2326 288.58 52.2391 288.317 52.3191C288.055 52.3991 287.819 52.5496 287.636 52.7541C287.487 52.9832 287.404 53.2496 287.399 53.523C287.393 53.7964 287.464 54.0659 287.604 54.301C287.888 54.7707 288.269 55.1739 288.722 55.4835C289.727 56.3104 290.873 56.9492 292.104 57.3692C293.344 57.7464 294.418 57.9126 295.588 57.3692" fill="#0D77AD"/>
<path d="M293.185 47.4414C291.861 45.6292 290.082 44.2001 288.026 43.2993C287.694 43.1236 287.322 43.0377 286.946 43.05C286.584 43.1355 286.262 43.344 286.036 43.64C285.81 43.9361 285.693 44.3013 285.706 44.6736C285.718 45.0932 285.816 45.5059 285.996 45.8854C286.175 46.265 286.431 46.6033 286.748 46.8789C287.388 47.4207 288.129 47.8312 288.928 48.087C290.381 48.6124 291.909 48.9036 293.453 48.9499" fill="#0D77AD"/>
<path d="M292.155 39.3681C291.043 37.0222 289.119 35.3794 287.042 33.8644C286.846 33.6729 286.604 33.536 286.339 33.4676C286.075 33.3992 285.797 33.4015 285.533 33.4745C285.379 33.5603 285.249 33.684 285.157 33.8339C285.064 33.9838 285.011 34.1549 285.002 34.3311C284.987 34.6803 285.046 35.029 285.175 35.3538C285.708 36.8166 286.658 38.091 287.908 39.0193C289.157 39.9476 290.652 40.4889 292.206 40.5762" fill="#0D77AD"/>
<path d="M291.899 35.163C291.337 33.9576 290.892 32.7012 290.57 31.4108C290.248 30.1109 290.296 28.7468 290.71 27.4732C290.889 26.9256 291.216 26.4385 291.656 26.067C291.878 25.8863 292.143 25.7656 292.425 25.7164C292.707 25.6671 292.997 25.691 293.267 25.7857C293.508 25.8989 293.72 26.0653 293.887 26.2723C294.054 26.4794 294.172 26.7217 294.232 26.981C294.343 27.4999 294.365 28.0338 294.296 28.5599C294.079 31.0784 293.312 34.0316 291.899 35.163Z" fill="#0D77AD"/>
<path d="M328.015 27.4033C328.045 27.5527 328.06 27.7048 328.06 27.8572C328.06 28.1895 328.06 28.6242 328.104 29.1676C328.149 29.7109 328.143 30.446 328.104 31.2386C328.066 32.0312 328.104 32.9709 328.053 33.9873C327.996 36.02 327.823 38.4617 327.536 41.1209C327.248 43.78 326.775 46.7204 326.142 49.7695C325.509 52.8185 324.729 55.6694 323.943 58.2455C323.157 60.8215 322.32 63.1035 321.553 64.9892C321.195 65.9416 320.811 66.779 320.498 67.5461C320.185 68.3131 319.859 68.9268 319.641 69.4637L319.066 70.6399C319.007 70.7812 318.935 70.9161 318.849 71.0426C318.886 70.8943 318.939 70.7507 319.008 70.6143L319.539 69.355C319.769 68.8373 320.044 68.1981 320.338 67.4374C320.632 66.6767 320.977 65.8457 321.348 64.8805C322.083 62.9629 322.876 60.7001 323.662 58.1368C324.448 55.5736 325.19 52.7099 325.829 49.68C326.468 46.6501 326.916 43.7289 327.242 41.0634C327.568 38.3978 327.747 35.988 327.836 33.9617C327.906 32.9453 327.906 32.044 327.938 31.2194C327.97 30.3948 327.938 29.7173 327.938 29.1484C327.938 28.5795 327.938 28.1704 327.938 27.838C327.95 27.691 327.976 27.5454 328.015 27.4033Z" fill="#2997CC"/>
<path d="M327.21 42.1879C327.177 40.4269 326.533 38.7322 325.388 37.3938C325.22 37.1466 324.994 36.9444 324.73 36.8051C324.466 36.6658 324.172 36.5935 323.873 36.5947C323.093 36.7098 322.735 37.6495 322.703 38.4421C322.667 39.7919 323.121 41.1091 323.982 42.1495C324.709 43.1559 325.805 43.8337 327.031 44.0352" fill="#2997CC"/>
<path d="M325.483 51.7951C325.579 49.7305 324.921 46.5408 323.713 44.8596C323.533 44.5858 323.301 44.351 323.029 44.1693C322.893 44.0774 322.737 44.0211 322.573 44.0054C322.41 43.9898 322.246 44.0154 322.095 44.0798C321.903 44.2135 321.747 44.3939 321.643 44.6041C321.539 44.8142 321.49 45.0473 321.501 45.2815C321.385 46.774 321.686 48.2694 322.371 49.6004C323.057 50.9314 324.099 52.0454 325.381 52.8179" fill="#2997CC"/>
<path d="M323.241 60.0281C323.039 57.9496 322.284 55.9632 321.055 54.2752C320.933 54.0653 320.771 53.8816 320.578 53.7346C320.385 53.5876 320.164 53.4802 319.93 53.4186C319.195 53.3291 318.651 54.0578 318.459 54.7865C318.127 56.2631 318.862 57.7653 319.738 59.0181C320.553 60.0666 321.501 61.0055 322.557 61.8115" fill="#2997CC"/>
<path d="M321.215 65.8131C320.89 64.1945 320.213 62.6671 319.233 61.3386C319.025 61.044 318.751 60.8013 318.434 60.629C318.276 60.5451 318.097 60.5061 317.918 60.5162C317.739 60.5264 317.566 60.5853 317.418 60.6866C316.964 61.0445 317.06 61.754 317.258 62.2974C317.865 64.1634 319.052 65.7869 320.646 66.9317" fill="#2997CC"/>
<path d="M322.097 63.4865C323.948 62.2763 325.906 61.2365 327.946 60.3799C328.092 60.2898 328.259 60.2374 328.43 60.2274C328.602 60.2173 328.774 60.25 328.93 60.3224C329.032 60.4093 329.106 60.5235 329.145 60.6516C329.183 60.7797 329.184 60.9162 329.147 61.0447C329.068 61.3027 328.93 61.5389 328.745 61.7351C327.844 62.7423 326.728 63.5342 325.48 64.052C324.232 64.5698 322.883 64.8004 321.534 64.7266" fill="#2997CC"/>
<path d="M324.377 55.8415L329.191 52.7349C329.63 52.407 330.126 52.1642 330.654 52.019C330.92 51.9513 331.2 51.9579 331.462 52.0379C331.725 52.1179 331.961 52.2683 332.144 52.4728C332.293 52.7019 332.375 52.9683 332.381 53.2417C332.386 53.5151 332.315 53.7846 332.176 54.0197C331.885 54.4781 331.499 54.8684 331.044 55.1639C330.045 56.0066 328.899 56.6568 327.663 57.0816C326.423 57.4587 325.349 57.6249 324.186 57.0816" fill="#2997CC"/>
<path d="M326.603 47.1288C327.922 45.3137 329.7 43.8819 331.755 42.9803C332.089 42.8095 332.461 42.726 332.835 42.7374C333.198 42.8229 333.52 43.0314 333.746 43.3274C333.972 43.6235 334.088 43.9887 334.075 44.361C334.064 44.7797 333.965 45.1915 333.786 45.5701C333.607 45.9487 333.35 46.2858 333.033 46.5599C332.394 47.104 331.653 47.5167 330.854 47.7744C329.4 48.2997 327.873 48.591 326.328 48.6373" fill="#2997CC"/>
<path d="M327.625 39.0557C328.737 36.7034 330.661 35.067 332.739 33.5456C332.936 33.3547 333.179 33.2187 333.445 33.1514C333.711 33.0841 333.99 33.0878 334.254 33.1621C334.405 33.2486 334.533 33.3717 334.624 33.5203C334.716 33.6688 334.769 33.838 334.778 34.0123C334.797 34.3639 334.738 34.7154 334.605 35.0414C334.07 36.509 333.115 37.7868 331.859 38.7154C330.603 39.6441 329.102 40.1826 327.542 40.2638" fill="#2997CC"/>
<path d="M327.888 34.8365C328.446 33.6281 328.889 32.3696 329.211 31.0779C329.533 29.7802 329.484 28.4181 329.07 27.1468C328.892 26.5991 328.564 26.112 328.124 25.7405C327.903 25.5587 327.638 25.4373 327.356 25.3881C327.074 25.3388 326.783 25.3633 326.513 25.4592C326.273 25.5728 326.062 25.7394 325.896 25.9465C325.73 26.1536 325.613 26.3957 325.555 26.6546C325.438 27.1726 325.415 27.7071 325.484 28.2334C325.708 30.752 326.469 33.7051 327.888 34.8365Z" fill="#2997CC"/>
<path d="M285.661 70.9902V77.0564C285.66 77.3706 285.722 77.6818 285.841 77.9723C285.961 78.2627 286.137 78.5266 286.359 78.7487C286.582 78.9709 286.846 79.147 287.136 79.2668C287.426 79.3866 287.738 79.4479 288.052 79.4471H329.601C329.914 79.4471 330.225 79.3852 330.515 79.265C330.804 79.1447 331.068 78.9685 331.289 78.7465C331.51 78.5244 331.686 78.2608 331.805 77.9708C331.925 77.6808 331.986 77.37 331.985 77.0564V70.9902H285.661Z" fill="#FF725E"/>
<g opacity="0.4">
<path d="M289.234 79.4482L289.58 81.3787L327.894 84.1145L328.866 79.4482H289.234Z" fill="black"/>
</g>
</g>
</g>
<defs>
<filter id="filter0_d_2148_1414" x="240" y="27" width="57.7817" height="106.849" filterUnits="userSpaceOnUse" color-interpolation-filters="sRGB">
<feFlood flood-opacity="0" result="BackgroundImageFix"/>
<feColorMatrix in="SourceAlpha" type="matrix" values="0 0 0 0 0 0 0 0 0 0 0 0 0 0 0 0 0 0 127 0" result="hardAlpha"/>
<feOffset dx="4" dy="4"/>
<feGaussianBlur stdDeviation="2"/>
<feComposite in2="hardAlpha" operator="out"/>
<feColorMatrix type="matrix" values="0 0 0 0 0 0 0 0 0 0 0 0 0 0 0 0 0 0 0.25 0"/>
<feBlend mode="normal" in2="BackgroundImageFix" result="effect1_dropShadow_2148_1414"/>
<feBlend mode="normal" in="SourceGraphic" in2="effect1_dropShadow_2148_1414" result="shape"/>
</filter>
<filter id="filter1_d_2148_1414" x="285" y="11" width="57.7817" height="106.849" filterUnits="userSpaceOnUse" color-interpolation-filters="sRGB">
<feFlood flood-opacity="0" result="BackgroundImageFix"/>
<feColorMatrix in="SourceAlpha" type="matrix" values="0 0 0 0 0 0 0 0 0 0 0 0 0 0 0 0 0 0 127 0" result="hardAlpha"/>
<feOffset dx="4" dy="4"/>
<feGaussianBlur stdDeviation="2"/>
<feComposite in2="hardAlpha" operator="out"/>
<feColorMatrix type="matrix" values="0 0 0 0 0 0 0 0 0 0 0 0 0 0 0 0 0 0 0.25 0"/>
<feBlend mode="normal" in2="BackgroundImageFix" result="effect1_dropShadow_2148_1414"/>
<feBlend mode="normal" in="SourceGraphic" in2="effect1_dropShadow_2148_1414" result="shape"/>
</filter>
<clipPath id="clip0_2148_1414">
<rect width="330" height="108" rx="10" fill="white"/>
</clipPath>
</defs>
</svg>
