<svg width="330" height="108" viewBox="0 0 330 108" fill="none" xmlns="http://www.w3.org/2000/svg">
<g clip-path="url(#clip0_2148_994)">
<rect width="330" height="108" rx="10" fill="#FC9338"/>
<g filter="url(#filter0_d_2148_994)">
<path d="M245.635 106.356C245.681 106.496 245.692 106.644 245.667 106.789C245.643 106.933 245.583 107.07 245.494 107.187C245.405 107.303 245.289 107.396 245.156 107.458C245.023 107.52 244.877 107.548 244.73 107.541H181.726C179.758 107.541 179.758 94.7276 181.726 94.7276H244.748C244.895 94.7206 245.04 94.7491 245.173 94.8106C245.305 94.8721 245.421 94.9649 245.51 95.0809C245.599 95.197 245.658 95.3329 245.683 95.4769C245.708 95.621 245.698 95.7689 245.653 95.9081C244.866 98.3505 244.866 103.918 245.635 106.356Z" fill="#407BFF"/>
<path opacity="0.8" d="M245.546 96.2246H207.313C205.807 96.2246 205.807 106.044 207.313 106.044H245.546C244.899 103.579 244.899 98.6851 245.546 96.2246Z" fill="white"/>
<path opacity="0.2" d="M205.408 106.356C205.453 106.496 205.465 106.644 205.44 106.789C205.416 106.933 205.356 107.07 205.267 107.187C205.178 107.303 205.062 107.396 204.929 107.458C204.796 107.52 204.65 107.548 204.503 107.541H181.726C179.758 107.541 179.758 94.7276 181.726 94.7276H204.521C204.667 94.7206 204.813 94.7491 204.946 94.8106C205.078 94.8721 205.194 94.9649 205.283 95.0809C205.372 95.197 205.431 95.3329 205.456 95.4769C205.481 95.621 205.471 95.7689 205.426 95.9081C204.639 98.3505 204.639 103.918 205.408 106.356Z" fill="black"/>
<path d="M191.442 94.7285H186.236C184.269 94.7285 184.269 107.542 186.236 107.542H191.442C189.493 107.542 189.493 94.7285 191.442 94.7285Z" fill="#407BFF"/>
<path d="M195.543 94.7285H193.499C191.532 94.7285 191.532 107.542 193.499 107.542H195.543C193.562 107.542 193.562 94.7285 195.543 94.7285Z" fill="#407BFF"/>
<path d="M178.053 93.6641C177.836 94.1888 178.37 94.727 179.094 94.727H235.757C238.069 94.727 238.069 83.207 235.757 83.207H179.089C178.366 83.207 177.832 83.7407 178.049 84.2699C178.954 86.4636 178.954 91.4705 178.053 93.6641Z" fill="#263238"/>
<path opacity="0.2" d="M178.053 93.6641C177.836 94.1888 178.37 94.727 179.094 94.727H206.878C209.189 94.727 209.189 83.207 206.878 83.207H179.089C178.366 83.207 177.832 83.7407 178.049 84.2699C178.954 86.4636 178.954 91.4705 178.053 93.6641Z" fill="black"/>
<path opacity="0.8" d="M178.152 84.5518H205.742C207.511 84.5518 207.511 93.3806 205.742 93.3806H178.152C178.912 91.1507 178.912 86.768 178.152 84.5518Z" fill="white"/>
<path opacity="0.2" d="M214.907 85.7772C214.735 85.2661 215.233 84.7686 215.92 84.7686H231.782C233.465 84.7686 233.465 93.1632 231.782 93.1632H215.92C215.233 93.1632 214.735 92.6702 214.907 92.1591C215.45 90.0664 215.45 87.8698 214.907 85.7772Z" fill="white"/>
<path d="M329.581 88.5209C329.632 88.6739 329.646 88.8363 329.623 88.9957C329.601 89.1551 329.542 89.3072 329.452 89.4404C329.361 89.5735 329.242 89.6843 329.102 89.764C328.962 89.8437 328.806 89.8904 328.645 89.9004H262.067C259.987 89.9004 259.987 74.9746 262.067 74.9746H328.645C328.803 74.9855 328.957 75.0318 329.094 75.1103C329.232 75.1887 329.35 75.2971 329.44 75.4275C329.53 75.5579 329.59 75.7069 329.614 75.8634C329.639 76.0199 329.627 76.1799 329.581 76.3315C328.772 79.2036 328.772 85.685 329.581 88.5209Z" fill="#407BFF"/>
<path opacity="0.5" d="M329.581 88.5209C329.632 88.6739 329.646 88.8363 329.623 88.9957C329.601 89.1551 329.542 89.3072 329.452 89.4404C329.361 89.5735 329.242 89.6843 329.102 89.764C328.962 89.8437 328.806 89.8904 328.645 89.9004H262.067C259.987 89.9004 259.987 74.9746 262.067 74.9746H328.645C328.803 74.9855 328.957 75.0318 329.094 75.1103C329.232 75.1887 329.35 75.2971 329.44 75.4275C329.53 75.5579 329.59 75.7069 329.614 75.8634C329.639 76.0199 329.627 76.1799 329.581 76.3315C328.772 79.2036 328.772 85.685 329.581 88.5209Z" fill="white"/>
<path opacity="0.8" d="M329.492 76.7314H289.097C287.505 76.7314 287.505 88.1564 289.097 88.1564H329.492C328.8 85.2934 328.8 79.599 329.492 76.7314Z" fill="white"/>
<path opacity="0.6" d="M287.084 88.5209C287.134 88.6739 287.148 88.8363 287.126 88.9957C287.103 89.1551 287.045 89.3072 286.954 89.4404C286.864 89.5735 286.744 89.6843 286.604 89.764C286.464 89.8437 286.308 89.8904 286.147 89.9004H262.067C259.987 89.9004 259.987 74.9746 262.067 74.9746H286.147C286.306 74.9855 286.459 75.0318 286.597 75.1103C286.734 75.1887 286.853 75.2971 286.943 75.4275C287.033 75.5579 287.092 75.7069 287.116 75.8634C287.141 76.0199 287.13 76.1799 287.084 76.3315C286.283 79.2036 286.283 85.685 287.084 88.5209Z" fill="#407BFF"/>
<path opacity="0.5" d="M277.314 76.0938C277.361 75.977 277.38 75.8507 277.37 75.7251C277.359 75.5995 277.319 75.4782 277.253 75.3708C277.187 75.2635 277.097 75.1731 276.99 75.107C276.882 75.0409 276.761 75.0009 276.636 74.9902H267.454C265.373 74.9902 265.373 89.916 267.454 89.916H276.636C276.761 89.9046 276.883 89.864 276.99 89.7974C277.097 89.7308 277.187 89.6401 277.253 89.5324C277.319 89.4247 277.359 89.3032 277.37 89.1774C277.38 89.0516 277.361 88.925 277.314 88.8079C276.387 86.0353 276.387 78.8574 277.314 76.0938Z" fill="white"/>
<path d="M324.806 105.899C324.859 106.097 324.865 106.305 324.822 106.506C324.779 106.707 324.689 106.895 324.559 107.054C324.429 107.213 324.263 107.339 324.074 107.421C323.886 107.504 323.681 107.54 323.476 107.527H254.302C251.348 107.527 251.344 89.8873 254.302 89.8873H323.503C323.708 89.8744 323.913 89.9106 324.102 89.9929C324.29 90.0751 324.456 90.201 324.586 90.3601C324.716 90.5192 324.806 90.7071 324.849 90.908C324.892 91.1089 324.886 91.3172 324.833 91.5156C323.652 94.8761 323.657 102.543 324.806 105.899Z" fill="#407BFF"/>
<path opacity="0.2" d="M324.806 105.899C324.859 106.097 324.865 106.305 324.822 106.506C324.779 106.707 324.689 106.895 324.559 107.054C324.429 107.213 324.263 107.339 324.074 107.421C323.886 107.504 323.681 107.54 323.476 107.527H254.302C251.348 107.527 251.344 89.8873 254.302 89.8873H323.503C323.708 89.8744 323.913 89.9106 324.102 89.9929C324.29 90.0751 324.456 90.201 324.586 90.3601C324.716 90.5192 324.806 90.7071 324.849 90.908C324.892 91.1089 324.886 91.3172 324.833 91.5156C323.652 94.8761 323.657 102.543 324.806 105.899Z" fill="white"/>
<path opacity="0.8" d="M324.669 91.9512H282.846C280.584 91.9512 280.584 105.466 282.846 105.466H324.674C323.706 102.078 323.706 95.3434 324.669 91.9512Z" fill="white"/>
<path opacity="0.6" d="M279.988 105.909C280.042 106.107 280.048 106.316 280.006 106.517C279.964 106.718 279.874 106.906 279.745 107.065C279.615 107.224 279.449 107.35 279.261 107.432C279.073 107.515 278.867 107.551 278.662 107.538H254.302C251.348 107.538 251.344 89.898 254.302 89.898H278.662C278.867 89.8852 279.073 89.9214 279.261 90.0036C279.449 90.0858 279.615 90.2117 279.745 90.3708C279.875 90.53 279.965 90.7178 280.008 90.9187C280.051 91.1197 280.046 91.3279 279.992 91.5263C278.839 94.8869 278.839 102.549 279.988 105.909Z" fill="#407BFF"/>
<path opacity="0.5" d="M265.396 90.5127C265.434 90.4481 265.453 90.3744 265.452 90.2996C265.45 90.2248 265.428 90.1518 265.388 90.0887C265.348 90.0257 265.291 89.9749 265.224 89.9419C265.157 89.909 265.082 89.8952 265.007 89.9021H260.869C257.92 89.9021 257.92 107.542 260.869 107.542H265.026C265.1 107.549 265.175 107.535 265.242 107.502C265.309 107.469 265.366 107.418 265.406 107.355C265.447 107.292 265.469 107.219 265.47 107.144C265.471 107.069 265.452 106.996 265.415 106.931C263.619 104.204 263.619 93.2355 265.396 90.5127Z" fill="white"/>
<path opacity="0.5" d="M271.855 90.5119C271.893 90.4469 271.911 90.3731 271.91 90.2982C271.908 90.2234 271.886 90.1504 271.846 90.0871C271.806 90.0238 271.75 89.9727 271.683 89.9391C271.616 89.9056 271.541 89.8909 271.466 89.8967H267.328C264.379 89.8967 264.379 107.536 267.328 107.536H271.466C271.541 107.542 271.615 107.528 271.681 107.495C271.748 107.461 271.804 107.41 271.844 107.347C271.883 107.284 271.905 107.212 271.906 107.138C271.907 107.063 271.888 106.99 271.851 106.926C270.078 104.203 270.078 93.2302 271.855 90.5119Z" fill="white"/>
<path d="M324.127 65.6043C324.047 64.3481 323.751 63.115 323.254 61.9588L323.661 61.7598C324.178 62.965 324.484 64.2502 324.566 65.5591L324.127 65.6043Z" fill="#407BFF"/>
<path d="M321.292 60H310.057V60.4523H321.292V60Z" fill="#407BFF"/>
<path d="M248.069 73.7543C247.838 74.3694 248.403 74.989 249.168 74.989H321.291C323.729 74.989 323.729 61.583 321.291 61.583H249.168C248.403 61.583 247.838 62.2072 248.069 62.8223C249.019 65.3687 249.019 71.1988 248.069 73.7543Z" fill="#407BFF"/>
<path opacity="0.2" d="M248.069 73.7543C247.838 74.3694 248.403 74.989 249.168 74.989H290.779C293.221 74.989 293.221 61.583 290.779 61.583H249.168C248.403 61.583 247.838 62.2072 248.069 62.8223C249.019 65.3687 249.019 71.1988 248.069 73.7543Z" fill="black"/>
<path opacity="0.8" d="M248.178 63.1523H289.572C291.444 63.1523 291.444 73.424 289.572 73.424H248.178C248.978 70.8459 248.978 65.7304 248.178 63.1523Z" fill="white"/>
<path opacity="0.2" d="M299.26 64.5722C299.079 63.9797 299.603 63.4053 300.327 63.4053H317.089C318.867 63.4053 318.867 73.1703 317.089 73.1703H300.327C299.603 73.1703 299.079 72.5959 299.26 71.9989C299.852 70.1219 299.852 66.4537 299.26 64.5722Z" fill="white"/>
</g>
</g>
<defs>
<filter id="filter0_d_2148_994" x="178" y="60" width="165.634" height="55.543" filterUnits="userSpaceOnUse" color-interpolation-filters="sRGB">
<feFlood flood-opacity="0" result="BackgroundImageFix"/>
<feColorMatrix in="SourceAlpha" type="matrix" values="0 0 0 0 0 0 0 0 0 0 0 0 0 0 0 0 0 0 127 0" result="hardAlpha"/>
<feOffset dx="10" dy="4"/>
<feGaussianBlur stdDeviation="2"/>
<feComposite in2="hardAlpha" operator="out"/>
<feColorMatrix type="matrix" values="0 0 0 0 0 0 0 0 0 0 0 0 0 0 0 0 0 0 0.25 0"/>
<feBlend mode="normal" in2="BackgroundImageFix" result="effect1_dropShadow_2148_994"/>
<feBlend mode="normal" in="SourceGraphic" in2="effect1_dropShadow_2148_994" result="shape"/>
</filter>
<clipPath id="clip0_2148_994">
<rect width="330" height="108" rx="10" fill="white"/>
</clipPath>
</defs>
</svg>
