<svg width="330" height="108" viewBox="0 0 330 108" fill="none" xmlns="http://www.w3.org/2000/svg">
<g clip-path="url(#clip0_2148_1220)">
<rect width="330" height="108" rx="10" fill="#8F8F8F"/>
<g filter="url(#filter0_d_2148_1220)">
<path d="M247.927 91.415L252.862 123.849H281.537L288.191 91.8817L247.927 91.415Z" fill="#FF725E"/>
<path d="M275.982 27.4161C275.973 27.4702 275.96 27.5236 275.944 27.5759L275.81 28.0298L275.266 29.7812C275.017 30.5419 274.729 31.4687 274.422 32.5554C274.116 33.6421 273.732 34.8758 273.387 36.2565C273.042 37.6372 272.633 39.1393 272.275 40.7693C271.917 42.3993 271.54 44.1508 271.169 45.9981C270.478 49.6928 269.852 53.7838 269.411 58.0985C268.97 62.4132 268.772 66.5553 268.772 70.3139C268.772 72.1932 268.772 73.983 268.823 75.6513C268.874 77.3197 268.938 78.8794 269.027 80.2984C269.117 81.7175 269.219 83.0023 269.309 84.1337C269.398 85.2651 269.494 86.2303 269.584 87.023C269.673 87.8156 269.731 88.4037 269.775 88.8447C269.775 89.0365 269.788 89.1963 269.814 89.3241C269.814 89.4264 269.814 89.4839 269.814 89.4839C269.793 89.433 269.78 89.3791 269.775 89.3241C269.775 89.2027 269.731 89.0429 269.699 88.8575C269.639 88.4101 269.556 87.8028 269.449 87.0358C269.341 86.2495 269.213 85.2843 269.117 84.1529C269.021 83.0215 268.861 81.7494 268.785 80.3176C268.708 78.8858 268.58 77.3389 268.535 75.6641C268.49 73.9894 268.465 72.1932 268.452 70.3075C268.497 66.5425 268.682 62.394 269.091 58.0665C269.5 53.739 270.178 49.6416 270.881 45.9214C271.265 44.0805 271.61 42.3226 272.019 40.6926C272.428 39.0626 272.799 37.5541 273.176 36.1798C273.553 34.8055 273.937 33.5718 274.263 32.4915C274.589 31.4112 274.902 30.478 275.158 29.7301L275.797 27.9978C275.867 27.8188 275.918 27.6718 275.963 27.5504C276.008 27.4289 275.982 27.4097 275.982 27.4161Z" fill="#455A64"/>
<path d="M270.793 47.4943C271.587 45.1571 273.168 43.1686 275.267 41.8692C275.977 41.4281 276.878 41.0702 277.626 41.4345C278.629 41.9203 278.706 43.3521 278.412 44.3941C277.897 46.2112 276.744 47.7817 275.165 48.8174C273.767 49.8542 272.016 50.2954 270.294 50.0448" fill="#455A64"/>
<path d="M269.048 61.0582C269.789 58.2584 272.026 54.2825 274.34 52.5438C274.698 52.2544 275.108 52.0373 275.548 51.9046C275.768 51.8426 276 51.8359 276.223 51.8849C276.446 51.934 276.653 52.0374 276.827 52.1859C277.026 52.4463 277.156 52.7523 277.206 53.0761C277.257 53.3999 277.225 53.7312 277.114 54.0396C276.639 56.0822 275.605 57.9523 274.127 59.4402C272.649 60.9282 270.786 61.9754 268.747 62.4645" fill="#455A64"/>
<path d="M268.567 72.9983C269.721 70.3244 271.565 68.0057 273.911 66.2802C274.164 66.0561 274.458 65.8842 274.777 65.7745C275.097 65.6648 275.434 65.6194 275.771 65.6409C276.788 65.8263 277.248 67.06 277.158 68.0891C276.973 70.1985 275.356 71.8925 273.694 73.2029C272.165 74.2666 270.504 75.1262 268.753 75.7597" fill="#455A64"/>
<path d="M268.836 81.5769C269.952 79.5401 271.504 77.7744 273.381 76.4057C273.779 76.09 274.245 75.8711 274.742 75.7664C274.991 75.7225 275.248 75.7468 275.484 75.8368C275.72 75.9269 275.928 76.0793 276.085 76.2778C276.538 76.917 276.085 77.8503 275.618 78.4959C274.014 80.729 271.742 82.3945 269.13 83.2517" fill="#455A64"/>
<path d="M268.611 78.0935C266.654 75.6915 264.48 73.4747 262.117 71.4712C261.746 71.158 261.28 70.832 260.839 70.9854C260.666 71.0579 260.519 71.1784 260.413 71.3326C260.308 71.4867 260.249 71.6681 260.244 71.8548C260.244 72.2312 260.329 72.6028 260.493 72.9414C261.27 74.6661 262.424 76.1937 263.872 77.411C265.319 78.6283 267.022 79.5039 268.854 79.9728" fill="#455A64"/>
<path d="M268.823 66.9259L263.709 60.7C263.259 60.0785 262.698 59.5455 262.054 59.1275C261.74 58.8949 261.361 58.7673 260.971 58.7628C260.58 58.7583 260.198 58.8772 259.88 59.1025C259.561 59.3279 259.321 59.6481 259.195 60.0176C259.069 60.3871 259.063 60.787 259.177 61.1602C259.365 61.9037 259.704 62.6002 260.174 63.2057C261.17 64.7331 262.43 66.0708 263.895 67.1561C265.39 68.1852 266.752 68.8564 268.555 68.5879" fill="#455A64"/>
<path d="M269.532 54.353C268.539 51.3766 266.774 48.7167 264.419 46.644C264.05 46.2696 263.589 45.9985 263.083 45.8578C262.06 45.666 261.069 46.497 260.743 47.507C260.579 48.0707 260.536 48.6627 260.616 49.2443C260.697 49.8258 260.899 50.3839 261.21 50.882C261.829 51.8864 262.645 52.7559 263.607 53.4389C265.326 54.7535 267.242 55.789 269.283 56.5071" fill="#455A64"/>
<path d="M271.571 43.1406C271.073 39.5354 269.2 36.5311 267.02 33.6163C266.566 32.9771 265.927 32.3378 265.166 32.4593C264.927 32.5115 264.704 32.6223 264.518 32.7818C264.331 32.9414 264.187 33.1446 264.099 33.3734C263.931 33.8353 263.863 34.3278 263.901 34.818C263.994 37.0039 264.73 39.1138 266.015 40.884C267.301 42.6541 269.08 44.006 271.13 44.7706" fill="#455A64"/>
<path d="M272.997 37.4203C272.759 35.5701 272.697 33.7017 272.811 31.8399C272.929 29.968 273.571 28.167 274.665 26.6431C275.131 25.9858 275.774 25.4739 276.519 25.1665C276.891 25.018 277.295 24.9676 277.692 25.0202C278.09 25.0728 278.467 25.2267 278.788 25.4669C279.06 25.7214 279.272 26.034 279.407 26.3815C279.542 26.729 279.597 27.1024 279.568 27.4741C279.507 28.2147 279.312 28.9382 278.992 29.6091C277.631 32.8818 275.368 36.4998 272.997 37.4203Z" fill="#455A64"/>
<path d="M250.765 41.7158C250.78 41.8689 250.78 42.023 250.765 42.1761C250.765 42.5084 250.765 42.9346 250.765 43.4545C250.765 44.0234 250.765 44.7329 250.765 45.5256C250.765 46.3182 250.765 47.2514 250.861 48.2678C250.951 50.2941 251.149 52.7039 251.456 55.3695C251.762 58.035 252.331 60.9818 252.971 64.0117C253.61 67.0415 254.345 69.9308 255.112 72.4877C255.879 75.0445 256.691 77.3393 257.426 79.2314C257.771 80.1902 258.135 81.034 258.436 81.7882C258.736 82.5425 259.005 83.1753 259.235 83.7059C259.465 84.2364 259.618 84.6008 259.746 84.9076C259.815 85.044 259.869 85.1877 259.906 85.3359C259.823 85.2076 259.751 85.0729 259.689 84.9332C259.542 84.6392 259.35 84.2428 259.12 83.757C258.89 83.2712 258.576 82.6128 258.263 81.8394C257.95 81.0659 257.567 80.2605 257.202 79.2825C256.442 77.3649 255.623 75.1084 254.818 72.5388C254.012 69.9691 253.258 67.1055 252.613 64.0628C251.967 61.0201 251.539 58.0861 251.226 55.4142C250.912 52.7423 250.759 50.3005 250.701 48.2806C250.65 47.2642 250.663 46.3629 250.65 45.5383C250.637 44.7137 250.65 44.0298 250.65 43.4609C250.65 42.892 250.689 42.4829 250.701 42.1505C250.708 42.0038 250.729 41.8581 250.765 41.7158Z" fill="#263238"/>
<path d="M251.564 56.5077C251.597 54.7487 252.241 53.0559 253.386 51.72C253.552 51.4727 253.775 51.2694 254.037 51.128C254.298 50.9865 254.591 50.9111 254.888 50.9082C255.675 51.0233 256.033 51.9629 256.058 52.7555C256.095 54.1053 255.64 55.4225 254.78 56.463C254.054 57.4709 252.957 58.1492 251.731 58.3487" fill="#263238"/>
<path d="M253.297 66.0954C253.201 64.0307 253.866 60.841 255.068 59.1663C255.245 58.8891 255.478 58.6518 255.752 58.4695C255.888 58.3793 256.045 58.3239 256.207 58.3083C256.37 58.2927 256.534 58.3173 256.685 58.38C256.877 58.5147 257.033 58.6951 257.137 58.9049C257.242 59.1147 257.293 59.3473 257.286 59.5818C257.403 61.0751 257.101 62.5715 256.415 63.9028C255.728 65.2341 254.684 66.3476 253.399 67.1181" fill="#263238"/>
<path d="M255.527 74.3416C255.746 72.2835 256.507 70.3204 257.733 68.6526C257.852 68.4416 258.014 68.2573 258.207 68.1111C258.401 67.9649 258.622 67.8599 258.858 67.8024C259.586 67.7065 260.136 68.4416 260.321 69.1703C260.654 70.6469 259.919 72.1427 259.043 73.3955C258.229 74.4456 257.282 75.3847 256.224 76.1889" fill="#263238"/>
<path d="M257.573 80.1576C257.894 78.5387 258.568 77.0106 259.548 75.6831C259.757 75.3886 260.03 75.1458 260.347 74.9736C260.507 74.8897 260.687 74.8508 260.867 74.8609C261.047 74.8711 261.221 74.9299 261.37 75.0311C261.824 75.3891 261.722 76.0986 261.53 76.6419C260.918 78.5071 259.729 80.1299 258.136 81.2762" fill="#263238"/>
<path d="M256.665 77.8C254.814 76.5898 252.856 75.55 250.817 74.6934C250.67 74.6027 250.503 74.5504 250.331 74.5414C250.159 74.5325 249.987 74.5672 249.832 74.6423C249.729 74.7281 249.654 74.8423 249.615 74.9708C249.576 75.0992 249.576 75.2361 249.615 75.3646C249.696 75.62 249.833 75.8538 250.018 76.0486C250.918 77.0562 252.034 77.8482 253.282 78.3661C254.53 78.8839 255.879 79.1143 257.228 79.0401" fill="#263238"/>
<path d="M254.402 70.1547L249.589 67.0162C249.15 66.6884 248.653 66.4456 248.125 66.3002C247.859 66.2326 247.58 66.2391 247.317 66.3191C247.055 66.3991 246.819 66.5496 246.636 66.7541C246.487 66.9832 246.404 67.2496 246.399 67.523C246.393 67.7964 246.464 68.0659 246.604 68.301C246.888 68.7707 247.269 69.1739 247.722 69.4835C248.727 70.3104 249.873 70.9492 251.104 71.3692C252.344 71.7464 253.418 71.9126 254.588 71.3692" fill="#263238"/>
<path d="M252.185 61.4414C250.861 59.6292 249.082 58.2001 247.026 57.2993C246.694 57.1236 246.322 57.0377 245.946 57.05C245.584 57.1355 245.262 57.344 245.036 57.64C244.81 57.9361 244.693 58.3013 244.706 58.6736C244.718 59.0932 244.816 59.5059 244.996 59.8854C245.175 60.265 245.431 60.6033 245.748 60.8789C246.388 61.4207 247.129 61.8312 247.928 62.087C249.381 62.6124 250.909 62.9036 252.453 62.9499" fill="#263238"/>
<path d="M251.155 53.3681C250.043 51.0222 248.119 49.3794 246.042 47.8644C245.846 47.6729 245.604 47.536 245.339 47.4676C245.075 47.3992 244.797 47.4015 244.533 47.4745C244.379 47.5603 244.249 47.684 244.157 47.8339C244.064 47.9838 244.011 48.1549 244.002 48.3311C243.987 48.6803 244.046 49.029 244.175 49.3538C244.708 50.8166 245.658 52.091 246.908 53.0193C248.157 53.9476 249.652 54.4889 251.206 54.5762" fill="#263238"/>
<path d="M250.899 49.163C250.337 47.9576 249.892 46.7012 249.57 45.4108C249.248 44.1109 249.296 42.7468 249.71 41.4732C249.889 40.9256 250.216 40.4385 250.656 40.067C250.878 39.8863 251.143 39.7656 251.425 39.7164C251.707 39.6671 251.997 39.691 252.267 39.7857C252.508 39.8989 252.72 40.0653 252.887 40.2723C253.054 40.4794 253.172 40.7217 253.232 40.981C253.343 41.4999 253.365 42.0338 253.296 42.5599C253.079 45.0784 252.312 48.0316 250.899 49.163Z" fill="#263238"/>
<path d="M287.015 41.4033C287.045 41.5527 287.06 41.7048 287.06 41.8572C287.06 42.1895 287.06 42.6242 287.104 43.1676C287.149 43.7109 287.143 44.446 287.104 45.2386C287.066 46.0312 287.104 46.9709 287.053 47.9873C286.996 50.02 286.823 52.4617 286.536 55.1209C286.248 57.78 285.775 60.7204 285.142 63.7695C284.509 66.8185 283.729 69.6694 282.943 72.2455C282.157 74.8215 281.32 77.1035 280.553 78.9892C280.195 79.9416 279.811 80.779 279.498 81.5461C279.185 82.3131 278.859 82.9268 278.641 83.4637L278.066 84.6399C278.007 84.7812 277.935 84.9161 277.849 85.0426C277.886 84.8943 277.939 84.7507 278.008 84.6143L278.539 83.355C278.769 82.8373 279.044 82.1981 279.338 81.4374C279.632 80.6767 279.977 79.8457 280.348 78.8805C281.083 76.9629 281.876 74.7001 282.662 72.1368C283.448 69.5736 284.19 66.7099 284.829 63.68C285.468 60.6501 285.916 57.7289 286.242 55.0634C286.568 52.3978 286.747 49.988 286.836 47.9617C286.906 46.9453 286.906 46.044 286.938 45.2194C286.97 44.3948 286.938 43.7173 286.938 43.1484C286.938 42.5795 286.938 42.1704 286.938 41.838C286.95 41.691 286.976 41.5454 287.015 41.4033Z" fill="#455A64"/>
<path d="M286.21 56.1879C286.177 54.4269 285.533 52.7322 284.388 51.3938C284.22 51.1466 283.994 50.9444 283.73 50.8051C283.466 50.6658 283.172 50.5935 282.873 50.5947C282.093 50.7098 281.735 51.6495 281.703 52.4421C281.667 53.7919 282.121 55.1091 282.982 56.1495C283.709 57.1559 284.805 57.8337 286.031 58.0352" fill="#455A64"/>
<path d="M284.483 65.7951C284.579 63.7305 283.921 60.5408 282.713 58.8596C282.533 58.5858 282.301 58.351 282.029 58.1693C281.893 58.0774 281.737 58.0211 281.573 58.0054C281.41 57.9898 281.246 58.0154 281.095 58.0798C280.903 58.2135 280.747 58.3939 280.643 58.6041C280.539 58.8142 280.49 59.0473 280.501 59.2815C280.385 60.774 280.686 62.2694 281.371 63.6004C282.057 64.9314 283.099 66.0454 284.381 66.8179" fill="#455A64"/>
<path d="M282.241 74.0281C282.039 71.9496 281.284 69.9632 280.055 68.2752C279.933 68.0653 279.771 67.8816 279.578 67.7346C279.385 67.5876 279.164 67.4802 278.93 67.4186C278.195 67.3291 277.651 68.0578 277.459 68.7865C277.127 70.2631 277.862 71.7653 278.738 73.0181C279.553 74.0666 280.501 75.0055 281.557 75.8115" fill="#455A64"/>
<path d="M280.215 79.8131C279.89 78.1945 279.213 76.6671 278.233 75.3386C278.025 75.044 277.751 74.8013 277.434 74.629C277.276 74.5451 277.097 74.5061 276.918 74.5162C276.739 74.5264 276.566 74.5853 276.418 74.6866C275.964 75.0445 276.06 75.754 276.258 76.2974C276.865 78.1634 278.052 79.7869 279.646 80.9317" fill="#455A64"/>
<path d="M281.097 77.4865C282.948 76.2763 284.906 75.2365 286.946 74.3799C287.092 74.2898 287.259 74.2374 287.43 74.2274C287.602 74.2173 287.774 74.25 287.93 74.3224C288.032 74.4093 288.106 74.5235 288.145 74.6516C288.183 74.7797 288.184 74.9162 288.147 75.0447C288.068 75.3027 287.93 75.5389 287.745 75.7351C286.844 76.7423 285.728 77.5342 284.48 78.052C283.232 78.5698 281.883 78.8004 280.534 78.7266" fill="#455A64"/>
<path d="M283.377 69.8415L288.191 66.7349C288.63 66.407 289.126 66.1642 289.654 66.019C289.92 65.9513 290.2 65.9579 290.462 66.0379C290.725 66.1179 290.961 66.2683 291.144 66.4728C291.293 66.7019 291.375 66.9683 291.381 67.2417C291.386 67.5151 291.315 67.7846 291.176 68.0197C290.885 68.4781 290.499 68.8684 290.044 69.1639C289.045 70.0066 287.899 70.6568 286.663 71.0816C285.423 71.4587 284.349 71.6249 283.186 71.0816" fill="#455A64"/>
<path d="M285.603 61.1288C286.922 59.3137 288.7 57.8819 290.755 56.9803C291.089 56.8095 291.461 56.726 291.835 56.7374C292.198 56.8229 292.52 57.0314 292.746 57.3274C292.972 57.6235 293.088 57.9887 293.075 58.361C293.064 58.7797 292.965 59.1915 292.786 59.5701C292.607 59.9487 292.35 60.2858 292.033 60.5599C291.394 61.104 290.653 61.5167 289.854 61.7744C288.4 62.2997 286.873 62.591 285.328 62.6373" fill="#455A64"/>
<path d="M286.625 53.0557C287.737 50.7034 289.661 49.067 291.739 47.5456C291.936 47.3547 292.179 47.2187 292.445 47.1514C292.711 47.0841 292.99 47.0878 293.254 47.1621C293.405 47.2486 293.533 47.3717 293.624 47.5203C293.716 47.6688 293.769 47.838 293.778 48.0123C293.797 48.3639 293.738 48.7154 293.605 49.0414C293.07 50.509 292.115 51.7868 290.859 52.7154C289.603 53.6441 288.102 54.1826 286.542 54.2638" fill="#455A64"/>
<path d="M286.888 48.8365C287.446 47.6281 287.889 46.3696 288.211 45.0779C288.533 43.7802 288.484 42.4181 288.07 41.1468C287.892 40.5991 287.564 40.112 287.124 39.7405C286.903 39.5587 286.638 39.4373 286.356 39.3881C286.074 39.3388 285.783 39.3633 285.513 39.4592C285.273 39.5728 285.062 39.7394 284.896 39.9465C284.73 40.1536 284.613 40.3957 284.555 40.6546C284.438 41.1726 284.415 41.7071 284.484 42.2334C284.708 44.752 285.469 47.7051 286.888 48.8365Z" fill="#455A64"/>
<path d="M244.661 84.9902V91.0564C244.66 91.3706 244.722 91.6818 244.841 91.9723C244.961 92.2627 245.137 92.5266 245.359 92.7487C245.582 92.9709 245.846 93.147 246.136 93.2668C246.426 93.3866 246.738 93.4479 247.052 93.4471H288.601C288.914 93.4471 289.225 93.3852 289.515 93.265C289.804 93.1447 290.068 92.9685 290.289 92.7465C290.51 92.5244 290.686 92.2608 290.805 91.9708C290.925 91.6808 290.986 91.37 290.985 91.0564V84.9902H244.661Z" fill="#FF725E"/>
<g opacity="0.4">
<path d="M248.234 93.4482L248.58 95.3787L286.894 98.1145L287.866 93.4482H248.234Z" fill="black"/>
</g>
</g>
<g filter="url(#filter1_d_2148_1220)">
<path d="M292.927 75.415L297.862 107.849H326.537L333.191 75.8817L292.927 75.415Z" fill="#FF725E"/>
<path d="M329.184 96.2019C329.184 96.2914 321.833 96.3681 312.775 96.3681C303.718 96.3681 296.36 96.2914 296.36 96.2019C296.36 96.1124 303.711 96.0293 312.775 96.0293C321.839 96.0293 329.184 96.1188 329.184 96.2019Z" fill="#FAFAFA"/>
<path d="M329.292 94.6037C329.292 94.6996 321.896 94.7699 312.775 94.7699C303.653 94.7699 296.251 94.6996 296.251 94.6037C296.251 94.5078 303.647 94.4375 312.775 94.4375C321.903 94.4375 329.292 94.5142 329.292 94.6037Z" fill="#FAFAFA"/>
<path d="M329.234 92.801C329.234 92.8969 321.839 92.9735 312.717 92.9735C303.595 92.9735 296.193 92.8969 296.193 92.801C296.193 92.7051 303.589 92.6348 312.717 92.6348C321.845 92.6348 329.234 92.7115 329.234 92.801Z" fill="#FAFAFA"/>
<path d="M301.167 105.995C300.765 104.659 300.472 103.293 300.291 101.91C299.998 100.548 299.814 99.1654 299.741 97.7744C300.14 99.1148 300.431 100.485 300.611 101.872C300.907 103.229 301.093 104.608 301.167 105.995Z" fill="#FAFAFA"/>
<path d="M303.085 105.649C302.882 104.331 302.764 103.001 302.733 101.667C302.59 100.34 302.526 99.0062 302.541 97.6719C303.058 100.297 303.24 102.978 303.085 105.649Z" fill="#FAFAFA"/>
<path d="M306.665 105.649C306.271 104.318 306.02 102.949 305.917 101.565C305.701 100.193 305.628 98.8026 305.699 97.416C305.96 98.7745 306.144 100.147 306.249 101.526C306.462 102.892 306.6 104.268 306.665 105.649Z" fill="#FAFAFA"/>
<path d="M309.157 105.822C308.882 104.456 308.749 103.066 308.76 101.673C308.661 100.281 308.703 98.8824 308.888 97.499C309.039 98.8808 309.108 100.27 309.093 101.66C309.197 103.045 309.218 104.434 309.157 105.822Z" fill="#FAFAFA"/>
<path d="M313.574 105.65C313.265 103.032 313.178 100.394 313.312 97.7617C313.631 100.378 313.721 103.018 313.58 105.65H313.574Z" fill="#FAFAFA"/>
<path d="M316.803 105.822C316.644 104.471 316.599 103.109 316.668 101.75C316.626 100.388 316.692 99.0239 316.866 97.6719C317.025 99.0251 317.07 100.389 317.001 101.75C317.047 103.11 316.98 104.472 316.803 105.822Z" fill="#FAFAFA"/>
<path d="M319.825 105.388C319.798 103.964 319.879 102.541 320.068 101.13C320.153 99.7092 320.347 98.2966 320.65 96.9053C320.681 98.3285 320.6 99.752 320.407 101.162C320.326 102.584 320.132 103.997 319.825 105.388Z" fill="#FAFAFA"/>
<path d="M323.731 104.966C323.851 102.523 324.374 100.117 325.278 97.8447C325.099 99.0468 324.852 100.238 324.537 101.412C324.331 102.61 324.062 103.796 323.731 104.966Z" fill="#FAFAFA"/>
<path d="M320.982 11.4161C320.973 11.4702 320.96 11.5236 320.944 11.5759L320.81 12.0298L320.266 13.7812C320.017 14.5419 319.729 15.4687 319.422 16.5554C319.116 17.6421 318.732 18.8758 318.387 20.2565C318.042 21.6372 317.633 23.1393 317.275 24.7693C316.917 26.3993 316.54 28.1508 316.169 29.9981C315.478 33.6928 314.852 37.7838 314.411 42.0985C313.97 46.4132 313.772 50.5553 313.772 54.3139C313.772 56.1932 313.772 57.983 313.823 59.6513C313.874 61.3197 313.938 62.8794 314.027 64.2984C314.117 65.7175 314.219 67.0023 314.309 68.1337C314.398 69.2651 314.494 70.2303 314.584 71.023C314.673 71.8156 314.731 72.4037 314.775 72.8447C314.775 73.0365 314.788 73.1963 314.814 73.3241C314.814 73.4264 314.814 73.4839 314.814 73.4839C314.793 73.433 314.78 73.3791 314.775 73.3241C314.775 73.2027 314.731 73.0429 314.699 72.8575C314.639 72.4101 314.556 71.8028 314.449 71.0358C314.341 70.2495 314.213 69.2843 314.117 68.1529C314.021 67.0215 313.861 65.7494 313.785 64.3176C313.708 62.8858 313.58 61.3389 313.535 59.6641C313.49 57.9894 313.465 56.1932 313.452 54.3075C313.497 50.5425 313.682 46.394 314.091 42.0665C314.5 37.739 315.178 33.6416 315.881 29.9214C316.265 28.0805 316.61 26.3226 317.019 24.6926C317.428 23.0626 317.799 21.5541 318.176 20.1798C318.553 18.8055 318.937 17.5718 319.263 16.4915C319.589 15.4112 319.902 14.478 320.158 13.7301L320.797 11.9978C320.867 11.8188 320.918 11.6718 320.963 11.5504C321.008 11.4289 320.982 11.4097 320.982 11.4161Z" fill="#455A64"/>
<path d="M315.793 31.4943C316.587 29.1571 318.168 27.1686 320.267 25.8692C320.977 25.4281 321.878 25.0702 322.626 25.4345C323.629 25.9203 323.706 27.3521 323.412 28.3941C322.897 30.2112 321.744 31.7817 320.165 32.8174C318.767 33.8542 317.016 34.2954 315.294 34.0448" fill="#455A64"/>
<path d="M314.048 45.0582C314.789 42.2584 317.026 38.2825 319.34 36.5438C319.698 36.2544 320.108 36.0373 320.548 35.9046C320.768 35.8426 321 35.8359 321.223 35.8849C321.446 35.934 321.653 36.0374 321.827 36.1859C322.026 36.4463 322.156 36.7523 322.206 37.0761C322.257 37.3999 322.225 37.7312 322.114 38.0396C321.639 40.0822 320.605 41.9523 319.127 43.4402C317.649 44.9282 315.786 45.9754 313.747 46.4645" fill="#455A64"/>
<path d="M313.567 56.9983C314.721 54.3244 316.565 52.0057 318.911 50.2802C319.164 50.0561 319.458 49.8842 319.777 49.7745C320.097 49.6648 320.434 49.6194 320.771 49.6409C321.788 49.8263 322.248 51.06 322.158 52.0891C321.973 54.1985 320.356 55.8925 318.694 57.2029C317.165 58.2666 315.504 59.1262 313.753 59.7597" fill="#455A64"/>
<path d="M313.836 65.5769C314.952 63.5401 316.504 61.7744 318.381 60.4057C318.779 60.09 319.245 59.8711 319.742 59.7664C319.991 59.7225 320.248 59.7468 320.484 59.8368C320.72 59.9269 320.928 60.0793 321.085 60.2778C321.538 60.917 321.085 61.8503 320.618 62.4959C319.014 64.729 316.742 66.3945 314.13 67.2517" fill="#455A64"/>
<path d="M313.611 62.0935C311.654 59.6915 309.48 57.4747 307.117 55.4712C306.746 55.158 306.28 54.832 305.839 54.9854C305.666 55.0579 305.519 55.1784 305.413 55.3326C305.308 55.4867 305.249 55.6681 305.244 55.8548C305.244 56.2312 305.329 56.6028 305.493 56.9414C306.27 58.6661 307.424 60.1937 308.872 61.411C310.319 62.6283 312.022 63.5039 313.854 63.9728" fill="#455A64"/>
<path d="M313.823 50.9259L308.709 44.7C308.259 44.0785 307.698 43.5455 307.054 43.1275C306.74 42.8949 306.361 42.7673 305.971 42.7628C305.58 42.7583 305.198 42.8772 304.88 43.1025C304.561 43.3279 304.321 43.6481 304.195 44.0176C304.069 44.3871 304.063 44.787 304.177 45.1602C304.365 45.9037 304.704 46.6002 305.174 47.2057C306.17 48.7331 307.43 50.0708 308.895 51.1561C310.39 52.1852 311.752 52.8564 313.555 52.5879" fill="#455A64"/>
<path d="M314.532 38.353C313.539 35.3766 311.774 32.7167 309.419 30.644C309.05 30.2696 308.589 29.9985 308.083 29.8578C307.06 29.666 306.069 30.497 305.743 31.507C305.579 32.0707 305.536 32.6627 305.616 33.2443C305.697 33.8258 305.899 34.3839 306.21 34.882C306.829 35.8864 307.645 36.7559 308.607 37.4389C310.326 38.7535 312.242 39.789 314.283 40.5071" fill="#455A64"/>
<path d="M316.571 27.1406C316.073 23.5354 314.2 20.5311 312.02 17.6163C311.566 16.9771 310.927 16.3378 310.166 16.4593C309.927 16.5115 309.704 16.6223 309.518 16.7818C309.331 16.9414 309.187 17.1446 309.099 17.3734C308.931 17.8353 308.863 18.3278 308.901 18.818C308.994 21.0039 309.73 23.1138 311.015 24.884C312.301 26.6541 314.08 28.006 316.13 28.7706" fill="#455A64"/>
<path d="M317.997 21.4203C317.759 19.5701 317.697 17.7017 317.811 15.8399C317.929 13.968 318.571 12.167 319.665 10.6431C320.131 9.98584 320.774 9.47393 321.519 9.1665C321.891 9.018 322.295 8.96763 322.692 9.02024C323.09 9.07285 323.467 9.22667 323.788 9.46694C324.06 9.72137 324.272 10.034 324.407 10.3815C324.542 10.729 324.597 11.1024 324.568 11.4741C324.507 12.2147 324.312 12.9382 323.992 13.6091C322.631 16.8818 320.368 20.4998 317.997 21.4203Z" fill="#455A64"/>
<path d="M295.765 25.7158C295.78 25.8689 295.78 26.023 295.765 26.1761C295.765 26.5084 295.765 26.9346 295.765 27.4545C295.765 28.0234 295.765 28.7329 295.765 29.5256C295.765 30.3182 295.765 31.2514 295.861 32.2678C295.951 34.2941 296.149 36.7039 296.456 39.3695C296.762 42.035 297.331 44.9818 297.971 48.0117C298.61 51.0415 299.345 53.9308 300.112 56.4877C300.879 59.0445 301.691 61.3393 302.426 63.2314C302.771 64.1902 303.135 65.034 303.436 65.7882C303.736 66.5425 304.005 67.1753 304.235 67.7059C304.465 68.2364 304.618 68.6008 304.746 68.9076C304.815 69.044 304.869 69.1877 304.906 69.3359C304.823 69.2076 304.751 69.0729 304.689 68.9332C304.542 68.6392 304.35 68.2428 304.12 67.757C303.89 67.2712 303.576 66.6128 303.263 65.8394C302.95 65.0659 302.567 64.2605 302.202 63.2825C301.442 61.3649 300.623 59.1084 299.818 56.5388C299.012 53.9691 298.258 51.1055 297.613 48.0628C296.967 45.0201 296.539 42.0861 296.226 39.4142C295.912 36.7423 295.759 34.3005 295.701 32.2806C295.65 31.2642 295.663 30.3629 295.65 29.5383C295.637 28.7137 295.65 28.0298 295.65 27.4609C295.65 26.892 295.689 26.4829 295.701 26.1505C295.708 26.0038 295.729 25.8581 295.765 25.7158Z" fill="#263238"/>
<path d="M296.564 40.5077C296.597 38.7487 297.241 37.0559 298.386 35.72C298.552 35.4727 298.775 35.2694 299.037 35.128C299.298 34.9865 299.591 34.9111 299.888 34.9082C300.675 35.0233 301.033 35.9629 301.058 36.7555C301.095 38.1053 300.64 39.4225 299.78 40.463C299.054 41.4709 297.957 42.1492 296.731 42.3487" fill="#263238"/>
<path d="M298.297 50.0954C298.201 48.0307 298.866 44.841 300.068 43.1663C300.245 42.8891 300.478 42.6518 300.752 42.4695C300.888 42.3793 301.045 42.3239 301.207 42.3083C301.37 42.2927 301.534 42.3173 301.685 42.38C301.877 42.5147 302.033 42.6951 302.137 42.9049C302.242 43.1147 302.293 43.3473 302.286 43.5818C302.403 45.0751 302.101 46.5715 301.415 47.9028C300.728 49.2341 299.684 50.3476 298.399 51.1181" fill="#263238"/>
<path d="M300.527 58.3416C300.746 56.2835 301.507 54.3204 302.733 52.6526C302.852 52.4416 303.014 52.2573 303.207 52.1111C303.401 51.9649 303.622 51.8599 303.858 51.8024C304.586 51.7065 305.136 52.4416 305.321 53.1703C305.654 54.6469 304.919 56.1427 304.043 57.3955C303.229 58.4456 302.282 59.3847 301.224 60.1889" fill="#263238"/>
<path d="M302.573 64.1576C302.894 62.5387 303.568 61.0106 304.548 59.6831C304.757 59.3886 305.03 59.1458 305.347 58.9736C305.507 58.8897 305.687 58.8508 305.867 58.8609C306.047 58.8711 306.221 58.9299 306.37 59.0311C306.824 59.3891 306.722 60.0986 306.53 60.6419C305.918 62.5071 304.729 64.1299 303.136 65.2762" fill="#263238"/>
<path d="M301.665 61.8C299.814 60.5898 297.856 59.55 295.817 58.6934C295.67 58.6027 295.503 58.5504 295.331 58.5414C295.159 58.5325 294.987 58.5672 294.832 58.6423C294.729 58.7281 294.654 58.8423 294.615 58.9708C294.576 59.0992 294.576 59.2361 294.615 59.3646C294.696 59.62 294.833 59.8538 295.018 60.0486C295.918 61.0562 297.034 61.8482 298.282 62.3661C299.53 62.8839 300.879 63.1143 302.228 63.0401" fill="#263238"/>
<path d="M299.402 54.1547L294.589 51.0162C294.15 50.6884 293.653 50.4456 293.125 50.3002C292.859 50.2326 292.58 50.2391 292.317 50.3191C292.055 50.3991 291.819 50.5496 291.636 50.7541C291.487 50.9832 291.404 51.2496 291.399 51.523C291.393 51.7964 291.464 52.0659 291.604 52.301C291.888 52.7707 292.269 53.1739 292.722 53.4835C293.727 54.3104 294.873 54.9492 296.104 55.3692C297.344 55.7464 298.418 55.9126 299.588 55.3692" fill="#263238"/>
<path d="M297.185 45.4414C295.861 43.6292 294.082 42.2001 292.026 41.2993C291.694 41.1236 291.322 41.0377 290.946 41.05C290.584 41.1355 290.262 41.344 290.036 41.64C289.81 41.9361 289.693 42.3013 289.706 42.6736C289.718 43.0932 289.816 43.5059 289.996 43.8854C290.175 44.265 290.431 44.6033 290.748 44.8789C291.388 45.4207 292.129 45.8312 292.928 46.087C294.381 46.6124 295.909 46.9036 297.453 46.9499" fill="#263238"/>
<path d="M296.155 37.3681C295.043 35.0222 293.119 33.3794 291.042 31.8644C290.846 31.6729 290.604 31.536 290.339 31.4676C290.075 31.3992 289.797 31.4015 289.533 31.4745C289.379 31.5603 289.249 31.684 289.157 31.8339C289.064 31.9838 289.011 32.1549 289.002 32.3311C288.987 32.6803 289.046 33.029 289.175 33.3538C289.708 34.8166 290.658 36.091 291.908 37.0193C293.157 37.9476 294.652 38.4889 296.206 38.5762" fill="#263238"/>
<path d="M295.899 33.163C295.337 31.9576 294.892 30.7012 294.57 29.4108C294.248 28.1109 294.296 26.7468 294.71 25.4732C294.889 24.9256 295.216 24.4385 295.656 24.067C295.878 23.8863 296.143 23.7656 296.425 23.7164C296.707 23.6671 296.997 23.691 297.267 23.7857C297.508 23.8989 297.72 24.0653 297.887 24.2723C298.054 24.4794 298.172 24.7217 298.232 24.981C298.343 25.4999 298.365 26.0338 298.296 26.5599C298.079 29.0784 297.312 32.0316 295.899 33.163Z" fill="#263238"/>
<path d="M332.015 25.4033C332.045 25.5527 332.06 25.7048 332.06 25.8572C332.06 26.1895 332.06 26.6242 332.104 27.1676C332.149 27.7109 332.143 28.446 332.104 29.2386C332.066 30.0312 332.104 30.9709 332.053 31.9873C331.996 34.02 331.823 36.4617 331.536 39.1209C331.248 41.78 330.775 44.7204 330.142 47.7695C329.509 50.8185 328.729 53.6694 327.943 56.2455C327.157 58.8215 326.32 61.1035 325.553 62.9892C325.195 63.9416 324.811 64.779 324.498 65.5461C324.185 66.3131 323.859 66.9268 323.641 67.4637L323.066 68.6399C323.007 68.7812 322.935 68.9161 322.849 69.0426C322.886 68.8943 322.939 68.7507 323.008 68.6143L323.539 67.355C323.769 66.8373 324.044 66.1981 324.338 65.4374C324.632 64.6767 324.977 63.8457 325.348 62.8805C326.083 60.9629 326.876 58.7001 327.662 56.1368C328.448 53.5736 329.19 50.7099 329.829 47.68C330.468 44.6501 330.916 41.7289 331.242 39.0634C331.568 36.3978 331.747 33.988 331.836 31.9617C331.906 30.9453 331.906 30.044 331.938 29.2194C331.97 28.3948 331.938 27.7173 331.938 27.1484C331.938 26.5795 331.938 26.1704 331.938 25.838C331.95 25.691 331.976 25.5454 332.015 25.4033Z" fill="#455A64"/>
<path d="M331.21 40.1879C331.177 38.4269 330.533 36.7322 329.388 35.3938C329.22 35.1466 328.994 34.9444 328.73 34.8051C328.466 34.6658 328.172 34.5935 327.873 34.5947C327.093 34.7098 326.735 35.6495 326.703 36.4421C326.667 37.7919 327.121 39.1091 327.982 40.1495C328.709 41.1559 329.805 41.8337 331.031 42.0352" fill="#455A64"/>
<path d="M329.483 49.7951C329.579 47.7305 328.921 44.5408 327.713 42.8596C327.533 42.5858 327.301 42.351 327.029 42.1693C326.893 42.0774 326.737 42.0211 326.573 42.0054C326.41 41.9898 326.246 42.0154 326.095 42.0798C325.903 42.2135 325.747 42.3939 325.643 42.6041C325.539 42.8142 325.49 43.0473 325.501 43.2815C325.385 44.774 325.686 46.2694 326.371 47.6004C327.057 48.9314 328.099 50.0454 329.381 50.8179" fill="#455A64"/>
<path d="M327.241 58.0281C327.039 55.9496 326.284 53.9632 325.055 52.2752C324.933 52.0653 324.771 51.8816 324.578 51.7346C324.385 51.5876 324.164 51.4802 323.93 51.4186C323.195 51.3291 322.651 52.0578 322.459 52.7865C322.127 54.2631 322.862 55.7653 323.738 57.0181C324.553 58.0666 325.501 59.0055 326.557 59.8115" fill="#455A64"/>
<path d="M325.215 63.8131C324.89 62.1945 324.213 60.6671 323.233 59.3386C323.025 59.044 322.751 58.8013 322.434 58.629C322.276 58.5451 322.097 58.5061 321.918 58.5162C321.739 58.5264 321.566 58.5853 321.418 58.6866C320.964 59.0445 321.06 59.754 321.258 60.2974C321.865 62.1634 323.052 63.7869 324.646 64.9317" fill="#455A64"/>
<path d="M326.097 61.4865C327.948 60.2763 329.906 59.2365 331.946 58.3799C332.092 58.2898 332.259 58.2374 332.43 58.2274C332.602 58.2173 332.774 58.25 332.93 58.3224C333.032 58.4093 333.106 58.5235 333.145 58.6516C333.183 58.7797 333.184 58.9162 333.147 59.0447C333.068 59.3027 332.93 59.5389 332.745 59.7351C331.844 60.7423 330.728 61.5342 329.48 62.052C328.232 62.5698 326.883 62.8004 325.534 62.7266" fill="#455A64"/>
<path d="M328.377 53.8415L333.191 50.7349C333.63 50.407 334.126 50.1642 334.654 50.019C334.92 49.9513 335.2 49.9579 335.462 50.0379C335.725 50.1179 335.961 50.2683 336.144 50.4728C336.293 50.7019 336.375 50.9683 336.381 51.2417C336.386 51.5151 336.315 51.7846 336.176 52.0197C335.885 52.4781 335.499 52.8684 335.044 53.1639C334.045 54.0066 332.899 54.6568 331.663 55.0816C330.423 55.4587 329.349 55.6249 328.186 55.0816" fill="#455A64"/>
<path d="M331.888 32.8365C332.446 31.6281 332.889 30.3696 333.211 29.0779C333.533 27.7802 333.484 26.4181 333.07 25.1468C332.892 24.5991 332.564 24.112 332.124 23.7405C331.903 23.5587 331.638 23.4373 331.356 23.3881C331.074 23.3388 330.783 23.3633 330.513 23.4592C330.273 23.5728 330.062 23.7394 329.896 23.9465C329.73 24.1536 329.613 24.3957 329.555 24.6546C329.438 25.1726 329.415 25.7071 329.484 26.2334C329.708 28.752 330.469 31.7051 331.888 32.8365Z" fill="#455A64"/>
<path d="M289.661 68.9902V75.0564C289.66 75.3706 289.722 75.6818 289.841 75.9723C289.961 76.2627 290.137 76.5266 290.359 76.7487C290.582 76.9709 290.846 77.147 291.136 77.2668C291.426 77.3866 291.738 77.4479 292.052 77.4471H333.601C333.914 77.4471 334.225 77.3852 334.515 77.265C334.804 77.1447 335.068 76.9685 335.289 76.7465C335.51 76.5244 335.686 76.2608 335.805 75.9708C335.925 75.6808 335.986 75.37 335.985 75.0564V68.9902H289.661Z" fill="#FF725E"/>
<g opacity="0.4">
<path d="M293.234 77.4482L293.58 79.3787L331.894 82.1145L332.866 77.4482H293.234Z" fill="black"/>
</g>
</g>
</g>
<defs>
<filter id="filter0_d_2148_1220" x="244" y="25" width="57.7817" height="106.849" filterUnits="userSpaceOnUse" color-interpolation-filters="sRGB">
<feFlood flood-opacity="0" result="BackgroundImageFix"/>
<feColorMatrix in="SourceAlpha" type="matrix" values="0 0 0 0 0 0 0 0 0 0 0 0 0 0 0 0 0 0 127 0" result="hardAlpha"/>
<feOffset dx="4" dy="4"/>
<feGaussianBlur stdDeviation="2"/>
<feComposite in2="hardAlpha" operator="out"/>
<feColorMatrix type="matrix" values="0 0 0 0 0 0 0 0 0 0 0 0 0 0 0 0 0 0 0.25 0"/>
<feBlend mode="normal" in2="BackgroundImageFix" result="effect1_dropShadow_2148_1220"/>
<feBlend mode="normal" in="SourceGraphic" in2="effect1_dropShadow_2148_1220" result="shape"/>
</filter>
<filter id="filter1_d_2148_1220" x="289" y="9" width="57.7817" height="106.849" filterUnits="userSpaceOnUse" color-interpolation-filters="sRGB">
<feFlood flood-opacity="0" result="BackgroundImageFix"/>
<feColorMatrix in="SourceAlpha" type="matrix" values="0 0 0 0 0 0 0 0 0 0 0 0 0 0 0 0 0 0 127 0" result="hardAlpha"/>
<feOffset dx="4" dy="4"/>
<feGaussianBlur stdDeviation="2"/>
<feComposite in2="hardAlpha" operator="out"/>
<feColorMatrix type="matrix" values="0 0 0 0 0 0 0 0 0 0 0 0 0 0 0 0 0 0 0.25 0"/>
<feBlend mode="normal" in2="BackgroundImageFix" result="effect1_dropShadow_2148_1220"/>
<feBlend mode="normal" in="SourceGraphic" in2="effect1_dropShadow_2148_1220" result="shape"/>
</filter>
<clipPath id="clip0_2148_1220">
<rect width="330" height="108" rx="10" fill="white"/>
</clipPath>
</defs>
</svg>
