<svg width="330" height="108" viewBox="0 0 330 108" fill="none" xmlns="http://www.w3.org/2000/svg">
<g clip-path="url(#clip0_2130_878)">
<rect width="330" height="108" rx="10" fill="#2F55DD"/>
<ellipse cx="307.5" cy="84" rx="100.5" ry="101" fill="#F7C71B"/>
<g filter="url(#filter0_d_2130_878)">
<path d="M233.927 93.415L238.862 125.849H267.537L274.191 93.8817L233.927 93.415Z" fill="#FF725E"/>
<path d="M261.982 29.4161C261.973 29.4702 261.96 29.5236 261.944 29.5759L261.81 30.0298L261.266 31.7812C261.017 32.5419 260.729 33.4687 260.422 34.5554C260.116 35.6421 259.732 36.8758 259.387 38.2565C259.042 39.6372 258.633 41.1393 258.275 42.7693C257.917 44.3993 257.54 46.1508 257.169 47.9981C256.478 51.6928 255.852 55.7838 255.411 60.0985C254.97 64.4132 254.772 68.5553 254.772 72.3139C254.772 74.1932 254.772 75.983 254.823 77.6513C254.874 79.3197 254.938 80.8794 255.027 82.2984C255.117 83.7175 255.219 85.0023 255.309 86.1337C255.398 87.2651 255.494 88.2303 255.584 89.023C255.673 89.8156 255.731 90.4037 255.775 90.8447C255.775 91.0365 255.788 91.1963 255.814 91.3241C255.814 91.4264 255.814 91.4839 255.814 91.4839C255.793 91.433 255.78 91.3791 255.775 91.3241C255.775 91.2027 255.731 91.0429 255.699 90.8575C255.639 90.4101 255.556 89.8028 255.449 89.0358C255.341 88.2495 255.213 87.2843 255.117 86.1529C255.021 85.0215 254.861 83.7494 254.785 82.3176C254.708 80.8858 254.58 79.3389 254.535 77.6641C254.49 75.9894 254.465 74.1932 254.452 72.3075C254.497 68.5425 254.682 64.394 255.091 60.0665C255.5 55.739 256.178 51.6416 256.881 47.9214C257.265 46.0805 257.61 44.3226 258.019 42.6926C258.428 41.0626 258.799 39.5541 259.176 38.1798C259.553 36.8055 259.937 35.5718 260.263 34.4915C260.589 33.4112 260.902 32.478 261.158 31.7301L261.797 29.9978C261.867 29.8188 261.918 29.6718 261.963 29.5504C262.008 29.4289 261.982 29.4097 261.982 29.4161Z" fill="#455A64"/>
<path d="M256.793 49.4943C257.587 47.1571 259.168 45.1686 261.267 43.8692C261.977 43.4281 262.878 43.0702 263.626 43.4345C264.629 43.9203 264.706 45.3521 264.412 46.3941C263.897 48.2112 262.744 49.7817 261.165 50.8174C259.767 51.8542 258.016 52.2954 256.294 52.0448" fill="#455A64"/>
<path d="M255.048 63.0582C255.789 60.2584 258.026 56.2825 260.34 54.5438C260.698 54.2544 261.108 54.0373 261.548 53.9046C261.768 53.8426 262 53.8359 262.223 53.8849C262.446 53.934 262.653 54.0374 262.827 54.1859C263.026 54.4463 263.156 54.7523 263.206 55.0761C263.257 55.3999 263.225 55.7312 263.114 56.0396C262.639 58.0822 261.605 59.9523 260.127 61.4402C258.649 62.9282 256.786 63.9754 254.747 64.4645" fill="#455A64"/>
<path d="M254.567 74.9983C255.721 72.3244 257.565 70.0057 259.911 68.2802C260.164 68.0561 260.458 67.8842 260.777 67.7745C261.097 67.6648 261.434 67.6194 261.771 67.6409C262.788 67.8263 263.248 69.06 263.158 70.0891C262.973 72.1985 261.356 73.8925 259.694 75.2029C258.165 76.2666 256.504 77.1262 254.753 77.7597" fill="#455A64"/>
<path d="M254.836 83.5769C255.952 81.5401 257.504 79.7744 259.381 78.4057C259.779 78.09 260.245 77.8711 260.742 77.7664C260.991 77.7225 261.248 77.7468 261.484 77.8368C261.72 77.9269 261.928 78.0793 262.085 78.2778C262.538 78.917 262.085 79.8503 261.618 80.4959C260.014 82.729 257.742 84.3945 255.13 85.2517" fill="#455A64"/>
<path d="M254.611 80.0935C252.654 77.6915 250.48 75.4747 248.117 73.4712C247.746 73.158 247.28 72.832 246.839 72.9854C246.666 73.0579 246.519 73.1784 246.413 73.3326C246.308 73.4867 246.249 73.6681 246.244 73.8548C246.244 74.2312 246.329 74.6028 246.493 74.9414C247.27 76.6661 248.424 78.1937 249.872 79.411C251.319 80.6283 253.022 81.5039 254.854 81.9728" fill="#455A64"/>
<path d="M254.823 68.9259L249.709 62.7C249.259 62.0785 248.698 61.5455 248.054 61.1275C247.74 60.8949 247.361 60.7673 246.971 60.7628C246.58 60.7583 246.198 60.8772 245.88 61.1025C245.561 61.3279 245.321 61.6481 245.195 62.0176C245.069 62.3871 245.063 62.787 245.177 63.1602C245.365 63.9037 245.704 64.6002 246.174 65.2057C247.17 66.7331 248.43 68.0708 249.895 69.1561C251.39 70.1852 252.752 70.8564 254.555 70.5879" fill="#455A64"/>
<path d="M255.532 56.353C254.539 53.3766 252.774 50.7167 250.419 48.644C250.05 48.2696 249.589 47.9985 249.083 47.8578C248.06 47.666 247.069 48.497 246.743 49.507C246.579 50.0707 246.536 50.6627 246.616 51.2443C246.697 51.8258 246.899 52.3839 247.21 52.882C247.829 53.8864 248.645 54.7559 249.607 55.4389C251.326 56.7535 253.242 57.789 255.283 58.5071" fill="#455A64"/>
<path d="M257.571 45.1406C257.073 41.5354 255.2 38.5311 253.02 35.6163C252.566 34.9771 251.927 34.3378 251.166 34.4593C250.927 34.5115 250.704 34.6223 250.518 34.7818C250.331 34.9414 250.187 35.1446 250.099 35.3734C249.931 35.8353 249.863 36.3278 249.901 36.818C249.994 39.0039 250.73 41.1138 252.015 42.884C253.301 44.6541 255.08 46.006 257.13 46.7706" fill="#455A64"/>
<path d="M258.997 39.4203C258.759 37.5701 258.697 35.7017 258.811 33.8399C258.929 31.968 259.571 30.167 260.665 28.6431C261.131 27.9858 261.774 27.4739 262.519 27.1665C262.891 27.018 263.295 26.9676 263.692 27.0202C264.09 27.0728 264.467 27.2267 264.788 27.4669C265.06 27.7214 265.272 28.034 265.407 28.3815C265.542 28.729 265.597 29.1024 265.568 29.4741C265.507 30.2147 265.312 30.9382 264.992 31.6091C263.631 34.8818 261.368 38.4998 258.997 39.4203Z" fill="#455A64"/>
<path d="M236.765 43.7158C236.78 43.8689 236.78 44.023 236.765 44.1761C236.765 44.5084 236.765 44.9346 236.765 45.4545C236.765 46.0234 236.765 46.7329 236.765 47.5256C236.765 48.3182 236.765 49.2514 236.861 50.2678C236.951 52.2941 237.149 54.7039 237.456 57.3695C237.762 60.035 238.331 62.9818 238.971 66.0117C239.61 69.0415 240.345 71.9308 241.112 74.4877C241.879 77.0445 242.691 79.3393 243.426 81.2314C243.771 82.1902 244.135 83.034 244.436 83.7882C244.736 84.5425 245.005 85.1753 245.235 85.7059C245.465 86.2364 245.618 86.6008 245.746 86.9076C245.815 87.044 245.869 87.1877 245.906 87.3359C245.823 87.2076 245.751 87.0729 245.689 86.9332C245.542 86.6392 245.35 86.2428 245.12 85.757C244.89 85.2712 244.576 84.6128 244.263 83.8394C243.95 83.0659 243.567 82.2605 243.202 81.2825C242.442 79.3649 241.623 77.1084 240.818 74.5388C240.012 71.9691 239.258 69.1055 238.613 66.0628C237.967 63.0201 237.539 60.0861 237.226 57.4142C236.912 54.7423 236.759 52.3005 236.701 50.2806C236.65 49.2642 236.663 48.3629 236.65 47.5383C236.637 46.7137 236.65 46.0298 236.65 45.4609C236.65 44.892 236.689 44.4829 236.701 44.1505C236.708 44.0038 236.729 43.8581 236.765 43.7158Z" fill="#263238"/>
<path d="M237.564 58.5077C237.597 56.7487 238.241 55.0559 239.386 53.72C239.552 53.4727 239.775 53.2694 240.037 53.128C240.298 52.9865 240.591 52.9111 240.888 52.9082C241.675 53.0233 242.033 53.9629 242.058 54.7555C242.095 56.1053 241.64 57.4225 240.78 58.463C240.054 59.4709 238.957 60.1492 237.731 60.3487" fill="#263238"/>
<path d="M239.297 68.0954C239.201 66.0307 239.866 62.841 241.068 61.1663C241.245 60.8891 241.478 60.6518 241.752 60.4695C241.888 60.3793 242.045 60.3239 242.207 60.3083C242.37 60.2927 242.534 60.3173 242.685 60.38C242.877 60.5147 243.033 60.6951 243.137 60.9049C243.242 61.1147 243.293 61.3473 243.286 61.5818C243.403 63.0751 243.101 64.5715 242.415 65.9028C241.728 67.2341 240.684 68.3476 239.399 69.1181" fill="#263238"/>
<path d="M241.527 76.3416C241.746 74.2835 242.507 72.3204 243.733 70.6526C243.852 70.4416 244.014 70.2573 244.207 70.1111C244.401 69.9649 244.622 69.8599 244.858 69.8024C245.586 69.7065 246.136 70.4416 246.321 71.1703C246.654 72.6469 245.919 74.1427 245.043 75.3955C244.229 76.4456 243.282 77.3847 242.224 78.1889" fill="#263238"/>
<path d="M243.573 82.1576C243.894 80.5387 244.568 79.0106 245.548 77.6831C245.757 77.3886 246.03 77.1458 246.347 76.9736C246.507 76.8897 246.687 76.8508 246.867 76.8609C247.047 76.8711 247.221 76.9299 247.37 77.0311C247.824 77.3891 247.722 78.0986 247.53 78.6419C246.918 80.5071 245.729 82.1299 244.136 83.2762" fill="#263238"/>
<path d="M242.665 79.8C240.814 78.5898 238.856 77.55 236.817 76.6934C236.67 76.6027 236.503 76.5504 236.331 76.5414C236.159 76.5325 235.987 76.5672 235.832 76.6423C235.729 76.7281 235.654 76.8423 235.615 76.9708C235.576 77.0992 235.576 77.2361 235.615 77.3646C235.696 77.62 235.833 77.8538 236.018 78.0486C236.918 79.0562 238.034 79.8482 239.282 80.3661C240.53 80.8839 241.879 81.1143 243.228 81.0401" fill="#263238"/>
<path d="M240.402 72.1547L235.589 69.0162C235.15 68.6884 234.653 68.4456 234.125 68.3002C233.859 68.2326 233.58 68.2391 233.317 68.3191C233.055 68.3991 232.819 68.5496 232.636 68.7541C232.487 68.9832 232.404 69.2496 232.399 69.523C232.393 69.7964 232.464 70.0659 232.604 70.301C232.888 70.7707 233.269 71.1739 233.722 71.4835C234.727 72.3104 235.873 72.9492 237.104 73.3692C238.344 73.7464 239.418 73.9126 240.588 73.3692" fill="#263238"/>
<path d="M238.185 63.4414C236.861 61.6292 235.082 60.2001 233.026 59.2993C232.694 59.1236 232.322 59.0377 231.946 59.05C231.584 59.1355 231.262 59.344 231.036 59.64C230.81 59.9361 230.693 60.3013 230.706 60.6736C230.718 61.0932 230.816 61.5059 230.996 61.8854C231.175 62.265 231.431 62.6033 231.748 62.8789C232.388 63.4207 233.129 63.8312 233.928 64.087C235.381 64.6124 236.909 64.9036 238.453 64.9499" fill="#263238"/>
<path d="M237.155 55.3681C236.043 53.0222 234.119 51.3794 232.042 49.8644C231.846 49.6729 231.604 49.536 231.339 49.4676C231.075 49.3992 230.797 49.4015 230.533 49.4745C230.379 49.5603 230.249 49.684 230.157 49.8339C230.064 49.9838 230.011 50.1549 230.002 50.3311C229.987 50.6803 230.046 51.029 230.175 51.3538C230.708 52.8166 231.658 54.091 232.908 55.0193C234.157 55.9476 235.652 56.4889 237.206 56.5762" fill="#263238"/>
<path d="M236.899 51.163C236.337 49.9576 235.892 48.7012 235.57 47.4108C235.248 46.1109 235.296 44.7468 235.71 43.4732C235.889 42.9256 236.216 42.4385 236.656 42.067C236.878 41.8863 237.143 41.7656 237.425 41.7164C237.707 41.6671 237.997 41.691 238.267 41.7857C238.508 41.8989 238.72 42.0653 238.887 42.2723C239.054 42.4794 239.172 42.7217 239.232 42.981C239.343 43.4999 239.365 44.0338 239.296 44.5599C239.079 47.0784 238.312 50.0316 236.899 51.163Z" fill="#263238"/>
<path d="M273.015 43.4033C273.045 43.5527 273.06 43.7048 273.06 43.8572C273.06 44.1895 273.06 44.6242 273.104 45.1676C273.149 45.7109 273.143 46.446 273.104 47.2386C273.066 48.0312 273.104 48.9709 273.053 49.9873C272.996 52.02 272.823 54.4617 272.536 57.1209C272.248 59.78 271.775 62.7204 271.142 65.7695C270.509 68.8185 269.729 71.6694 268.943 74.2455C268.157 76.8215 267.32 79.1035 266.553 80.9892C266.195 81.9416 265.811 82.779 265.498 83.5461C265.185 84.3131 264.859 84.9268 264.641 85.4637L264.066 86.6399C264.007 86.7812 263.935 86.9161 263.849 87.0426C263.886 86.8943 263.939 86.7507 264.008 86.6143L264.539 85.355C264.769 84.8373 265.044 84.1981 265.338 83.4374C265.632 82.6767 265.977 81.8457 266.348 80.8805C267.083 78.9629 267.876 76.7001 268.662 74.1368C269.448 71.5736 270.19 68.7099 270.829 65.68C271.468 62.6501 271.916 59.7289 272.242 57.0634C272.568 54.3978 272.747 51.988 272.836 49.9617C272.906 48.9453 272.906 48.044 272.938 47.2194C272.97 46.3948 272.938 45.7173 272.938 45.1484C272.938 44.5795 272.938 44.1704 272.938 43.838C272.95 43.691 272.976 43.5454 273.015 43.4033Z" fill="#455A64"/>
<path d="M272.21 58.1879C272.177 56.4269 271.533 54.7322 270.388 53.3938C270.22 53.1466 269.994 52.9444 269.73 52.8051C269.466 52.6658 269.172 52.5935 268.873 52.5947C268.093 52.7098 267.735 53.6495 267.703 54.4421C267.667 55.7919 268.121 57.1091 268.982 58.1495C269.709 59.1559 270.805 59.8337 272.031 60.0352" fill="#455A64"/>
<path d="M270.483 67.7951C270.579 65.7305 269.921 62.5408 268.713 60.8596C268.533 60.5858 268.301 60.351 268.029 60.1693C267.893 60.0774 267.737 60.0211 267.573 60.0054C267.41 59.9898 267.246 60.0154 267.095 60.0798C266.903 60.2135 266.747 60.3939 266.643 60.6041C266.539 60.8142 266.49 61.0473 266.501 61.2815C266.385 62.774 266.686 64.2694 267.371 65.6004C268.057 66.9314 269.099 68.0454 270.381 68.8179" fill="#455A64"/>
<path d="M268.241 76.0281C268.039 73.9496 267.284 71.9632 266.055 70.2752C265.933 70.0653 265.771 69.8816 265.578 69.7346C265.385 69.5876 265.164 69.4802 264.93 69.4186C264.195 69.3291 263.651 70.0578 263.459 70.7865C263.127 72.2631 263.862 73.7653 264.738 75.0181C265.553 76.0666 266.501 77.0055 267.557 77.8115" fill="#455A64"/>
<path d="M266.215 81.8131C265.89 80.1945 265.213 78.6671 264.233 77.3386C264.025 77.044 263.751 76.8013 263.434 76.629C263.276 76.5451 263.097 76.5061 262.918 76.5162C262.739 76.5264 262.566 76.5853 262.418 76.6866C261.964 77.0445 262.06 77.754 262.258 78.2974C262.865 80.1634 264.052 81.7869 265.646 82.9317" fill="#455A64"/>
<path d="M267.097 79.4865C268.948 78.2763 270.906 77.2365 272.946 76.3799C273.092 76.2898 273.259 76.2374 273.43 76.2274C273.602 76.2173 273.774 76.25 273.93 76.3224C274.032 76.4093 274.106 76.5235 274.145 76.6516C274.183 76.7797 274.184 76.9162 274.147 77.0447C274.068 77.3027 273.93 77.5389 273.745 77.7351C272.844 78.7423 271.728 79.5342 270.48 80.052C269.232 80.5698 267.883 80.8004 266.534 80.7266" fill="#455A64"/>
<path d="M269.377 71.8415L274.191 68.7349C274.63 68.407 275.126 68.1642 275.654 68.019C275.92 67.9513 276.2 67.9579 276.462 68.0379C276.725 68.1179 276.961 68.2683 277.144 68.4728C277.293 68.7019 277.375 68.9683 277.381 69.2417C277.386 69.5151 277.315 69.7846 277.176 70.0197C276.885 70.4781 276.499 70.8684 276.044 71.1639C275.045 72.0066 273.899 72.6568 272.663 73.0816C271.423 73.4587 270.349 73.6249 269.186 73.0816" fill="#455A64"/>
<path d="M271.603 63.1288C272.922 61.3137 274.7 59.8819 276.755 58.9803C277.089 58.8095 277.461 58.726 277.835 58.7374C278.198 58.8229 278.52 59.0314 278.746 59.3274C278.972 59.6235 279.088 59.9887 279.075 60.361C279.064 60.7797 278.965 61.1915 278.786 61.5701C278.607 61.9487 278.35 62.2858 278.033 62.5599C277.394 63.104 276.653 63.5167 275.854 63.7744C274.4 64.2997 272.873 64.591 271.328 64.6373" fill="#455A64"/>
<path d="M272.625 55.0557C273.737 52.7034 275.661 51.067 277.739 49.5456C277.936 49.3547 278.179 49.2187 278.445 49.1514C278.711 49.0841 278.99 49.0878 279.254 49.1621C279.405 49.2486 279.533 49.3717 279.624 49.5203C279.716 49.6688 279.769 49.838 279.778 50.0123C279.797 50.3639 279.738 50.7154 279.605 51.0414C279.07 52.509 278.115 53.7868 276.859 54.7154C275.603 55.6441 274.102 56.1826 272.542 56.2638" fill="#455A64"/>
<path d="M272.888 50.8365C273.446 49.6281 273.889 48.3696 274.211 47.0779C274.533 45.7802 274.484 44.4181 274.07 43.1468C273.892 42.5991 273.564 42.112 273.124 41.7405C272.903 41.5587 272.638 41.4373 272.356 41.3881C272.074 41.3388 271.783 41.3633 271.513 41.4592C271.273 41.5728 271.062 41.7394 270.896 41.9465C270.73 42.1536 270.613 42.3957 270.555 42.6546C270.438 43.1726 270.415 43.7071 270.484 44.2334C270.708 46.752 271.469 49.7051 272.888 50.8365Z" fill="#455A64"/>
<path d="M230.661 86.9902V93.0564C230.66 93.3706 230.722 93.6818 230.841 93.9723C230.961 94.2627 231.137 94.5266 231.359 94.7487C231.582 94.9709 231.846 95.147 232.136 95.2668C232.426 95.3866 232.738 95.4479 233.052 95.4471H274.601C274.914 95.4471 275.225 95.3852 275.515 95.265C275.804 95.1447 276.068 94.9685 276.289 94.7465C276.51 94.5244 276.686 94.2608 276.805 93.9708C276.925 93.6808 276.986 93.37 276.985 93.0564V86.9902H230.661Z" fill="#FF725E"/>
<g opacity="0.4">
<path d="M234.234 95.4482L234.58 97.3787L272.894 100.115L273.866 95.4482H234.234Z" fill="black"/>
</g>
</g>
<g filter="url(#filter1_d_2130_878)">
<path d="M278.927 77.415L283.862 109.849H312.537L319.191 77.8817L278.927 77.415Z" fill="#FF725E"/>
<path d="M315.184 98.2019C315.184 98.2914 307.833 98.3681 298.775 98.3681C289.718 98.3681 282.36 98.2914 282.36 98.2019C282.36 98.1124 289.711 98.0293 298.775 98.0293C307.839 98.0293 315.184 98.1188 315.184 98.2019Z" fill="#FAFAFA"/>
<path d="M315.292 96.6037C315.292 96.6996 307.896 96.7699 298.775 96.7699C289.653 96.7699 282.251 96.6996 282.251 96.6037C282.251 96.5078 289.647 96.4375 298.775 96.4375C307.903 96.4375 315.292 96.5142 315.292 96.6037Z" fill="#FAFAFA"/>
<path d="M315.234 94.801C315.234 94.8969 307.839 94.9735 298.717 94.9735C289.595 94.9735 282.193 94.8969 282.193 94.801C282.193 94.7051 289.589 94.6348 298.717 94.6348C307.845 94.6348 315.234 94.7115 315.234 94.801Z" fill="#FAFAFA"/>
<path d="M287.167 107.995C286.765 106.659 286.472 105.293 286.291 103.91C285.998 102.548 285.814 101.165 285.741 99.7744C286.14 101.115 286.431 102.485 286.611 103.872C286.907 105.229 287.093 106.608 287.167 107.995Z" fill="#FAFAFA"/>
<path d="M289.085 107.649C288.882 106.331 288.764 105.001 288.733 103.667C288.59 102.34 288.526 101.006 288.541 99.6719C289.058 102.297 289.24 104.978 289.085 107.649Z" fill="#FAFAFA"/>
<path d="M292.665 107.649C292.271 106.318 292.02 104.949 291.917 103.565C291.701 102.193 291.628 100.803 291.699 99.416C291.96 100.775 292.144 102.147 292.249 103.526C292.462 104.892 292.6 106.268 292.665 107.649Z" fill="#FAFAFA"/>
<path d="M295.157 107.822C294.882 106.456 294.749 105.066 294.76 103.673C294.661 102.281 294.703 100.882 294.888 99.499C295.039 100.881 295.108 102.27 295.093 103.66C295.197 105.045 295.218 106.434 295.157 107.822Z" fill="#FAFAFA"/>
<path d="M299.574 107.65C299.265 105.032 299.178 102.394 299.312 99.7617C299.631 102.378 299.721 105.018 299.58 107.65H299.574Z" fill="#FAFAFA"/>
<path d="M302.803 107.822C302.644 106.471 302.599 105.109 302.668 103.75C302.626 102.388 302.692 101.024 302.866 99.6719C303.025 101.025 303.07 102.389 303.001 103.75C303.047 105.11 302.98 106.472 302.803 107.822Z" fill="#FAFAFA"/>
<path d="M305.825 107.388C305.798 105.964 305.879 104.541 306.068 103.13C306.153 101.709 306.347 100.297 306.65 98.9053C306.681 100.329 306.6 101.752 306.407 103.162C306.326 104.584 306.132 105.997 305.825 107.388Z" fill="#FAFAFA"/>
<path d="M309.731 106.966C309.851 104.523 310.374 102.117 311.278 99.8447C311.099 101.047 310.852 102.238 310.537 103.412C310.331 104.61 310.062 105.796 309.731 106.966Z" fill="#FAFAFA"/>
<path d="M306.982 13.4161C306.973 13.4702 306.96 13.5236 306.944 13.5759L306.81 14.0298L306.266 15.7812C306.017 16.5419 305.729 17.4687 305.422 18.5554C305.116 19.6421 304.732 20.8758 304.387 22.2565C304.042 23.6372 303.633 25.1393 303.275 26.7693C302.917 28.3993 302.54 30.1508 302.169 31.9981C301.478 35.6928 300.852 39.7838 300.411 44.0985C299.97 48.4132 299.772 52.5553 299.772 56.3139C299.772 58.1932 299.772 59.983 299.823 61.6513C299.874 63.3197 299.938 64.8794 300.027 66.2984C300.117 67.7175 300.219 69.0023 300.309 70.1337C300.398 71.2651 300.494 72.2303 300.584 73.023C300.673 73.8156 300.731 74.4037 300.775 74.8447C300.775 75.0365 300.788 75.1963 300.814 75.3241C300.814 75.4264 300.814 75.4839 300.814 75.4839C300.793 75.433 300.78 75.3791 300.775 75.3241C300.775 75.2027 300.731 75.0429 300.699 74.8575C300.639 74.4101 300.556 73.8028 300.449 73.0358C300.341 72.2495 300.213 71.2843 300.117 70.1529C300.021 69.0215 299.861 67.7494 299.785 66.3176C299.708 64.8858 299.58 63.3389 299.535 61.6641C299.49 59.9894 299.465 58.1932 299.452 56.3075C299.497 52.5425 299.682 48.394 300.091 44.0665C300.5 39.739 301.178 35.6416 301.881 31.9214C302.265 30.0805 302.61 28.3226 303.019 26.6926C303.428 25.0626 303.799 23.5541 304.176 22.1798C304.553 20.8055 304.937 19.5718 305.263 18.4915C305.589 17.4112 305.902 16.478 306.158 15.7301L306.797 13.9978C306.867 13.8188 306.918 13.6718 306.963 13.5504C307.008 13.4289 306.982 13.4097 306.982 13.4161Z" fill="#455A64"/>
<path d="M301.793 33.4943C302.587 31.1571 304.168 29.1686 306.267 27.8692C306.977 27.4281 307.878 27.0702 308.626 27.4345C309.629 27.9203 309.706 29.3521 309.412 30.3941C308.897 32.2112 307.744 33.7817 306.165 34.8174C304.767 35.8542 303.016 36.2954 301.294 36.0448" fill="#455A64"/>
<path d="M300.048 47.0582C300.789 44.2584 303.026 40.2825 305.34 38.5438C305.698 38.2544 306.108 38.0373 306.548 37.9046C306.768 37.8426 307 37.8359 307.223 37.8849C307.446 37.934 307.653 38.0374 307.827 38.1859C308.026 38.4463 308.156 38.7523 308.206 39.0761C308.257 39.3999 308.225 39.7312 308.114 40.0396C307.639 42.0822 306.605 43.9523 305.127 45.4402C303.649 46.9282 301.786 47.9754 299.747 48.4645" fill="#455A64"/>
<path d="M299.567 58.9983C300.721 56.3244 302.565 54.0057 304.911 52.2802C305.164 52.0561 305.458 51.8842 305.777 51.7745C306.097 51.6648 306.434 51.6194 306.771 51.6409C307.788 51.8263 308.248 53.06 308.158 54.0891C307.973 56.1985 306.356 57.8925 304.694 59.2029C303.165 60.2666 301.504 61.1262 299.753 61.7597" fill="#455A64"/>
<path d="M299.836 67.5769C300.952 65.5401 302.504 63.7744 304.381 62.4057C304.779 62.09 305.245 61.8711 305.742 61.7664C305.991 61.7225 306.248 61.7468 306.484 61.8368C306.72 61.9269 306.928 62.0793 307.085 62.2778C307.538 62.917 307.085 63.8503 306.618 64.4959C305.014 66.729 302.742 68.3945 300.13 69.2517" fill="#455A64"/>
<path d="M299.611 64.0935C297.654 61.6915 295.48 59.4747 293.117 57.4712C292.746 57.158 292.28 56.832 291.839 56.9854C291.666 57.0579 291.519 57.1784 291.413 57.3326C291.308 57.4867 291.249 57.6681 291.244 57.8548C291.244 58.2312 291.329 58.6028 291.493 58.9414C292.27 60.6661 293.424 62.1937 294.872 63.411C296.319 64.6283 298.022 65.5039 299.854 65.9728" fill="#455A64"/>
<path d="M299.823 52.9259L294.709 46.7C294.259 46.0785 293.698 45.5455 293.054 45.1275C292.74 44.8949 292.361 44.7673 291.971 44.7628C291.58 44.7583 291.198 44.8772 290.88 45.1025C290.561 45.3279 290.321 45.6481 290.195 46.0176C290.069 46.3871 290.063 46.787 290.177 47.1602C290.365 47.9037 290.704 48.6002 291.174 49.2057C292.17 50.7331 293.43 52.0708 294.895 53.1561C296.39 54.1852 297.752 54.8564 299.555 54.5879" fill="#455A64"/>
<path d="M300.532 40.353C299.539 37.3766 297.774 34.7167 295.419 32.644C295.05 32.2696 294.589 31.9985 294.083 31.8578C293.06 31.666 292.069 32.497 291.743 33.507C291.579 34.0707 291.536 34.6627 291.616 35.2443C291.697 35.8258 291.899 36.3839 292.21 36.882C292.829 37.8864 293.645 38.7559 294.607 39.4389C296.326 40.7535 298.242 41.789 300.283 42.5071" fill="#455A64"/>
<path d="M302.571 29.1406C302.073 25.5354 300.2 22.5311 298.02 19.6163C297.566 18.9771 296.927 18.3378 296.166 18.4593C295.927 18.5115 295.704 18.6223 295.518 18.7818C295.331 18.9414 295.187 19.1446 295.099 19.3734C294.931 19.8353 294.863 20.3278 294.901 20.818C294.994 23.0039 295.73 25.1138 297.015 26.884C298.301 28.6541 300.08 30.006 302.13 30.7706" fill="#455A64"/>
<path d="M303.997 23.4203C303.759 21.5701 303.697 19.7017 303.811 17.8399C303.929 15.968 304.571 14.167 305.665 12.6431C306.131 11.9858 306.774 11.4739 307.519 11.1665C307.891 11.018 308.295 10.9676 308.692 11.0202C309.09 11.0728 309.467 11.2267 309.788 11.4669C310.06 11.7214 310.272 12.034 310.407 12.3815C310.542 12.729 310.597 13.1024 310.568 13.4741C310.507 14.2147 310.312 14.9382 309.992 15.6091C308.631 18.8818 306.368 22.4998 303.997 23.4203Z" fill="#455A64"/>
<path d="M281.765 27.7158C281.78 27.8689 281.78 28.023 281.765 28.1761C281.765 28.5084 281.765 28.9346 281.765 29.4545C281.765 30.0234 281.765 30.7329 281.765 31.5256C281.765 32.3182 281.765 33.2514 281.861 34.2678C281.951 36.2941 282.149 38.7039 282.456 41.3695C282.762 44.035 283.331 46.9818 283.971 50.0117C284.61 53.0415 285.345 55.9308 286.112 58.4877C286.879 61.0445 287.691 63.3393 288.426 65.2314C288.771 66.1902 289.135 67.034 289.436 67.7882C289.736 68.5425 290.005 69.1753 290.235 69.7059C290.465 70.2364 290.618 70.6008 290.746 70.9076C290.815 71.044 290.869 71.1877 290.906 71.3359C290.823 71.2076 290.751 71.0729 290.689 70.9332C290.542 70.6392 290.35 70.2428 290.12 69.757C289.89 69.2712 289.576 68.6128 289.263 67.8394C288.95 67.0659 288.567 66.2605 288.202 65.2825C287.442 63.3649 286.623 61.1084 285.818 58.5388C285.012 55.9691 284.258 53.1055 283.613 50.0628C282.967 47.0201 282.539 44.0861 282.226 41.4142C281.912 38.7423 281.759 36.3005 281.701 34.2806C281.65 33.2642 281.663 32.3629 281.65 31.5383C281.637 30.7137 281.65 30.0298 281.65 29.4609C281.65 28.892 281.689 28.4829 281.701 28.1505C281.708 28.0038 281.729 27.8581 281.765 27.7158Z" fill="#263238"/>
<path d="M282.564 42.5077C282.597 40.7487 283.241 39.0559 284.386 37.72C284.552 37.4727 284.775 37.2694 285.037 37.128C285.298 36.9865 285.591 36.9111 285.888 36.9082C286.675 37.0233 287.033 37.9629 287.058 38.7555C287.095 40.1053 286.64 41.4225 285.78 42.463C285.054 43.4709 283.957 44.1492 282.731 44.3487" fill="#263238"/>
<path d="M284.297 52.0954C284.201 50.0307 284.866 46.841 286.068 45.1663C286.245 44.8891 286.478 44.6518 286.752 44.4695C286.888 44.3793 287.045 44.3239 287.207 44.3083C287.37 44.2927 287.534 44.3173 287.685 44.38C287.877 44.5147 288.033 44.6951 288.137 44.9049C288.242 45.1147 288.293 45.3473 288.286 45.5818C288.403 47.0751 288.101 48.5715 287.415 49.9028C286.728 51.2341 285.684 52.3476 284.399 53.1181" fill="#263238"/>
<path d="M286.527 60.3416C286.746 58.2835 287.507 56.3204 288.733 54.6526C288.852 54.4416 289.014 54.2573 289.207 54.1111C289.401 53.9649 289.622 53.8599 289.858 53.8024C290.586 53.7065 291.136 54.4416 291.321 55.1703C291.654 56.6469 290.919 58.1427 290.043 59.3955C289.229 60.4456 288.282 61.3847 287.224 62.1889" fill="#263238"/>
<path d="M288.573 66.1576C288.894 64.5387 289.568 63.0106 290.548 61.6831C290.757 61.3886 291.03 61.1458 291.347 60.9736C291.507 60.8897 291.687 60.8508 291.867 60.8609C292.047 60.8711 292.221 60.9299 292.37 61.0311C292.824 61.3891 292.722 62.0986 292.53 62.6419C291.918 64.5071 290.729 66.1299 289.136 67.2762" fill="#263238"/>
<path d="M287.665 63.8C285.814 62.5898 283.856 61.55 281.817 60.6934C281.67 60.6027 281.503 60.5504 281.331 60.5414C281.159 60.5325 280.987 60.5672 280.832 60.6423C280.729 60.7281 280.654 60.8423 280.615 60.9708C280.576 61.0992 280.576 61.2361 280.615 61.3646C280.696 61.62 280.833 61.8538 281.018 62.0486C281.918 63.0562 283.034 63.8482 284.282 64.3661C285.53 64.8839 286.879 65.1143 288.228 65.0401" fill="#263238"/>
<path d="M285.402 56.1547L280.589 53.0162C280.15 52.6884 279.653 52.4456 279.125 52.3002C278.859 52.2326 278.58 52.2391 278.317 52.3191C278.055 52.3991 277.819 52.5496 277.636 52.7541C277.487 52.9832 277.404 53.2496 277.399 53.523C277.393 53.7964 277.464 54.0659 277.604 54.301C277.888 54.7707 278.269 55.1739 278.722 55.4835C279.727 56.3104 280.873 56.9492 282.104 57.3692C283.344 57.7464 284.418 57.9126 285.588 57.3692" fill="#263238"/>
<path d="M283.185 47.4414C281.861 45.6292 280.082 44.2001 278.026 43.2993C277.694 43.1236 277.322 43.0377 276.946 43.05C276.584 43.1355 276.262 43.344 276.036 43.64C275.81 43.9361 275.693 44.3013 275.706 44.6736C275.718 45.0932 275.816 45.5059 275.996 45.8854C276.175 46.265 276.431 46.6033 276.748 46.8789C277.388 47.4207 278.129 47.8312 278.928 48.087C280.381 48.6124 281.909 48.9036 283.453 48.9499" fill="#263238"/>
<path d="M282.155 39.3681C281.043 37.0222 279.119 35.3794 277.042 33.8644C276.846 33.6729 276.604 33.536 276.339 33.4676C276.075 33.3992 275.797 33.4015 275.533 33.4745C275.379 33.5603 275.249 33.684 275.157 33.8339C275.064 33.9838 275.011 34.1549 275.002 34.3311C274.987 34.6803 275.046 35.029 275.175 35.3538C275.708 36.8166 276.658 38.091 277.908 39.0193C279.157 39.9476 280.652 40.4889 282.206 40.5762" fill="#263238"/>
<path d="M281.899 35.163C281.337 33.9576 280.892 32.7012 280.57 31.4108C280.248 30.1109 280.296 28.7468 280.71 27.4732C280.889 26.9256 281.216 26.4385 281.656 26.067C281.878 25.8863 282.143 25.7656 282.425 25.7164C282.707 25.6671 282.997 25.691 283.267 25.7857C283.508 25.8989 283.72 26.0653 283.887 26.2723C284.054 26.4794 284.172 26.7217 284.232 26.981C284.343 27.4999 284.365 28.0338 284.296 28.5599C284.079 31.0784 283.312 34.0316 281.899 35.163Z" fill="#263238"/>
<path d="M318.015 27.4033C318.045 27.5527 318.06 27.7048 318.06 27.8572C318.06 28.1895 318.06 28.6242 318.104 29.1676C318.149 29.7109 318.143 30.446 318.104 31.2386C318.066 32.0312 318.104 32.9709 318.053 33.9873C317.996 36.02 317.823 38.4617 317.536 41.1209C317.248 43.78 316.775 46.7204 316.142 49.7695C315.509 52.8185 314.729 55.6694 313.943 58.2455C313.157 60.8215 312.32 63.1035 311.553 64.9892C311.195 65.9416 310.811 66.779 310.498 67.5461C310.185 68.3131 309.859 68.9268 309.641 69.4637L309.066 70.6399C309.007 70.7812 308.935 70.9161 308.849 71.0426C308.886 70.8943 308.939 70.7507 309.008 70.6143L309.539 69.355C309.769 68.8373 310.044 68.1981 310.338 67.4374C310.632 66.6767 310.977 65.8457 311.348 64.8805C312.083 62.9629 312.876 60.7001 313.662 58.1368C314.448 55.5736 315.19 52.7099 315.829 49.68C316.468 46.6501 316.916 43.7289 317.242 41.0634C317.568 38.3978 317.747 35.988 317.836 33.9617C317.906 32.9453 317.906 32.044 317.938 31.2194C317.97 30.3948 317.938 29.7173 317.938 29.1484C317.938 28.5795 317.938 28.1704 317.938 27.838C317.95 27.691 317.976 27.5454 318.015 27.4033Z" fill="#455A64"/>
<path d="M317.21 42.1879C317.177 40.4269 316.533 38.7322 315.388 37.3938C315.22 37.1466 314.994 36.9444 314.73 36.8051C314.466 36.6658 314.172 36.5935 313.873 36.5947C313.093 36.7098 312.735 37.6495 312.703 38.4421C312.667 39.7919 313.121 41.1091 313.982 42.1495C314.709 43.1559 315.805 43.8337 317.031 44.0352" fill="#455A64"/>
<path d="M315.483 51.7951C315.579 49.7305 314.921 46.5408 313.713 44.8596C313.533 44.5858 313.301 44.351 313.029 44.1693C312.893 44.0774 312.737 44.0211 312.573 44.0054C312.41 43.9898 312.246 44.0154 312.095 44.0798C311.903 44.2135 311.747 44.3939 311.643 44.6041C311.539 44.8142 311.49 45.0473 311.501 45.2815C311.385 46.774 311.686 48.2694 312.371 49.6004C313.057 50.9314 314.099 52.0454 315.381 52.8179" fill="#455A64"/>
<path d="M313.241 60.0281C313.039 57.9496 312.284 55.9632 311.055 54.2752C310.933 54.0653 310.771 53.8816 310.578 53.7346C310.385 53.5876 310.164 53.4802 309.93 53.4186C309.195 53.3291 308.651 54.0578 308.459 54.7865C308.127 56.2631 308.862 57.7653 309.738 59.0181C310.553 60.0666 311.501 61.0055 312.557 61.8115" fill="#455A64"/>
<path d="M311.215 65.8131C310.89 64.1945 310.213 62.6671 309.233 61.3386C309.025 61.044 308.751 60.8013 308.434 60.629C308.276 60.5451 308.097 60.5061 307.918 60.5162C307.739 60.5264 307.566 60.5853 307.418 60.6866C306.964 61.0445 307.06 61.754 307.258 62.2974C307.865 64.1634 309.052 65.7869 310.646 66.9317" fill="#455A64"/>
<path d="M312.097 63.4865C313.948 62.2763 315.906 61.2365 317.946 60.3799C318.092 60.2898 318.259 60.2374 318.43 60.2274C318.602 60.2173 318.774 60.25 318.93 60.3224C319.032 60.4093 319.106 60.5235 319.145 60.6516C319.183 60.7797 319.184 60.9162 319.147 61.0447C319.068 61.3027 318.93 61.5389 318.745 61.7351C317.844 62.7423 316.728 63.5342 315.48 64.052C314.232 64.5698 312.883 64.8004 311.534 64.7266" fill="#455A64"/>
<path d="M314.377 55.8415L319.191 52.7349C319.63 52.407 320.126 52.1642 320.654 52.019C320.92 51.9513 321.2 51.9579 321.462 52.0379C321.725 52.1179 321.961 52.2683 322.144 52.4728C322.293 52.7019 322.375 52.9683 322.381 53.2417C322.386 53.5151 322.315 53.7846 322.176 54.0197C321.885 54.4781 321.499 54.8684 321.044 55.1639C320.045 56.0066 318.899 56.6568 317.663 57.0816C316.423 57.4587 315.349 57.6249 314.186 57.0816" fill="#455A64"/>
<path d="M316.603 47.1288C317.922 45.3137 319.7 43.8819 321.755 42.9803C322.089 42.8095 322.461 42.726 322.835 42.7374C323.198 42.8229 323.52 43.0314 323.746 43.3274C323.972 43.6235 324.088 43.9887 324.075 44.361C324.064 44.7797 323.965 45.1915 323.786 45.5701C323.607 45.9487 323.35 46.2858 323.033 46.5599C322.394 47.104 321.653 47.5167 320.854 47.7744C319.4 48.2997 317.873 48.591 316.328 48.6373" fill="#455A64"/>
<path d="M317.625 39.0557C318.737 36.7034 320.661 35.067 322.739 33.5456C322.936 33.3547 323.179 33.2187 323.445 33.1514C323.711 33.0841 323.99 33.0878 324.254 33.1621C324.405 33.2486 324.533 33.3717 324.624 33.5203C324.716 33.6688 324.769 33.838 324.778 34.0123C324.797 34.3639 324.738 34.7154 324.605 35.0414C324.07 36.509 323.115 37.7868 321.859 38.7154C320.603 39.6441 319.102 40.1826 317.542 40.2638" fill="#455A64"/>
<path d="M317.888 34.8365C318.446 33.6281 318.889 32.3696 319.211 31.0779C319.533 29.7802 319.484 28.4181 319.07 27.1468C318.892 26.5991 318.564 26.112 318.124 25.7405C317.903 25.5587 317.638 25.4373 317.356 25.3881C317.074 25.3388 316.783 25.3633 316.513 25.4592C316.273 25.5728 316.062 25.7394 315.896 25.9465C315.73 26.1536 315.613 26.3957 315.555 26.6546C315.438 27.1726 315.415 27.7071 315.484 28.2334C315.708 30.752 316.469 33.7051 317.888 34.8365Z" fill="#455A64"/>
<path d="M275.661 70.9902V77.0564C275.66 77.3706 275.722 77.6818 275.841 77.9723C275.961 78.2627 276.137 78.5266 276.359 78.7487C276.582 78.9709 276.846 79.147 277.136 79.2668C277.426 79.3866 277.738 79.4479 278.052 79.4471H319.601C319.914 79.4471 320.225 79.3852 320.515 79.265C320.804 79.1447 321.068 78.9685 321.289 78.7465C321.51 78.5244 321.686 78.2608 321.805 77.9708C321.925 77.6808 321.986 77.37 321.985 77.0564V70.9902H275.661Z" fill="#FF725E"/>
<g opacity="0.4">
<path d="M279.234 79.4482L279.58 81.3787L317.894 84.1145L318.866 79.4482H279.234Z" fill="black"/>
</g>
</g>
</g>
<defs>
<filter id="filter0_d_2130_878" x="230" y="27" width="57.7817" height="106.849" filterUnits="userSpaceOnUse" color-interpolation-filters="sRGB">
<feFlood flood-opacity="0" result="BackgroundImageFix"/>
<feColorMatrix in="SourceAlpha" type="matrix" values="0 0 0 0 0 0 0 0 0 0 0 0 0 0 0 0 0 0 127 0" result="hardAlpha"/>
<feOffset dx="4" dy="4"/>
<feGaussianBlur stdDeviation="2"/>
<feComposite in2="hardAlpha" operator="out"/>
<feColorMatrix type="matrix" values="0 0 0 0 0 0 0 0 0 0 0 0 0 0 0 0 0 0 0.25 0"/>
<feBlend mode="normal" in2="BackgroundImageFix" result="effect1_dropShadow_2130_878"/>
<feBlend mode="normal" in="SourceGraphic" in2="effect1_dropShadow_2130_878" result="shape"/>
</filter>
<filter id="filter1_d_2130_878" x="275" y="11" width="57.7817" height="106.849" filterUnits="userSpaceOnUse" color-interpolation-filters="sRGB">
<feFlood flood-opacity="0" result="BackgroundImageFix"/>
<feColorMatrix in="SourceAlpha" type="matrix" values="0 0 0 0 0 0 0 0 0 0 0 0 0 0 0 0 0 0 127 0" result="hardAlpha"/>
<feOffset dx="4" dy="4"/>
<feGaussianBlur stdDeviation="2"/>
<feComposite in2="hardAlpha" operator="out"/>
<feColorMatrix type="matrix" values="0 0 0 0 0 0 0 0 0 0 0 0 0 0 0 0 0 0 0.25 0"/>
<feBlend mode="normal" in2="BackgroundImageFix" result="effect1_dropShadow_2130_878"/>
<feBlend mode="normal" in="SourceGraphic" in2="effect1_dropShadow_2130_878" result="shape"/>
</filter>
<clipPath id="clip0_2130_878">
<rect width="330" height="108" rx="10" fill="white"/>
</clipPath>
</defs>
</svg>
