<svg width="22" height="22" viewBox="0 0 22 22" fill="none" xmlns="http://www.w3.org/2000/svg">
<path d="M11 2.75C10.0275 2.75 9.09491 3.13631 8.40728 3.82394C7.71964 4.51157 7.33333 5.44421 7.33333 6.41667C7.33333 7.38913 7.71964 8.32176 8.40728 9.00939C9.09491 9.69703 10.0275 10.0833 11 10.0833C11.9725 10.0833 12.9051 9.69703 13.5927 9.00939C14.2804 8.32176 14.6667 7.38913 14.6667 6.41667C14.6667 5.44421 14.2804 4.51157 13.5927 3.82394C12.9051 3.13631 11.9725 2.75 11 2.75ZM11 12.8333C8.24633 12.8333 2.75 14.2157 2.75 16.9583V18.3333C2.75 18.8393 3.16067 19.25 3.66667 19.25H18.3333C18.8393 19.25 19.25 18.8393 19.25 18.3333V16.9583C19.25 14.2157 13.7537 12.8333 11 12.8333Z" fill="white"/>
</svg>
