<svg width="14" height="14" viewBox="0 0 14 14" fill="none" xmlns="http://www.w3.org/2000/svg">
<path d="M6.99132 6.7414e-05C6.84504 0.00235265 6.70566 0.0626041 6.60377 0.167588C6.50189 0.272571 6.44584 0.413702 6.44794 0.55998V6.44805H0.559868C0.486721 6.44702 0.414097 6.46053 0.346218 6.48781C0.278339 6.51508 0.216558 6.55558 0.164465 6.60694C0.112372 6.6583 0.0710072 6.7195 0.0427733 6.78699C0.0145395 6.85448 0 6.9269 0 7.00006C0 7.07321 0.0145395 7.14564 0.0427733 7.21312C0.0710072 7.28061 0.112372 7.34181 0.164465 7.39317C0.216558 7.44453 0.278339 7.48503 0.346218 7.51231C0.414097 7.53958 0.486721 7.5531 0.559868 7.55206H6.44794V13.4401C6.4469 13.5133 6.46042 13.5859 6.48769 13.6538C6.51497 13.7217 6.55547 13.7834 6.60683 13.8355C6.65819 13.8876 6.71939 13.929 6.78688 13.9572C6.85436 13.9855 6.92679 14 6.99994 14C7.0731 14 7.14552 13.9855 7.21301 13.9572C7.2805 13.929 7.3417 13.8876 7.39306 13.8355C7.44442 13.7834 7.48492 13.7217 7.51219 13.6538C7.53947 13.5859 7.55299 13.5133 7.55195 13.4401V7.55206H13.44C13.5132 7.5531 13.5858 7.53958 13.6537 7.51231C13.7215 7.48503 13.7833 7.44453 13.8354 7.39317C13.8875 7.34181 13.9289 7.28061 13.9571 7.21312C13.9853 7.14564 13.9999 7.07321 13.9999 7.00006C13.9999 6.9269 13.9853 6.85448 13.9571 6.78699C13.9289 6.7195 13.8875 6.6583 13.8354 6.60694C13.7833 6.55558 13.7215 6.51508 13.6537 6.48781C13.5858 6.46053 13.5132 6.44702 13.44 6.44805H7.55195V0.55998C7.55301 0.486098 7.53923 0.412754 7.51142 0.344296C7.48361 0.275838 7.44234 0.21366 7.39006 0.161445C7.33778 0.10923 7.27555 0.0680419 7.20705 0.0403216C7.13856 0.0126012 7.0652 -0.00108724 6.99132 6.7414e-05Z" fill="white"/>
</svg>
