<svg width="30" height="30" viewBox="0 0 30 30" fill="none" xmlns="http://www.w3.org/2000/svg">
<path d="M14.9853 3.11144C14.7368 3.11532 14.5001 3.21765 14.3271 3.39595C14.1541 3.57425 14.0589 3.81394 14.0624 4.06237V14.0624H4.06242C3.93819 14.0606 3.81485 14.0836 3.69957 14.1299C3.58429 14.1762 3.47936 14.245 3.39089 14.3322C3.30242 14.4194 3.23217 14.5234 3.18422 14.638C3.13627 14.7526 3.11157 14.8756 3.11157 14.9999C3.11157 15.1241 3.13627 15.2471 3.18422 15.3617C3.23217 15.4763 3.30242 15.5803 3.39089 15.6675C3.47936 15.7547 3.58429 15.8235 3.69957 15.8699C3.81485 15.9162 3.93819 15.9391 4.06242 15.9374H14.0624V25.9374C14.0607 26.0616 14.0836 26.1849 14.1299 26.3002C14.1763 26.4155 14.245 26.5204 14.3323 26.6089C14.4195 26.6974 14.5234 26.7676 14.6381 26.8156C14.7527 26.8635 14.8757 26.8882 14.9999 26.8882C15.1242 26.8882 15.2472 26.8635 15.3618 26.8156C15.4764 26.7676 15.5803 26.6974 15.6676 26.6089C15.7548 26.5204 15.8236 26.4155 15.8699 26.3002C15.9162 26.1849 15.9392 26.0616 15.9374 25.9374V15.9374H25.9374C26.0617 15.9391 26.185 15.9162 26.3003 15.8699C26.4156 15.8235 26.5205 15.7547 26.609 15.6675C26.6974 15.5803 26.7677 15.4763 26.8156 15.3617C26.8636 15.2471 26.8883 15.1241 26.8883 14.9999C26.8883 14.8756 26.8636 14.7526 26.8156 14.638C26.7677 14.5234 26.6974 14.4194 26.609 14.3322C26.5205 14.245 26.4156 14.1762 26.3003 14.1299C26.185 14.0836 26.0617 14.0606 25.9374 14.0624H15.9374V4.06237C15.9392 3.93689 15.9158 3.81233 15.8686 3.69606C15.8214 3.5798 15.7513 3.4742 15.6625 3.38552C15.5737 3.29684 15.468 3.22689 15.3517 3.17981C15.2353 3.13273 15.1108 3.10948 14.9853 3.11144Z" fill="white"/>
</svg>
