<svg width="20" height="20" viewBox="0 0 20 20" fill="none" xmlns="http://www.w3.org/2000/svg">
<path d="M15 2.08789C14.2522 2.08789 13.5045 2.37138 12.9378 2.93831L3.715 12.1603C3.54001 12.3353 3.41185 12.5529 3.34391 12.7918L2.10774 17.1204C2.07725 17.2276 2.07594 17.3409 2.10393 17.4487C2.13191 17.5564 2.18819 17.6548 2.26694 17.7335C2.34569 17.8123 2.44404 17.8686 2.55183 17.8966C2.65962 17.9245 2.77293 17.9232 2.88004 17.8927L7.20947 16.6566L7.21028 16.6558C7.44758 16.5875 7.66466 16.461 7.84016 16.2855L17.0622 7.06266C18.196 5.92886 18.196 4.07212 17.0622 2.93831C16.4955 2.37138 15.7478 2.08789 15 2.08789ZM15 3.33057C15.4253 3.33057 15.8501 3.49445 16.1776 3.8221H16.1784C16.8346 4.4783 16.8346 5.52268 16.1784 6.17887L15.3703 6.98698L13.0135 4.63021L13.8216 3.8221C14.1491 3.49445 14.5747 3.33057 15 3.33057ZM12.1297 5.514L14.4865 7.87077L6.95556 15.4017C6.93113 15.426 6.90019 15.4445 6.86523 15.4546L3.61816 16.3823L4.54589 13.1344V13.1336C4.55544 13.1 4.57294 13.07 4.59879 13.0441L12.1297 5.514Z" fill="#9B9B9B"/>
</svg>
