<svg width="22" height="22" viewBox="0 0 22 22" fill="none" xmlns="http://www.w3.org/2000/svg">
<path d="M17.1535 2.7799C17.0051 2.77188 16.8556 2.79433 16.7113 2.84704L16.4955 2.91955L2.44743 7.87886C2.2366 7.9522 2.06271 8.08536 1.93896 8.25036H5.5367L15.6567 4.675C15.8584 5.23875 16.3855 5.59167 16.9539 5.59167C17.1051 5.59167 17.2609 5.56879 17.4122 5.51379L18.379 8.25036H19.8363L18.251 3.75834L18.1731 3.54349C18.0723 3.25474 17.8654 3.02561 17.5859 2.8927C17.4484 2.82624 17.3019 2.78793 17.1535 2.7799ZM15.7767 7.38293C15.6574 7.3757 15.5345 7.39246 15.4141 7.43485C15.0566 7.56319 14.8273 7.89286 14.809 8.25036H16.6325C16.6325 8.16328 16.6189 8.08053 16.5868 7.99345C16.4596 7.63595 16.1346 7.40463 15.7767 7.38293ZM11.0457 7.40263C10.8119 7.40263 10.5739 7.44377 10.3447 7.52168C9.94139 7.66377 9.60205 7.92036 9.35913 8.25036H12.8244C12.366 7.71411 11.7102 7.40263 11.0457 7.40263ZM3.4375 9.62536C2.81252 9.62536 2.29167 10.1462 2.29167 10.7712V18.1045C2.29167 18.7295 2.81252 19.2504 3.4375 19.2504H18.5625C19.1875 19.2504 19.7083 18.7295 19.7083 18.1045V10.7712C19.7083 10.1462 19.1875 9.62536 18.5625 9.62536H3.4375ZM5.04167 11.0004H16.9583C16.9583 11.7598 17.5739 12.3754 18.3333 12.3754V16.5004C17.5739 16.5004 16.9583 17.1159 16.9583 17.8754H5.04167C5.04167 17.1159 4.42612 16.5004 3.66667 16.5004V12.3754C4.42612 12.3754 5.04167 11.7598 5.04167 11.0004ZM11 11.917C9.73454 11.917 8.70833 13.0454 8.70833 14.4379C8.70833 15.8303 9.73454 16.9587 11 16.9587C12.2655 16.9587 13.2917 15.8303 13.2917 14.4379C13.2917 13.0454 12.2655 11.917 11 11.917ZM11 13.292C11.4968 13.292 11.9167 13.8168 11.9167 14.4379C11.9167 15.0589 11.4968 15.5837 11 15.5837C10.5032 15.5837 10.0833 15.0589 10.0833 14.4379C10.0833 13.8168 10.5032 13.292 11 13.292ZM6.1875 13.5212C5.94438 13.5212 5.71123 13.6178 5.53932 13.7897C5.36741 13.9616 5.27083 14.1947 5.27083 14.4379C5.27083 14.681 5.36741 14.9141 5.53932 15.086C5.71123 15.258 5.94438 15.3545 6.1875 15.3545C6.43061 15.3545 6.66377 15.258 6.83568 15.086C7.00759 14.9141 7.10417 14.681 7.10417 14.4379C7.10417 14.1947 7.00759 13.9616 6.83568 13.7897C6.66377 13.6178 6.43061 13.5212 6.1875 13.5212ZM15.8125 13.5212C15.5694 13.5212 15.3362 13.6178 15.1643 13.7897C14.9924 13.9616 14.8958 14.1947 14.8958 14.4379C14.8958 14.681 14.9924 14.9141 15.1643 15.086C15.3362 15.258 15.5694 15.3545 15.8125 15.3545C16.0556 15.3545 16.2888 15.258 16.4607 15.086C16.6326 14.9141 16.7292 14.681 16.7292 14.4379C16.7292 14.1947 16.6326 13.9616 16.4607 13.7897C16.2888 13.6178 16.0556 13.5212 15.8125 13.5212Z" fill="white"/>
</svg>
