<svg width="22" height="22" viewBox="0 0 22 22" fill="none" xmlns="http://www.w3.org/2000/svg">
<path d="M4.35421 3.20801C2.96546 3.20801 1.83337 4.34009 1.83337 5.72884V14.4372C1.83337 15.8259 2.96546 16.958 4.35421 16.958H12.7421L11.4629 15.6797C11.4308 15.6476 11.4034 15.6151 11.3805 15.583H4.35421C3.72171 15.583 3.20837 15.0697 3.20837 14.4372V5.72884C3.20837 5.09634 3.72171 4.58301 4.35421 4.58301H17.6459C18.2784 4.58301 18.7917 5.09634 18.7917 5.72884V14.4372C18.7917 14.483 18.7873 14.5238 18.7828 14.5697L19.8552 15.643C20.0569 15.2855 20.1667 14.8726 20.1667 14.4372V5.72884C20.1667 4.34009 19.0346 3.20801 17.6459 3.20801H4.35421ZM7.33427 5.95801C6.95477 5.95801 6.64677 6.26555 6.64677 6.64551V6.95166C5.80664 7.17991 5.16614 7.93984 5.16614 8.82259C5.16614 9.89647 6.03972 10.7705 7.11405 10.7705H7.67802C7.99381 10.7705 8.25094 11.0276 8.25094 11.3434C8.25094 11.6592 7.99337 11.9163 7.67712 11.9163H6.89294C6.51711 11.9163 6.36941 11.6597 6.3442 11.6084C6.17461 11.2688 5.76181 11.1327 5.42126 11.3014C5.08164 11.4714 4.94463 11.8842 5.11422 12.2243C5.34843 12.6918 5.86762 13.1841 6.64587 13.2734V13.5205C6.64587 13.9005 6.95387 14.208 7.33337 14.208C7.71287 14.208 8.02087 13.9005 8.02087 13.5205V13.2564C8.93112 13.0933 9.62504 12.3 9.62504 11.3434C9.62504 10.2695 8.75146 9.39551 7.67712 9.39551H7.11316C6.79737 9.39551 6.54024 9.13838 6.54024 8.82259C6.54024 8.51734 6.8284 8.24967 7.15702 8.24967H7.54553C7.89295 8.24967 8.01363 8.39766 8.09338 8.55762C8.26343 8.8977 8.67623 9.03425 9.01632 8.86466C9.35594 8.69462 9.49384 8.28182 9.32426 7.94173C9.05155 7.39677 8.59698 7.04943 8.02177 6.92659V6.64551C8.02177 6.26555 7.71377 5.95801 7.33427 5.95801ZM11.6875 7.33301C11.5964 7.33172 11.506 7.34855 11.4214 7.38252C11.3369 7.41649 11.26 7.46693 11.1951 7.5309C11.1302 7.59487 11.0787 7.67109 11.0435 7.75514C11.0084 7.83919 10.9902 7.9294 10.9902 8.02051C10.9902 8.11162 11.0084 8.20182 11.0435 8.28587C11.0787 8.36993 11.1302 8.44615 11.1951 8.51012C11.26 8.57409 11.3369 8.62452 11.4214 8.65849C11.506 8.69246 11.5964 8.7093 11.6875 8.70801H16.2709C16.362 8.7093 16.4524 8.69246 16.537 8.65849C16.6215 8.62452 16.6985 8.57409 16.7633 8.51012C16.8282 8.44615 16.8797 8.36993 16.9149 8.28587C16.9501 8.20182 16.9682 8.11162 16.9682 8.02051C16.9682 7.9294 16.9501 7.83919 16.9149 7.75514C16.8797 7.67109 16.8282 7.59487 16.7633 7.5309C16.6985 7.46693 16.6215 7.41649 16.537 7.38252C16.4524 7.34855 16.362 7.33172 16.2709 7.33301H11.6875ZM11.6571 10.9997C11.4907 11.0056 11.3262 11.071 11.1988 11.1984C11.0718 11.3254 11.0065 11.489 11 11.6549C10.9968 11.7471 11.0113 11.8404 11.0448 11.928L11.7645 14.4399C11.8287 14.6612 11.9487 14.8639 12.1128 15.028L17.5205 20.4367C17.8473 20.7639 18.2344 20.9752 18.6395 21.0481C18.7674 21.071 18.8944 21.0817 19.02 21.0821C19.5672 21.0835 20.0845 20.8725 20.4782 20.4779C20.8724 20.0842 21.0843 19.5669 21.0834 19.0196C21.0829 18.894 21.0718 18.767 21.0485 18.6392C20.9756 18.234 20.7643 17.847 20.4371 17.5202L15.0293 12.1124C14.8656 11.9488 14.6616 11.8283 14.4402 11.7642L11.9283 11.0444C11.8413 11.0114 11.7492 10.9965 11.6571 10.9997Z" fill="white"/>
</svg>
