<svg width="25" height="24" viewBox="0 0 25 24" fill="none" xmlns="http://www.w3.org/2000/svg">
<path d="M4.75 3C4.0682 3 3.5 3.5682 3.5 4.25V5.79492C3.5 6.94325 4.02774 8.02942 4.92969 8.74023L10 12.7354V20.25C10.0001 20.3877 10.0381 20.5228 10.1098 20.6404C10.1816 20.7579 10.2843 20.8535 10.4067 20.9165C10.5292 20.9796 10.6667 21.0077 10.804 20.9978C10.9414 20.9879 11.0734 20.9403 11.1855 20.8604L14.6855 18.3604C14.7828 18.291 14.862 18.1994 14.9167 18.0933C14.9714 17.9871 15 17.8694 15 17.75V12.7344L20.0703 8.74023C20.9723 8.02942 21.5 6.94325 21.5 5.79492V4.25C21.5 3.5682 20.9318 3 20.25 3H4.75ZM5 4.5H20V5.79492C20 5.86696 19.9599 5.92903 19.9531 6H5.04688C5.04009 5.92903 5 5.86696 5 5.79492V4.5ZM5.80762 7.5H19.1924C19.1718 7.51746 19.1639 7.54474 19.1426 7.56152L14.1436 11.5H10.8564L5.85742 7.56152C5.83613 7.54475 5.8282 7.51745 5.80762 7.5ZM11.5 13H13.5V17.3643L11.5 18.793V13Z" fill="#2F55DD"/>
</svg>
