<svg width="52" height="52" viewBox="0 0 52 52" fill="none" xmlns="http://www.w3.org/2000/svg">
<path d="M35.6289 15.4373C35.4146 15.2296 35.1267 15.1154 34.8283 15.1199C34.53 15.1244 34.2456 15.2471 34.0376 15.4611L25.545 23.9535L17.0524 15.4611C16.9484 15.3541 16.8242 15.2689 16.6869 15.2103C16.5497 15.1517 16.4021 15.121 16.2529 15.12C16.1037 15.1189 15.9558 15.1475 15.8177 15.2042C15.6797 15.2608 15.5542 15.3443 15.4487 15.4498C15.3432 15.5553 15.2597 15.6807 15.2031 15.8188C15.1465 15.9568 15.1179 16.1048 15.1189 16.254C15.12 16.4032 15.1507 16.5507 15.2092 16.6879C15.2678 16.8252 15.3531 16.9494 15.4601 17.0534L23.9526 25.5459L15.4601 34.0383C15.3531 34.1423 15.2678 34.2665 15.2092 34.4038C15.1507 34.541 15.12 34.6885 15.1189 34.8377C15.1179 34.987 15.1465 35.1349 15.2031 35.273C15.2597 35.411 15.3432 35.5364 15.4487 35.642C15.5542 35.7475 15.6797 35.831 15.8177 35.8876C15.9558 35.9442 16.1037 35.9728 16.2529 35.9717C16.4021 35.9707 16.5497 35.94 16.6869 35.8814C16.8242 35.8229 16.9484 35.7376 17.0524 35.6306L25.545 27.1382L34.0376 35.6306C34.1416 35.7376 34.2658 35.8229 34.4031 35.8814C34.5403 35.94 34.6879 35.9707 34.8371 35.9717C34.9863 35.9728 35.1342 35.9442 35.2723 35.8876C35.4103 35.831 35.5358 35.7475 35.6413 35.642C35.7468 35.5364 35.8303 35.411 35.8869 35.273C35.9435 35.1349 35.9721 34.987 35.9711 34.8377C35.97 34.6885 35.9393 34.541 35.8808 34.4038C35.8222 34.2665 35.737 34.1423 35.63 34.0383L27.1374 25.5459L35.63 17.0534C35.7381 16.9484 35.824 16.8227 35.8826 16.6839C35.9412 16.5451 35.9714 16.3958 35.9713 16.2451C35.9712 16.0944 35.9408 15.9453 35.882 15.8065C35.8232 15.6677 35.7371 15.5422 35.6289 15.4373Z" fill="white"/>
</svg>
