<svg width="17" height="17" viewBox="0 0 17 17" fill="none" xmlns="http://www.w3.org/2000/svg">
<path d="M8.50004 1.83398C5.37646 1.83398 2.83337 4.37707 2.83337 7.50065C2.83337 8.90291 3.34781 10.1889 4.19275 11.1777L4.19535 11.1803L4.19731 11.1829C4.19731 11.1829 6.60795 13.9337 7.46619 14.7526C8.0409 15.3005 8.95853 15.3005 9.53324 14.7526C10.5115 13.8195 12.8034 11.1816 12.8034 11.1816L12.8047 11.1797L12.8067 11.1777C13.6524 10.1889 14.1667 8.90291 14.1667 7.50065C14.1667 4.37707 11.6236 1.83398 8.50004 1.83398ZM8.50004 2.83398C11.0831 2.83398 13.1667 4.91757 13.1667 7.50065C13.1667 8.65905 12.7446 9.71151 12.0463 10.528C12.0417 10.5332 9.69672 13.2152 8.84314 14.0293C8.64518 14.218 8.35425 14.218 8.15629 14.0293C7.4429 13.3486 4.96041 10.5362 4.95317 10.528L4.95251 10.5273C4.25515 9.71093 3.83337 8.65873 3.83337 7.50065C3.83337 4.91757 5.91696 2.83398 8.50004 2.83398ZM8.50004 5.50065C7.87504 5.50065 7.34298 5.75303 7.00134 6.13737C6.65971 6.52171 6.50004 7.01454 6.50004 7.50065C6.50004 7.98676 6.65971 8.47959 7.00134 8.86393C7.34298 9.24827 7.87504 9.50065 8.50004 9.50065C9.12504 9.50065 9.6571 9.24827 9.99874 8.86393C10.3404 8.47959 10.5 7.98676 10.5 7.50065C10.5 7.01454 10.3404 6.52171 9.99874 6.13737C9.6571 5.75303 9.12504 5.50065 8.50004 5.50065ZM8.50004 6.50065C8.87504 6.50065 9.09298 6.62327 9.25134 6.80143C9.40971 6.97959 9.50004 7.23676 9.50004 7.50065C9.50004 7.76454 9.40971 8.02171 9.25134 8.19987C9.09298 8.37803 8.87504 8.50065 8.50004 8.50065C8.12504 8.50065 7.9071 8.37803 7.74874 8.19987C7.59037 8.02171 7.50004 7.76454 7.50004 7.50065C7.50004 7.23676 7.59037 6.97959 7.74874 6.80143C7.9071 6.62327 8.12504 6.50065 8.50004 6.50065Z" fill="#5B5B5B"/>
</svg>
