<svg width="37" height="36" viewBox="0 0 37 36" fill="none" xmlns="http://www.w3.org/2000/svg">
<path d="M25.4139 8.83398C24.1551 8.83398 23.1204 9.86955 23.1204 11.1283V24.8757C23.1204 26.1344 24.1551 27.17 25.4139 27.17C26.6727 27.17 27.7083 26.1344 27.7083 24.8757V11.1283C27.7083 9.86955 26.6727 8.83398 25.4139 8.83398ZM25.4139 10.209C25.9298 10.209 26.3333 10.6125 26.3333 11.1283V24.8757C26.3333 25.3915 25.9298 25.795 25.4139 25.795C24.898 25.795 24.4954 25.3915 24.4954 24.8757V11.1283C24.4954 10.6125 24.898 10.209 25.4139 10.209ZM12.5806 12.9617C11.3218 12.9617 10.2871 13.9963 10.2871 15.2551V24.8757C10.2871 26.1344 11.3218 27.17 12.5806 27.17C13.8393 27.17 14.8749 26.1344 14.8749 24.8757V15.2551C14.8749 13.9963 13.8393 12.9617 12.5806 12.9617ZM12.5806 14.3367C13.0965 14.3367 13.4999 14.7392 13.4999 15.2551V24.8757C13.4999 25.3915 13.0965 25.795 12.5806 25.795C12.0647 25.795 11.6621 25.3915 11.6621 24.8757V15.2551C11.6621 14.7392 12.0647 14.3367 12.5806 14.3367ZM18.9999 17.084C17.7411 17.084 16.7056 18.1196 16.7056 19.3783V24.8757C16.7056 26.1344 17.7411 27.17 18.9999 27.17C20.2587 27.17 21.2943 26.1344 21.2943 24.8757V19.3783C21.2943 18.1196 20.2587 17.084 18.9999 17.084ZM18.9999 18.459C19.5158 18.459 19.9193 18.8625 19.9193 19.3783V24.8757C19.9193 25.3915 19.5158 25.795 18.9999 25.795C18.484 25.795 18.0806 25.3915 18.0806 24.8757V19.3783C18.0806 18.8625 18.484 18.459 18.9999 18.459Z" fill="#8B8B8B"/>
</svg>
