<svg width="36" height="36" viewBox="0 0 36 36" fill="none" xmlns="http://www.w3.org/2000/svg">
<path d="M12.7292 9.29102C11.5983 9.29102 10.6667 10.2226 10.6667 11.3535V22.1243H9.97925C9.79692 22.1244 9.62206 22.1968 9.49313 22.3257C9.36421 22.4547 9.29177 22.6295 9.29175 22.8118V23.7285C9.29175 25.3657 10.6338 26.7077 12.2709 26.7077H22.3542C23.9914 26.7077 25.3334 25.3657 25.3334 23.7285V11.3535C25.3334 10.2226 24.4019 9.29102 23.2709 9.29102H12.7292ZM14.5626 12.9577C14.9421 12.9577 15.2501 13.2657 15.2501 13.6452C15.2501 14.0247 14.9421 14.3327 14.5626 14.3327C14.1831 14.3327 13.8751 14.0247 13.8751 13.6452C13.8751 13.2657 14.1831 12.9577 14.5626 12.9577ZM16.8542 12.9577H21.4376C21.8175 12.9577 22.1251 13.2652 22.1251 13.6452C22.1251 14.0251 21.8175 14.3327 21.4376 14.3327H16.8542C16.4743 14.3327 16.1667 14.0251 16.1667 13.6452C16.1667 13.2652 16.4743 12.9577 16.8542 12.9577ZM14.5626 15.7077C14.9421 15.7077 15.2501 16.0157 15.2501 16.3952C15.2501 16.7747 14.9421 17.0827 14.5626 17.0827C14.1831 17.0827 13.8751 16.7747 13.8751 16.3952C13.8751 16.0157 14.1831 15.7077 14.5626 15.7077ZM16.8542 15.7077H21.4376C21.8175 15.7077 22.1251 16.0152 22.1251 16.3952C22.1251 16.7751 21.8175 17.0827 21.4376 17.0827H16.8542C16.4743 17.0827 16.1667 16.7751 16.1667 16.3952C16.1667 16.0152 16.4743 15.7077 16.8542 15.7077ZM14.5626 18.4577C14.9421 18.4577 15.2501 18.7657 15.2501 19.1452C15.2501 19.5247 14.9421 19.8327 14.5626 19.8327C14.1831 19.8327 13.8751 19.5247 13.8751 19.1452C13.8751 18.7657 14.1831 18.4577 14.5626 18.4577ZM16.8542 18.4577H21.4376C21.8175 18.4577 22.1251 18.7652 22.1251 19.1452C22.1251 19.5251 21.8175 19.8327 21.4376 19.8327H16.8542C16.4743 19.8327 16.1667 19.5251 16.1667 19.1452C16.1667 18.7652 16.4743 18.4577 16.8542 18.4577ZM10.6667 23.4993H19.3751V23.7285C19.3751 24.3312 19.6015 24.8622 19.9131 25.3327H12.2709C11.3771 25.3327 10.6667 24.6223 10.6667 23.7285V23.4993Z" fill="#2F55DD"/>
</svg>
