<svg width="36" height="36" viewBox="0 0 36 36" fill="none" xmlns="http://www.w3.org/2000/svg">
<circle cx="18" cy="18" r="18" fill="#2F55DD" fill-opacity="0.2"/>
<path d="M12.825 9.4502C11.7146 9.4502 10.8 10.3648 10.8 11.4752V22.0502H10.125C9.94594 22.0502 9.77426 22.1213 9.64767 22.2479C9.52109 22.3745 9.44997 22.5462 9.44995 22.7252V23.6252C9.44995 25.2326 10.7676 26.5502 12.375 26.5502H22.275C23.8823 26.5502 25.2 25.2326 25.2 23.6252V11.4752C25.2 10.3648 24.2853 9.4502 23.175 9.4502H12.825ZM12.825 10.8002H23.175C23.5559 10.8002 23.85 11.0943 23.85 11.4752V23.6252C23.85 24.5027 23.1525 25.2002 22.275 25.2002C21.3974 25.2002 20.7 24.5027 20.7 23.6252V22.7252C20.6999 22.5462 20.6288 22.3745 20.5022 22.2479C20.3756 22.1213 20.204 22.0502 20.025 22.0502H12.15V11.4752C12.15 11.0943 12.444 10.8002 12.825 10.8002ZM14.625 13.0502C14.4459 13.0502 14.2742 13.1213 14.1477 13.2479C14.0211 13.3745 13.95 13.5462 13.95 13.7252C13.95 13.9042 14.0211 14.0759 14.1477 14.2025C14.2742 14.3291 14.4459 14.4002 14.625 14.4002C14.804 14.4002 14.9757 14.3291 15.1022 14.2025C15.2288 14.0759 15.3 13.9042 15.3 13.7252C15.3 13.5462 15.2288 13.3745 15.1022 13.2479C14.9757 13.1213 14.804 13.0502 14.625 13.0502ZM16.875 13.0502C16.7855 13.0489 16.6967 13.0655 16.6137 13.0988C16.5307 13.1322 16.4551 13.1817 16.3914 13.2445C16.3277 13.3073 16.2772 13.3821 16.2426 13.4647C16.2081 13.5472 16.1903 13.6357 16.1903 13.7252C16.1903 13.8147 16.2081 13.9032 16.2426 13.9857C16.2772 14.0683 16.3277 14.1431 16.3914 14.2059C16.4551 14.2687 16.5307 14.3182 16.6137 14.3516C16.6967 14.3849 16.7855 14.4015 16.875 14.4002H21.375C21.4644 14.4015 21.5532 14.3849 21.6362 14.3516C21.7192 14.3182 21.7948 14.2687 21.8585 14.2059C21.9222 14.1431 21.9727 14.0683 22.0073 13.9857C22.0418 13.9032 22.0596 13.8147 22.0596 13.7252C22.0596 13.6357 22.0418 13.5472 22.0073 13.4647C21.9727 13.3821 21.9222 13.3073 21.8585 13.2445C21.7948 13.1817 21.7192 13.1322 21.6362 13.0988C21.5532 13.0655 21.4644 13.0489 21.375 13.0502H16.875ZM14.625 15.7502C14.4459 15.7502 14.2742 15.8213 14.1477 15.9479C14.0211 16.0745 13.95 16.2462 13.95 16.4252C13.95 16.6042 14.0211 16.7759 14.1477 16.9025C14.2742 17.0291 14.4459 17.1002 14.625 17.1002C14.804 17.1002 14.9757 17.0291 15.1022 16.9025C15.2288 16.7759 15.3 16.6042 15.3 16.4252C15.3 16.2462 15.2288 16.0745 15.1022 15.9479C14.9757 15.8213 14.804 15.7502 14.625 15.7502ZM16.875 15.7502C16.7855 15.7489 16.6967 15.7655 16.6137 15.7988C16.5307 15.8322 16.4551 15.8817 16.3914 15.9445C16.3277 16.0073 16.2772 16.0821 16.2426 16.1647C16.2081 16.2472 16.1903 16.3357 16.1903 16.4252C16.1903 16.5146 16.2081 16.6032 16.2426 16.6857C16.2772 16.7683 16.3277 16.8431 16.3914 16.9059C16.4551 16.9687 16.5307 17.0182 16.6137 17.0516C16.6967 17.0849 16.7855 17.1015 16.875 17.1002H21.375C21.4644 17.1015 21.5532 17.0849 21.6362 17.0516C21.7192 17.0182 21.7948 16.9687 21.8585 16.9059C21.9222 16.8431 21.9727 16.7683 22.0073 16.6857C22.0418 16.6032 22.0596 16.5146 22.0596 16.4252C22.0596 16.3357 22.0418 16.2472 22.0073 16.1647C21.9727 16.0821 21.9222 16.0073 21.8585 15.9445C21.7948 15.8817 21.7192 15.8322 21.6362 15.7988C21.5532 15.7655 21.4644 15.7489 21.375 15.7502H16.875ZM14.625 18.4502C14.4459 18.4502 14.2742 18.5213 14.1477 18.6479C14.0211 18.7745 13.95 18.9462 13.95 19.1252C13.95 19.3042 14.0211 19.4759 14.1477 19.6025C14.2742 19.7291 14.4459 19.8002 14.625 19.8002C14.804 19.8002 14.9757 19.7291 15.1022 19.6025C15.2288 19.4759 15.3 19.3042 15.3 19.1252C15.3 18.9462 15.2288 18.7745 15.1022 18.6479C14.9757 18.5213 14.804 18.4502 14.625 18.4502ZM16.875 18.4502C16.7855 18.4489 16.6967 18.4655 16.6137 18.4988C16.5307 18.5322 16.4551 18.5817 16.3914 18.6445C16.3277 18.7073 16.2772 18.7821 16.2426 18.8647C16.2081 18.9472 16.1903 19.0357 16.1903 19.1252C16.1903 19.2147 16.2081 19.3032 16.2426 19.3857C16.2772 19.4683 16.3277 19.5431 16.3914 19.6059C16.4551 19.6687 16.5307 19.7182 16.6137 19.7516C16.6967 19.7849 16.7855 19.8015 16.875 19.8002H21.375C21.4644 19.8015 21.5532 19.7849 21.6362 19.7516C21.7192 19.7182 21.7948 19.6687 21.8585 19.6059C21.9222 19.5431 21.9727 19.4683 22.0073 19.3857C22.0418 19.3032 22.0596 19.2147 22.0596 19.1252C22.0596 19.0357 22.0418 18.9472 22.0073 18.8647C21.9727 18.7821 21.9222 18.7073 21.8585 18.6445C21.7948 18.5817 21.7192 18.5322 21.6362 18.4988C21.5532 18.4655 21.4644 18.4489 21.375 18.4502H16.875ZM10.8 23.4002H19.35V23.6252C19.35 24.217 19.5723 24.7383 19.8782 25.2002H12.375C11.4974 25.2002 10.8 24.5027 10.8 23.6252V23.4002Z" fill="#2F55DD"/>
</svg>
