<svg width="32" height="32" viewBox="0 0 32 32" fill="none" xmlns="http://www.w3.org/2000/svg">
<path d="M16 4.28125C14.6187 4.28125 13.2939 4.82998 12.3172 5.80674C11.3404 6.78349 10.7917 8.10825 10.7917 9.48958C10.7917 10.8709 11.3404 12.1957 12.3172 13.1724C13.2939 14.1492 14.6187 14.6979 16 14.6979C17.3813 14.6979 18.7061 14.1492 19.6828 13.1724C20.6596 12.1957 21.2083 10.8709 21.2083 9.48958C21.2083 8.10825 20.6596 6.78349 19.6828 5.80674C18.7061 4.82998 17.3813 4.28125 16 4.28125ZM16 18.6042C12.0885 18.6042 4.28125 20.5677 4.28125 24.4635V26.4167C4.28125 27.1354 4.86458 27.7188 5.58333 27.7188H26.4167C27.1354 27.7188 27.7188 27.1354 27.7188 26.4167V24.4635C27.7188 20.5677 19.9115 18.6042 16 18.6042Z" fill="white"/>
</svg>
