<svg width="40" height="40" viewBox="0 0 40 40" fill="none" xmlns="http://www.w3.org/2000/svg">
<circle cx="20" cy="20" r="20" fill="#23A26D" fill-opacity="0.12"/>
<path d="M30.0467 11.7601C29.8357 11.7663 29.6353 11.8543 29.4881 12.0055L15.4375 26.0561L9.51201 20.1305C9.43714 20.0526 9.34747 19.9903 9.24824 19.9474C9.14901 19.9045 9.04222 19.8819 8.93412 19.8808C8.82603 19.8797 8.7188 19.9002 8.61872 19.941C8.51864 19.9819 8.42772 20.0423 8.35128 20.1187C8.27484 20.1952 8.21442 20.2861 8.17356 20.3862C8.1327 20.4863 8.11222 20.5935 8.11332 20.7016C8.11442 20.8097 8.13708 20.9165 8.17996 21.0157C8.22285 21.1149 8.28511 21.2046 8.36308 21.2795L14.8631 27.7795C15.0155 27.9318 15.2221 28.0174 15.4375 28.0174C15.653 28.0174 15.8596 27.9318 16.012 27.7795L30.637 13.1545C30.7542 13.0403 30.8342 12.8934 30.8666 12.733C30.899 12.5726 30.8821 12.4062 30.8184 12.2555C30.7546 12.1049 30.6468 11.977 30.5091 11.8886C30.3714 11.8002 30.2102 11.7554 30.0467 11.7601Z" fill="#4CAF50"/>
</svg>
