<svg width="14" height="14" viewBox="0 0 14 14" fill="none" xmlns="http://www.w3.org/2000/svg">
<path d="M13.4002 0C13.2467 0 13.0932 0.0585812 12.976 0.175781L5.7854 7.36719L5.20024 8.8L6.63306 8.21484L13.8245 1.02422C14.0585 0.789819 14.0585 0.410181 13.8245 0.175781C13.7073 0.0585812 13.5537 0 13.4002 0ZM2.20024 0.4C0.992334 0.4 0.000244141 1.39209 0.000244141 2.6V11.8C0.000244141 13.0079 0.992334 14 2.20024 14H11.4002C12.6082 14 13.6002 13.0079 13.6002 11.8V5C13.6014 4.92049 13.5867 4.84156 13.557 4.76777C13.5274 4.69399 13.4834 4.62684 13.4275 4.57022C13.3717 4.5136 13.3052 4.46864 13.2318 4.43795C13.1585 4.40726 13.0798 4.39145 13.0002 4.39145C12.9207 4.39145 12.842 4.40726 12.7687 4.43795C12.6953 4.46864 12.6288 4.5136 12.5729 4.57022C12.5171 4.62684 12.4731 4.69399 12.4435 4.76777C12.4138 4.84156 12.3991 4.92049 12.4002 5V11.8C12.4002 12.3593 11.9595 12.8 11.4002 12.8H2.20024C1.64095 12.8 1.20024 12.3593 1.20024 11.8V2.6C1.20024 2.04071 1.64095 1.6 2.20024 1.6H9.00024C9.07975 1.60112 9.15869 1.58644 9.23247 1.55679C9.30625 1.52714 9.3734 1.48312 9.43003 1.4273C9.48665 1.37147 9.53161 1.30495 9.5623 1.23159C9.59299 1.15824 9.60879 1.07952 9.60879 1C9.60879 0.920485 9.59299 0.841763 9.5623 0.768408C9.53161 0.695054 9.48665 0.628531 9.43003 0.572704C9.3734 0.516877 9.30625 0.472861 9.23247 0.443213C9.15869 0.413564 9.07975 0.398876 9.00024 0.4H2.20024Z" fill="white"/>
</svg>
