<svg width="58" height="58" viewBox="0 0 58 58" fill="none" xmlns="http://www.w3.org/2000/svg">
<circle cx="29.0002" cy="29.2688" r="28.3069" fill="#23A26D" fill-opacity="0.12"/>
<path d="M20.3751 17.7179C20.2012 17.7154 20.0285 17.7476 19.8671 17.8124C19.7057 17.8773 19.5589 17.9736 19.435 18.0957C19.3111 18.2178 19.2128 18.3633 19.1456 18.5238C19.0785 18.6843 19.0439 18.8565 19.0439 19.0304C19.0439 19.2043 19.0785 19.3765 19.1456 19.537C19.2128 19.6975 19.3111 19.843 19.435 19.9651C19.5589 20.0872 19.7057 20.1835 19.8671 20.2484C20.0285 20.3132 20.2012 20.3454 20.3751 20.3429V20.9992C20.3751 24.8839 22.8562 28.1129 26.2814 29.4497V29.6112C22.8562 30.9473 20.3751 34.1764 20.3751 38.0617V38.7179C20.2012 38.7154 20.0285 38.7476 19.8671 38.8124C19.7057 38.8773 19.5589 38.9736 19.435 39.0957C19.3111 39.2178 19.2128 39.3633 19.1456 39.5238C19.0785 39.6843 19.0439 39.8565 19.0439 40.0304C19.0439 40.2043 19.0785 40.3765 19.1456 40.537C19.2128 40.6975 19.3111 40.843 19.435 40.9651C19.5589 41.0872 19.7057 41.1835 19.8671 41.2484C20.0285 41.3132 20.2012 41.3454 20.3751 41.3429H21.6876H37.4376H38.7501C38.9241 41.3454 39.0967 41.3132 39.2581 41.2484C39.4195 41.1835 39.5664 41.0872 39.6903 40.9651C39.8141 40.843 39.9125 40.6975 39.9796 40.537C40.0468 40.3765 40.0813 40.2043 40.0813 40.0304C40.0813 39.8565 40.0468 39.6843 39.9796 39.5238C39.9125 39.3633 39.8141 39.2178 39.6903 39.0957C39.5664 38.9736 39.4195 38.8773 39.2581 38.8124C39.0967 38.7476 38.9241 38.7154 38.7501 38.7179V38.0617C38.7501 34.1764 36.269 30.9478 32.8439 29.6112V29.4497C36.2692 28.1135 38.7501 24.8839 38.7501 20.9992V20.3429C38.9241 20.3454 39.0967 20.3132 39.2581 20.2484C39.4195 20.1835 39.5664 20.0872 39.6903 19.9651C39.8141 19.843 39.9125 19.6975 39.9796 19.537C40.0468 19.3765 40.0813 19.2043 40.0813 19.0304C40.0813 18.8565 40.0468 18.6843 39.9796 18.5238C39.9125 18.3633 39.8141 18.2178 39.6903 18.0957C39.5664 17.9736 39.4195 17.8773 39.2581 17.8124C39.0967 17.7476 38.9241 17.7154 38.7501 17.7179H37.4376H21.6876H20.3751ZM23.0001 20.3429H36.1251V20.9992C36.1251 24.0678 34.0301 26.6166 31.2033 27.345C30.9216 27.4178 30.6722 27.582 30.494 27.8119C30.3158 28.0418 30.219 28.3244 30.2189 28.6152V30.4443C30.2188 30.7354 30.3154 31.0182 30.4936 31.2484C30.6718 31.4786 30.9214 31.643 31.2033 31.7158C34.0304 32.4448 36.1251 34.9923 36.1251 38.0617V38.7179H34.1987C33.5224 36.8073 31.7048 35.4367 29.5626 35.4367C27.4205 35.4367 25.6029 36.8073 24.9266 38.7179H23.0001V38.0617C23.0001 34.9923 25.0951 32.4442 27.922 31.7158C28.2036 31.643 28.4531 31.4788 28.6313 31.2489C28.8095 31.019 28.9062 30.7364 28.9064 30.4456V28.6165C28.9065 28.3254 28.8099 28.0426 28.6317 27.8124C28.4535 27.5822 28.2038 27.4178 27.922 27.345C25.095 26.616 23.0001 24.0678 23.0001 20.9992V20.3429ZM26.9376 24.2804C26.9376 25.7301 28.113 26.9054 29.5626 26.9054C31.0123 26.9054 32.1876 25.7301 32.1876 24.2804H26.9376Z" fill="#4CAF50"/>
</svg>
