<svg width="16" height="17" viewBox="0 0 16 17" fill="none" xmlns="http://www.w3.org/2000/svg">
<path d="M6.16121 1.49609C6.0617 1.49612 5.96447 1.52583 5.88194 1.58143C5.79941 1.63702 5.73535 1.71598 5.69795 1.80819C5.66055 1.9004 5.65151 2.00167 5.67199 2.09905C5.69246 2.19643 5.74153 2.28548 5.8129 2.35482L11.9594 8.5013L5.8129 14.6478C5.76492 14.6939 5.72661 14.749 5.70022 14.8101C5.67382 14.8712 5.65988 14.9369 5.65921 15.0034C5.65853 15.0699 5.67113 15.1359 5.69628 15.1975C5.72142 15.2591 5.7586 15.315 5.80564 15.3621C5.85268 15.4091 5.90863 15.4463 5.97022 15.4714C6.03181 15.4966 6.09779 15.5092 6.16431 15.5085C6.23083 15.5078 6.29655 15.4939 6.35761 15.4675C6.41868 15.4411 6.47386 15.4028 6.51993 15.3548L13.0199 8.85482C13.1137 8.76105 13.1663 8.63389 13.1663 8.5013C13.1663 8.36872 13.1137 8.24156 13.0199 8.14779L6.51993 1.64779C6.47333 1.59979 6.41757 1.56164 6.35595 1.53558C6.29433 1.50952 6.22811 1.4961 6.16121 1.49609Z" fill="#2F55DD"/>
</svg>
