<svg width="24" height="24" viewBox="0 0 24 24" fill="none" xmlns="http://www.w3.org/2000/svg">
<circle cx="12" cy="12" r="12" fill="#FFA19F"/>
<path d="M5.83366 17.5H18.167C18.8113 17.5 19.3337 16.9777 19.3337 16.3333V7.66667C19.3337 7.02233 18.8113 6.5 18.167 6.5H5.83366C5.18933 6.5 4.66699 7.02233 4.66699 7.66667V16.3333C4.66699 16.9777 5.18933 17.5 5.83366 17.5Z" fill="#E0E0E0"/>
<path d="M12.667 17.5H18.167C18.8113 17.5 19.3337 16.9777 19.3337 16.3333V7.66667C19.3337 7.02233 18.8113 6.5 18.167 6.5H5.83366C5.18933 6.5 4.66699 7.02233 4.66699 7.66667L12.667 17.5Z" fill="#D9D9D9"/>
<path d="M6.24805 17.4987H18.1664C18.8107 17.4987 19.333 16.9764 19.333 16.332V7.83203L6.24805 17.4987Z" fill="#EEEEEE"/>
<path d="M12.5815 17.4987H18.1665C18.8108 17.4987 19.3332 16.9764 19.3332 16.332V7.83203L10.2568 14.5374L12.5815 17.4987Z" fill="#E0E0E0"/>
<path d="M18.167 7.16616H5.83366C5.18933 7.16616 4.66699 7.02183 4.66699 7.66616V16.3328C4.66699 16.9772 5.18933 17.4995 5.83366 17.4995H6.33366V7.99949H17.667V17.4995H18.167C18.8113 17.4995 19.3337 16.9772 19.3337 16.3328V7.66616C19.3337 7.02183 18.8113 7.16616 18.167 7.16616Z" fill="#CA3737"/>
<path d="M18.167 6.5H12.0003H5.83366C5.18933 6.5 4.66699 7.012 4.66699 7.66667C4.66699 8.06867 5.17299 8.41933 5.17299 8.41933L12.0003 13.252L18.8277 8.41967C18.8277 8.41967 19.3337 8.06867 19.3337 7.667C19.3337 7.012 18.8113 6.5 18.167 6.5Z" fill="#F5F5F5"/>
<path d="M18.4157 6.52734L12.0003 11L5.58499 6.52734C5.06033 6.63968 4.66699 7.09901 4.66699 7.66668C4.66699 8.06868 5.17299 8.41934 5.17299 8.41934L12.0003 13.252L18.8277 8.41968C18.8277 8.41968 19.3337 8.06868 19.3337 7.66701C19.3337 7.09901 18.9403 6.63968 18.4157 6.52734Z" fill="#E84F4B"/>
</svg>
