<svg width="24" height="24" viewBox="0 0 24 24" fill="none" xmlns="http://www.w3.org/2000/svg">
<path d="M16.774 1.98828C16.6284 1.98816 16.4846 2.01982 16.3525 2.08104C16.2204 2.14227 16.1033 2.2316 16.0094 2.34277L15.8013 2.58106C15.6347 2.53916 15.4644 2.51478 15.2935 2.51074C14.6466 2.49546 13.9964 2.75079 13.5435 3.27148L10.5162 6.74902L6.83455 7.79883C6.17176 7.98766 5.57806 8.36543 5.12557 8.88574L1.61678 12.918C0.784891 13.8739 0.807862 15.3853 1.82283 16.2266C1.91086 16.2995 2.00548 16.3603 2.10115 16.418L1.96541 16.5732C1.96541 16.5736 1.96541 16.5739 1.96541 16.5742C1.76828 16.801 1.63135 17.0748 1.57088 17.3701H1.57186L1.01522 20.0742C0.988698 20.2039 0.996948 20.3382 1.03913 20.4636C1.08131 20.5891 1.15592 20.7011 1.25539 20.7884C1.35486 20.8756 1.47565 20.935 1.60549 20.9605C1.73534 20.986 1.86962 20.9768 1.99471 20.9336L4.61287 20.0303C4.90273 19.9304 5.16185 19.7561 5.36287 19.5254L7.06893 17.5654C7.31672 17.8731 7.6308 18.1324 8.01522 18.2969L7.97518 18.2783L10.984 19.7822L10.9957 19.7881C11.0048 19.7923 11.0739 19.8296 11.1695 19.8818C11.8249 20.2408 13.224 20.999 15.2496 20.999C16.7714 20.999 17.5783 20.7081 18.3502 20.4639C19.4941 20.1025 19.8786 19.999 21.7496 19.999H22.2496C22.349 20.0004 22.4476 19.9821 22.5399 19.945C22.6321 19.9079 22.716 19.8529 22.7868 19.7831C22.8576 19.7134 22.9138 19.6302 22.9522 19.5385C22.9905 19.4468 23.0103 19.3484 23.0103 19.249C23.0103 19.1496 22.9905 19.0512 22.9522 18.9595C22.9138 18.8678 22.8576 18.7847 22.7868 18.7149C22.716 18.6451 22.6321 18.5901 22.5399 18.553C22.4476 18.516 22.349 18.4976 22.2496 18.499H21.7496C19.8086 18.499 19.0751 18.6626 17.899 19.0342H17.898C17.0772 19.2939 16.5992 19.499 15.2496 19.499C13.5852 19.499 12.5438 18.9244 11.8902 18.5664V18.5654C11.8144 18.524 11.7365 18.4766 11.6187 18.4229L8.62654 16.9258L8.60604 16.918C8.11388 16.7074 7.8774 16.1658 8.05818 15.6611C8.20657 15.2492 8.58979 14.999 9.00057 14.999C9.23825 14.999 9.79006 15.1095 10.4771 15.2363C11.9038 15.5004 12.4972 15.499 12.7418 15.499C13.6643 15.499 14.7243 15.1391 15.3736 14.165C15.4521 14.051 15.4974 13.9174 15.5046 13.7792C15.5119 13.6409 15.4807 13.5034 15.4146 13.3818C15.3484 13.2601 15.25 13.1592 15.13 13.0901C15.0101 13.021 14.8733 12.9864 14.7349 12.9902C14.6132 12.9936 14.494 13.0266 14.3879 13.0863C14.2817 13.146 14.1917 13.2307 14.1256 13.333C13.7749 13.859 13.3343 13.999 12.7418 13.999C12.4664 13.999 12.1119 14.0137 10.7506 13.7617H10.7496C10.6364 13.7408 10.5404 13.7216 10.4332 13.7002L14.7594 8.72852C15.0045 8.87364 15.2619 9.03934 15.5484 9.24805C15.574 9.26863 16.6782 10.1558 18.0377 11.0684C18.7253 11.5299 19.4718 11.9938 20.1861 12.3545C20.9005 12.7152 21.5522 12.999 22.2496 12.999C22.349 13.0004 22.4476 12.9821 22.5399 12.945C22.6321 12.9079 22.716 12.8529 22.7868 12.7831C22.8576 12.7134 22.9138 12.6302 22.9522 12.5385C22.9905 12.4468 23.0103 12.3484 23.0103 12.249C23.0103 12.1496 22.9905 12.0512 22.9522 11.9595C22.9138 11.8678 22.8576 11.7847 22.7868 11.7149C22.716 11.6451 22.6321 11.5901 22.5399 11.553C22.4476 11.516 22.349 11.4976 22.2496 11.499C22.0615 11.499 21.4882 11.3314 20.8629 11.0156C20.2375 10.6999 19.5295 10.2626 18.8736 9.82227C17.5618 8.94164 16.4596 8.05664 16.4596 8.05664L16.4459 8.0459L16.4312 8.03516C16.1987 7.86573 15.9773 7.71929 15.7584 7.58105L16.899 6.27051C16.8993 6.27051 16.8997 6.27051 16.9 6.27051C17.4683 5.61679 17.6377 4.68788 17.3131 3.8916L17.5181 3.65527C17.6468 3.51146 17.7312 3.33349 17.761 3.14282C17.7908 2.95215 17.7648 2.75693 17.6861 2.58071C17.6074 2.40449 17.4795 2.25479 17.3176 2.14967C17.1558 2.04455 16.967 1.9885 16.774 1.98828ZM15.2525 3.98731C15.4643 3.99023 15.6774 4.08925 15.8394 4.29688C15.8398 4.29688 15.8401 4.29688 15.8404 4.29688C16.049 4.56383 16.0221 4.99296 15.7672 5.28613L14.0982 7.20313C14.0383 7.25337 13.9865 7.31268 13.9449 7.37891L8.5865 13.5352C7.71988 13.682 6.96069 14.2815 6.64705 15.1543L6.64608 15.1553C6.55603 15.4066 6.51963 15.6638 6.51229 15.9189L4.23104 18.54C4.20215 18.573 4.16548 18.5982 4.12459 18.6123L2.74959 19.0859L3.04061 17.6719C3.04908 17.6305 3.06871 17.5917 3.09725 17.5586V17.5576L3.95467 16.5723C4.02944 16.5137 4.0924 16.4414 4.14022 16.3594L11.4439 7.96777C11.4945 7.92345 11.5388 7.87254 11.5758 7.81641L14.6744 4.25684C14.6747 4.25651 14.675 4.25619 14.6754 4.25586C14.8305 4.07755 15.0408 3.98438 15.2525 3.98731ZM8.71053 8.82422L3.13729 15.2266C3.01068 15.2045 2.88745 15.1614 2.77986 15.0723C2.47345 14.8185 2.4527 14.2413 2.74764 13.9023L6.2574 9.87012C6.51891 9.56942 6.86248 9.35136 7.24569 9.24219L8.71053 8.82422Z" fill="#D83CD5"/>
</svg>
