<svg width="40" height="40" viewBox="0 0 40 40" fill="none" xmlns="http://www.w3.org/2000/svg">
<circle cx="20" cy="20.0006" r="17.7936" transform="rotate(-5.6298 20 20.0006)" fill="#2F55DD" stroke="#E3E3E3"/>
<path d="M19.6371 9.53125C13.7531 9.53125 8.96582 14.3185 8.96582 20.2025C8.96582 21.9501 9.42613 23.5836 10.1726 25.04L9.01584 29.1814C8.74642 30.1436 9.69783 31.095 10.6603 30.8259L14.8048 29.6691C16.26 30.414 17.8911 30.8738 19.6371 30.8738C25.5211 30.8738 30.3084 26.0865 30.3084 20.2025C30.3084 14.3185 25.5211 9.53125 19.6371 9.53125ZM19.6371 11.1319C24.656 11.1319 28.7077 15.1837 28.7077 20.2025C28.7077 25.2214 24.656 29.2731 19.6371 29.2731C18.0356 29.2731 16.5374 28.8567 15.231 28.1289C15.0469 28.0262 14.8297 28.0004 14.6266 28.057L10.6853 29.1564L11.7858 25.2172C11.8426 25.0138 11.8168 24.7962 11.7139 24.6117C10.9846 23.3044 10.5665 21.8056 10.5665 20.2025C10.5665 15.1837 14.6182 11.1319 19.6371 11.1319ZM15.1018 17.5347C14.9958 17.5332 14.8905 17.5528 14.792 17.5924C14.6936 17.6319 14.604 17.6906 14.5285 17.7651C14.453 17.8396 14.393 17.9283 14.3521 18.0261C14.3111 18.124 14.2901 18.229 14.2901 18.3351C14.2901 18.4411 14.3111 18.5461 14.3521 18.644C14.393 18.7418 14.453 18.8306 14.5285 18.905C14.604 18.9795 14.6936 19.0382 14.792 19.0778C14.8905 19.1173 14.9958 19.1369 15.1018 19.1354H24.1724C24.2785 19.1369 24.3837 19.1173 24.4822 19.0778C24.5806 19.0382 24.6702 18.9795 24.7457 18.905C24.8212 18.8306 24.8812 18.7418 24.9221 18.644C24.9631 18.5461 24.9841 18.4411 24.9841 18.3351C24.9841 18.229 24.9631 18.124 24.9221 18.0261C24.8812 17.9283 24.8212 17.8396 24.7457 17.7651C24.6702 17.6906 24.5806 17.6319 24.4822 17.5924C24.3837 17.5528 24.2785 17.5332 24.1724 17.5347H15.1018ZM15.1018 21.2697C14.9958 21.2682 14.8905 21.2878 14.792 21.3273C14.6936 21.3668 14.604 21.4256 14.5285 21.5C14.453 21.5745 14.393 21.6632 14.3521 21.7611C14.3111 21.8589 14.2901 21.9639 14.2901 22.07C14.2901 22.1761 14.3111 22.2811 14.3521 22.3789C14.393 22.4768 14.453 22.5655 14.5285 22.64C14.604 22.7144 14.6936 22.7732 14.792 22.8127C14.8905 22.8523 14.9958 22.8719 15.1018 22.8704H22.0381C22.1442 22.8719 22.2495 22.8523 22.3479 22.8127C22.4463 22.7732 22.5359 22.7144 22.6114 22.64C22.687 22.5655 22.7469 22.4768 22.7879 22.3789C22.8288 22.2811 22.8499 22.1761 22.8499 22.07C22.8499 21.9639 22.8288 21.8589 22.7879 21.7611C22.7469 21.6632 22.687 21.5745 22.6114 21.5C22.5359 21.4256 22.4463 21.3668 22.3479 21.3273C22.2495 21.2878 22.1442 21.2682 22.0381 21.2697H15.1018Z" fill="white"/>
</svg>
