<svg width="40" height="40" viewBox="0 0 40 40" fill="none" xmlns="http://www.w3.org/2000/svg">
<circle cx="20" cy="20" r="19.5" fill="#2F55DD" stroke="#E3E3E3"/>
<path d="M17.1069 8.34068C16.7229 8.31274 16.3295 8.35199 15.9436 8.466L14.5628 8.87502C13.0914 9.31019 11.9417 10.4777 11.5527 11.9512C10.689 15.2282 11.677 19.107 14.2483 23.4732C16.816 27.8333 19.7418 30.6043 23.0462 31.5088C24.5343 31.9161 26.1391 31.527 27.2662 30.48L28.3167 29.5059C29.4921 28.4145 29.6674 26.5968 28.7177 25.3052L27.2002 23.2442C26.3867 22.1392 24.9527 21.6688 23.6341 22.065L21.2597 22.7759C21.1601 22.805 20.9215 22.6693 20.714 22.4899L20.7128 22.4888C20.3432 22.1673 19.831 21.5176 19.283 20.5884V20.5873C18.6954 19.5893 18.4448 18.9367 18.3442 18.5513C18.2435 18.1657 18.268 18.1188 18.2827 17.9885C18.2903 17.9234 18.3212 17.8632 18.3738 17.8153L18.375 17.8141L20.1455 16.1952C21.1598 15.2679 21.466 13.786 20.894 12.5391L19.8265 10.2103V10.2092C19.3239 9.11361 18.2585 8.42446 17.1069 8.34068ZM16.9804 10.0861C17.516 10.1261 18.0093 10.4474 18.2348 10.9395L19.3035 13.2682C19.5621 13.832 19.4324 14.4771 18.9651 14.9043L17.1946 16.5222C16.8317 16.8531 16.5996 17.3043 16.5441 17.7914V17.7925C16.5296 17.9206 16.4955 18.3969 16.6512 18.9933C16.8069 19.5898 17.1284 20.3787 17.7745 21.4759H17.7757C18.3786 22.4985 18.9484 23.2754 19.5656 23.8115H19.5667C19.7671 23.985 20.607 24.7901 21.7496 24.4564L21.7531 24.4553L24.1377 23.7409C24.7569 23.5549 25.419 23.777 25.7908 24.2821L27.3084 26.3431C27.7381 26.9286 27.6631 27.7245 27.1261 28.223L26.0756 29.1983C25.4038 29.8226 24.4062 30.0663 23.5076 29.8203C20.8363 29.0891 18.1929 26.7224 15.7568 22.5856C13.3173 18.4433 12.5543 15.0171 13.2446 12.3978C13.4728 11.5333 14.172 10.8157 15.0595 10.5532L16.4392 10.1442C16.619 10.0911 16.8019 10.0728 16.9804 10.0861Z" fill="white"/>
</svg>
