<svg width="24" height="24" viewBox="0 0 24 24" fill="none" xmlns="http://www.w3.org/2000/svg">
<g clip-path="url(#clip0_5259_4205)">
<path d="M11.9933 4.5C6.33348 4.5 1.34656 8.42296 0.0235623 13.5635C-0.0259068 13.7562 0.00319858 13.9606 0.104476 14.1319C0.205752 14.3031 0.370905 14.4271 0.563601 14.4766C0.756298 14.526 0.960753 14.4969 1.13199 14.3956C1.30323 14.2944 1.42722 14.1292 1.47669 13.9365C2.61669 9.50704 7.0331 6 11.9933 6C16.9535 6 21.3839 9.50828 22.5236 13.9365C22.573 14.1292 22.697 14.2944 22.8683 14.3956C23.0395 14.4969 23.244 14.526 23.4366 14.4766C23.6293 14.4271 23.7945 14.3031 23.8958 14.1319C23.997 13.9606 24.0262 13.7562 23.9767 13.5635C22.6534 8.42173 17.6531 4.5 11.9933 4.5ZM12.0011 8.5C9.34107 8.5 7.16907 10.672 7.16907 13.332C7.16907 15.9921 9.34107 18.165 12.0011 18.165C14.6611 18.165 16.8341 15.9921 16.8341 13.332C16.8341 10.672 14.6611 8.5 12.0011 8.5ZM12.0011 10C13.8505 10 15.3341 11.4827 15.3341 13.332C15.3341 15.1814 13.8505 16.665 12.0011 16.665C10.1517 16.665 8.66907 15.1814 8.66907 13.332C8.66907 11.4827 10.1517 10 12.0011 10Z" fill="#4842AA"/>
</g>
<defs>
<clipPath id="clip0_5259_4205">
<rect width="24" height="24" fill="white"/>
</clipPath>
</defs>
</svg>
