<svg width="40" height="40" viewBox="0 0 40 40" fill="none" xmlns="http://www.w3.org/2000/svg">
<circle cx="20" cy="20.0006" r="17.7936" transform="rotate(-5.6298 20 20.0006)" stroke="#E3E3E3"/>
<path d="M9.59766 30.1051L11.0351 24.8575C10.1483 23.3219 9.68196 21.5793 9.68249 19.7945C9.68516 14.2107 14.229 9.66797 19.8133 9.66797C22.5232 9.66904 25.0662 10.7239 26.979 12.6378C28.8913 14.5522 29.9446 17.0962 29.9435 19.8025C29.9414 25.3862 25.3965 29.9295 19.8133 29.9295H19.809C18.1139 29.929 16.4476 29.5037 14.968 28.6965L9.59766 30.1051Z" fill="white"/>
<path d="M9.5976 30.373C9.52717 30.373 9.45888 30.3453 9.40819 30.294C9.34149 30.2263 9.31535 30.1276 9.34043 30.0363L10.7485 24.8949C9.87559 23.3444 9.41512 21.5836 9.41619 19.7962C9.41833 14.0646 14.0822 9.40234 19.8132 9.40234C22.5931 9.40341 25.2049 10.486 27.1679 12.4506C29.1308 14.4157 30.2113 17.027 30.2103 19.8036C30.2081 25.5347 25.5437 30.1975 19.8132 30.1975C18.1117 30.1969 16.4283 29.777 14.9343 28.9825L9.66537 30.3639C9.64296 30.3703 9.62055 30.373 9.5976 30.373Z" fill="white"/>
<path d="M19.8129 9.66638C22.5228 9.66744 25.0658 10.7223 26.9786 12.6362C28.8909 14.5506 29.9442 17.0947 29.9431 19.8009C29.941 25.3846 25.3961 29.9279 19.8129 29.9279H19.8086C18.1135 29.9274 16.4472 29.5022 14.9676 28.6949L9.59726 30.1035L11.0347 24.8559C10.1479 23.3203 9.68156 21.5777 9.6821 19.7929C9.68476 14.2091 14.2286 9.66638 19.8129 9.66638ZM19.8129 9.13281C13.9351 9.13281 9.1512 13.9146 9.14853 19.7929C9.148 21.5894 9.60153 23.3598 10.4616 24.9268L9.08237 29.9632C9.03222 30.1472 9.08344 30.3436 9.2179 30.4791C9.31927 30.5816 9.4564 30.6376 9.59726 30.6376C9.64261 30.6376 9.68797 30.6317 9.73279 30.62L14.9014 29.2647C16.4103 30.048 18.1017 30.4615 19.8086 30.462C25.6906 30.462 30.4746 25.6797 30.4772 19.8014C30.4783 16.9527 29.3701 14.2742 27.3569 12.2595C25.3427 10.2442 22.6637 9.13388 19.8129 9.13281Z" fill="#CFD8DC"/>
<path fill-rule="evenodd" clip-rule="evenodd" d="M17.2811 15.5606C17.0917 15.1391 16.8921 15.1305 16.7113 15.1231C16.5635 15.1167 16.3949 15.1172 16.2262 15.1172C16.0576 15.1172 15.7834 15.1807 15.5513 15.4341C15.3192 15.6876 14.665 16.2996 14.665 17.5449C14.665 18.7903 15.5721 19.994 15.6986 20.1626C15.825 20.3312 17.4497 22.9686 20.0226 23.9834C22.1605 24.8265 22.5959 24.6589 23.0601 24.6168C23.5243 24.5746 24.5578 24.0048 24.7686 23.4136C24.9794 22.8224 24.9794 22.316 24.9164 22.2104C24.8529 22.1048 24.6843 22.0418 24.4314 21.9148C24.1785 21.7878 22.9337 21.1758 22.7016 21.0915C22.4695 21.0072 22.3009 20.9651 22.1317 21.2185C21.9631 21.4714 21.4781 22.0418 21.3303 22.2104C21.1825 22.3795 21.0347 22.4009 20.7818 22.2739C20.5289 22.1469 19.7136 21.8801 18.7463 21.0179C17.9939 20.3472 17.486 19.5186 17.3382 19.2651C17.1904 19.0122 17.3222 18.8751 17.4492 18.7486C17.5628 18.635 17.7021 18.453 17.8291 18.3052C17.9555 18.1574 17.9977 18.0518 18.082 17.8832C18.1663 17.7141 18.1241 17.5663 18.0606 17.4398C17.9982 17.3128 17.5063 16.0611 17.2811 15.5606Z" fill="#2F55DD"/>
</svg>
