<svg width="17" height="21" viewBox="0 0 17 21" fill="none" xmlns="http://www.w3.org/2000/svg">
<path d="M6.37451 0.125C5.22621 0.125 4.27736 1.00831 4.1499 2.125H2.37451C1.14076 2.125 0.124512 3.14125 0.124512 4.375V17.875C0.124512 19.1088 1.14076 20.125 2.37451 20.125H13.8745C15.1083 20.125 16.1245 19.1088 16.1245 17.875V4.375C16.1245 3.14125 15.1083 2.125 13.8745 2.125H12.0991C11.9717 1.00831 11.0228 0.125 9.87451 0.125H6.37451ZM6.37451 1.625H9.87451C10.2978 1.625 10.6245 1.95175 10.6245 2.375C10.6245 2.79825 10.2978 3.125 9.87451 3.125H6.37451C5.95126 3.125 5.62451 2.79825 5.62451 2.375C5.62451 1.95175 5.95126 1.625 6.37451 1.625ZM2.37451 3.625H4.50928C4.91513 4.22595 5.60187 4.625 6.37451 4.625H9.87451C10.6472 4.625 11.3339 4.22595 11.7397 3.625H13.8745C14.2978 3.625 14.6245 3.95175 14.6245 4.375V17.875C14.6245 18.2983 14.2978 18.625 13.8745 18.625H2.37451C1.95126 18.625 1.62451 18.2983 1.62451 17.875V4.375C1.62451 3.95175 1.95126 3.625 2.37451 3.625ZM12.3677 7.11426C12.1696 7.11894 11.9814 7.20179 11.8442 7.34473L11.1245 8.06445L10.4048 7.34473C10.3349 7.27273 10.2512 7.2155 10.1588 7.17642C10.0664 7.13733 9.96705 7.11719 9.8667 7.11719C9.71744 7.11722 9.57158 7.16179 9.44779 7.24519C9.324 7.32858 9.22791 7.44702 9.17181 7.58533C9.11571 7.72365 9.10215 7.87556 9.13286 8.02162C9.16358 8.16769 9.23718 8.30127 9.34424 8.40527L10.064 9.125L9.34424 9.84473C9.27226 9.91384 9.21479 9.99661 9.17521 10.0882C9.13562 10.1798 9.11471 10.2784 9.11369 10.3782C9.11268 10.4779 9.13158 10.5769 9.1693 10.6693C9.20702 10.7617 9.26279 10.8456 9.33335 10.9162C9.4039 10.9867 9.48783 11.0425 9.58021 11.0802C9.6726 11.1179 9.77157 11.1368 9.87135 11.1358C9.97113 11.1348 10.0697 11.1139 10.1613 11.0743C10.2529 11.0347 10.3357 10.9773 10.4048 10.9053L11.1245 10.1855L11.8442 10.9053C11.9133 10.9773 11.9961 11.0347 12.0877 11.0743C12.1793 11.1139 12.2779 11.1348 12.3777 11.1358C12.4774 11.1368 12.5764 11.1179 12.6688 11.0802C12.7612 11.0425 12.8451 10.9867 12.9157 10.9162C12.9862 10.8456 13.042 10.7617 13.0797 10.6693C13.1174 10.5769 13.1363 10.4779 13.1353 10.3782C13.1343 10.2784 13.1134 10.1798 13.0738 10.0882C13.0342 9.99661 12.9768 9.91384 12.9048 9.84473L12.1851 9.125L12.9048 8.40527C13.0138 8.30059 13.0887 8.1654 13.1196 8.01742C13.1505 7.86944 13.136 7.71558 13.0779 7.576C13.0199 7.43643 12.921 7.31766 12.7942 7.23526C12.6675 7.15287 12.5188 7.11069 12.3677 7.11426ZM3.87451 8.625C3.77513 8.62359 3.67646 8.64196 3.58423 8.67902C3.492 8.71608 3.40806 8.7711 3.33729 8.84088C3.26651 8.91066 3.21031 8.99382 3.17195 9.08551C3.13358 9.1772 3.11383 9.27561 3.11383 9.375C3.11383 9.47439 3.13358 9.5728 3.17195 9.66449C3.21031 9.75618 3.26651 9.83934 3.33729 9.90912C3.40806 9.9789 3.492 10.0339 3.58423 10.071C3.67646 10.108 3.77513 10.1264 3.87451 10.125H6.87451C6.9739 10.1264 7.07257 10.108 7.16479 10.071C7.25702 10.0339 7.34096 9.9789 7.41174 9.90912C7.48252 9.83934 7.53872 9.75618 7.57708 9.66449C7.61544 9.5728 7.63519 9.47439 7.63519 9.375C7.63519 9.27561 7.61544 9.1772 7.57708 9.08551C7.53872 8.99382 7.48252 8.91066 7.41174 8.84088C7.34096 8.7711 7.25702 8.71608 7.16479 8.67902C7.07257 8.64196 6.9739 8.62359 6.87451 8.625H3.87451ZM12.3677 12.1143C12.1696 12.1189 11.9814 12.2018 11.8442 12.3447L11.1245 13.0645L10.4048 12.3447C10.3349 12.2727 10.2512 12.2155 10.1588 12.1764C10.0664 12.1373 9.96705 12.1172 9.8667 12.1172C9.71744 12.1172 9.57158 12.1618 9.44779 12.2452C9.324 12.3286 9.22791 12.447 9.17181 12.5853C9.11571 12.7236 9.10215 12.8756 9.13286 13.0216C9.16358 13.1677 9.23718 13.3013 9.34424 13.4053L10.064 14.125L9.34424 14.8447C9.27226 14.9138 9.21479 14.9966 9.17521 15.0882C9.13562 15.1798 9.11471 15.2784 9.11369 15.3782C9.11268 15.4779 9.13158 15.5769 9.1693 15.6693C9.20702 15.7617 9.26279 15.8456 9.33335 15.9162C9.4039 15.9867 9.48783 16.0425 9.58021 16.0802C9.6726 16.1179 9.77157 16.1368 9.87135 16.1358C9.97113 16.1348 10.0697 16.1139 10.1613 16.0743C10.2529 16.0347 10.3357 15.9773 10.4048 15.9053L11.1245 15.1855L11.8442 15.9053C11.9133 15.9773 11.9961 16.0347 12.0877 16.0743C12.1793 16.1139 12.2779 16.1348 12.3777 16.1358C12.4774 16.1368 12.5764 16.1179 12.6688 16.0802C12.7612 16.0425 12.8451 15.9867 12.9157 15.9162C12.9862 15.8456 13.042 15.7617 13.0797 15.6693C13.1174 15.5769 13.1363 15.4779 13.1353 15.3782C13.1343 15.2784 13.1134 15.1798 13.0738 15.0882C13.0342 14.9966 12.9768 14.9138 12.9048 14.8447L12.1851 14.125L12.9048 13.4053C13.0138 13.3006 13.0887 13.1654 13.1196 13.0174C13.1505 12.8694 13.136 12.7156 13.0779 12.576C13.0199 12.4364 12.921 12.3177 12.7942 12.2353C12.6675 12.1529 12.5188 12.1107 12.3677 12.1143ZM3.87451 13.125C3.77513 13.1236 3.67646 13.142 3.58423 13.179C3.492 13.2161 3.40806 13.2711 3.33729 13.3409C3.26651 13.4107 3.21031 13.4938 3.17195 13.5855C3.13358 13.6772 3.11383 13.7756 3.11383 13.875C3.11383 13.9744 3.13358 14.0728 3.17195 14.1645C3.21031 14.2562 3.26651 14.3393 3.33729 14.4091C3.40806 14.4789 3.492 14.5339 3.58423 14.571C3.67646 14.608 3.77513 14.6264 3.87451 14.625H6.87451C6.9739 14.6264 7.07257 14.608 7.16479 14.571C7.25702 14.5339 7.34096 14.4789 7.41174 14.4091C7.48252 14.3393 7.53872 14.2562 7.57708 14.1645C7.61544 14.0728 7.63519 13.9744 7.63519 13.875C7.63519 13.7756 7.61544 13.6772 7.57708 13.5855C7.53872 13.4938 7.48252 13.4107 7.41174 13.3409C7.34096 13.2711 7.25702 13.2161 7.16479 13.179C7.07257 13.142 6.9739 13.1236 6.87451 13.125H3.87451Z" fill="#FC9338"/>
</svg>
