<svg width="22" height="28" viewBox="0 0 22 28" fill="none" xmlns="http://www.w3.org/2000/svg">
<path d="M8.66622 0.666992C7.13516 0.666992 5.87002 1.84474 5.70007 3.33366H3.33289C1.68789 3.33366 0.332886 4.68866 0.332886 6.33366V24.3337C0.332886 25.9787 1.68789 27.3337 3.33289 27.3337H18.6662C20.3112 27.3337 21.6662 25.9787 21.6662 24.3337V6.33366C21.6662 4.68866 20.3112 3.33366 18.6662 3.33366H16.299C16.1291 1.84474 14.8639 0.666992 13.3329 0.666992H8.66622ZM8.66622 2.66699H13.3329C13.8972 2.66699 14.3329 3.10266 14.3329 3.66699C14.3329 4.23132 13.8972 4.66699 13.3329 4.66699H8.66622C8.10189 4.66699 7.66622 4.23132 7.66622 3.66699C7.66622 3.10266 8.10189 2.66699 8.66622 2.66699ZM3.33289 5.33366H6.17924C6.72038 6.13493 7.63603 6.66699 8.66622 6.66699H13.3329C14.3631 6.66699 15.2787 6.13493 15.8199 5.33366H18.6662C19.2306 5.33366 19.6662 5.76933 19.6662 6.33366V24.3337C19.6662 24.898 19.2306 25.3337 18.6662 25.3337H3.33289C2.76855 25.3337 2.33289 24.898 2.33289 24.3337V6.33366C2.33289 5.76933 2.76855 5.33366 3.33289 5.33366ZM16.6571 9.986C16.393 9.99224 16.1421 10.1027 15.9592 10.2933L14.9996 11.2529L14.0399 10.2933C13.9467 10.1973 13.8352 10.121 13.7119 10.0689C13.5887 10.0168 13.4563 9.98991 13.3225 9.98991C13.1235 9.98996 12.929 10.0494 12.7639 10.1606C12.5989 10.2718 12.4708 10.4297 12.3959 10.6141C12.3211 10.7985 12.3031 11.0011 12.344 11.1958C12.385 11.3906 12.4831 11.5687 12.6259 11.7074L13.5855 12.667L12.6259 13.6266C12.5299 13.7188 12.4533 13.8291 12.4005 13.9513C12.3477 14.0734 12.3198 14.2048 12.3185 14.3379C12.3171 14.4709 12.3423 14.6029 12.3926 14.7261C12.4429 14.8492 12.5173 14.9611 12.6113 15.0552C12.7054 15.1493 12.8173 15.2237 12.9405 15.2739C13.0637 15.3242 13.1956 15.3494 13.3287 15.3481C13.4617 15.3467 13.5931 15.3188 13.7153 15.2661C13.8374 15.2133 13.9478 15.1367 14.0399 15.0407L14.9996 14.0811L15.9592 15.0407C16.0513 15.1367 16.1617 15.2133 16.2838 15.2661C16.406 15.3188 16.5374 15.3467 16.6704 15.3481C16.8035 15.3494 16.9354 15.3242 17.0586 15.2739C17.1818 15.2237 17.2937 15.1493 17.3878 15.0552C17.4819 14.9611 17.5562 14.8492 17.6065 14.7261C17.6568 14.6029 17.682 14.4709 17.6806 14.3379C17.6793 14.2048 17.6514 14.0734 17.5986 13.9513C17.5458 13.8291 17.4692 13.7188 17.3733 13.6266L16.4136 12.667L17.3733 11.7074C17.5187 11.5678 17.6185 11.3875 17.6597 11.1902C17.7009 10.9929 17.6815 10.7878 17.6041 10.6017C17.5267 10.4156 17.3948 10.2572 17.2258 10.1473C17.0569 10.0375 16.8586 9.98124 16.6571 9.986ZM5.33289 12.0003C5.20037 11.9985 5.06881 12.0229 4.94584 12.0723C4.82287 12.1218 4.71095 12.1951 4.61658 12.2882C4.52221 12.3812 4.44728 12.4921 4.39613 12.6143C4.34498 12.7366 4.31864 12.8678 4.31864 13.0003C4.31864 13.1328 4.34498 13.2641 4.39613 13.3863C4.44728 13.5086 4.52221 13.6194 4.61658 13.7125C4.71095 13.8055 4.82287 13.8789 4.94584 13.9283C5.06881 13.9777 5.20037 14.0022 5.33289 14.0003H9.33289C9.4654 14.0022 9.59696 13.9777 9.71993 13.9283C9.8429 13.8789 9.95482 13.8055 10.0492 13.7125C10.1436 13.6194 10.2185 13.5086 10.2696 13.3863C10.3208 13.2641 10.3471 13.1328 10.3471 13.0003C10.3471 12.8678 10.3208 12.7366 10.2696 12.6143C10.2185 12.4921 10.1436 12.3812 10.0492 12.2882C9.95482 12.1951 9.8429 12.1218 9.71993 12.0723C9.59696 12.0229 9.4654 11.9985 9.33289 12.0003H5.33289ZM16.6571 16.6527C16.393 16.6589 16.1421 16.7694 15.9592 16.96L14.9996 17.9196L14.0399 16.96C13.9467 16.864 13.8352 16.7877 13.7119 16.7355C13.5887 16.6834 13.4563 16.6566 13.3225 16.6566C13.1235 16.6566 12.929 16.716 12.7639 16.8272C12.5989 16.9384 12.4708 17.0963 12.3959 17.2808C12.3211 17.4652 12.3031 17.6677 12.344 17.8625C12.385 18.0572 12.4831 18.2354 12.6259 18.374L13.5855 19.3337L12.6259 20.2933C12.5299 20.3854 12.4533 20.4958 12.4005 20.6179C12.3477 20.7401 12.3198 20.8715 12.3185 21.0045C12.3171 21.1376 12.3423 21.2695 12.3926 21.3927C12.4429 21.5159 12.5173 21.6278 12.6113 21.7219C12.7054 21.816 12.8173 21.8903 12.9405 21.9406C13.0637 21.9909 13.1956 22.0161 13.3287 22.0147C13.4617 22.0134 13.5931 21.9855 13.7153 21.9327C13.8374 21.8799 13.9478 21.8033 14.0399 21.7074L14.9996 20.7477L15.9592 21.7074C16.0513 21.8033 16.1617 21.8799 16.2838 21.9327C16.406 21.9855 16.5374 22.0134 16.6704 22.0147C16.8035 22.0161 16.9354 21.9909 17.0586 21.9406C17.1818 21.8903 17.2937 21.816 17.3878 21.7219C17.4819 21.6278 17.5562 21.5159 17.6065 21.3927C17.6568 21.2695 17.682 21.1376 17.6806 21.0045C17.6793 20.8715 17.6514 20.7401 17.5986 20.6179C17.5458 20.4958 17.4692 20.3854 17.3733 20.2933L16.4136 19.3337L17.3733 18.374C17.5187 18.2344 17.6185 18.0542 17.6597 17.8569C17.7009 17.6596 17.6815 17.4544 17.6041 17.2683C17.5267 17.0822 17.3948 16.9239 17.2258 16.814C17.0569 16.7041 16.8586 16.6479 16.6571 16.6527ZM5.33289 18.0003C5.20037 17.9985 5.06881 18.0229 4.94584 18.0723C4.82287 18.1218 4.71095 18.1951 4.61658 18.2882C4.52221 18.3812 4.44728 18.4921 4.39613 18.6143C4.34498 18.7366 4.31864 18.8678 4.31864 19.0003C4.31864 19.1328 4.34498 19.2641 4.39613 19.3863C4.44728 19.5086 4.52221 19.6194 4.61658 19.7125C4.71095 19.8055 4.82287 19.8789 4.94584 19.9283C5.06881 19.9777 5.20037 20.0022 5.33289 20.0003H9.33289C9.4654 20.0022 9.59696 19.9777 9.71993 19.9283C9.8429 19.8789 9.95482 19.8055 10.0492 19.7125C10.1436 19.6194 10.2185 19.5086 10.2696 19.3863C10.3208 19.2641 10.3471 19.1328 10.3471 19.0003C10.3471 18.8678 10.3208 18.7366 10.2696 18.6143C10.2185 18.4921 10.1436 18.3812 10.0492 18.2882C9.95482 18.1951 9.8429 18.1218 9.71993 18.0723C9.59696 18.0229 9.4654 17.9985 9.33289 18.0003H5.33289Z" fill="white"/>
</svg>
