<svg width="22" height="22" viewBox="0 0 22 22" fill="none" xmlns="http://www.w3.org/2000/svg">
<path d="M9.75 0.5C4.63826 0.5 0.5 4.77376 0.5 10C0.5 12.7504 1.64573 15.2329 3.47461 16.9678V16.9688C4.1204 17.5809 4.5 18.3853 4.5 19.2344V20.75C4.49859 20.8494 4.51696 20.9481 4.55402 21.0403C4.59108 21.1325 4.6461 21.2164 4.71588 21.2872C4.78566 21.358 4.86882 21.4142 4.96051 21.4526C5.0522 21.4909 5.15061 21.5107 5.25 21.5107C5.34939 21.5107 5.4478 21.4909 5.53949 21.4526C5.63118 21.4142 5.71434 21.358 5.78412 21.2872C5.8539 21.2164 5.90892 21.1325 5.94598 21.0403C5.98304 20.9481 6.00141 20.8494 6 20.75V19.2344C6 17.9375 5.41904 16.7447 4.50684 15.8799C2.96871 14.4208 2 12.3346 2 10C2 5.56124 5.47274 2 9.75 2C13.7798 2 17.0742 5.16799 17.4453 9.24609C17.4586 9.39246 17.5147 9.53169 17.6064 9.64648L20.001 12.6396C20.0163 12.6589 20.0236 12.6353 20 12.6436L18.002 13.3418C17.8552 13.3932 17.7281 13.489 17.6382 13.6158C17.5483 13.7427 17.5 13.8943 17.5 14.0498V17.1699C17.5 17.4955 17.2959 17.7781 16.9873 17.8809L14.1973 18.8105C13.4853 19.0476 13 19.7202 13 20.4707V20.75C12.9986 20.8494 13.017 20.9481 13.054 21.0403C13.0911 21.1325 13.1461 21.2164 13.2159 21.2872C13.2857 21.358 13.3688 21.4142 13.4605 21.4526C13.5522 21.4909 13.6506 21.5107 13.75 21.5107C13.8494 21.5107 13.9478 21.4909 14.0395 21.4526C14.1312 21.4142 14.2143 21.358 14.2841 21.2872C14.3539 21.2164 14.4089 21.1325 14.446 21.0403C14.483 20.9481 14.5014 20.8494 14.5 20.75V20.4707C14.5 20.3602 14.5659 20.2693 14.6709 20.2344L17.4619 19.3037C18.3783 18.9985 19 18.1353 19 17.1699V14.582L20.4961 14.0586C21.4516 13.7238 21.8055 12.4929 21.1729 11.7021L18.8916 8.85059C18.3356 4.1666 14.478 0.5 9.75 0.5ZM10 4.50488C7.80146 4.50548 6 6.29996 6 8.5C6 9.64271 6.53567 10.6317 7.30762 11.3604L7.85352 14.0938C8.01623 14.9073 8.73974 15.501 9.56934 15.501H10.4297C11.2593 15.501 11.9828 14.9073 12.1455 14.0938L12.6924 11.3604C13.4648 10.6317 14 9.64271 14 8.5C14 6.29996 12.1985 4.5055 10 4.50488ZM10 6.00488C11.3905 6.00527 12.5 7.11104 12.5 8.5C12.5 9.30891 12.1202 10.0167 11.5273 10.4756C11.3845 10.5862 11.2863 10.7447 11.251 10.9219L11.1348 11.5H8.86426L8.74902 10.9219C8.71366 10.7447 8.61553 10.5862 8.47266 10.4756C7.8802 10.0167 7.5 9.30891 7.5 8.5C7.5 7.11104 8.60954 6.00527 10 6.00488ZM9.16406 13H10.835L10.6748 13.7998C10.6505 13.9212 10.5531 14.001 10.4297 14.001H9.56934C9.44593 14.001 9.3485 13.9212 9.32422 13.7998L9.16406 13Z" fill="white"/>
</svg>
