<svg width="24" height="24" viewBox="0 0 24 24" fill="none" xmlns="http://www.w3.org/2000/svg">
<path d="M10.75 1.5C5.63826 1.5 1.5 5.77376 1.5 11C1.5 13.7504 2.64573 16.2329 4.47461 17.9678V17.9688C5.1204 18.5809 5.5 19.3853 5.5 20.2344V21.75C5.49859 21.8494 5.51696 21.9481 5.55402 22.0403C5.59108 22.1325 5.6461 22.2164 5.71588 22.2872C5.78566 22.358 5.86882 22.4142 5.96051 22.4526C6.0522 22.4909 6.15061 22.5107 6.25 22.5107C6.34939 22.5107 6.4478 22.4909 6.53949 22.4526C6.63118 22.4142 6.71434 22.358 6.78412 22.2872C6.8539 22.2164 6.90892 22.1325 6.94598 22.0403C6.98304 21.9481 7.00141 21.8494 7 21.75V20.2344C7 18.9375 6.41904 17.7447 5.50684 16.8799C3.96871 15.4208 3 13.3346 3 11C3 6.56124 6.47274 3 10.75 3C14.7798 3 18.0742 6.16799 18.4453 10.2461C18.4586 10.3925 18.5147 10.5317 18.6064 10.6465L21.001 13.6396C21.0163 13.6589 21.0236 13.6353 21 13.6436L19.002 14.3418C18.8552 14.3932 18.7281 14.489 18.6382 14.6158C18.5483 14.7427 18.5 14.8943 18.5 15.0498V18.1699C18.5 18.4955 18.2959 18.7781 17.9873 18.8809L15.1973 19.8105C14.4853 20.0476 14 20.7202 14 21.4707V21.75C13.9986 21.8494 14.017 21.9481 14.054 22.0403C14.0911 22.1325 14.1461 22.2164 14.2159 22.2872C14.2857 22.358 14.3688 22.4142 14.4605 22.4526C14.5522 22.4909 14.6506 22.5107 14.75 22.5107C14.8494 22.5107 14.9478 22.4909 15.0395 22.4526C15.1312 22.4142 15.2143 22.358 15.2841 22.2872C15.3539 22.2164 15.4089 22.1325 15.446 22.0403C15.483 21.9481 15.5014 21.8494 15.5 21.75V21.4707C15.5 21.3602 15.5659 21.2693 15.6709 21.2344L18.4619 20.3037C19.3783 19.9985 20 19.1353 20 18.1699V15.582L21.4961 15.0586C22.4516 14.7238 22.8055 13.4929 22.1729 12.7021L19.8916 9.85059C19.3356 5.1666 15.478 1.5 10.75 1.5ZM11 5.50488C8.80146 5.50548 7 7.29996 7 9.5C7 10.6427 7.53567 11.6317 8.30762 12.3604L8.85352 15.0938C9.01623 15.9073 9.73974 16.501 10.5693 16.501H11.4297C12.2593 16.501 12.9828 15.9073 13.1455 15.0938L13.6924 12.3604C14.4648 11.6317 15 10.6427 15 9.5C15 7.29996 13.1985 5.5055 11 5.50488ZM11 7.00488C12.3905 7.00527 13.5 8.11104 13.5 9.5C13.5 10.3089 13.1202 11.0167 12.5273 11.4756C12.3845 11.5862 12.2863 11.7447 12.251 11.9219L12.1348 12.5H9.86426L9.74902 11.9219C9.71366 11.7447 9.61553 11.5862 9.47266 11.4756C8.8802 11.0167 8.5 10.3089 8.5 9.5C8.5 8.11104 9.60954 7.00527 11 7.00488ZM10.1641 14H11.835L11.6748 14.7998C11.6505 14.9212 11.5531 15.001 11.4297 15.001H10.5693C10.4459 15.001 10.3485 14.9212 10.3242 14.7998L10.1641 14Z" fill="#4D3BFF"/>
</svg>
