<svg width="22" height="22" viewBox="0 0 22 22" fill="none" xmlns="http://www.w3.org/2000/svg">
<path d="M4.35425 2.75C3.22331 2.75 2.29175 3.68156 2.29175 4.8125V17.1875C2.29175 18.3184 3.22331 19.25 4.35425 19.25H7.10425C7.63498 19.25 8.112 19.0323 8.47925 18.6977C8.84649 19.0323 9.32351 19.25 9.85425 19.25H12.1459C12.6767 19.25 13.1537 19.0323 13.5209 18.6977C13.8882 19.0323 14.3652 19.25 14.8959 19.25H17.6459C18.7769 19.25 19.7084 18.3184 19.7084 17.1875V4.8125C19.7084 3.68156 18.7769 2.75 17.6459 2.75H14.8959C13.765 2.75 12.8334 3.68156 12.8334 4.8125V5.64054C12.6159 5.56168 12.3891 5.5 12.1459 5.5H9.85425C9.61106 5.5 9.38422 5.56168 9.16675 5.64054V4.8125C9.16675 3.68156 8.23519 2.75 7.10425 2.75H4.35425ZM4.35425 4.125H7.10425C7.49223 4.125 7.79175 4.42452 7.79175 4.8125V7.5625V17.1875C7.79175 17.5755 7.49223 17.875 7.10425 17.875H4.35425C3.96627 17.875 3.66675 17.5755 3.66675 17.1875V4.8125C3.66675 4.42452 3.96627 4.125 4.35425 4.125ZM14.8959 4.125H17.6459C18.0339 4.125 18.3334 4.42452 18.3334 4.8125V17.1875C18.3334 17.5755 18.0339 17.875 17.6459 17.875H14.8959C14.5079 17.875 14.2084 17.5755 14.2084 17.1875V7.5625V4.8125C14.2084 4.42452 14.5079 4.125 14.8959 4.125ZM5.71851 5.49015C5.53633 5.493 5.36272 5.56804 5.23583 5.69879C5.10894 5.82954 5.03913 6.00532 5.04175 6.1875V12.6042C5.04046 12.6953 5.05729 12.7857 5.09126 12.8703C5.12523 12.9548 5.17567 13.0317 5.23964 13.0966C5.30361 13.1615 5.37983 13.213 5.46388 13.2482C5.54793 13.2834 5.63814 13.3015 5.72925 13.3015C5.82036 13.3015 5.91056 13.2834 5.99461 13.2482C6.07866 13.213 6.15489 13.1615 6.21886 13.0966C6.28283 13.0317 6.33326 12.9548 6.36723 12.8703C6.40121 12.7857 6.41804 12.6953 6.41675 12.6042V6.1875C6.41807 6.09548 6.4009 6.00414 6.36627 5.91887C6.33163 5.83361 6.28024 5.75617 6.21512 5.69114C6.15001 5.62611 6.0725 5.57481 5.9872 5.54029C5.90189 5.50576 5.81052 5.48871 5.71851 5.49015ZM16.2602 5.49015C16.078 5.493 15.9044 5.56804 15.7775 5.69879C15.6506 5.82954 15.5808 6.00532 15.5834 6.1875V12.6042C15.5821 12.6953 15.599 12.7857 15.6329 12.8703C15.6669 12.9548 15.7173 13.0317 15.7813 13.0966C15.8453 13.1615 15.9215 13.213 16.0055 13.2482C16.0896 13.2834 16.1798 13.3015 16.2709 13.3015C16.362 13.3015 16.4522 13.2834 16.5363 13.2482C16.6203 13.213 16.6966 13.1615 16.7605 13.0966C16.8245 13.0317 16.8749 12.9548 16.9089 12.8703C16.9429 12.7857 16.9597 12.6953 16.9584 12.6042V6.1875C16.9597 6.09548 16.9426 6.00414 16.9079 5.91887C16.8733 5.83361 16.8219 5.75617 16.7568 5.69114C16.6917 5.62611 16.6142 5.57481 16.5289 5.54029C16.4436 5.50576 16.3522 5.48871 16.2602 5.49015ZM9.85425 6.875H12.1459C12.5339 6.875 12.8334 7.17452 12.8334 7.5625V17.1875C12.8334 17.5755 12.5339 17.875 12.1459 17.875H9.85425C9.46627 17.875 9.16675 17.5755 9.16675 17.1875V7.5625C9.16675 7.17452 9.46627 6.875 9.85425 6.875ZM10.7709 8.25C10.6798 8.24871 10.5894 8.26554 10.5048 8.29951C10.4203 8.33349 10.3433 8.38392 10.2785 8.44789C10.2136 8.51186 10.1621 8.58808 10.1269 8.67213C10.0917 8.75619 10.0736 8.84639 10.0736 8.9375C10.0736 9.02861 10.0917 9.11881 10.1269 9.20287C10.1621 9.28692 10.2136 9.36314 10.2785 9.42711C10.3433 9.49108 10.4203 9.54151 10.5048 9.57549C10.5894 9.60946 10.6798 9.62629 10.7709 9.625H11.2292C11.3203 9.62629 11.4108 9.60946 11.4953 9.57549C11.5799 9.54151 11.6568 9.49108 11.7217 9.42711C11.7866 9.36314 11.8381 9.28692 11.8733 9.20287C11.9084 9.11881 11.9265 9.02861 11.9265 8.9375C11.9265 8.84639 11.9084 8.75619 11.8733 8.67213C11.8381 8.58808 11.7866 8.51186 11.7217 8.44789C11.6568 8.38392 11.5799 8.33349 11.4953 8.29951C11.4108 8.26554 11.3203 8.24871 11.2292 8.25H10.7709ZM5.27091 15.125C5.17981 15.1237 5.08936 15.1405 5.00482 15.1745C4.92028 15.2085 4.84334 15.2589 4.77846 15.3229C4.71358 15.3869 4.66206 15.4631 4.6269 15.5471C4.59173 15.6312 4.57362 15.7214 4.57362 15.8125C4.57362 15.9036 4.59173 15.9938 4.6269 16.0779C4.66206 16.1619 4.71358 16.2381 4.77846 16.3021C4.84334 16.3661 4.92028 16.4165 5.00482 16.4505C5.08936 16.4845 5.17981 16.5013 5.27091 16.5H6.18758C6.27868 16.5013 6.36913 16.4845 6.45367 16.4505C6.53821 16.4165 6.61516 16.3661 6.68004 16.3021C6.74492 16.2381 6.79644 16.1619 6.8316 16.0779C6.86676 15.9938 6.88487 15.9036 6.88487 15.8125C6.88487 15.7214 6.86676 15.6312 6.8316 15.5471C6.79644 15.4631 6.74492 15.3869 6.68004 15.3229C6.61516 15.2589 6.53821 15.2085 6.45367 15.1745C6.36913 15.1405 6.27868 15.1237 6.18758 15.125H5.27091ZM10.7709 15.125C10.6798 15.1237 10.5894 15.1405 10.5048 15.1745C10.4203 15.2085 10.3433 15.2589 10.2785 15.3229C10.2136 15.3869 10.1621 15.4631 10.1269 15.5471C10.0917 15.6312 10.0736 15.7214 10.0736 15.8125C10.0736 15.9036 10.0917 15.9938 10.1269 16.0779C10.1621 16.1619 10.2136 16.2381 10.2785 16.3021C10.3433 16.3661 10.4203 16.4165 10.5048 16.4505C10.5894 16.4845 10.6798 16.5013 10.7709 16.5H11.2292C11.3203 16.5013 11.4108 16.4845 11.4953 16.4505C11.5799 16.4165 11.6568 16.3661 11.7217 16.3021C11.7866 16.2381 11.8381 16.1619 11.8733 16.0779C11.9084 15.9938 11.9265 15.9036 11.9265 15.8125C11.9265 15.7214 11.9084 15.6312 11.8733 15.5471C11.8381 15.4631 11.7866 15.3869 11.7217 15.3229C11.6568 15.2589 11.5799 15.2085 11.4953 15.1745C11.4108 15.1405 11.3203 15.1237 11.2292 15.125H10.7709ZM15.8126 15.125C15.7215 15.1237 15.631 15.1405 15.5465 15.1745C15.4619 15.2085 15.385 15.2589 15.3201 15.3229C15.2552 15.3869 15.2037 15.4631 15.1686 15.5471C15.1334 15.6312 15.1153 15.7214 15.1153 15.8125C15.1153 15.9036 15.1334 15.9938 15.1686 16.0779C15.2037 16.1619 15.2552 16.2381 15.3201 16.3021C15.385 16.3661 15.4619 16.4165 15.5465 16.4505C15.631 16.4845 15.7215 16.5013 15.8126 16.5H16.7292C16.8203 16.5013 16.9108 16.4845 16.9953 16.4505C17.0799 16.4165 17.1568 16.3661 17.2217 16.3021C17.2866 16.2381 17.3381 16.1619 17.3733 16.0779C17.4084 15.9938 17.4265 15.9036 17.4265 15.8125C17.4265 15.7214 17.4084 15.6312 17.3733 15.5471C17.3381 15.4631 17.2866 15.3869 17.2217 15.3229C17.1568 15.2589 17.0799 15.2085 16.9953 15.1745C16.9108 15.1405 16.8203 15.1237 16.7292 15.125H15.8126Z" fill="#12077B"/>
</svg>
