<svg width="25" height="24" viewBox="0 0 25 24" fill="none" xmlns="http://www.w3.org/2000/svg">
<path d="M22.2355 4.49348C22.0407 4.49915 21.8558 4.58041 21.7198 4.72004L8.75012 17.6898L3.28039 12.22C3.21128 12.1481 3.1285 12.0906 3.03691 12.051C2.94531 12.0114 2.84674 11.9905 2.74696 11.9895C2.64718 11.9885 2.5482 12.0074 2.45582 12.0451C2.36344 12.0828 2.27951 12.1386 2.20895 12.2091C2.13839 12.2797 2.08262 12.3636 2.0449 12.456C2.00719 12.5484 1.98828 12.6474 1.9893 12.7472C1.99031 12.8469 2.01122 12.9455 2.05081 13.0371C2.0904 13.1287 2.14786 13.2115 2.21984 13.2806L8.21984 19.2806C8.3605 19.4212 8.55124 19.5002 8.75012 19.5002C8.949 19.5002 9.13973 19.4212 9.28039 19.2806L22.7804 5.78058C22.8886 5.67521 22.9625 5.53962 22.9923 5.39157C23.0222 5.24351 23.0067 5.08989 22.9478 4.95081C22.8889 4.81173 22.7894 4.69366 22.6623 4.61206C22.5352 4.53046 22.3864 4.48913 22.2355 4.49348Z" fill="#5B5B5B"/>
</svg>
