<svg width="26" height="24" viewBox="0 0 26 24" fill="none" xmlns="http://www.w3.org/2000/svg">
<path d="M4.10914 0C1.85105 0 0 1.85105 0 4.10914V14.8561C0 17.1142 1.85105 18.9653 4.10914 18.9653H5.05741V22.4422C5.05741 23.6851 6.59189 24.4519 7.58611 23.7066L13.9079 18.9653H21.1779C23.436 18.9653 25.287 17.1142 25.287 14.8561V4.10914C25.287 1.85105 23.436 0 21.1779 0H4.10914ZM4.10914 1.89653H21.1779C22.4107 1.89653 23.3905 2.87636 23.3905 4.10914V14.8561C23.3905 16.0889 22.4107 17.0688 21.1779 17.0688H13.5918C13.3865 17.0688 13.1867 17.1356 13.0226 17.2589L6.95394 21.8101V18.017C6.95391 17.7655 6.854 17.5243 6.67617 17.3465C6.49834 17.1687 6.25716 17.0688 6.00567 17.0688H4.10914C2.87636 17.0688 1.89653 16.0889 1.89653 14.8561V4.10914C1.89653 2.87636 2.87636 1.89653 4.10914 1.89653ZM7.27002 6.32053C7.14437 6.31875 7.01961 6.34196 6.90301 6.38882C6.7864 6.43568 6.68027 6.50524 6.59078 6.59347C6.50129 6.68171 6.43023 6.78684 6.38173 6.90277C6.33323 7.0187 6.30826 7.14312 6.30826 7.26879C6.30826 7.39446 6.33323 7.51887 6.38173 7.63481C6.43023 7.75074 6.50129 7.85588 6.59078 7.94411C6.68027 8.03234 6.7864 8.1019 6.90301 8.14876C7.01961 8.19562 7.14437 8.21883 7.27002 8.21705H18.017C18.1427 8.21883 18.2674 8.19562 18.384 8.14876C18.5006 8.1019 18.6068 8.03234 18.6963 7.94411C18.7857 7.85588 18.8568 7.75074 18.9053 7.63481C18.9538 7.51887 18.9788 7.39446 18.9788 7.26879C18.9788 7.14312 18.9538 7.0187 18.9053 6.90277C18.8568 6.78684 18.7857 6.68171 18.6963 6.59347C18.6068 6.50524 18.5006 6.43568 18.384 6.38882C18.2674 6.34196 18.1427 6.31875 18.017 6.32053H7.27002ZM7.27002 10.7458C7.14437 10.744 7.01961 10.7672 6.90301 10.8141C6.7864 10.8609 6.68027 10.9305 6.59078 11.0187C6.50129 11.1069 6.43023 11.2121 6.38173 11.328C6.33323 11.4439 6.30826 11.5684 6.30826 11.694C6.30826 11.8197 6.33323 11.9441 6.38173 12.06C6.43023 12.176 6.50129 12.2811 6.59078 12.3693C6.68027 12.4576 6.7864 12.5271 6.90301 12.574C7.01961 12.6208 7.14437 12.6441 7.27002 12.6423H15.4883C15.614 12.6441 15.7387 12.6208 15.8553 12.574C15.9719 12.5271 16.0781 12.4576 16.1676 12.3693C16.257 12.2811 16.3281 12.176 16.3766 12.06C16.4251 11.9441 16.4501 11.8197 16.4501 11.694C16.4501 11.5684 16.4251 11.4439 16.3766 11.328C16.3281 11.2121 16.257 11.1069 16.1676 11.0187C16.0781 10.9305 15.9719 10.8609 15.8553 10.8141C15.7387 10.7672 15.614 10.744 15.4883 10.7458H7.27002Z" fill="#D83CD5"/>
</svg>
