<svg width="18" height="19" viewBox="0 0 18 19" fill="none" xmlns="http://www.w3.org/2000/svg">
<path d="M16.7352 -0.00655624C16.7084 -0.00571029 16.6817 -0.00342838 16.6551 0.000279702H12.7498C12.6505 -0.00112583 12.5518 0.017235 12.4596 0.0542953C12.3673 0.0913557 12.2834 0.146376 12.2126 0.21616C12.1418 0.285943 12.0856 0.369097 12.0473 0.46079C12.0089 0.552483 11.9892 0.650886 11.9892 0.75028C11.9892 0.849674 12.0089 0.948076 12.0473 1.03977C12.0856 1.13146 12.1418 1.21462 12.2126 1.2844C12.2834 1.35418 12.3673 1.4092 12.4596 1.44626C12.5518 1.48332 12.6505 1.50169 12.7498 1.50028H14.9393L11.9393 4.50028H10.2498C10.1202 4.50023 9.99284 4.53375 9.88005 4.59759C9.76727 4.66143 9.67294 4.7534 9.60628 4.86454L8.32503 7.00028H6.24984C6.12024 7.00023 5.99284 7.03375 5.88005 7.09759C5.76727 7.16143 5.67294 7.2534 5.60628 7.36454L4.32503 9.50028H2.24984C2.12024 9.50023 1.99284 9.53375 1.88005 9.59759C1.76727 9.66143 1.67294 9.7534 1.60628 9.86454L0.106282 12.3645C0.0556202 12.449 0.0221008 12.5427 0.00763803 12.6402C-0.00682474 12.7376 -0.00194769 12.837 0.0219908 12.9326C0.0459294 13.0282 0.0884604 13.1181 0.147156 13.1973C0.205851 13.2764 0.27956 13.3432 0.364076 13.3939C0.448591 13.4445 0.542257 13.478 0.639726 13.4925C0.737194 13.507 0.836556 13.5021 0.932137 13.4781C1.02772 13.4542 1.11765 13.4117 1.19679 13.353C1.27593 13.2943 1.34274 13.2205 1.39339 13.136L2.67464 11.0003H4.74984C4.87944 11.0003 5.00684 10.9668 5.11962 10.903C5.23241 10.8391 5.32673 10.7472 5.39339 10.636L6.67464 8.50028H8.74984C8.87944 8.50033 9.00684 8.46681 9.11962 8.40297C9.23241 8.33913 9.32673 8.24716 9.39339 8.13602L10.6746 6.00028H12.2498C12.4487 6.00024 12.6395 5.92121 12.7801 5.78055L15.9998 2.56083V4.75028C15.9984 4.84966 16.0168 4.94834 16.0539 5.04056C16.0909 5.13279 16.1459 5.21673 16.2157 5.28751C16.2855 5.35828 16.3687 5.41449 16.4603 5.45285C16.552 5.49121 16.6504 5.51096 16.7498 5.51096C16.8492 5.51096 16.9476 5.49121 17.0393 5.45285C17.131 5.41449 17.2142 5.35828 17.284 5.28751C17.3537 5.21673 17.4088 5.13279 17.4458 5.04056C17.4829 4.94834 17.5012 4.84966 17.4998 4.75028V0.837194C17.5134 0.729885 17.5036 0.620916 17.4711 0.517758C17.4385 0.4146 17.3841 0.319695 17.3115 0.239549C17.2388 0.159404 17.1497 0.0959142 17.0503 0.0534346C16.9508 0.0109551 16.8433 -0.00950961 16.7352 -0.00655624ZM16.7381 6.98954C16.5394 6.99264 16.35 7.07451 16.2116 7.21714C16.0731 7.35978 15.997 7.55153 15.9998 7.75028V17.2503C15.9984 17.3497 16.0168 17.4483 16.0539 17.5406C16.0909 17.6328 16.1459 17.7167 16.2157 17.7875C16.2855 17.8583 16.3687 17.9145 16.4603 17.9528C16.552 17.9912 16.6504 18.011 16.7498 18.011C16.8492 18.011 16.9476 17.9912 17.0393 17.9528C17.131 17.9145 17.2142 17.8583 17.284 17.7875C17.3537 17.7167 17.4088 17.6328 17.4458 17.5406C17.4829 17.4483 17.5012 17.3497 17.4998 17.2503V7.75028C17.5013 7.6499 17.4826 7.55025 17.4448 7.45723C17.407 7.36422 17.3509 7.27974 17.2799 7.2088C17.2088 7.13785 17.1243 7.08189 17.0312 7.04423C16.9382 7.00657 16.8385 6.98797 16.7381 6.98954ZM12.7381 7.98954C12.5394 7.99264 12.35 8.0745 12.2116 8.21714C12.0731 8.35978 11.997 8.55153 11.9998 8.75028V17.2503C11.9984 17.3497 12.0168 17.4483 12.0539 17.5406C12.0909 17.6328 12.1459 17.7167 12.2157 17.7875C12.2855 17.8583 12.3687 17.9145 12.4603 17.9528C12.552 17.9912 12.6504 18.011 12.7498 18.011C12.8492 18.011 12.9476 17.9912 13.0393 17.9528C13.131 17.9145 13.2142 17.8583 13.284 17.7875C13.3537 17.7167 13.4088 17.6328 13.4458 17.5406C13.4829 17.4483 13.5012 17.3497 13.4998 17.2503V8.75028C13.5013 8.6499 13.4826 8.55025 13.4448 8.45723C13.407 8.36422 13.3509 8.27974 13.2799 8.2088C13.2088 8.13785 13.1243 8.08189 13.0312 8.04423C12.9382 8.00657 12.8385 7.98797 12.7381 7.98954ZM8.73812 9.98954C8.53938 9.99264 8.34999 10.0745 8.21157 10.2171C8.07314 10.3598 7.99699 10.5515 7.99984 10.7503V17.2503C7.99843 17.3497 8.01679 17.4483 8.05385 17.5406C8.09091 17.6328 8.14593 17.7167 8.21572 17.7875C8.2855 17.8583 8.36865 17.9145 8.46035 17.9528C8.55204 17.9912 8.65044 18.011 8.74984 18.011C8.84923 18.011 8.94763 17.9912 9.03933 17.9528C9.13102 17.9145 9.21417 17.8583 9.28396 17.7875C9.35374 17.7167 9.40876 17.6328 9.44582 17.5406C9.48288 17.4483 9.50124 17.3497 9.49984 17.2503V10.7503C9.50128 10.6499 9.48255 10.5502 9.44477 10.4572C9.40699 10.3642 9.35092 10.2797 9.27988 10.2088C9.20885 10.1379 9.12429 10.0819 9.03123 10.0442C8.93817 10.0066 8.8385 9.98797 8.73812 9.98954ZM4.73812 12.4895C4.53938 12.4926 4.34999 12.5745 4.21157 12.7171C4.07314 12.8598 3.99699 13.0515 3.99984 13.2503V17.2503C3.99843 17.3497 4.01679 17.4483 4.05385 17.5406C4.09091 17.6328 4.14593 17.7167 4.21572 17.7875C4.2855 17.8583 4.36865 17.9145 4.46035 17.9528C4.55204 17.9912 4.65044 18.011 4.74984 18.011C4.84923 18.011 4.94763 17.9912 5.03933 17.9528C5.13102 17.9145 5.21417 17.8583 5.28396 17.7875C5.35374 17.7167 5.40876 17.6328 5.44582 17.5406C5.48288 17.4483 5.50124 17.3497 5.49984 17.2503V13.2503C5.50128 13.1499 5.48255 13.0502 5.44477 12.9572C5.40699 12.8642 5.35092 12.7797 5.27988 12.7088C5.20885 12.6379 5.12429 12.5819 5.03123 12.5442C4.93817 12.5066 4.8385 12.488 4.73812 12.4895ZM0.738118 15.4895C0.539376 15.4926 0.349993 15.5745 0.211565 15.7171C0.0731376 15.8598 -0.00301398 16.0515 -0.000163023 16.2503V17.2503C-0.00156856 17.3497 0.0167923 17.4483 0.0538526 17.5406C0.0909129 17.6328 0.145934 17.7167 0.215717 17.7875C0.2855 17.8583 0.368655 17.9145 0.460347 17.9528C0.55204 17.9912 0.650443 18.011 0.749837 18.011C0.849231 18.011 0.947633 17.9912 1.03933 17.9528C1.13102 17.9145 1.21417 17.8583 1.28396 17.7875C1.35374 17.7167 1.40876 17.6328 1.44582 17.5406C1.48288 17.4483 1.50124 17.3497 1.49984 17.2503V16.2503C1.50128 16.1499 1.48255 16.0502 1.44477 15.9572C1.40699 15.8642 1.35092 15.7797 1.27988 15.7088C1.20885 15.6379 1.12429 15.5819 1.03123 15.5442C0.938174 15.5066 0.838499 15.488 0.738118 15.4895Z" fill="#FFA500"/>
</svg>
