<svg width="21" height="20" viewBox="0 0 21 20" fill="none" xmlns="http://www.w3.org/2000/svg">
<path d="M10.4999 0C8.74578 0 7.28514 1.31072 7.03998 3H3.61908C3.5765 2.99271 3.53337 2.98912 3.49017 2.98926C3.45285 2.99006 3.41564 2.99365 3.37885 3H1.74994C1.65056 2.99859 1.55188 3.01696 1.45966 3.05402C1.36743 3.09108 1.28349 3.1461 1.21271 3.21588C1.14194 3.28566 1.08573 3.36882 1.04737 3.46051C1.00901 3.5522 0.989258 3.65061 0.989258 3.75C0.989258 3.84939 1.00901 3.9478 1.04737 4.03949C1.08573 4.13118 1.14194 4.21434 1.21271 4.28412C1.28349 4.3539 1.36743 4.40892 1.45966 4.44598C1.55188 4.48304 1.65056 4.50141 1.74994 4.5H2.81928L4.07806 17.5146C4.2136 18.918 5.40583 20 6.81537 20H14.1835C15.5931 20 16.7854 18.9181 16.9208 17.5146L18.1806 4.5H19.2499C19.3493 4.50141 19.448 4.48304 19.5402 4.44598C19.6324 4.40892 19.7164 4.3539 19.7872 4.28412C19.8579 4.21434 19.9141 4.13118 19.9525 4.03949C19.9909 3.9478 20.0106 3.84939 20.0106 3.75C20.0106 3.65061 19.9909 3.5522 19.9525 3.46051C19.9141 3.36882 19.8579 3.28566 19.7872 3.21588C19.7164 3.1461 19.6324 3.09108 19.5402 3.05402C19.448 3.01696 19.3493 2.99859 19.2499 3H17.622C17.5425 2.98709 17.4613 2.98709 17.3818 3H13.9599C13.7147 1.31072 12.2541 0 10.4999 0ZM10.4999 1.5C11.4395 1.5 12.2103 2.13408 12.4306 3H8.56928C8.78956 2.13408 9.56036 1.5 10.4999 1.5ZM4.32513 4.5H16.6738L15.4277 17.3701C15.3652 18.0177 14.8339 18.5 14.1835 18.5H6.81537C6.16591 18.5 5.63369 18.0168 5.57123 17.3701L4.32513 4.5ZM8.73822 6.98926C8.53948 6.99236 8.3501 7.07423 8.21167 7.21686C8.07324 7.3595 7.99709 7.55125 7.99994 7.75V15.25C7.99853 15.3494 8.0169 15.4481 8.05396 15.5403C8.09102 15.6325 8.14604 15.7164 8.21582 15.7872C8.2856 15.858 8.36876 15.9142 8.46045 15.9526C8.55214 15.9909 8.65055 16.0107 8.74994 16.0107C8.84933 16.0107 8.94774 15.9909 9.03943 15.9526C9.13112 15.9142 9.21428 15.858 9.28406 15.7872C9.35384 15.7164 9.40886 15.6325 9.44592 15.5403C9.48298 15.4481 9.50135 15.3494 9.49994 15.25V7.75C9.50138 7.64962 9.48265 7.54997 9.44487 7.45695C9.40709 7.36394 9.35102 7.27946 9.27998 7.20852C9.20895 7.13758 9.1244 7.08161 9.03134 7.04395C8.93828 7.00629 8.8386 6.98769 8.73822 6.98926ZM12.2382 6.98926C12.0395 6.99236 11.8501 7.07423 11.7117 7.21686C11.5732 7.3595 11.4971 7.55125 11.4999 7.75V15.25C11.4985 15.3494 11.5169 15.4481 11.554 15.5403C11.591 15.6325 11.646 15.7164 11.7158 15.7872C11.7856 15.858 11.8688 15.9142 11.9605 15.9526C12.0521 15.9909 12.1505 16.0107 12.2499 16.0107C12.3493 16.0107 12.4477 15.9909 12.5394 15.9526C12.6311 15.9142 12.7143 15.858 12.7841 15.7872C12.8538 15.7164 12.9089 15.6325 12.9459 15.5403C12.983 15.4481 13.0013 15.3494 12.9999 15.25V7.75C13.0014 7.64962 12.9827 7.54997 12.9449 7.45695C12.9071 7.36394 12.851 7.27946 12.78 7.20852C12.709 7.13758 12.6244 7.08161 12.5313 7.04395C12.4383 7.00629 12.3386 6.98769 12.2382 6.98926Z" fill="#5B5B5B"/>
</svg>
