<svg width="19" height="20" viewBox="0 0 19 20" fill="none" xmlns="http://www.w3.org/2000/svg">
<path d="M15.4998 0.504883C14.6025 0.504883 13.7052 0.845069 13.0252 1.52539L1.95785 12.5918C1.74786 12.8018 1.59407 13.0629 1.51254 13.3496L0.0291412 18.5439C-0.00744227 18.6725 -0.00902242 18.8084 0.0245643 18.9378C0.058151 19.0671 0.125685 19.1852 0.22018 19.2797C0.314676 19.3742 0.432701 19.4417 0.562048 19.4753C0.691396 19.5089 0.827367 19.5073 0.955899 19.4707L6.15121 17.9873L6.15219 17.9863C6.43695 17.9045 6.69745 17.7526 6.90805 17.542L17.9745 6.47461C19.335 5.11405 19.335 2.88595 17.9745 1.52539C17.2944 0.845069 16.3972 0.504883 15.4998 0.504883ZM15.4998 1.99609C16.0102 1.99609 16.5199 2.19276 16.9129 2.58594H16.9139C17.7013 3.37337 17.7013 4.62663 16.9139 5.41406L15.9442 6.38379L13.1161 3.55566L14.0858 2.58594C14.4788 2.19276 14.9894 1.99609 15.4998 1.99609ZM12.0555 4.61621L14.8836 7.44434L5.84652 16.4814C5.81721 16.5106 5.78008 16.5329 5.73813 16.5449L1.84164 17.6582L2.95492 13.7607V13.7598C2.96639 13.7195 2.98739 13.6834 3.0184 13.6523L12.0555 4.61621Z" fill="#5B5B5B"/>
</svg>
