<svg width="24" height="24" viewBox="0 0 24 24" fill="none" xmlns="http://www.w3.org/2000/svg">
<g clip-path="url(#clip0_2881_311)">
<path d="M11.993 4.5C6.33323 4.5 1.34632 8.42296 0.0233182 13.5635C-0.0261509 13.7562 0.00295444 13.9606 0.104231 14.1319C0.205508 14.3031 0.370661 14.4271 0.563357 14.4766C0.756054 14.526 0.960509 14.4969 1.13175 14.3956C1.30298 14.2944 1.42697 14.1292 1.47644 13.9365C2.61644 9.50704 7.03286 6 11.993 6C16.9532 6 21.3836 9.50828 22.5233 13.9365C22.5728 14.1292 22.6968 14.2944 22.868 14.3956C23.0393 14.4969 23.2437 14.526 23.4364 14.4766C23.6291 14.4271 23.7943 14.3031 23.8955 14.1319C23.9968 13.9606 24.0259 13.7562 23.9764 13.5635C22.6531 8.42173 17.6529 4.5 11.993 4.5ZM12.0009 8.5C9.34082 8.5 7.16883 10.672 7.16883 13.332C7.16883 15.9921 9.34082 18.165 12.0009 18.165C14.6609 18.165 16.8339 15.9921 16.8339 13.332C16.8339 10.672 14.6609 8.5 12.0009 8.5ZM12.0009 10C13.8502 10 15.3339 11.4827 15.3339 13.332C15.3339 15.1814 13.8502 16.665 12.0009 16.665C10.1515 16.665 8.66883 15.1814 8.66883 13.332C8.66883 11.4827 10.1515 10 12.0009 10Z" fill="#1E88E5"/>
</g>
<defs>
<clipPath id="clip0_2881_311">
<rect width="24" height="24" fill="white"/>
</clipPath>
</defs>
</svg>
