<svg width="16" height="20" viewBox="0 0 16 20" fill="none" xmlns="http://www.w3.org/2000/svg">
<path d="M2.25 0C1.01625 0 0 1.01625 0 2.25V17.75C0 18.9838 1.01625 20 2.25 20H13.75C14.9838 20 16 18.9838 16 17.75V7.25C16 7.0511 15.9209 6.86036 15.7803 6.71973L15.7725 6.71191L9.28027 0.219727C9.13964 0.0790744 8.9489 3.82642e-05 8.75 0H2.25ZM2.25 1.5H8V5.75C8 6.98375 9.01625 8 10.25 8H14.5V17.75C14.5 18.1733 14.1732 18.5 13.75 18.5H2.25C1.82675 18.5 1.5 18.1733 1.5 17.75V2.25C1.5 1.82675 1.82675 1.5 2.25 1.5ZM9.5 2.56055L13.4395 6.5H10.25C9.82675 6.5 9.5 6.17325 9.5 5.75V2.56055ZM5.5 9.49902C5.1955 9.49902 4.92066 9.68284 4.80566 9.96484L2.55566 15.4648C2.39866 15.8483 2.58232 16.2869 2.96582 16.4434C3.34932 16.6014 3.78784 16.4172 3.94434 16.0332L4.16309 15.499H6.83691L7.05566 16.0332C7.17466 16.3237 7.4545 16.499 7.75 16.499C7.8445 16.499 7.94068 16.4819 8.03418 16.4434C8.41718 16.2869 8.60134 15.8483 8.44434 15.4648L6.19434 9.96484C6.07934 9.68284 5.8045 9.49902 5.5 9.49902ZM11.2383 9.98926C11.0395 9.99236 10.8502 10.0742 10.7117 10.2169C10.5733 10.3595 10.4971 10.5513 10.5 10.75V11.5H9.75C9.65062 11.4986 9.55194 11.517 9.45972 11.554C9.36749 11.5911 9.28355 11.6461 9.21277 11.7159C9.142 11.7857 9.08579 11.8688 9.04743 11.9605C9.00907 12.0522 8.98932 12.1506 8.98932 12.25C8.98932 12.3494 9.00907 12.4478 9.04743 12.5395C9.08579 12.6312 9.142 12.7143 9.21277 12.7841C9.28355 12.8539 9.36749 12.9089 9.45972 12.946C9.55194 12.983 9.65062 13.0014 9.75 13H10.5V13.75C10.4986 13.8494 10.517 13.9481 10.554 14.0403C10.5911 14.1325 10.6461 14.2164 10.7159 14.2872C10.7857 14.358 10.8688 14.4142 10.9605 14.4526C11.0522 14.4909 11.1506 14.5107 11.25 14.5107C11.3494 14.5107 11.4478 14.4909 11.5395 14.4526C11.6312 14.4142 11.7143 14.358 11.7841 14.2872C11.8539 14.2164 11.9089 14.1325 11.946 14.0403C11.983 13.9481 12.0014 13.8494 12 13.75V13H12.75C12.8494 13.0014 12.9481 12.983 13.0403 12.946C13.1325 12.9089 13.2164 12.8539 13.2872 12.7841C13.358 12.7143 13.4142 12.6312 13.4526 12.5395C13.4909 12.4478 13.5107 12.3494 13.5107 12.25C13.5107 12.1506 13.4909 12.0522 13.4526 11.9605C13.4142 11.8688 13.358 11.7857 13.2872 11.7159C13.2164 11.6461 13.1325 11.5911 13.0403 11.554C12.9481 11.517 12.8494 11.4986 12.75 11.5H12V10.75C12.0014 10.6496 11.9827 10.55 11.9449 10.457C11.9071 10.3639 11.8511 10.2795 11.78 10.2085C11.709 10.1376 11.6245 10.0816 11.5314 10.044C11.4383 10.0063 11.3387 9.98769 11.2383 9.98926ZM5.5 12.2305L6.22363 13.999H4.77637L5.5 12.2305Z" fill="#1E88E5"/>
</svg>
