<svg width="22" height="28" viewBox="0 0 22 28" fill="none" xmlns="http://www.w3.org/2000/svg">
<path d="M3.33301 0.666992C1.68801 0.666992 0.333008 2.02199 0.333008 3.66699V24.3337C0.333008 25.9787 1.68801 27.3337 3.33301 27.3337H18.6663C20.3113 27.3337 21.6663 25.9787 21.6663 24.3337V10.3337C21.6663 10.0685 21.5609 9.81414 21.3734 9.62663L21.363 9.61621L12.7067 0.959961C12.5192 0.772425 12.2649 0.667043 11.9997 0.666992H3.33301ZM3.33301 2.66699H10.9997V8.33366C10.9997 9.97866 12.3547 11.3337 13.9997 11.3337H19.6663V24.3337C19.6663 24.898 19.2307 25.3337 18.6663 25.3337H3.33301C2.76868 25.3337 2.33301 24.898 2.33301 24.3337V3.66699C2.33301 3.10266 2.76868 2.66699 3.33301 2.66699ZM12.9997 4.08105L18.2523 9.33366H13.9997C13.4353 9.33366 12.9997 8.89799 12.9997 8.33366V4.08105ZM7.66634 13.3324C7.26034 13.3324 6.89389 13.5774 6.74056 13.9535L3.74056 21.2868C3.53123 21.7981 3.7761 22.3828 4.28744 22.5915C4.79877 22.8021 5.38346 22.5566 5.59212 22.0446L5.88379 21.3324H9.44889L9.74056 22.0446C9.89923 22.4319 10.2723 22.6657 10.6663 22.6657C10.7923 22.6657 10.9206 22.6428 11.0452 22.5915C11.5559 22.3828 11.8015 21.7981 11.5921 21.2868L8.59212 13.9535C8.43879 13.5774 8.07234 13.3324 7.66634 13.3324ZM15.3174 13.986C15.0524 13.9901 14.7999 14.0993 14.6153 14.2895C14.4307 14.4797 14.3292 14.7353 14.333 15.0003V16.0003H13.333C13.2005 15.9985 13.0689 16.0229 12.946 16.0723C12.823 16.1218 12.7111 16.1951 12.6167 16.2882C12.5223 16.3812 12.4474 16.4921 12.3963 16.6143C12.3451 16.7366 12.3188 16.8678 12.3188 17.0003C12.3188 17.1328 12.3451 17.2641 12.3963 17.3863C12.4474 17.5086 12.5223 17.6194 12.6167 17.7125C12.7111 17.8055 12.823 17.8789 12.946 17.9283C13.0689 17.9777 13.2005 18.0022 13.333 18.0003H14.333V19.0003C14.3311 19.1328 14.3556 19.2644 14.405 19.3874C14.4544 19.5103 14.5278 19.6223 14.6208 19.7166C14.7139 19.811 14.8248 19.8859 14.947 19.9371C15.0693 19.9882 15.2005 20.0146 15.333 20.0146C15.4655 20.0146 15.5967 19.9882 15.719 19.9371C15.8413 19.8859 15.9521 19.811 16.0452 19.7166C16.1382 19.6223 16.2116 19.5103 16.261 19.3874C16.3104 19.2644 16.3349 19.1328 16.333 19.0003V18.0003H17.333C17.4655 18.0022 17.5971 17.9777 17.7201 17.9283C17.843 17.8789 17.9549 17.8055 18.0493 17.7125C18.1437 17.6194 18.2186 17.5086 18.2698 17.3863C18.3209 17.2641 18.3472 17.1328 18.3472 17.0003C18.3472 16.8678 18.3209 16.7366 18.2698 16.6143C18.2186 16.4921 18.1437 16.3812 18.0493 16.2882C17.9549 16.1951 17.843 16.1218 17.7201 16.0723C17.5971 16.0229 17.4655 15.9985 17.333 16.0003H16.333V15.0003C16.3349 14.8665 16.31 14.7336 16.2596 14.6096C16.2092 14.4856 16.1344 14.3729 16.0397 14.2783C15.945 14.1838 15.8323 14.1091 15.7082 14.0589C15.5841 14.0087 15.4512 13.9839 15.3174 13.986ZM7.66634 16.9743L8.63119 19.3324H6.7015L7.66634 16.9743Z" fill="white"/>
</svg>
