<svg width="22" height="22" viewBox="0 0 22 22" fill="none" xmlns="http://www.w3.org/2000/svg">
<path d="M5.5 0.5C5.078 0.5 4.66884 0.55382 4.27734 0.65332C4.08184 0.70282 3.94197 0.875672 3.91797 1.07617L3.86914 1.47559C3.84114 1.71009 3.7045 1.91813 3.5 2.03613C3.2955 2.15413 3.04708 2.16917 2.83008 2.07617L2.46387 1.91992C2.27837 1.84092 2.05897 1.87453 1.91797 2.01953C1.34897 2.60453 0.91993 3.32679 0.69043 4.13379C0.63543 4.32829 0.715453 4.5367 0.876953 4.6582L1.2002 4.90039C1.3892 5.04189 1.5 5.264 1.5 5.5C1.5 5.736 1.3892 5.95811 1.2002 6.09961L0.87793 6.3418C0.71643 6.4628 0.635906 6.67171 0.691406 6.86621C0.920906 7.67321 1.34847 8.39547 1.91797 8.98047C2.05847 9.12497 2.27934 9.15958 2.46484 9.08008L2.83008 8.92383C3.04708 8.83083 3.296 8.84637 3.5 8.96387C3.704 9.08137 3.84114 9.28991 3.86914 9.52441L3.91797 9.9248C3.94197 10.1253 4.08184 10.2982 4.27734 10.3477C4.66934 10.4467 5.078 10.5 5.5 10.5C5.922 10.5 6.33116 10.4462 6.72266 10.3467C6.91816 10.2972 7.05803 10.1243 7.08203 9.92383L7.12988 9.52344C7.15788 9.28894 7.29502 9.08187 7.49902 8.96387C7.70302 8.84587 7.95195 8.83083 8.16895 8.92383L8.53516 9.08008C8.72066 9.15958 8.94005 9.12497 9.08105 8.98047C9.65005 8.39547 10.0791 7.67321 10.3086 6.86621C10.3636 6.67171 10.2836 6.4633 10.1221 6.3418L9.7998 6.09961C9.6108 5.95811 9.5 5.736 9.5 5.5C9.5 5.264 9.6108 5.04189 9.7998 4.90039L10.1221 4.6582C10.2836 4.5372 10.3641 4.32829 10.3086 4.13379C10.0791 3.32679 9.65153 2.60453 9.08203 2.01953C8.94153 1.87503 8.72066 1.84042 8.53516 1.91992L8.16992 2.07617C7.95292 2.16917 7.7045 2.15413 7.5 2.03613C7.2955 1.91813 7.15886 1.71009 7.13086 1.47559L7.08203 1.0752C7.05803 0.875195 6.91816 0.701844 6.72266 0.652344C6.33066 0.553344 5.922 0.5 5.5 0.5ZM9.75 0.5C9.457 0.5 9.16784 0.517422 8.88184 0.544922C9.46884 0.946422 9.97765 1.45175 10.3896 2.03125C14.1076 2.34275 17.0898 5.33759 17.4453 9.24609C17.4588 9.39259 17.5154 9.53196 17.6074 9.64746L20.001 12.6426L18.0029 13.3418C17.7019 13.4478 17.5 13.7308 17.5 14.0498V17.1689C17.5 17.4919 17.2943 17.7784 16.9873 17.8809L14.1963 18.8105C13.4803 19.0495 13 19.7167 13 20.4707V20.75C13 21.164 13.336 21.5 13.75 21.5C14.164 21.5 14.5 21.164 14.5 20.75V20.4707C14.5 20.3627 14.5689 20.2679 14.6709 20.2334L17.4609 19.3027C18.3814 18.9962 19 18.1389 19 17.1689V14.582L20.4961 14.0586C20.9551 13.8976 21.3089 13.5222 21.4434 13.0547C21.5779 12.5872 21.4764 12.0821 21.1729 11.7021L18.916 8.88184C18.3695 4.08784 14.468 0.5 9.75 0.5ZM5.5 4C6.3285 4 7 4.6715 7 5.5C7 6.3285 6.3285 7 5.5 7C4.6715 7 4 6.3285 4 5.5C4 4.6715 4.6715 4 5.5 4ZM0.566406 8.90918C0.525906 9.26768 0.5 9.631 0.5 10C0.5 12.6355 1.58411 15.1753 3.47461 16.9678C4.13561 17.5948 4.5 18.4004 4.5 19.2344V20.75C4.5 21.164 4.836 21.5 5.25 21.5C5.664 21.5 6 21.164 6 20.75V19.2344C6 17.9849 5.46934 16.7934 4.50684 15.8799C3.00484 14.4559 2.11753 12.4684 2.01953 10.3809C1.45453 9.97736 0.961906 9.48018 0.566406 8.90918Z" fill="#4842AA"/>
</svg>
