<svg width="32" height="32" viewBox="0 0 32 32" fill="none" xmlns="http://www.w3.org/2000/svg">
<path d="M3.66659 4.66699C2.38995 4.66699 1.33325 5.72369 1.33325 7.00033V25.0003C1.33325 26.277 2.38995 27.3337 3.66659 27.3337H13.7096C14.168 28.1282 15.0155 28.667 15.9999 28.667C16.9843 28.667 17.8318 28.1282 18.2903 27.3337H28.3333C29.6099 27.3337 30.6666 26.277 30.6666 25.0003V7.00033C30.6666 5.72369 29.6099 4.66699 28.3333 4.66699H18.6666C17.61 4.66699 16.6713 5.13717 15.9999 5.861C15.3285 5.13717 14.3898 4.66699 13.3333 4.66699H3.66659ZM3.66659 6.66699H13.3333C14.2654 6.66699 14.9999 7.40151 14.9999 8.33366V25.3337H3.66659C3.46989 25.3337 3.33325 25.197 3.33325 25.0003V7.00033C3.33325 6.80363 3.46989 6.66699 3.66659 6.66699ZM18.6666 6.66699H28.3333C28.5299 6.66699 28.6666 6.80363 28.6666 7.00033V25.0003C28.6666 25.197 28.5299 25.3337 28.3333 25.3337H16.9999V8.33366C16.9999 7.40151 17.7344 6.66699 18.6666 6.66699ZM6.33325 10.3337C6.20074 10.3318 6.06918 10.3563 5.94621 10.4057C5.82324 10.4551 5.71132 10.5285 5.61695 10.6215C5.52258 10.7145 5.44764 10.8254 5.3965 10.9477C5.34535 11.0699 5.31901 11.2011 5.31901 11.3337C5.31901 11.4662 5.34535 11.5974 5.3965 11.7196C5.44764 11.8419 5.52258 11.9528 5.61695 12.0458C5.71132 12.1389 5.82324 12.2122 5.94621 12.2616C6.06918 12.3111 6.20074 12.3355 6.33325 12.3337H11.9999C12.1324 12.3355 12.264 12.3111 12.387 12.2616C12.5099 12.2122 12.6219 12.1389 12.7162 12.0458C12.8106 11.9528 12.8855 11.8419 12.9367 11.7196C12.9878 11.5974 13.0142 11.4662 13.0142 11.3337C13.0142 11.2011 12.9878 11.0699 12.9367 10.9477C12.8855 10.8254 12.8106 10.7145 12.7162 10.6215C12.6219 10.5285 12.5099 10.4551 12.387 10.4057C12.264 10.3563 12.1324 10.3318 11.9999 10.3337H6.33325ZM19.9999 10.3337C19.8674 10.3318 19.7358 10.3563 19.6129 10.4057C19.4899 10.4551 19.378 10.5285 19.2836 10.6215C19.1892 10.7145 19.1143 10.8254 19.0632 10.9477C19.012 11.0699 18.9857 11.2011 18.9857 11.3337C18.9857 11.4662 19.012 11.5974 19.0632 11.7196C19.1143 11.8419 19.1892 11.9528 19.2836 12.0458C19.378 12.1389 19.4899 12.2122 19.6129 12.2616C19.7358 12.3111 19.8674 12.3355 19.9999 12.3337H25.6666C25.7991 12.3355 25.9307 12.3111 26.0536 12.2616C26.1766 12.2122 26.2885 12.1389 26.3829 12.0458C26.4773 11.9528 26.5522 11.8419 26.6033 11.7196C26.6545 11.5974 26.6808 11.4662 26.6808 11.3337C26.6808 11.2011 26.6545 11.0699 26.6033 10.9477C26.5522 10.8254 26.4773 10.7145 26.3829 10.6215C26.2885 10.5285 26.1766 10.4551 26.0536 10.4057C25.9307 10.3563 25.7991 10.3318 25.6666 10.3337H19.9999ZM6.33325 15.0003C6.20074 14.9985 6.06918 15.0229 5.94621 15.0723C5.82324 15.1218 5.71132 15.1951 5.61695 15.2882C5.52258 15.3812 5.44764 15.4921 5.3965 15.6143C5.34535 15.7366 5.31901 15.8678 5.31901 16.0003C5.31901 16.1329 5.34535 16.2641 5.3965 16.3863C5.44764 16.5086 5.52258 16.6194 5.61695 16.7125C5.71132 16.8055 5.82324 16.8789 5.94621 16.9283C6.06918 16.9777 6.20074 17.0022 6.33325 17.0003H11.9999C12.1324 17.0022 12.264 16.9777 12.387 16.9283C12.5099 16.8789 12.6219 16.8055 12.7162 16.7125C12.8106 16.6194 12.8855 16.5086 12.9367 16.3863C12.9878 16.2641 13.0142 16.1329 13.0142 16.0003C13.0142 15.8678 12.9878 15.7366 12.9367 15.6143C12.8855 15.4921 12.8106 15.3812 12.7162 15.2882C12.6219 15.1951 12.5099 15.1218 12.387 15.0723C12.264 15.0229 12.1324 14.9985 11.9999 15.0003H6.33325ZM19.9999 15.0003C19.8674 14.9985 19.7358 15.0229 19.6129 15.0723C19.4899 15.1218 19.378 15.1951 19.2836 15.2882C19.1892 15.3812 19.1143 15.4921 19.0632 15.6143C19.012 15.7366 18.9857 15.8678 18.9857 16.0003C18.9857 16.1329 19.012 16.2641 19.0632 16.3863C19.1143 16.5086 19.1892 16.6194 19.2836 16.7125C19.378 16.8055 19.4899 16.8789 19.6129 16.9283C19.7358 16.9777 19.8674 17.0022 19.9999 17.0003H25.6666C25.7991 17.0022 25.9307 16.9777 26.0536 16.9283C26.1766 16.8789 26.2885 16.8055 26.3829 16.7125C26.4773 16.6194 26.5522 16.5086 26.6033 16.3863C26.6545 16.2641 26.6808 16.1329 26.6808 16.0003C26.6808 15.8678 26.6545 15.7366 26.6033 15.6143C26.5522 15.4921 26.4773 15.3812 26.3829 15.2882C26.2885 15.1951 26.1766 15.1218 26.0536 15.0723C25.9307 15.0229 25.7991 14.9985 25.6666 15.0003H19.9999ZM6.33325 19.667C6.20074 19.6651 6.06918 19.6896 5.94621 19.739C5.82324 19.7884 5.71132 19.8618 5.61695 19.9548C5.52258 20.0479 5.44764 20.1587 5.3965 20.281C5.34535 20.4033 5.31901 20.5345 5.31901 20.667C5.31901 20.7995 5.34535 20.9307 5.3965 21.053C5.44764 21.1752 5.52258 21.2861 5.61695 21.3792C5.71132 21.4722 5.82324 21.5456 5.94621 21.595C6.06918 21.6444 6.20074 21.6689 6.33325 21.667H11.9999C12.1324 21.6689 12.264 21.6444 12.387 21.595C12.5099 21.5456 12.6219 21.4722 12.7162 21.3792C12.8106 21.2861 12.8855 21.1752 12.9367 21.053C12.9878 20.9307 13.0142 20.7995 13.0142 20.667C13.0142 20.5345 12.9878 20.4033 12.9367 20.281C12.8855 20.1587 12.8106 20.0479 12.7162 19.9548C12.6219 19.8618 12.5099 19.7884 12.387 19.739C12.264 19.6896 12.1324 19.6651 11.9999 19.667H6.33325ZM19.9999 19.667C19.8674 19.6651 19.7358 19.6896 19.6129 19.739C19.4899 19.7884 19.378 19.8618 19.2836 19.9548C19.1892 20.0479 19.1143 20.1587 19.0632 20.281C19.012 20.4033 18.9857 20.5345 18.9857 20.667C18.9857 20.7995 19.012 20.9307 19.0632 21.053C19.1143 21.1752 19.1892 21.2861 19.2836 21.3792C19.378 21.4722 19.4899 21.5456 19.6129 21.595C19.7358 21.6444 19.8674 21.6689 19.9999 21.667H24.3333C24.4658 21.6689 24.5973 21.6444 24.7203 21.595C24.8433 21.5456 24.9552 21.4722 25.0496 21.3792C25.1439 21.2861 25.2189 21.1752 25.27 21.053C25.3212 20.9307 25.3475 20.7995 25.3475 20.667C25.3475 20.5345 25.3212 20.4033 25.27 20.281C25.2189 20.1587 25.1439 20.0479 25.0496 19.9548C24.9552 19.8618 24.8433 19.7884 24.7203 19.739C24.5973 19.6896 24.4658 19.6651 24.3333 19.667H19.9999Z" fill="white"/>
</svg>
