<svg width="18" height="19" viewBox="0 0 18 19" fill="none" xmlns="http://www.w3.org/2000/svg">
<path d="M1.72582 0.000401369C1.53542 0.00674446 1.35456 0.0853021 1.21996 0.220128L0.219962 1.22013C0.0991439 1.34082 0.0231295 1.49913 0.0044848 1.66889C-0.0141599 1.83864 0.0256817 2.00968 0.117423 2.15372L2.04418 5.17814C2.58597 6.04485 3.75951 6.20627 4.5559 5.61661L8.46313 9.52384C7.79495 10.6748 7.89737 12.1609 8.87426 13.1488H8.87328L12.8303 17.1596C12.831 17.1599 12.8316 17.1602 12.8323 17.1606C14.0023 18.3392 15.9281 18.3461 17.1067 17.1762C18.2844 16.007 18.293 14.0809 17.1243 12.9027L17.1223 12.9008L13.1731 8.89786C13.1728 8.89786 13.1724 8.89786 13.1721 8.89786C12.1871 7.90215 10.686 7.79058 9.52465 8.46427L5.61645 4.55607C6.20523 3.76017 6.04486 2.58773 5.17992 2.04532L2.15356 0.117589C2.02605 0.0363046 1.87695 -0.00454385 1.72582 0.000401369ZM12.7073 0.000401369C9.89827 0.000401369 7.60396 2.21952 7.46996 4.99552L9.06957 6.59415C9.10957 6.46365 9.11581 6.32342 9.08031 6.18692C8.99831 5.86842 8.95727 5.5534 8.95727 5.2504C8.95727 3.1824 10.6393 1.5004 12.7073 1.5004C12.8988 1.5004 13.0886 1.51535 13.2756 1.54435L11.6594 3.15958C11.2339 3.58458 11.0002 4.1494 11.0002 4.7504C11.0002 5.3514 11.2344 5.91622 11.6594 6.34122C12.0844 6.76622 12.6492 7.0004 13.2502 7.0004C13.8512 7.0004 14.4161 6.76622 14.8411 6.34122L16.425 4.75821C16.447 4.92071 16.4573 5.0849 16.4573 5.2504C16.4573 6.7399 15.5835 8.03607 14.3215 8.63907L15.4143 9.74552C16.9368 8.82552 17.9573 7.15442 17.9573 5.24942C17.9573 4.47792 17.7893 3.72984 17.4573 3.02384C17.3533 2.80284 17.1485 2.64494 16.9075 2.60294C16.668 2.56094 16.4208 2.63942 16.2483 2.81192L13.7805 5.2797C13.4975 5.5627 13.003 5.5632 12.72 5.2797C12.5785 5.1387 12.5002 4.9504 12.5002 4.7504C12.5002 4.5504 12.5785 4.36213 12.72 4.22013L15.2024 1.73673C15.3739 1.56523 15.4523 1.32193 15.4123 1.08243C15.3723 0.843433 15.2187 0.638151 15.0012 0.531651C14.2762 0.179151 13.5048 0.000401369 12.7073 0.000401369ZM1.85473 1.70646L4.37719 3.3129C4.37914 3.31389 4.38109 3.31486 4.38305 3.31583C4.53298 3.4095 4.55225 3.57925 4.42699 3.7045L3.70434 4.42716C3.57867 4.55297 3.41023 4.53449 3.31567 4.38321C3.3147 4.38126 3.31372 4.3793 3.31274 4.37735L1.70629 1.85489L1.85473 1.70646ZM5.60668 8.08146L0.878165 12.8471C0.309165 13.4201 -0.00276453 14.1812 0.000235465 14.9887C0.00323547 15.7962 0.320814 16.554 0.892814 17.1225C1.46331 17.689 2.2187 18.0004 3.0227 18.0004H3.03344C3.84094 17.9974 4.5992 17.6803 5.1682 17.1068L8.2766 13.9731L8.1018 13.7973C7.7953 13.4873 7.55488 13.1342 7.36938 12.7582L4.10375 16.0502C3.81725 16.3387 3.43506 16.4989 3.02856 16.5004C2.60256 16.4934 2.23893 16.345 1.95043 16.058C1.66143 15.7715 1.50174 15.3898 1.50024 14.9828C1.49874 14.5763 1.65612 14.1932 1.94262 13.9047L6.66723 9.142L5.60668 8.08146ZM11.0295 9.49552C11.4181 9.49727 11.8064 9.64999 12.1057 9.95255L16.0559 13.9565C16.0565 13.9571 16.0572 13.9578 16.0579 13.9584C16.6561 14.5604 16.6526 15.5135 16.05 16.1117C15.4466 16.7108 14.4957 16.7073 13.8967 16.1039L9.94067 12.0951C9.94067 12.0948 9.94067 12.0945 9.94067 12.0942C9.34378 11.4905 9.34837 10.5404 9.95043 9.94278C10.2525 9.64294 10.641 9.49377 11.0295 9.49552Z" fill="#009688"/>
</svg>
