<svg width="24" height="25" viewBox="0 0 24 25" fill="none" xmlns="http://www.w3.org/2000/svg">
<path d="M11.9792 1.50023C11.8928 1.50285 11.8076 1.52036 11.7272 1.55199L1.4772 5.55199C1.38183 5.58503 1.2941 5.63698 1.21928 5.70473C1.14446 5.77247 1.08408 5.85462 1.04176 5.94626C0.999447 6.03789 0.976058 6.13713 0.973001 6.23802C0.969943 6.33891 0.987279 6.43937 1.02397 6.5334C1.06066 6.62743 1.11595 6.71309 1.18653 6.78524C1.25711 6.8574 1.34153 6.91456 1.43473 6.95332C1.52793 6.99207 1.62799 7.01162 1.72892 7.01079C1.82985 7.00996 1.92958 6.98876 2.02212 6.94847L11.9997 3.05492L21.9772 6.94847C22.0697 6.98876 22.1695 7.00996 22.2704 7.01079C22.3713 7.01162 22.4714 6.99207 22.5646 6.95332C22.6578 6.91456 22.7422 6.8574 22.8128 6.78524C22.8834 6.71309 22.9387 6.62743 22.9754 6.5334C23.012 6.43937 23.0294 6.33891 23.0263 6.23802C23.0233 6.13713 22.9999 6.0379 22.9576 5.94626C22.9152 5.85462 22.8549 5.77247 22.78 5.70473C22.7052 5.63698 22.6175 5.58503 22.5221 5.55199L12.2721 1.55199C12.1789 1.51535 12.0793 1.49775 11.9792 1.50023ZM4.74966 8.00023C3.79218 8.00023 2.99966 8.79275 2.99966 9.75023V19.7502C2.99966 20.7077 3.79218 21.5002 4.74966 21.5002H10.2819C10.6257 22.0961 11.2614 22.5002 11.9997 22.5002C12.738 22.5002 13.3736 22.0961 13.7174 21.5002H19.2497C20.2071 21.5002 20.9997 20.7077 20.9997 19.7502V9.75023C20.9997 8.79275 20.2071 8.00023 19.2497 8.00023H13.9997C13.1285 8.00023 12.3818 8.43909 11.8766 9.07836C11.2807 8.42657 10.4445 8.00023 9.49966 8.00023H4.74966ZM4.74966 9.50023H9.49966C10.4656 9.50023 11.2497 10.2843 11.2497 11.2502V20.0002H4.74966C4.60214 20.0002 4.49966 19.8978 4.49966 19.7502V9.75023C4.49966 9.60271 4.60214 9.50023 4.74966 9.50023ZM13.9997 9.50023H19.2497C19.3972 9.50023 19.4997 9.60271 19.4997 9.75023V19.7502C19.4997 19.8978 19.3972 20.0002 19.2497 20.0002H12.7497V11.2502V10.7502C12.7497 10.0511 13.3005 9.50023 13.9997 9.50023Z" fill="white"/>
</svg>
