<svg width="329" height="93" viewBox="0 0 329 93" fill="none" xmlns="http://www.w3.org/2000/svg">
<rect y="1" width="328" height="92" rx="4" fill="#2F55DD"/>
<path d="M218.188 34.7981C218.495 36.0726 218.344 33.7278 218.946 30.8629C219.547 27.9979 220.581 29.1581 220.581 29.1581" stroke="#7795FF" stroke-linecap="round" stroke-linejoin="round"/>
<path d="M218 31.8713L219.889 31.0625" stroke="#7795FF" stroke-linecap="round" stroke-linejoin="round"/>
<path d="M221.449 30.0898C221.449 30.0898 220.321 32.5408 222.022 33.5703" stroke="#7795FF" stroke-linecap="round" stroke-linejoin="round"/>
<path d="M223.051 29.4023C223.051 29.4023 224.916 30.4917 223.749 32.8283" stroke="#7795FF" stroke-linecap="round" stroke-linejoin="round"/>
<path d="M221.773 30.918L223.11 31.9365" stroke="#7795FF" stroke-linecap="round" stroke-linejoin="round"/>
<path d="M222.822 30.4688L221.777 32.209" stroke="#7795FF" stroke-linecap="round" stroke-linejoin="round"/>
<path d="M228.823 56.5499C229.077 54.9307 228.028 53.4026 226.479 53.1368C224.93 52.8711 223.468 53.9683 223.214 55.5876C222.96 57.2069 224.01 58.735 225.558 59.0007C227.107 59.2665 228.569 58.1692 228.823 56.5499Z" stroke="#7795FF" stroke-linecap="round" stroke-linejoin="round"/>
<path d="M230.508 60.4581C232.214 60.0925 233.313 58.3508 232.963 56.568C232.613 54.7852 230.947 53.6364 229.242 54.002C227.537 54.3677 226.438 56.1093 226.788 57.8921C227.137 59.6749 228.803 60.8238 230.508 60.4581Z" stroke="#7795FF" stroke-linecap="round" stroke-linejoin="round"/>
<path d="M228.607 54.8438L227.299 55.3312" stroke="#7795FF" stroke-linecap="round" stroke-linejoin="round"/>
<path d="M228.789 55.4062L226.908 56.117" stroke="#7795FF" stroke-linecap="round" stroke-linejoin="round"/>
<path d="M228.859 56.0859L226.76 56.9302" stroke="#7795FF" stroke-linecap="round" stroke-linejoin="round"/>
<path d="M228.711 57.0156L226.797 57.9307" stroke="#7795FF" stroke-linecap="round" stroke-linejoin="round"/>
<path d="M228.373 57.7305L226.92 58.3623" stroke="#7795FF" stroke-linecap="round" stroke-linejoin="round"/>
<path d="M227.391 51.5432C227.31 51.2708 226.388 51.102 226.349 51.8155C226.31 52.529 227.32 51.9353 227.607 51.5432C227.607 51.5432 227.086 52.2757 227.305 52.4201" stroke="#7795FF" stroke-linecap="round" stroke-linejoin="round"/>
<path d="M232.496 52.4297L231.678 54.208C231.678 54.208 232.087 53.3175 232.524 53.391C233.064 53.4918 232.704 54.415 232.053 54.0746" stroke="#7795FF" stroke-linecap="round" stroke-linejoin="round"/>
<path d="M321.51 81.4688L322.794 82.7378" stroke="#7795FF" stroke-linecap="round" stroke-linejoin="round"/>
<path d="M322.793 81.1328L321.717 82.8131" stroke="#7795FF" stroke-linecap="round" stroke-linejoin="round"/>
<path d="M324.057 81.6183L325.343 81.1172" stroke="#7795FF" stroke-linecap="round" stroke-linejoin="round"/>
<path d="M325.961 79.7148L326.742 80.4365" stroke="#7795FF" stroke-linecap="round" stroke-linejoin="round"/>
<path d="M327.343 78.8438L326.354 82.395" stroke="#7795FF" stroke-linecap="round" stroke-linejoin="round"/>
<path d="M267.395 61.5216L270.851 59.0352L275.428 59.3701L275.715 65.4377L272.354 67.9486L268.207 67.6327L267.395 61.5216Z" stroke="#7795FF" stroke-linecap="round" stroke-linejoin="round"/>
<path d="M268.207 67.6285L271.554 65.1094L275.714 65.4335" stroke="#7795FF" stroke-linecap="round" stroke-linejoin="round"/>
<path d="M271.555 65.1136L270.852 59.0352" stroke="#7795FF" stroke-linecap="round" stroke-linejoin="round"/>
<path d="M267.395 61.5186L271.961 62.0715L275.428 59.3672" stroke="#7795FF" stroke-linecap="round" stroke-linejoin="round"/>
<path d="M271.961 62.0703L272.354 67.9445" stroke="#7795FF" stroke-linecap="round" stroke-linejoin="round"/>
<path d="M307.741 41.1328L306.209 46.1083L310.976 45.4357L307.741 41.1328Z" stroke="#7795FF" stroke-linecap="round" stroke-linejoin="round"/>
<path d="M307.738 41.1328L308.59 45.7434" stroke="#7795FF" stroke-linecap="round" stroke-linejoin="round"/>
<path d="M308.457 45.0067L309.014 44.9141L309.145 45.6957" stroke="#7795FF" stroke-linecap="round" stroke-linejoin="round"/>
<path d="M247.707 86.6641L250.088 87.8868" stroke="#7795FF" stroke-linecap="round" stroke-linejoin="round"/>
<path d="M249.317 85.7305L248.635 88.3312" stroke="#7795FF" stroke-linecap="round" stroke-linejoin="round"/>
<path d="M249.648 84.4624C249.687 84.4202 249.735 84.388 249.789 84.3687C249.842 84.3493 249.898 84.3432 249.954 84.3509C250.01 84.3586 250.063 84.3798 250.109 84.4129C250.156 84.446 250.194 84.49 250.222 84.5414C250.461 84.9336 249.992 85.756 249.992 85.756L250.948 85.3747" stroke="#7795FF" stroke-linecap="round" stroke-linejoin="round"/>
<path d="M266.399 1C268.673 2.33716 266.068 5.60516 266.068 7.51149C266.068 9.41782 268.673 9.14549 269.976 9.69016C270.497 9.69016 271.539 9.69016 271.51 11.0736" stroke="#7795FF" stroke-linecap="round" stroke-linejoin="round"/>
<path d="M263.865 2.73047C264.261 4.98267 266.731 4.18473 268.247 4.69944C270.852 5.58452 269.406 8.395 268.63 10.0944C268.163 11.1074 267.7 12.529 268.533 13.4904" stroke="#7795FF" stroke-linecap="round" stroke-linejoin="round"/>
<path d="M264.199 3.60959L266.911 1.25391" stroke="#7795FF" stroke-linecap="round" stroke-linejoin="round"/>
<path d="M265.26 4.31314L267.302 2.54297" stroke="#7795FF" stroke-linecap="round" stroke-linejoin="round"/>
<path d="M266.461 6.10363L268.185 4.6875" stroke="#7795FF" stroke-linecap="round" stroke-linejoin="round"/>
<path d="M266.105 8.22411L269.476 5.69141" stroke="#7795FF" stroke-linecap="round" stroke-linejoin="round"/>
<path d="M267.398 9.2091L269.748 7.40625" stroke="#7795FF" stroke-linecap="round" stroke-linejoin="round"/>
<path d="M268.396 13.043L271.332 10.543" stroke="#7795FF" stroke-linecap="round" stroke-linejoin="round"/>
<path d="M268.471 11.0798L270.385 9.67188" stroke="#7795FF" stroke-linecap="round" stroke-linejoin="round"/>
<path d="M230.139 88.0227C232.937 86.8531 234.297 83.5343 233.178 80.6101C232.06 77.6858 228.885 76.2634 226.088 77.433C223.291 78.6026 221.93 81.9214 223.049 84.8456C224.168 87.7699 227.342 89.1923 230.139 88.0227Z" stroke="#7795FF" stroke-linecap="round" stroke-linejoin="round"/>
<path d="M229.484 77.2075C231.386 74.8736 233.003 73.5528 233.626 73.9831C234.574 74.6339 232.873 79.0784 229.828 83.9069C226.783 88.7354 223.545 92.1232 222.597 91.4696C221.971 91.042 222.498 88.9668 223.8 86.219" stroke="#7795FF" stroke-linecap="round" stroke-linejoin="round"/>
<path d="M222.774 83.8973C220.122 83.0993 218.429 82.1679 218.536 81.4245C218.69 80.248 223.272 79.9757 228.745 80.8335C234.218 81.6914 238.521 83.3172 238.357 84.4882C238.24 85.3052 236.012 85.6783 232.847 85.553" stroke="#7795FF" stroke-linecap="round" stroke-linejoin="round"/>
<path d="M223.47 79.7673C221.47 75.9927 220.469 73.0488 221.147 72.5885C222.037 71.9867 225.481 75.8919 228.839 81.3032C232.197 86.7145 234.195 91.6056 233.306 92.2102C232.718 92.6078 231.011 91.0337 228.951 88.3539" stroke="#7795FF" stroke-linecap="round" stroke-linejoin="round"/>
<path d="M234.395 76.4546C234.298 76.6094 234.159 76.7306 233.996 76.803C233.833 76.8754 233.654 76.8956 233.48 76.8612C233.306 76.8268 233.145 76.7393 233.019 76.6097C232.892 76.48 232.805 76.3142 232.769 76.133C232.733 75.9518 232.749 75.7634 232.815 75.5916C232.881 75.4198 232.994 75.2722 233.14 75.1677C233.286 75.0631 233.459 75.0061 233.636 75.004C233.813 75.0018 233.986 75.0546 234.135 75.1555C234.234 75.2228 234.319 75.3098 234.386 75.4116C234.452 75.5133 234.499 75.6278 234.523 75.7485C234.547 75.8692 234.548 75.9937 234.527 76.1149C234.505 76.236 234.46 76.3515 234.395 76.4546Z" fill="#7795FF"/>
<path d="M231.429 90.7983C231.331 90.9531 231.193 91.0744 231.03 91.1468C230.867 91.2191 230.687 91.2394 230.513 91.205C230.339 91.1706 230.178 91.083 230.052 90.9534C229.925 90.8238 229.839 90.6579 229.802 90.4767C229.766 90.2955 229.782 90.1071 229.848 89.9353C229.914 89.7635 230.027 89.616 230.173 89.5114C230.319 89.4068 230.492 89.3499 230.669 89.3477C230.846 89.3456 231.02 89.3983 231.168 89.4993C231.267 89.5666 231.352 89.6536 231.419 89.7553C231.485 89.8571 231.532 89.9716 231.556 90.0923C231.581 90.2129 231.582 90.3374 231.56 90.4586C231.538 90.5798 231.493 90.6952 231.429 90.7983Z" fill="#7795FF"/>
<path d="M226.64 81.0639C226.542 81.2188 226.404 81.34 226.241 81.4124C226.078 81.4848 225.898 81.505 225.724 81.4706C225.55 81.4362 225.389 81.3487 225.263 81.219C225.136 81.0894 225.05 80.9235 225.013 80.7423C224.977 80.5611 224.993 80.3727 225.059 80.2009C225.125 80.0291 225.238 79.8816 225.384 79.777C225.53 79.6725 225.703 79.6155 225.88 79.6133C226.057 79.6112 226.231 79.6639 226.379 79.7649C226.578 79.9013 226.717 80.1146 226.766 80.3581C226.815 80.6016 226.769 80.8555 226.64 81.0639Z" fill="#7795FF"/>
<path d="M283.769 40.3017H286.837L288.372 37.5239L286.837 34.7461H283.769L282.234 37.5239L283.769 40.3017Z" stroke="#7795FF" stroke-linecap="round" stroke-linejoin="round"/>
<path d="M283.326 46.3989L281.791 43.6211H278.723" stroke="#7795FF" stroke-linecap="round" stroke-linejoin="round"/>
<path d="M279.132 37.5271H282.201L283.735 34.7493L282.201 31.9688H279.132L277.598 34.7493L279.132 37.5271Z" stroke="#7795FF" stroke-linecap="round" stroke-linejoin="round"/>
<path d="M283.769 34.7458H286.837L288.372 31.9653L286.837 29.1875H283.769L282.234 31.9653L283.769 34.7458Z" stroke="#7795FF" stroke-linecap="round" stroke-linejoin="round"/>
<path d="M283.736 35.177C283.963 35.177 284.147 34.9843 284.147 34.7467C284.147 34.5091 283.963 34.3164 283.736 34.3164C283.508 34.3164 283.324 34.5091 283.324 34.7467C283.324 34.9843 283.508 35.177 283.736 35.177Z" fill="#7795FF"/>
<path d="M277.328 29.3449C277.555 29.3449 277.739 29.1523 277.739 28.9147C277.739 28.677 277.555 28.4844 277.328 28.4844C277.1 28.4844 276.916 28.677 276.916 28.9147C276.916 29.1523 277.1 29.3449 277.328 29.3449Z" fill="#7795FF"/>
<path d="M282.912 46.4029C282.912 46.3178 282.936 46.2346 282.981 46.1639C283.027 46.0931 283.091 46.038 283.166 46.0054C283.241 45.9728 283.324 45.9643 283.404 45.9809C283.484 45.9975 283.557 46.0385 283.615 46.0987C283.672 46.1589 283.711 46.2355 283.727 46.319C283.743 46.4025 283.735 46.489 283.704 46.5676C283.673 46.6462 283.62 46.7134 283.552 46.7607C283.485 46.808 283.405 46.8332 283.324 46.8332C283.27 46.8332 283.216 46.8221 283.166 46.8005C283.116 46.7789 283.071 46.7472 283.033 46.7072C282.994 46.6672 282.964 46.6198 282.943 46.5676C282.923 46.5154 282.912 46.4595 282.912 46.4029Z" fill="#7795FF"/>
<path d="M278.722 44.052C278.949 44.052 279.134 43.8593 279.134 43.6217C279.134 43.3841 278.949 43.1914 278.722 43.1914C278.495 43.1914 278.311 43.3841 278.311 43.6217C278.311 43.8593 278.495 44.052 278.722 44.052Z" fill="#7795FF"/>
<path d="M291.342 32.0463C291.342 31.9605 291.366 31.8767 291.412 31.8054C291.457 31.7342 291.522 31.6787 291.598 31.646C291.674 31.6133 291.757 31.6049 291.838 31.6218C291.918 31.6387 291.992 31.6802 292.05 31.7411C292.108 31.8019 292.147 31.8793 292.163 31.9635C292.178 32.0477 292.17 32.1348 292.138 32.2139C292.106 32.293 292.053 32.3604 291.984 32.4076C291.916 32.4549 291.835 32.4798 291.753 32.4793C291.699 32.4793 291.645 32.4681 291.595 32.4463C291.545 32.4245 291.5 32.3925 291.461 32.3523C291.423 32.3121 291.393 32.2643 291.372 32.2118C291.352 32.1593 291.341 32.103 291.342 32.0463Z" fill="#7795FF"/>
<path d="M281.757 44.052C281.985 44.052 282.169 43.8593 282.169 43.6217C282.169 43.3841 281.985 43.1914 281.757 43.1914C281.53 43.1914 281.346 43.3841 281.346 43.6217C281.346 43.8593 281.53 44.052 281.757 44.052Z" fill="#7795FF"/>
<path d="M287.959 32.0463C287.959 31.9606 287.983 31.8769 288.029 31.8057C288.074 31.7345 288.139 31.679 288.215 31.6462C288.29 31.6135 288.374 31.6049 288.454 31.6216C288.534 31.6383 288.608 31.6795 288.666 31.7401C288.724 31.8007 288.763 31.8778 288.779 31.9618C288.795 32.0458 288.787 32.1329 288.756 32.212C288.724 32.2911 288.671 32.3587 288.603 32.4063C288.535 32.4539 288.455 32.4793 288.373 32.4793C288.263 32.4793 288.158 32.4337 288.08 32.3525C288.003 32.2713 287.959 32.1611 287.959 32.0463Z" fill="#7795FF"/>
<path d="M283.324 40.3068C283.324 40.2209 283.348 40.1369 283.393 40.0652C283.438 39.9936 283.503 39.9377 283.579 39.9046C283.654 39.8715 283.738 39.8627 283.819 39.8793C283.899 39.8959 283.973 39.9372 284.031 39.9979C284.089 40.0586 284.129 40.136 284.145 40.2203C284.161 40.3045 284.152 40.3918 284.121 40.4711C284.089 40.5503 284.035 40.6179 283.967 40.6653C283.898 40.7126 283.818 40.7376 283.736 40.7371C283.627 40.7364 283.523 40.6908 283.446 40.6103C283.368 40.5297 283.325 40.4207 283.324 40.3068Z" fill="#7795FF"/>
<path d="M288.375 32.0391H291.754" stroke="#7795FF" stroke-linecap="round" stroke-linejoin="round"/>
<path d="M283.735 40.3047L281.758 43.6217" stroke="#7795FF" stroke-linecap="round" stroke-linejoin="round"/>
<path d="M279.131 31.9669L277.326 28.9141" stroke="#7795FF" stroke-linecap="round" stroke-linejoin="round"/>
<path d="M300.896 21.0143C301.25 19.7636 301.988 18.6694 302.996 17.9004C304.003 17.1315 305.225 16.7305 306.472 16.7593C307.72 16.7881 308.923 17.2451 309.898 18.0598C310.872 18.8746 311.562 20.0018 311.863 21.2676" stroke="#7795FF" stroke-linecap="round" stroke-linejoin="round"/>
<path d="M305.695 28.5968C304.31 28.4309 303.03 27.7378 302.102 26.6495C301.173 25.5612 300.66 24.1537 300.66 22.6953" stroke="#7795FF" stroke-linecap="round" stroke-linejoin="round"/>
<path d="M312.026 22.6953C312.026 24.2701 311.428 25.7805 310.363 26.8943C309.298 28.0081 307.854 28.6342 306.348 28.6349" stroke="#7795FF" stroke-linecap="round" stroke-linejoin="round"/>
<path d="M312.35 18.9297C314.127 18.6928 315.317 18.8208 315.502 19.3763C315.87 20.482 312.069 22.8649 307.013 24.7005C301.957 26.536 297.562 27.1242 297.192 26.0158C296.997 25.4249 297.992 24.469 299.732 23.4259" stroke="#7795FF" stroke-linecap="round" stroke-linejoin="round"/>
<path d="M281.757 14.8594L282.301 16.0113L283.518 16.1965L282.637 17.0952L282.846 18.3616L281.757 17.7624L280.668 18.3616L280.877 17.0952L279.996 16.1965L281.213 16.0113L281.757 14.8594Z" stroke="#7795FF" stroke-linecap="round" stroke-linejoin="round"/>
<path d="M243.299 11.7932C243.298 12.8174 242.909 13.7995 242.217 14.524C241.524 15.2484 240.585 15.6561 239.605 15.6576C239.485 15.6576 239.368 15.6521 239.254 15.6412C238.541 15.5705 237.863 15.2848 237.302 14.8189C236.742 14.3529 236.323 13.7267 236.096 13.0164C235.87 12.3061 235.845 11.5424 236.026 10.8179C236.207 10.0935 236.585 9.43962 237.115 8.93575C237.645 8.43188 238.303 8.09974 239.01 7.97969C239.717 7.85964 240.442 7.95686 241.097 8.25953C241.752 8.5622 242.309 9.05728 242.7 9.6846C243.091 10.3119 243.299 11.0445 243.299 11.7932Z" stroke="#7795FF" stroke-linecap="round" stroke-linejoin="round"/>
<path d="M242.709 12.487C242.709 12.6056 242.676 12.7218 242.613 12.8206C242.551 12.9195 242.461 12.9967 242.357 13.0425C242.252 13.0883 242.137 13.1005 242.025 13.0777C241.914 13.0549 241.812 12.9981 241.731 12.9144C241.651 12.8307 241.596 12.7239 241.574 12.6076C241.551 12.4914 241.563 12.3707 241.606 12.2611C241.649 12.1515 241.723 12.0577 241.817 11.9918C241.911 11.9258 242.022 11.8906 242.136 11.8906C242.287 11.8906 242.432 11.9534 242.54 12.0651C242.647 12.1769 242.708 12.3286 242.709 12.487Z" stroke="#7795FF" stroke-linecap="round" stroke-linejoin="round"/>
<path d="M237.562 14.0114C237.562 14.1533 237.533 14.2936 237.475 14.4221C237.417 14.5506 237.333 14.6642 237.229 14.7549C236.743 14.3357 236.369 13.7926 236.143 13.178C236.286 13.086 236.451 13.0379 236.619 13.0392C236.742 13.0374 236.865 13.0612 236.979 13.1092C237.093 13.1573 237.198 13.2286 237.285 13.3191C237.373 13.4095 237.443 13.5173 237.49 13.6362C237.538 13.755 237.562 13.8826 237.562 14.0114Z" stroke="#7795FF" stroke-linecap="round" stroke-linejoin="round"/>
<path d="M242.135 14.6202C241.452 15.2966 240.546 15.6729 239.606 15.6714C239.486 15.6714 239.369 15.666 239.254 15.6551C239.233 15.5503 239.222 15.4435 239.223 15.3365C239.223 14.9744 239.34 14.6231 239.555 14.3393C239.77 14.0556 240.071 13.8561 240.408 13.7732C240.745 13.6903 241.099 13.7288 241.412 13.8826C241.726 14.0363 241.98 14.2962 242.135 14.6202Z" stroke="#7795FF" stroke-linecap="round" stroke-linejoin="round"/>
<path d="M238.709 10.2561C239.178 10.2561 239.558 9.8586 239.558 9.36828C239.558 8.87795 239.178 8.48047 238.709 8.48047C238.24 8.48047 237.859 8.87795 237.859 9.36828C237.859 9.8586 238.24 10.2561 238.709 10.2561Z" stroke="#7795FF" stroke-linecap="round" stroke-linejoin="round"/>
<path d="M239.496 11.8956C239.496 11.9769 239.473 12.0564 239.429 12.1241C239.386 12.1917 239.325 12.2444 239.253 12.2755C239.181 12.3066 239.102 12.3148 239.026 12.2989C238.949 12.2831 238.879 12.2439 238.824 12.1864C238.769 12.1289 238.732 12.0556 238.717 11.9758C238.701 11.8961 238.709 11.8134 238.739 11.7382C238.769 11.6631 238.819 11.5989 238.884 11.5537C238.948 11.5085 239.025 11.4844 239.102 11.4844C239.154 11.4844 239.205 11.495 239.253 11.5157C239.301 11.5363 239.344 11.5666 239.38 11.6048C239.417 11.643 239.446 11.6883 239.466 11.7382C239.485 11.7881 239.496 11.8416 239.496 11.8956Z" stroke="#7795FF" stroke-linecap="round" stroke-linejoin="round"/>
<path d="M242.605 9.53528C242.501 9.57072 242.393 9.5882 242.284 9.58702C242.142 9.58702 242.001 9.5577 241.87 9.50073C241.739 9.44376 241.619 9.36027 241.519 9.25503C241.418 9.1498 241.339 9.02489 241.285 8.88745C241.231 8.75002 241.203 8.60276 241.203 8.45411C241.201 8.40695 241.201 8.35966 241.203 8.3125C241.761 8.5906 242.243 9.01113 242.605 9.53528Z" stroke="#7795FF" stroke-linecap="round" stroke-linejoin="round"/>
<path d="M327.537 56.6317L327.936 55.6949L327.29 55.3245C327.314 55.1596 327.318 54.9922 327.303 54.8262L327.964 54.4885L327.613 53.5326L326.904 53.745C326.809 53.6116 326.699 53.4909 326.576 53.3855L326.818 52.6557L325.922 52.239L325.565 52.9144C325.407 52.894 325.247 52.894 325.089 52.9144L324.768 52.2227L323.851 52.5903L324.057 53.3283C323.929 53.4293 323.813 53.5454 323.711 53.6742L323.015 53.4209L322.627 54.3441L323.273 54.7172C323.249 54.8822 323.245 55.0495 323.26 55.2156L322.596 55.5506L322.947 56.5092L323.656 56.294C323.752 56.4276 323.862 56.5492 323.984 56.6562L323.744 57.3834L324.641 57.8L324.995 57.1247C325.153 57.1495 325.313 57.1541 325.472 57.1383L325.795 57.8327L326.709 57.4651L326.506 56.7243C326.633 56.6243 326.748 56.5091 326.85 56.3812L327.537 56.6317ZM324.812 56.1089C324.607 56.0132 324.433 55.856 324.313 55.657C324.192 55.458 324.131 55.2263 324.137 54.991C324.143 54.7557 324.215 54.5275 324.345 54.3352C324.475 54.143 324.656 53.9952 324.866 53.9107C325.076 53.8262 325.306 53.8087 325.525 53.8605C325.745 53.9122 325.945 54.0309 326.1 54.2014C326.255 54.372 326.358 54.5868 326.397 54.8187C326.435 55.0506 326.407 55.2892 326.316 55.5043C326.192 55.7924 325.965 56.0178 325.683 56.1311C325.402 56.2444 325.089 56.2364 324.812 56.1089Z" stroke="#7795FF" stroke-linecap="round" stroke-linejoin="round"/>
<path d="M322.774 61.4444L323.316 60.1726L322.441 59.666C322.472 59.4424 322.477 59.2156 322.456 58.9906L323.358 58.5331L322.886 57.2341L321.925 57.5255C321.796 57.3434 321.647 57.1787 321.479 57.0353L321.808 56.044L320.581 55.4694L320.099 56.3844C319.885 56.3523 319.668 56.3459 319.453 56.3653L319.015 55.4258L317.77 55.9269L318.049 56.9291C317.876 57.0658 317.718 57.223 317.58 57.3975L316.634 57.0652L316.092 58.337L316.968 58.8436C316.937 59.0672 316.931 59.294 316.952 59.519L316.051 59.9765L316.53 61.2755L317.491 60.9868C317.62 61.1683 317.77 61.3328 317.937 61.477L317.609 62.4656L318.828 63.0321L319.31 62.1143C319.523 62.1478 319.74 62.1542 319.956 62.1334L320.393 63.0729L321.638 62.5745L321.36 61.5696C321.533 61.4338 321.69 61.2775 321.829 61.1039L322.774 61.4444ZM319.075 60.7336C318.795 60.6033 318.559 60.3892 318.396 60.1185C318.233 59.8477 318.15 59.5324 318.158 59.2125C318.166 58.8926 318.265 58.5824 318.442 58.3212C318.619 58.06 318.866 57.8595 319.152 57.7451C319.438 57.6308 319.75 57.6076 320.048 57.6786C320.347 57.7497 320.618 57.9116 320.829 58.1441C321.039 58.3766 321.179 58.6691 321.23 58.9846C321.282 59.3001 321.242 59.6244 321.117 59.9166C321.035 60.1105 320.916 60.2856 320.769 60.4316C320.622 60.5777 320.448 60.692 320.258 60.7679C320.069 60.8437 319.866 60.8798 319.663 60.8739C319.46 60.868 319.26 60.8203 319.075 60.7336Z" stroke="#7795FF" stroke-linecap="round" stroke-linejoin="round"/>
<path d="M268.774 49.3615C268.417 50.0686 268.014 50.7492 267.568 51.3986C265.254 54.7627 261.853 57.1374 257.994 58.084C254.135 59.0306 250.079 58.4852 246.575 56.5484C246.213 56.3496 245.859 56.1372 245.52 55.9139C245.181 55.6906 244.85 55.4618 244.533 55.2167C244.147 54.9253 243.777 54.6149 243.423 54.2908C243.4 54.273 243.379 54.2529 243.36 54.2309C241.052 52.0951 239.365 49.3236 238.492 46.233C237.618 43.1423 237.594 39.8572 238.422 36.7529C239.25 33.6486 240.896 30.8504 243.173 28.6779C245.45 26.5054 248.265 25.0462 251.298 24.4671C254.33 23.888 257.457 24.2124 260.321 25.4031C263.186 26.5938 265.672 28.6028 267.496 31.2006C269.32 33.7985 270.409 36.8804 270.637 40.0942C270.865 43.308 270.224 46.5241 268.787 49.3752L268.774 49.3615Z" fill="#7F9BFF"/>
<mask id="mask0_4892_4811" style="mask-type:luminance" maskUnits="userSpaceOnUse" x="237" y="24" width="34" height="35">
<path d="M268.776 49.3615C268.419 50.0686 268.016 50.7492 267.57 51.3986C265.256 54.7627 261.855 57.1374 257.996 58.084C254.137 59.0306 250.081 58.4852 246.577 56.5484C246.215 56.3496 245.861 56.1372 245.522 55.9139C245.183 55.6906 244.852 55.4618 244.535 55.2167C244.149 54.9253 243.779 54.6149 243.425 54.2908C243.402 54.273 243.381 54.2529 243.362 54.2309C241.054 52.0951 239.367 49.3236 238.493 46.233C237.62 43.1423 237.596 39.8572 238.424 36.7529C239.252 33.6486 240.898 30.8504 243.175 28.6779C245.452 26.5054 248.267 25.0462 251.3 24.4671C254.332 23.888 257.459 24.2124 260.323 25.4031C263.188 26.5938 265.674 28.6028 267.498 31.2006C269.322 33.7985 270.411 36.8804 270.639 40.0942C270.867 43.308 270.226 46.5241 268.789 49.3752L268.776 49.3615Z" fill="white"/>
</mask>
<g mask="url(#mask0_4892_4811)">
<g opacity="0.6">
<path d="M268.773 49.3665C268.416 50.0736 268.013 50.7542 267.567 51.4036L267.249 51.1312L266.702 50.829L266.127 50.5131L266.223 49.7859L266.192 49.1296C266.158 48.4733 266.611 49.0098 266.973 48.811C267.256 48.6 267.484 48.3193 267.637 47.994C267.637 47.994 267.898 47.1198 267.812 46.7685C267.672 46.3637 267.506 45.9689 267.317 45.5865L266.384 46.9482L265.603 46.8856L264.863 46.4771L264.767 45.4014L264.386 45.1944L264.228 44.5762L262.172 43.9743L261.938 43.544C261.703 43.1137 260.758 42.8932 260.758 42.8932L260.99 42.3322L261.354 41.7058C261.722 41.0794 262.102 42.1197 262.102 42.1197L262.537 42.3567L263.345 41.6486L263.558 40.6328L264.874 40.7118C264.848 40.5743 264.868 40.4317 264.93 40.3078C264.993 40.184 265.094 40.0862 265.217 40.0309C265.655 39.8512 265.462 38.8572 265.296 38.4895C265.129 38.1219 264.514 38.4187 264.514 38.4187C264.514 38.4187 263.845 37.3539 263.753 36.9291C263.662 36.5042 265.03 36.6567 265.616 36.2292C266.202 35.8016 266.002 34.9519 265.715 34.9329C265.428 34.9138 266.275 32.9993 267.903 33.5249C268.356 33.672 268.643 33.6202 268.82 33.4568C270.042 35.9156 270.675 38.6471 270.667 41.4177C270.659 44.1883 270.009 46.9157 268.773 49.3665Z" fill="white"/>
<path d="M257.383 41.9985L256.825 42.7311C256.825 42.7311 256.588 42.1401 256.249 42.4588L255.729 42.9435L255.351 44.0492L254.674 44.5067L254.259 44.2807L253.869 44.0628L253.444 43.8286L253.038 44.6456L252.707 45.2992C252.868 45.6201 253.069 45.9176 253.303 46.1843L254.022 47.5105L254.898 47.9735C255.263 47.9877 255.626 48.0332 255.984 48.1097L256.586 48.4392L256.372 49.8009C256.372 49.8009 255.919 50.5716 255.616 50.3591L255.312 50.1495L254.817 51.9414L254.796 52.9273C254.796 52.9273 254.502 53.0553 254.205 53.1587C253.908 53.2622 254.095 53.2078 253.473 53.4093C252.85 53.6108 252.9 53.6026 252.394 53.7524C251.963 53.9101 251.549 54.1126 251.157 54.357L251.201 55.3047L250.011 55.4872L249.344 55.1168L249.508 54.5177L249.586 53.5809L249.495 52.881L249.208 52.2628L250.011 51.503L249.834 51.0264L249.378 50.0786L248.414 50.6233L247.919 50.8956L246.799 50.37L246.676 49.6593L246.301 48.382L245.952 47.5868L245.332 46.7099L245.176 45.9555L245.525 45.2638L245.71 44.8989L245.139 44.0955L244.983 43.5236L244.022 42.6113C244.022 42.6113 244.301 42.5922 244.238 42.1864C244.176 41.7807 244.788 41.0971 244.788 41.0971C245.134 41.2877 246.174 42.0448 246.174 42.0448L247.083 42.1755C247.083 42.1755 247.265 42.1755 247.442 41.8161C247.649 41.4854 247.892 41.1811 248.166 40.9092C248.166 40.9092 247.747 39.3868 248.047 39.1826C248.346 38.9783 248.651 37.9816 248.651 37.9816L248.891 37.505C248.891 37.505 248.325 37.2463 248.219 36.9331C248.112 36.6199 246.718 37.0366 246.718 37.0366L245.757 37.7338L244.999 38.3465L244.671 38.9974C244.671 38.9974 244.001 38.1559 243.999 38.627C243.947 39.1101 243.846 39.5858 243.696 40.0459C243.696 40.0459 243.834 40.1221 243.652 40.4871C243.47 40.852 243.272 40.8329 242.871 40.8847C242.348 40.8902 241.825 40.8528 241.308 40.773C241.308 40.773 241.047 41.7806 241.227 41.9549L241.404 42.1238C241.404 42.1238 241.125 42.8564 240.849 42.7039L240.177 42.3335L239.237 42.7311L238.195 43.9348L237.963 43.8858C237.324 39.4078 238.402 34.8472 240.963 31.1958C243.523 27.5444 247.359 25.0973 251.636 24.3867C251.696 24.6591 251.761 24.915 251.761 24.915L251.501 26.2604L251.167 26.9249L250.881 27.494L250.477 28.2947L251.511 29.2914L251.29 30.4706L250.73 30.8383L250.568 31.7234L251.529 33.6869L251.79 34.4576C251.629 34.8266 251.55 35.2287 251.558 35.6341C251.558 35.6341 251.675 36.3694 252.188 36.6608C252.702 36.9522 253.376 37.2953 253.376 37.2953L253.322 38.3847L253.09 38.657L253.475 39.8307C254.65 40.3128 254.538 40.7158 254.65 40.3128L254.765 39.9124L255.564 39.6102L256.583 40.882C256.701 40.8803 256.818 40.9099 256.923 40.9679C257.028 41.026 257.117 41.1107 257.182 41.2142C257.479 41.6064 257.943 41.2659 257.383 41.9985Z" fill="white"/>
<path d="M243.578 51.4811C243.606 51.8678 243.137 52.3525 243.137 52.3525L243.52 52.5622L243.637 53.6516L243.348 54.2289C241.299 52.3367 239.737 49.9379 238.803 47.2517L239.011 46.097L239.931 45.9609C239.931 45.9609 240.754 45.389 241.119 45.5415C241.483 45.694 241.817 46.6308 241.817 46.6308C241.817 46.6308 242.077 47.8944 242.043 47.8699H242.028H242.048L242.424 48.0769L242.53 48.5753L242.009 49.6101H241.171C241.171 49.6101 241.004 49.5176 240.988 49.9723C241.002 50.1302 241.048 50.2831 241.123 50.4208C241.198 50.5584 241.3 50.6776 241.423 50.7703L242.33 50.5279L242.572 49.5475L243.463 49.365C243.463 49.365 243.335 49.9669 243.544 50.0813L243.755 50.1984L243.88 50.9173C243.786 50.9753 243.709 51.0579 243.656 51.1568C243.603 51.2558 243.576 51.3676 243.578 51.4811Z" fill="white"/>
<path d="M247.886 53.0225C247.805 52.7883 247.771 52.5841 247.216 52.279C246.661 51.974 246.695 52.083 246.476 52.3362C246.382 52.4665 246.254 52.5651 246.106 52.6198C245.959 52.6745 245.8 52.6829 245.648 52.644C245.283 52.5595 245.474 52.9898 245.474 52.9898L245.562 54.1527L244.533 55.2148C244.851 55.4599 245.18 55.6923 245.52 55.912L245.739 55.2093L247.448 55.7322C247.086 55.6206 247.3 55.1031 247.3 55.1031L246.935 54.9016C246.935 54.9016 247.966 53.2513 247.886 53.0225Z" fill="white"/>
<path d="M258.649 46.9816L258.089 46.3906L257.448 46.6003L257.188 47.145L256.992 47.5372L257.253 48.0818L257.774 48.7436L258.071 48.1499C258.071 48.1499 258.896 48.1499 259.329 47.6515C259.761 47.1532 258.649 46.9816 258.649 46.9816Z" fill="white"/>
<path d="M257.002 44.3122L258.044 44.8841L258.086 44.6281C258.14 44.4231 258.236 44.2326 258.367 44.0699L257.57 43.1875L257.002 44.3122Z" fill="white"/>
<path d="M256.648 56.9907L256.348 56.5305L255.999 56.3398H254.934L254.327 57.5436C254.327 57.5436 253.746 57.4619 252.983 57.3911C252.219 57.3202 252.407 57.6498 252.407 57.6498L252.209 58.4069C254.135 58.6547 256.087 58.545 257.976 58.0828C257.757 57.9227 257.529 57.7755 257.294 57.6416L256.648 56.9907Z" fill="white"/>
</g>
</g>
<path d="M268.774 49.3615C268.417 50.0686 268.014 50.7492 267.568 51.3986C265.254 54.7627 261.853 57.1374 257.994 58.084C254.135 59.0306 250.079 58.4852 246.575 56.5484C246.213 56.3496 245.859 56.1372 245.52 55.9139C245.181 55.6906 244.85 55.4618 244.533 55.2167C244.147 54.9253 243.777 54.6149 243.423 54.2908C243.4 54.273 243.379 54.2529 243.36 54.2309C241.052 52.0951 239.365 49.3236 238.492 46.233C237.618 43.1423 237.594 39.8572 238.422 36.7529C239.25 33.6486 240.896 30.8504 243.173 28.6779C245.45 26.5054 248.265 25.0462 251.298 24.4671C254.33 23.888 257.457 24.2124 260.321 25.4031C263.186 26.5938 265.672 28.6028 267.496 31.2006C269.32 33.7985 270.409 36.8804 270.637 40.0942C270.865 43.308 270.224 46.5241 268.787 49.3752L268.774 49.3615Z" stroke="#7795FF" stroke-linecap="round" stroke-linejoin="round"/>
<path d="M257.976 58.0828C256.087 58.545 254.135 58.6547 252.209 58.4069L252.407 57.6498C252.407 57.6498 252.219 57.3202 252.983 57.3911C253.746 57.4619 254.327 57.5436 254.327 57.5436L254.934 56.3398H255.999L256.348 56.5305L256.648 56.9907L257.294 57.6416C257.529 57.7755 257.757 57.9227 257.976 58.0828Z" stroke="#7795FF" stroke-linecap="round" stroke-linejoin="round"/>
<path d="M268.832 33.4569C268.655 33.6203 268.369 33.6721 267.916 33.525C266.287 32.9994 265.443 34.9112 265.727 34.933C266.011 34.9547 266.212 35.8153 265.628 36.2293C265.045 36.6432 263.675 36.5016 263.766 36.9292C263.857 37.3567 264.526 38.4188 264.526 38.4188C264.526 38.4188 265.126 38.1247 265.295 38.4896C265.464 38.8546 265.657 39.8513 265.219 40.031C265.096 40.0863 264.995 40.1841 264.932 40.308C264.87 40.4318 264.85 40.5744 264.876 40.7119L263.56 40.6329L263.346 41.6487L262.539 42.3568L262.104 42.1198C262.104 42.1198 261.724 41.0795 261.356 41.7059L260.992 42.3323L260.76 42.8933C260.76 42.8933 261.705 43.1139 261.94 43.5441L262.174 43.9744L264.23 44.5763L264.388 45.1945L264.769 45.4015L264.865 46.4772L265.631 46.8966L266.412 46.9592L267.345 45.5975C267.534 45.9799 267.7 46.3747 267.84 46.7795C267.931 47.1308 267.665 48.005 267.665 48.005C267.512 48.3303 267.284 48.611 267.001 48.822C266.629 49.0208 266.173 48.4843 266.22 49.1406L266.251 49.7969L266.155 50.524L266.73 50.84L267.277 51.1422L267.595 51.4146" stroke="#7795FF" stroke-linecap="round" stroke-linejoin="round"/>
<path d="M237.982 43.8859L238.214 43.9349L239.256 42.7312L240.197 42.3336L240.869 42.704C241.145 42.8565 241.424 42.1239 241.424 42.1239L241.246 41.9551C241.067 41.7808 241.327 40.7731 241.327 40.7731C241.845 40.853 242.367 40.8903 242.89 40.8848C243.302 40.833 243.497 40.8494 243.672 40.4872C243.846 40.125 243.716 40.046 243.716 40.046C243.866 39.5859 243.967 39.1102 244.018 38.6271C244.018 38.156 244.69 38.9975 244.69 38.9975L245.018 38.3466L245.753 37.7366L246.714 37.0394C246.714 37.0394 248.108 36.62 248.215 36.936C248.321 37.2519 248.887 37.5079 248.887 37.5079L248.647 37.9844C248.647 37.9844 248.34 38.9757 248.043 39.1854C247.746 39.3951 248.162 40.912 248.162 40.912C247.888 41.1839 247.645 41.4882 247.438 41.8189C247.256 42.1838 247.079 42.1784 247.079 42.1784L246.17 42.0477C246.17 42.0477 245.128 41.2906 244.784 41.0999C244.784 41.0999 244.172 41.7835 244.234 42.1893C244.297 42.595 244.018 42.6141 244.018 42.6141L244.979 43.5264L245.136 44.0983L245.706 44.9017L245.521 45.2666L245.172 45.9584L245.328 46.7127L245.948 47.5896L246.3 48.3821L246.68 49.6648L246.803 50.3756L247.923 50.9012L248.418 50.6289L249.382 50.0842L249.837 51.0319L250.015 51.5085L249.212 52.2683L249.499 52.8865L249.59 53.5864L249.512 54.5232L249.348 55.1224L250.015 55.4927L251.205 55.313L251.161 54.3626C251.553 54.1182 251.967 53.9156 252.398 53.758C252.903 53.6082 252.854 53.6164 253.477 53.4148C254.099 53.2133 253.909 53.2678 254.209 53.1643C254.508 53.0608 254.8 52.9328 254.8 52.9328L254.821 51.947L255.316 50.155L255.62 50.3647C255.923 50.5771 256.376 49.8064 256.376 49.8064L256.589 48.4448L255.975 48.1098C255.617 48.0333 255.253 47.9878 254.888 47.9736L254.031 47.5025L253.312 46.1762C253.078 45.9095 252.877 45.612 252.716 45.2911L253.047 44.6375L253.453 43.8205L253.878 44.0547L254.268 44.2726L254.683 44.4987L255.36 44.0411L255.738 42.9355L256.259 42.4507C256.597 42.1294 256.834 42.723 256.834 42.723L257.392 41.9905C257.952 41.2579 257.488 41.5983 257.202 41.2225C257.136 41.119 257.047 41.0343 256.943 40.9762C256.838 40.9181 256.721 40.8886 256.602 40.8902L255.584 39.6184L254.774 39.9398L254.659 40.3401C254.547 40.7432 254.659 40.3401 253.484 39.8581L253.099 38.6843L253.331 38.412L253.385 37.3227C253.385 37.3227 252.711 36.9768 252.198 36.6881C251.684 36.3995 251.567 35.6614 251.567 35.6614C251.559 35.256 251.638 34.8539 251.799 34.485L251.538 33.7142L250.577 31.7507L250.739 30.8656L251.299 30.498L251.52 29.3188L250.515 28.322L250.918 27.5214L251.205 26.9522L251.538 26.2877L251.799 24.9424C251.799 24.9424 251.734 24.6918 251.674 24.4141" stroke="#7795FF" stroke-linecap="round" stroke-linejoin="round"/>
<path d="M243.436 54.2883C243.415 54.264 243.393 54.2421 243.368 54.223L243.657 53.6456L243.54 52.5563L243.157 52.3466C243.157 52.3466 243.626 51.8618 243.597 51.4751C243.592 51.3598 243.617 51.2451 243.668 51.143C243.72 51.041 243.797 50.9554 243.891 50.8951L243.766 50.1761L243.555 50.059C243.347 49.9446 243.475 49.3428 243.475 49.3428L242.584 49.5252L242.342 50.5056L241.435 50.748C241.312 50.6554 241.21 50.5362 241.135 50.3985C241.059 50.2608 241.014 50.1079 241 49.9501C241.016 49.4953 241.182 49.5879 241.182 49.5879H242.021L242.542 48.553L242.435 48.0546L242.06 47.8477" stroke="#7795FF" stroke-linecap="round" stroke-linejoin="round"/>
<path d="M242.035 47.8503C242.077 47.8748 241.809 46.6112 241.809 46.6112C241.809 46.6112 241.475 45.688 241.111 45.5219C240.746 45.3557 239.923 45.9413 239.923 45.9413L239.003 46.0774L238.795 47.2321" stroke="#7795FF" stroke-linecap="round" stroke-linejoin="round"/>
<path d="M245.737 55.2133L245.519 55.9159C245.171 55.6944 244.842 55.462 244.531 55.2187L245.56 54.1566L245.472 52.9937C245.472 52.9937 245.281 52.5634 245.646 52.6479C245.798 52.6868 245.957 52.6784 246.104 52.6237C246.252 52.569 246.38 52.4704 246.475 52.3401C246.688 52.0869 246.662 51.9779 247.214 52.2829C247.767 52.588 247.803 52.7922 247.884 53.0264C247.965 53.2606 246.933 54.9137 246.933 54.9137L247.298 55.1152C247.298 55.1152 247.084 55.6326 247.446 55.7443L245.737 55.2133Z" stroke="#7795FF" stroke-linecap="round" stroke-linejoin="round"/>
<path d="M257.449 46.5964L258.09 46.3867L258.65 46.9777C258.65 46.9777 259.757 47.1275 259.324 47.6313C258.892 48.1351 258.066 48.1297 258.066 48.1297L257.764 48.7233L257.243 48.0616L256.982 47.5169L257.178 47.1247L257.449 46.5964Z" stroke="#7795FF" stroke-linecap="round" stroke-linejoin="round"/>
<path d="M258.369 44.066C258.238 44.2287 258.142 44.4192 258.088 44.6242L258.046 44.8802L257.004 44.3083L257.572 43.1836L258.369 44.066Z" stroke="#7795FF" stroke-linecap="round" stroke-linejoin="round"/>
</svg>
