<svg width="16" height="21" viewBox="0 0 16 21" fill="none" xmlns="http://www.w3.org/2000/svg">
<path d="M6.25 0.5C5.1017 0.5 4.15285 1.38331 4.02539 2.5H2.25C1.01625 2.5 0 3.51625 0 4.75V18.25C0 19.4837 1.01625 20.5 2.25 20.5H13.75C14.9838 20.5 16 19.4837 16 18.25V4.75C16 3.51625 14.9838 2.5 13.75 2.5H11.9746C11.8471 1.38331 10.8983 0.5 9.75 0.5H6.25ZM6.25 2H9.75C10.1732 2 10.5 2.32675 10.5 2.75C10.5 3.17325 10.1732 3.5 9.75 3.5H6.25C5.82675 3.5 5.5 3.17325 5.5 2.75C5.5 2.32675 5.82675 2 6.25 2ZM2.25 4H4.38477C4.79062 4.60095 5.47736 5 6.25 5H9.75C10.5226 5 11.2094 4.60095 11.6152 4H13.75C14.1732 4 14.5 4.32675 14.5 4.75V18.25C14.5 18.6732 14.1732 19 13.75 19H2.25C1.82675 19 1.5 18.6732 1.5 18.25V4.75C1.5 4.32675 1.82675 4 2.25 4ZM10.3008 7.50488C9.73657 7.50488 9.17323 7.7174 8.74707 8.14355L4.37109 12.5195C4.27331 12.6171 4.20437 12.7398 4.17188 12.874L3.52051 15.5742C3.49032 15.6991 3.49274 15.8297 3.52753 15.9535C3.56233 16.0772 3.62833 16.1899 3.71921 16.2808C3.8101 16.3717 3.92281 16.4377 4.04653 16.4725C4.17026 16.5073 4.30085 16.5097 4.42578 16.4795L7.12598 15.8271C7.26012 15.7949 7.38278 15.7263 7.48047 15.6289L11.8555 11.2529H11.8564C12.7084 10.4002 12.7078 8.99587 11.8555 8.14355C11.4293 7.7174 10.865 7.50488 10.3008 7.50488ZM10.3008 8.99512C10.4781 8.99512 10.6556 9.06476 10.7949 9.2041C11.0736 9.48279 11.074 9.91404 10.7949 10.1934L6.56934 14.4189L5.26758 14.7324L5.58105 13.4307L9.80762 9.2041C9.94696 9.06476 10.1235 8.99512 10.3008 8.99512Z" fill="#2F55DD"/>
</svg>
