<svg width="31" height="31" viewBox="0 0 31 31" fill="none" xmlns="http://www.w3.org/2000/svg">
<rect width="30.75" height="30.75" rx="8" fill="#D4DEFF"/>
<path d="M10.2292 4C6.79852 4 4 6.79852 4 10.2292C4 13.6598 6.79852 16.4583 10.2292 16.4583C13.6598 16.4583 16.4583 13.6598 16.4583 10.2292C16.4583 6.79852 13.6598 4 10.2292 4ZM10.2292 5.625C12.7816 5.625 14.8333 7.67673 14.8333 10.2292C14.8333 12.7816 12.7816 14.8333 10.2292 14.8333C7.67673 14.8333 5.625 12.7816 5.625 10.2292C5.625 7.67673 7.67673 5.625 10.2292 5.625ZM10.2165 6.6967C10.0012 6.70006 9.796 6.78874 9.64604 6.94327C9.49608 7.0978 9.41358 7.30553 9.41667 7.52083V10.2292C9.41671 10.4446 9.50233 10.6513 9.6547 10.8036L10.738 11.887C10.8129 11.9649 10.9026 12.0272 11.0018 12.0701C11.101 12.113 11.2078 12.1356 11.3159 12.1367C11.424 12.1378 11.5312 12.1173 11.6313 12.0765C11.7314 12.0356 11.8223 11.9752 11.8988 11.8988C11.9752 11.8223 12.0356 11.7314 12.0765 11.6313C12.1173 11.5312 12.1378 11.424 12.1367 11.3159C12.1356 11.2078 12.113 11.101 12.0701 11.0018C12.0272 10.9026 11.9649 10.8129 11.887 10.738L11.0417 9.89274V7.52083C11.0432 7.41209 11.0229 7.30413 10.982 7.20337C10.9411 7.1026 10.8803 7.01108 10.8034 6.93423C10.7264 6.85737 10.6348 6.79675 10.534 6.75595C10.4332 6.71514 10.3252 6.695 10.2165 6.6967ZM16.9027 7.25C17.1323 7.7635 17.3054 8.30733 17.4115 8.875H23.2292C24.2746 8.875 25.125 9.72542 25.125 10.7708V11.5833H17.4115C17.3048 12.151 17.1318 12.6948 16.9027 13.2083H25.125V23.2292C25.125 24.2746 24.2746 25.125 23.2292 25.125H10.7708C9.72542 25.125 8.875 24.2746 8.875 23.2292V17.4115C8.30733 17.3048 7.7635 17.1318 7.25 16.9027V23.2292C7.25 25.1705 8.8295 26.75 10.7708 26.75H23.2292C25.1705 26.75 26.75 25.1705 26.75 23.2292V10.7708C26.75 8.8295 25.1705 7.25 23.2292 7.25H16.9027ZM17 15.375C16.6409 15.375 16.2964 15.5177 16.0425 15.7716C15.7885 16.0256 15.6458 16.37 15.6458 16.7292C15.6458 17.0883 15.7885 17.4328 16.0425 17.6867C16.2964 17.9407 16.6409 18.0833 17 18.0833C17.3591 18.0833 17.7036 17.9407 17.9575 17.6867C18.2115 17.4328 18.3542 17.0883 18.3542 16.7292C18.3542 16.37 18.2115 16.0256 17.9575 15.7716C17.7036 15.5177 17.3591 15.375 17 15.375ZM21.6042 15.375C21.245 15.375 20.9006 15.5177 20.6466 15.7716C20.3927 16.0256 20.25 16.37 20.25 16.7292C20.25 17.0883 20.3927 17.4328 20.6466 17.6867C20.9006 17.9407 21.245 18.0833 21.6042 18.0833C21.9633 18.0833 22.3078 17.9407 22.5617 17.6867C22.8157 17.4328 22.9583 17.0883 22.9583 16.7292C22.9583 16.37 22.8157 16.0256 22.5617 15.7716C22.3078 15.5177 21.9633 15.375 21.6042 15.375ZM12.3958 20.25C12.0367 20.25 11.6922 20.3927 11.4383 20.6466C11.1843 20.9006 11.0417 21.245 11.0417 21.6042C11.0417 21.9633 11.1843 22.3078 11.4383 22.5617C11.6922 22.8157 12.0367 22.9583 12.3958 22.9583C12.755 22.9583 13.0994 22.8157 13.3534 22.5617C13.6073 22.3078 13.75 21.9633 13.75 21.6042C13.75 21.245 13.6073 20.9006 13.3534 20.6466C13.0994 20.3927 12.755 20.25 12.3958 20.25ZM17 20.25C16.6409 20.25 16.2964 20.3927 16.0425 20.6466C15.7885 20.9006 15.6458 21.245 15.6458 21.6042C15.6458 21.9633 15.7885 22.3078 16.0425 22.5617C16.2964 22.8157 16.6409 22.9583 17 22.9583C17.3591 22.9583 17.7036 22.8157 17.9575 22.5617C18.2115 22.3078 18.3542 21.9633 18.3542 21.6042C18.3542 21.245 18.2115 20.9006 17.9575 20.6466C17.7036 20.3927 17.3591 20.25 17 20.25Z" fill="#5B5B5B"/>
</svg>
