<svg width="36" height="36" viewBox="0 0 36 36" fill="none" xmlns="http://www.w3.org/2000/svg">
<path d="M7.875 3.75C7.25325 3.75 6.75 4.25325 6.75 4.875V5.3877C4.60877 5.90049 3 7.8336 3 10.125V25.875C3 28.554 5.19605 30.75 7.875 30.75H28.125C30.804 30.75 33 28.554 33 25.875V10.125C33 7.44605 30.804 5.25 28.125 5.25H14.25V4.875C14.25 4.25325 13.7467 3.75 13.125 3.75H7.875ZM7.875 7.5H28.125C29.5875 7.5 30.75 8.66245 30.75 10.125V25.875C30.75 27.3375 29.5875 28.5 28.125 28.5H7.875C6.41245 28.5 5.25 27.3375 5.25 25.875V10.125C5.25 8.66245 6.41245 7.5 7.875 7.5ZM9.375 11.25C9.22592 11.2479 9.07792 11.2754 8.93958 11.331C8.80124 11.3866 8.67533 11.4691 8.56916 11.5738C8.46299 11.6785 8.37869 11.8032 8.32115 11.9408C8.26361 12.0783 8.23398 12.2259 8.23398 12.375C8.23398 12.5241 8.26361 12.6717 8.32115 12.8092C8.37869 12.9468 8.46299 13.0715 8.56916 13.1762C8.67533 13.2809 8.80124 13.3634 8.93958 13.419C9.07792 13.4746 9.22592 13.5021 9.375 13.5H11.625C11.7741 13.5021 11.9221 13.4746 12.0604 13.419C12.1988 13.3634 12.3247 13.2809 12.4308 13.1762C12.537 13.0715 12.6213 12.9468 12.6789 12.8092C12.7364 12.6717 12.766 12.5241 12.766 12.375C12.766 12.2259 12.7364 12.0783 12.6789 11.9408C12.6213 11.8032 12.537 11.6785 12.4308 11.5738C12.3247 11.4691 12.1988 11.3866 12.0604 11.331C11.9221 11.2754 11.7741 11.2479 11.625 11.25H9.375ZM21 11.25C17.2854 11.25 14.25 14.2854 14.25 18C14.25 21.7146 17.2854 24.75 21 24.75C24.7146 24.75 27.75 21.7146 27.75 18C27.75 14.2854 24.7146 11.25 21 11.25ZM21 13.5C23.4986 13.5 25.5 15.5014 25.5 18C25.5 20.4986 23.4986 22.5 21 22.5C18.5014 22.5 16.5 20.4986 16.5 18C16.5 15.5014 18.5014 13.5 21 13.5Z" fill="#5B5B5B"/>
</svg>
