<svg width="14" height="14" viewBox="0 0 14 14" fill="none" xmlns="http://www.w3.org/2000/svg">
<path d="M11.5167 2.03528C11.4011 2.03801 11.2914 2.08634 11.2113 2.16972L6.99982 6.38123L2.78832 2.16972C2.74754 2.12772 2.69874 2.09434 2.64483 2.07154C2.59091 2.04874 2.53297 2.03699 2.47443 2.03699C2.38736 2.03701 2.30228 2.06301 2.23007 2.11165C2.15786 2.1603 2.10181 2.22939 2.06908 2.31007C2.03635 2.39076 2.02844 2.47937 2.04636 2.56458C2.06428 2.64978 2.10721 2.7277 2.16966 2.78837L6.38117 6.99988L2.16966 11.2114C2.12768 11.2517 2.09416 11.3 2.07106 11.3534C2.04797 11.4068 2.03577 11.4643 2.03518 11.5226C2.03459 11.5808 2.04561 11.6385 2.06762 11.6924C2.08962 11.7463 2.12215 11.7952 2.16331 11.8364C2.20447 11.8776 2.25343 11.9101 2.30732 11.9321C2.36121 11.9541 2.41894 11.9651 2.47715 11.9645C2.53535 11.9639 2.59285 11.9517 2.64629 11.9286C2.69972 11.9055 2.748 11.872 2.78832 11.83L6.99982 7.61853L11.2113 11.83C11.2516 11.872 11.2999 11.9055 11.3534 11.9286C11.4068 11.9517 11.4643 11.9639 11.5225 11.9645C11.5807 11.9651 11.6384 11.9541 11.6923 11.9321C11.7462 11.9101 11.7952 11.8776 11.8363 11.8364C11.8775 11.7952 11.91 11.7463 11.932 11.6924C11.954 11.6385 11.9651 11.5808 11.9645 11.5226C11.9639 11.4643 11.9517 11.4068 11.9286 11.3534C11.9055 11.3 11.872 11.2517 11.83 11.2114L7.61848 6.99988L11.83 2.78837C11.8936 2.72731 11.9373 2.64845 11.9553 2.56212C11.9733 2.4758 11.9649 2.38605 11.931 2.30463C11.8971 2.22321 11.8394 2.15393 11.7655 2.10586C11.6916 2.0578 11.6048 2.0332 11.5167 2.03528Z" fill="#E63737"/>
</svg>
