<svg width="24" height="24" viewBox="0 0 24 24" fill="none" xmlns="http://www.w3.org/2000/svg">
<circle cx="12" cy="12" r="11.5" stroke="black"/>
<path d="M11.9914 4.86726C11.8424 4.86958 11.7003 4.93098 11.5965 5.03796C11.4927 5.14494 11.4356 5.28875 11.4377 5.43781V11.4378H5.4377C5.36316 11.4368 5.28916 11.4505 5.21999 11.4783C5.15082 11.5061 5.08786 11.5474 5.03478 11.5997C4.9817 11.6521 4.93954 11.7144 4.91077 11.7832C4.882 11.852 4.86719 11.9258 4.86719 12.0003C4.86719 12.0749 4.882 12.1487 4.91077 12.2174C4.93954 12.2862 4.9817 12.3486 5.03478 12.4009C5.08786 12.4532 5.15082 12.4945 5.21999 12.5223C5.28916 12.5501 5.36316 12.5639 5.4377 12.5628H11.4377V18.5628C11.4366 18.6374 11.4504 18.7114 11.4782 18.7805C11.506 18.8497 11.5473 18.9126 11.5996 18.9657C11.6519 19.0188 11.7143 19.061 11.7831 19.0897C11.8519 19.1185 11.9257 19.1333 12.0002 19.1333C12.0747 19.1333 12.1485 19.1185 12.2173 19.0897C12.2861 19.061 12.3485 19.0188 12.4008 18.9657C12.4531 18.9126 12.4944 18.8497 12.5222 18.7805C12.55 18.7114 12.5638 18.6374 12.5627 18.5628V12.5628H18.5627C18.6372 12.5639 18.7112 12.5501 18.7804 12.5223C18.8496 12.4945 18.9125 12.4532 18.9656 12.4009C19.0187 12.3486 19.0609 12.2862 19.0896 12.2174C19.1184 12.1487 19.1332 12.0749 19.1332 12.0003C19.1332 11.9258 19.1184 11.852 19.0896 11.7832C19.0609 11.7144 19.0187 11.6521 18.9656 11.5997C18.9125 11.5474 18.8496 11.5061 18.7804 11.4783C18.7112 11.4505 18.6372 11.4368 18.5627 11.4378H12.5627V5.43781C12.5638 5.36253 12.5497 5.28779 12.5214 5.21803C12.4931 5.14827 12.451 5.08491 12.3977 5.0317C12.3445 4.97849 12.281 4.93652 12.2112 4.90828C12.1415 4.88003 12.0667 4.86608 11.9914 4.86726Z" fill="#050505"/>
</svg>
