<svg width="36" height="36" viewBox="0 0 36 36" fill="none" xmlns="http://www.w3.org/2000/svg">
<circle cx="18" cy="18" r="18" fill="#2F55DD"/>
<rect x="6" y="6" width="24" height="24" rx="2" fill="#2F55DD"/>
<path d="M16.25 7.5C15.1017 7.5 14.1529 8.38331 14.0254 9.5H12.25C11.0162 9.5 10 10.5162 10 11.75V25.25C10 26.4837 11.0162 27.5 12.25 27.5H23.75C24.9838 27.5 26 26.4837 26 25.25V11.75C26 10.5162 24.9838 9.5 23.75 9.5H21.9746C21.8471 8.38331 20.8983 7.5 19.75 7.5H16.25ZM16.25 9H19.75C20.1732 9 20.5 9.32675 20.5 9.75C20.5 10.1732 20.1732 10.5 19.75 10.5H16.25C15.8268 10.5 15.5 10.1732 15.5 9.75C15.5 9.32675 15.8268 9 16.25 9ZM12.25 11H14.3848C14.7906 11.6009 15.4774 12 16.25 12H19.75C20.5226 12 21.2094 11.6009 21.6152 11H23.75C24.1732 11 24.5 11.3268 24.5 11.75V25.25C24.5 25.6732 24.1732 26 23.75 26H12.25C11.8268 26 11.5 25.6732 11.5 25.25V11.75C11.5 11.3268 11.8268 11 12.25 11ZM20.3008 14.5049C19.7366 14.5049 19.1732 14.7174 18.7471 15.1436L14.3711 19.5195C14.2733 19.6171 14.2044 19.7398 14.1719 19.874L13.5205 22.5742C13.4903 22.6991 13.4927 22.8297 13.5275 22.9535C13.5623 23.0772 13.6283 23.1899 13.7192 23.2808C13.8101 23.3717 13.9228 23.4377 14.0465 23.4725C14.1703 23.5073 14.3009 23.5097 14.4258 23.4795L17.126 22.8271C17.2601 22.7949 17.3828 22.7263 17.4805 22.6289L21.8555 18.2529H21.8564C22.7084 17.4002 22.7078 15.9959 21.8555 15.1436C21.4293 14.7174 20.865 14.5049 20.3008 14.5049ZM20.3008 15.9951C20.4781 15.9951 20.6556 16.0648 20.7949 16.2041C21.0736 16.4828 21.074 16.914 20.7949 17.1934L16.5693 21.4189L15.2676 21.7324L15.5811 20.4307L19.8076 16.2041C19.947 16.0648 20.1235 15.9951 20.3008 15.9951Z" fill="white"/>
</svg>
