<svg width="22" height="21" viewBox="0 0 22 21" fill="none" xmlns="http://www.w3.org/2000/svg">
<path d="M10.6667 0.5C9.66667 0.5 8.81537 0.92063 8.26875 1.5612C7.72213 2.20177 7.46667 3.02315 7.46667 3.83333C7.46667 4.64352 7.72213 5.4649 8.26875 6.10547C8.81537 6.74604 9.66667 7.16667 10.6667 7.16667C11.6667 7.16667 12.518 6.74604 13.0646 6.10547C13.6112 5.4649 13.8667 4.64352 13.8667 3.83333C13.8667 3.02315 13.6112 2.20177 13.0646 1.5612C12.518 0.92063 11.6667 0.5 10.6667 0.5ZM3.73333 1.61111C2.91111 1.61111 2.19315 1.9623 1.73542 2.4987C1.27769 3.0351 1.06667 3.71759 1.06667 4.38889C1.06667 5.06019 1.27769 5.74268 1.73542 6.27908C2.19315 6.81548 2.91111 7.16667 3.73333 7.16667C4.55556 7.16667 5.27352 6.81548 5.73125 6.27908C6.18898 5.74268 6.4 5.06019 6.4 4.38889C6.4 3.71759 6.18898 3.0351 5.73125 2.4987C5.27352 1.9623 4.55556 1.61111 3.73333 1.61111ZM17.6 1.61111C16.7778 1.61111 16.0598 1.9623 15.6021 2.4987C15.1444 3.0351 14.9333 3.71759 14.9333 4.38889C14.9333 5.06019 15.1444 5.74268 15.6021 6.27908C16.0598 6.81548 16.7778 7.16667 17.6 7.16667C18.4222 7.16667 19.1402 6.81548 19.5979 6.27908C20.0556 5.74268 20.2667 5.06019 20.2667 4.38889C20.2667 3.71759 20.0556 3.0351 19.5979 2.4987C19.1402 1.9623 18.4222 1.61111 17.6 1.61111ZM10.6667 2.16667C11.2667 2.16667 11.6154 2.37104 11.8688 2.66797C12.1221 2.9649 12.2667 3.39352 12.2667 3.83333C12.2667 4.27315 12.1221 4.70177 11.8688 4.9987C11.6154 5.29563 11.2667 5.5 10.6667 5.5C10.0667 5.5 9.71797 5.29563 9.46458 4.9987C9.2112 4.70177 9.06667 4.27315 9.06667 3.83333C9.06667 3.39352 9.2112 2.9649 9.46458 2.66797C9.71797 2.37104 10.0667 2.16667 10.6667 2.16667ZM3.73333 3.27778C4.15556 3.27778 4.37092 3.4127 4.53542 3.60547C4.69991 3.79823 4.8 4.08796 4.8 4.38889C4.8 4.68982 4.69991 4.97954 4.53542 5.17231C4.37092 5.36507 4.15556 5.5 3.73333 5.5C3.31111 5.5 3.09574 5.36507 2.93125 5.17231C2.76676 4.97954 2.66667 4.68982 2.66667 4.38889C2.66667 4.08796 2.76676 3.79823 2.93125 3.60547C3.09574 3.4127 3.31111 3.27778 3.73333 3.27778ZM17.6 3.27778C18.0222 3.27778 18.2376 3.4127 18.4021 3.60547C18.5666 3.79823 18.6667 4.08796 18.6667 4.38889C18.6667 4.68982 18.5666 4.97954 18.4021 5.17231C18.2376 5.36507 18.0222 5.5 17.6 5.5C17.1778 5.5 16.9624 5.36507 16.7979 5.17231C16.6334 4.97954 16.5333 4.68982 16.5333 4.38889C16.5333 4.08796 16.6334 3.79823 16.7979 3.60547C16.9624 3.4127 17.1778 3.27778 17.6 3.27778ZM1.86667 8.27778C0.837333 8.27778 0 9.15 0 10.2222V13.8333C0 16.2833 1.91467 18.2778 4.26667 18.2778C4.64533 18.2778 5.01363 18.228 5.36563 18.128C5.14163 17.628 4.97608 17.0941 4.88542 16.533C4.68808 16.583 4.48 16.6111 4.26667 16.6111C2.79467 16.6111 1.6 15.3667 1.6 13.8333V10.2222C1.6 10.0667 1.71733 9.94444 1.86667 9.94444H4.81563C4.86896 9.31111 5.10388 8.73889 5.47188 8.27778H1.86667ZM7.73333 8.27778C6.71202 8.27778 5.86667 9.15836 5.86667 10.2222V15.5C5.86667 18.2515 8.02522 20.5 10.6667 20.5C13.3081 20.5 15.4667 18.2515 15.4667 15.5V10.2222C15.4667 9.15836 14.6213 8.27778 13.6 8.27778H7.73333ZM15.8615 8.27778C16.2295 8.73889 16.4644 9.31111 16.5177 9.94444H19.4667C19.616 9.94444 19.7333 10.0667 19.7333 10.2222V13.8333C19.7333 15.3667 18.5387 16.6111 17.0667 16.6111C16.8533 16.6111 16.6453 16.583 16.4479 16.533C16.3573 17.0941 16.1917 17.628 15.9677 18.128C16.3197 18.228 16.688 18.2778 17.0667 18.2778C19.4187 18.2778 21.3333 16.2833 21.3333 13.8333V10.2222C21.3333 9.15 20.496 8.27778 19.4667 8.27778H15.8615ZM7.73333 9.94444H13.6C13.7574 9.94444 13.8667 10.0583 13.8667 10.2222V15.5C13.8667 17.3507 12.4434 18.8333 10.6667 18.8333C8.88998 18.8333 7.46667 17.3507 7.46667 15.5V10.2222C7.46667 10.0583 7.57598 9.94444 7.73333 9.94444Z" fill="white"/>
</svg>
