<svg width="30" height="30" viewBox="0 0 30 30" fill="none" xmlns="http://www.w3.org/2000/svg">
<rect width="30" height="30" rx="8" fill="#E0E6FF"/>
<path d="M12.8125 1.875C11.3771 1.875 10.1911 2.97914 10.0317 4.375H7.8125C6.27031 4.375 5 5.64531 5 7.1875V24.0625C5 25.6047 6.27031 26.875 7.8125 26.875H22.1875C23.7297 26.875 25 25.6047 25 24.0625V7.1875C25 5.64531 23.7297 4.375 22.1875 4.375H19.9683C19.8089 2.97914 18.6229 1.875 17.1875 1.875H12.8125ZM12.8125 3.75H17.1875C17.7166 3.75 18.125 4.15844 18.125 4.6875C18.125 5.21656 17.7166 5.625 17.1875 5.625H12.8125C12.2834 5.625 11.875 5.21656 11.875 4.6875C11.875 4.15844 12.2834 3.75 12.8125 3.75ZM7.8125 6.25H10.481C10.9883 7.00119 11.8467 7.5 12.8125 7.5H17.1875C18.1533 7.5 19.0117 7.00119 19.519 6.25H22.1875C22.7166 6.25 23.125 6.65844 23.125 7.1875V24.0625C23.125 24.5916 22.7166 25 22.1875 25H7.8125C7.28344 25 6.875 24.5916 6.875 24.0625V7.1875C6.875 6.65844 7.28344 6.25 7.8125 6.25ZM10.3125 10.625C10.1883 10.6232 10.0649 10.6462 9.94965 10.6925C9.83436 10.7388 9.72944 10.8076 9.64097 10.8949C9.5525 10.9821 9.48224 11.086 9.43429 11.2006C9.38634 11.3153 9.36165 11.4383 9.36165 11.5625C9.36165 11.6867 9.38634 11.8097 9.43429 11.9244C9.48224 12.039 9.5525 12.1429 9.64097 12.2301C9.72944 12.3174 9.83436 12.3862 9.94965 12.4325C10.0649 12.4788 10.1883 12.5018 10.3125 12.5H19.6875C19.8117 12.5018 19.9351 12.4788 20.0504 12.4325C20.1656 12.3862 20.2706 12.3174 20.359 12.2301C20.4475 12.1429 20.5178 12.039 20.5657 11.9244C20.6137 11.8097 20.6384 11.6867 20.6384 11.5625C20.6384 11.4383 20.6137 11.3153 20.5657 11.2006C20.5178 11.086 20.4475 10.9821 20.359 10.8949C20.2706 10.8076 20.1656 10.7388 20.0504 10.6925C19.9351 10.6462 19.8117 10.6232 19.6875 10.625H10.3125ZM10.3125 15.625C10.1883 15.6232 10.0649 15.6462 9.94965 15.6925C9.83436 15.7388 9.72944 15.8076 9.64097 15.8949C9.5525 15.9821 9.48224 16.086 9.43429 16.2006C9.38634 16.3153 9.36165 16.4383 9.36165 16.5625C9.36165 16.6867 9.38634 16.8097 9.43429 16.9244C9.48224 17.039 9.5525 17.1429 9.64097 17.2301C9.72944 17.3174 9.83436 17.3862 9.94965 17.4325C10.0649 17.4788 10.1883 17.5018 10.3125 17.5H14.6875C14.8117 17.5018 14.9351 17.4788 15.0504 17.4325C15.1656 17.3862 15.2706 17.3174 15.359 17.2301C15.4475 17.1429 15.5178 17.039 15.5657 16.9244C15.6137 16.8097 15.6384 16.6867 15.6384 16.5625C15.6384 16.4383 15.6137 16.3153 15.5657 16.2006C15.5178 16.086 15.4475 15.9821 15.359 15.8949C15.2706 15.8076 15.1656 15.7388 15.0504 15.6925C14.9351 15.6462 14.8117 15.6232 14.6875 15.625H10.3125ZM10.3125 20.625C10.1883 20.6232 10.0649 20.6462 9.94965 20.6925C9.83436 20.7388 9.72944 20.8076 9.64097 20.8948C9.5525 20.9821 9.48224 21.086 9.43429 21.2006C9.38634 21.3153 9.36165 21.4383 9.36165 21.5625C9.36165 21.6867 9.38634 21.8097 9.43429 21.9244C9.48224 22.039 9.5525 22.1429 9.64097 22.2302C9.72944 22.3174 9.83436 22.3862 9.94965 22.4325C10.0649 22.4788 10.1883 22.5018 10.3125 22.5H17.1875C17.3117 22.5018 17.4351 22.4788 17.5504 22.4325C17.6656 22.3862 17.7706 22.3174 17.859 22.2302C17.9475 22.1429 18.0178 22.039 18.0657 21.9244C18.1137 21.8097 18.1384 21.6867 18.1384 21.5625C18.1384 21.4383 18.1137 21.3153 18.0657 21.2006C18.0178 21.086 17.9475 20.9821 17.859 20.8948C17.7706 20.8076 17.6656 20.7388 17.5504 20.6925C17.4351 20.6462 17.3117 20.6232 17.1875 20.625H10.3125Z" fill="#414141"/>
</svg>
