<svg width="31" height="31" viewBox="0 0 31 31" fill="none" xmlns="http://www.w3.org/2000/svg">
<rect y="0.125" width="30.75" height="30.75" rx="8" fill="#D4DEFF"/>
<path d="M11.8516 2.04697C11.7242 2.04517 11.5978 2.0687 11.4796 2.11618C11.3615 2.16366 11.2539 2.23416 11.1632 2.32357C11.0726 2.41298 11.0005 2.51952 10.9514 2.637C10.9022 2.75448 10.8769 2.88056 10.8769 3.00791C10.8769 3.13526 10.9022 3.26134 10.9514 3.37882C11.0005 3.4963 11.0726 3.60284 11.1632 3.69225C11.2539 3.78166 11.3615 3.85215 11.4796 3.89964C11.5978 3.94712 11.7242 3.97065 11.8516 3.96885H18.8984C19.0258 3.97065 19.1522 3.94712 19.2704 3.89964C19.3885 3.85215 19.4961 3.78166 19.5868 3.69225C19.6774 3.60284 19.7495 3.4963 19.7986 3.37882C19.8478 3.26134 19.8731 3.13526 19.8731 3.00791C19.8731 2.88056 19.8478 2.75448 19.7986 2.637C19.7495 2.51952 19.6774 2.41298 19.5868 2.32357C19.4961 2.23416 19.3885 2.16366 19.2704 2.11618C19.1522 2.0687 19.0258 2.04517 18.8984 2.04697H11.8516ZM24.4188 4.59946C24.2274 4.60189 24.041 4.66146 23.8836 4.77051C23.7263 4.87957 23.6051 5.03314 23.5356 5.21154C23.4661 5.38994 23.4514 5.58504 23.4935 5.77181C23.5357 5.95859 23.6326 6.12852 23.7719 6.25983L25.2747 7.72126C25.3651 7.80934 25.472 7.87875 25.5893 7.92552C25.7066 7.97228 25.8319 7.99549 25.9582 7.99381C26.0844 7.99213 26.2091 7.9656 26.3251 7.91574C26.4411 7.86587 26.5461 7.79365 26.6342 7.70319C26.7223 7.61273 26.7917 7.5058 26.8384 7.38852C26.8852 7.27124 26.9084 7.1459 26.9067 7.01965C26.905 6.89341 26.8784 6.76873 26.8286 6.65274C26.7787 6.53676 26.7064 6.43173 26.616 6.34366L25.112 4.88099C25.0212 4.7901 24.913 4.71836 24.7939 4.67C24.6749 4.62164 24.5473 4.59766 24.4188 4.59946ZM15.375 5.2501C9.01785 5.2501 3.84375 10.4242 3.84375 16.7813C3.84375 23.1385 9.01785 28.3126 15.375 28.3126C21.7322 28.3126 26.9062 23.1385 26.9062 16.7813C26.9062 10.4242 21.7322 5.2501 15.375 5.2501ZM15.375 7.17197C20.6935 7.17197 24.9844 11.4629 24.9844 16.7813C24.9844 22.0998 20.6935 26.3907 15.375 26.3907C10.0565 26.3907 5.76562 22.0998 5.76562 16.7813C5.76562 11.4629 10.0565 7.17197 15.375 7.17197ZM15.36 9.08008C15.1053 9.08406 14.8627 9.18895 14.6853 9.3717C14.508 9.55446 14.4104 9.80014 14.4141 10.0548V17.1017C14.4123 17.229 14.4358 17.3554 14.4833 17.4736C14.5308 17.5917 14.6012 17.6993 14.6907 17.79C14.7801 17.8807 14.8866 17.9527 15.0041 18.0018C15.1216 18.051 15.2477 18.0763 15.375 18.0763C15.5023 18.0763 15.6284 18.051 15.7459 18.0018C15.8634 17.9527 15.9699 17.8807 16.0593 17.79C16.1488 17.6993 16.2192 17.5917 16.2667 17.4736C16.3142 17.3554 16.3377 17.229 16.3359 17.1017V10.0548C16.3378 9.92617 16.3138 9.79849 16.2654 9.67932C16.217 9.56015 16.1451 9.45191 16.0541 9.36101C15.9631 9.27011 15.8548 9.19841 15.7355 9.15016C15.6163 9.1019 15.4886 9.07807 15.36 9.08008Z" fill="#5B5B5B"/>
</svg>
