<svg width="36" height="36" viewBox="0 0 36 36" fill="none" xmlns="http://www.w3.org/2000/svg">
<path d="M29.603 4.48968C29.5628 4.49095 29.5227 4.49437 29.4829 4.49993H23.625C23.4759 4.49782 23.3279 4.52536 23.1896 4.58095C23.0512 4.63655 22.9253 4.71908 22.8192 4.82375C22.713 4.92843 22.6287 5.05316 22.5711 5.1907C22.5136 5.32824 22.484 5.47584 22.484 5.62493C22.484 5.77402 22.5136 5.92163 22.5711 6.05917C22.6287 6.1967 22.713 6.32144 22.8192 6.42611C22.9253 6.53079 23.0512 6.61332 23.1896 6.66891C23.3279 6.7245 23.4759 6.75204 23.625 6.74993H26.9092L22.4092 11.2499H19.875C19.6806 11.2498 19.4895 11.3001 19.3203 11.3959C19.1511 11.4917 19.0097 11.6296 18.9097 11.7963L16.9878 14.9999H13.875C13.6806 14.9999 13.4895 15.0501 13.3203 15.1459C13.1511 15.2417 13.0097 15.3796 12.9097 15.5463L10.9878 18.7499H7.875C7.6806 18.7498 7.4895 18.8001 7.32032 18.8959C7.15114 18.9917 7.00966 19.1296 6.90967 19.2963L4.65967 23.0463C4.58367 23.1731 4.5334 23.3136 4.5117 23.4598C4.49001 23.606 4.49732 23.755 4.53323 23.8984C4.56914 24.0418 4.63293 24.1767 4.72098 24.2954C4.80902 24.4141 4.91958 24.5143 5.04636 24.5903C5.17313 24.6663 5.31363 24.7166 5.45983 24.7383C5.60603 24.7599 5.75508 24.7526 5.89845 24.7167C6.04182 24.6808 6.17672 24.617 6.29543 24.5289C6.41414 24.4409 6.51435 24.3303 6.59033 24.2035L8.51221 20.9999H11.625C11.8194 21 12.0105 20.9497 12.1797 20.854C12.3489 20.7582 12.4903 20.6203 12.5903 20.4535L14.5122 17.2499H17.625C17.8194 17.25 18.0105 17.1997 18.1797 17.104C18.3489 17.0082 18.4903 16.8703 18.5903 16.7035L20.5122 13.4999H22.875C23.1733 13.4999 23.4595 13.3813 23.6704 13.1703L28.5 8.34075V11.6249C28.4979 11.774 28.5254 11.922 28.581 12.0604C28.6366 12.1987 28.7191 12.3246 28.8238 12.4308C28.9285 12.5369 29.0532 12.6212 29.1908 12.6788C29.3283 12.7363 29.4759 12.766 29.625 12.766C29.7741 12.766 29.9217 12.7363 30.0592 12.6788C30.1968 12.6212 30.3215 12.5369 30.4262 12.4308C30.5309 12.3246 30.6134 12.1987 30.669 12.0604C30.7246 11.922 30.7521 11.774 30.75 11.6249V5.7553C30.7703 5.59434 30.7556 5.43089 30.7068 5.27615C30.658 5.12141 30.5764 4.97905 30.4674 4.85884C30.3585 4.73862 30.2248 4.64338 30.0756 4.57966C29.9264 4.51594 29.7652 4.48525 29.603 4.48968ZM29.6074 14.9838C29.3093 14.9885 29.0252 15.1113 28.8176 15.3252C28.6099 15.5392 28.4957 15.8268 28.5 16.1249V30.3749C28.4979 30.524 28.5254 30.672 28.581 30.8104C28.6366 30.9487 28.7191 31.0746 28.8238 31.1808C28.9285 31.2869 29.0532 31.3712 29.1908 31.4288C29.3283 31.4863 29.4759 31.516 29.625 31.516C29.7741 31.516 29.9217 31.4863 30.0592 31.4288C30.1968 31.3712 30.3215 31.2869 30.4262 31.1808C30.5309 31.0746 30.6134 30.9487 30.669 30.8104C30.7246 30.672 30.7521 30.524 30.75 30.3749V16.1249C30.7522 15.9744 30.7241 15.8249 30.6674 15.6854C30.6107 15.5458 30.5266 15.4191 30.4201 15.3127C30.3135 15.2063 30.1867 15.1224 30.0471 15.0659C29.9075 15.0094 29.758 14.9815 29.6074 14.9838ZM23.6074 16.4838C23.3093 16.4885 23.0252 16.6113 22.8176 16.8252C22.6099 17.0392 22.4957 17.3268 22.5 17.6249V30.3749C22.4979 30.524 22.5254 30.672 22.581 30.8104C22.6366 30.9487 22.7191 31.0746 22.8238 31.1808C22.9285 31.2869 23.0532 31.3712 23.1908 31.4288C23.3283 31.4863 23.4759 31.516 23.625 31.516C23.7741 31.516 23.9217 31.4863 24.0592 31.4288C24.1968 31.3712 24.3215 31.2869 24.4262 31.1808C24.5309 31.0746 24.6134 30.9487 24.669 30.8104C24.7246 30.672 24.7521 30.524 24.75 30.3749V17.6249C24.7522 17.4744 24.7241 17.3249 24.6674 17.1854C24.6107 17.0458 24.5266 16.9191 24.4201 16.8127C24.3135 16.7063 24.1867 16.6224 24.0471 16.5659C23.9075 16.5094 23.758 16.4815 23.6074 16.4838ZM17.6074 19.4838C17.3093 19.4885 17.0252 19.6113 16.8176 19.8252C16.61 20.0392 16.4957 20.3268 16.5 20.6249V30.3749C16.4979 30.524 16.5254 30.672 16.581 30.8104C16.6366 30.9487 16.7191 31.0746 16.8238 31.1808C16.9285 31.2869 17.0532 31.3712 17.1908 31.4288C17.3283 31.4863 17.4759 31.516 17.625 31.516C17.7741 31.516 17.9217 31.4863 18.0592 31.4288C18.1968 31.3712 18.3215 31.2869 18.4262 31.1808C18.5309 31.0746 18.6134 30.9487 18.669 30.8104C18.7246 30.672 18.7521 30.524 18.75 30.3749V20.6249C18.7522 20.4744 18.7241 20.3249 18.6674 20.1854C18.6107 20.0458 18.5266 19.9191 18.4201 19.8127C18.3135 19.7063 18.1867 19.6224 18.0471 19.5659C17.9075 19.5094 17.758 19.4815 17.6074 19.4838ZM11.6074 23.2338C11.3093 23.2385 11.0252 23.3613 10.8176 23.5752C10.61 23.7892 10.4957 24.0768 10.5 24.3749V30.3749C10.4979 30.524 10.5254 30.672 10.581 30.8104C10.6366 30.9487 10.7191 31.0746 10.8238 31.1808C10.9285 31.2869 11.0532 31.3712 11.1908 31.4288C11.3283 31.4863 11.4759 31.516 11.625 31.516C11.7741 31.516 11.9217 31.4863 12.0592 31.4288C12.1968 31.3712 12.3215 31.2869 12.4262 31.1808C12.5309 31.0746 12.6134 30.9487 12.669 30.8104C12.7246 30.672 12.7521 30.524 12.75 30.3749V24.3749C12.7522 24.2244 12.7241 24.0749 12.6674 23.9354C12.6107 23.7958 12.5266 23.6691 12.4201 23.5627C12.3135 23.4563 12.1867 23.3723 12.0471 23.3159C11.9075 23.2594 11.758 23.2315 11.6074 23.2338ZM5.60742 27.7338C5.30931 27.7385 5.02523 27.8613 4.81759 28.0752C4.60995 28.2892 4.49572 28.5768 4.5 28.8749V30.3749C4.49789 30.524 4.52543 30.672 4.58102 30.8104C4.63661 30.9487 4.71914 31.0746 4.82382 31.1808C4.92849 31.2869 5.05323 31.3712 5.19077 31.4288C5.3283 31.4863 5.47591 31.516 5.625 31.516C5.77409 31.516 5.92169 31.4863 6.05923 31.4288C6.19677 31.3712 6.3215 31.2869 6.42618 31.1808C6.53085 31.0746 6.61339 30.9487 6.66898 30.8104C6.72457 30.672 6.75211 30.524 6.75 30.3749V28.8749C6.75216 28.7244 6.72407 28.5749 6.6674 28.4354C6.61072 28.2958 6.52662 28.1691 6.42007 28.0627C6.31352 27.9563 6.18669 27.8724 6.0471 27.8159C5.9075 27.7594 5.75799 27.7315 5.60742 27.7338Z" fill="white"/>
</svg>
