<svg width="26" height="12" viewBox="0 0 26 12" fill="none" xmlns="http://www.w3.org/2000/svg">
<path d="M6.00496 -0.0078125C2.78609 -0.0078125 0.175781 2.6025 0.175781 5.82137C0.175781 9.04024 2.78609 11.6506 6.00496 11.6506H10.6683V9.31888H6.00496C4.07317 9.31888 2.50745 7.75316 2.50745 5.82137C2.50745 3.88958 4.07317 2.32386 6.00496 2.32386H10.6683V-0.0078125H6.00496ZM15.3317 -0.0078125V2.32386H19.995C21.9268 2.32386 23.4925 3.88958 23.4925 5.82137C23.4925 7.75316 21.9268 9.31888 19.995 9.31888H15.3317V11.6506H19.995C23.2139 11.6506 25.8242 9.04024 25.8242 5.82137C25.8242 2.6025 23.2139 -0.0078125 19.995 -0.0078125H15.3317ZM7.1708 4.65553V6.98721H18.8292V4.65553H7.1708Z" fill="#5B5B5B"/>
</svg>
