<svg width="29" height="27" viewBox="0 0 29 27" fill="none" xmlns="http://www.w3.org/2000/svg">
<path d="M9.32673 8.99414C6.83909 8.99414 4.82178 11.0115 4.82178 13.4991C4.82178 15.9867 6.83909 18.004 9.32673 18.004H12.9307V16.2021H9.32673C7.83379 16.2021 6.62376 14.992 6.62376 13.4991C6.62376 12.0062 7.83379 10.7961 9.32673 10.7961H12.9307V8.99414H9.32673ZM16.5346 8.99414V10.7961H20.1386C21.6315 10.7961 22.8416 12.0062 22.8416 13.4991C22.8416 14.992 21.6315 16.2021 20.1386 16.2021H16.5346V18.004H20.1386C22.6262 18.004 24.6436 15.9867 24.6436 13.4991C24.6436 11.0115 22.6262 8.99414 20.1386 8.99414H16.5346ZM10.2277 12.5981V14.4001H19.2376V12.5981H10.2277Z" fill="#5B5B5B"/>
</svg>
