<svg width="28" height="26" viewBox="0 0 28 26" fill="none" xmlns="http://www.w3.org/2000/svg">
<rect width="27.8218" height="26" rx="8" fill="#D4DEFF"/>
<path d="M8.50495 8.49414C6.01732 8.49414 4 10.5115 4 12.9991C4 15.4867 6.01732 17.504 8.50495 17.504H12.1089V15.7021H8.50495C7.01201 15.7021 5.80198 14.492 5.80198 12.9991C5.80198 11.5062 7.01201 10.2961 8.50495 10.2961H12.1089V8.49414H8.50495ZM15.7129 8.49414V10.2961H19.3168C20.8098 10.2961 22.0198 11.5062 22.0198 12.9991C22.0198 14.492 20.8098 15.7021 19.3168 15.7021H15.7129V17.504H19.3168C21.8045 17.504 23.8218 15.4867 23.8218 12.9991C23.8218 10.5115 21.8045 8.49414 19.3168 8.49414H15.7129ZM9.40594 12.0981V13.9001H18.4158V12.0981H9.40594Z" fill="#5B5B5B"/>
</svg>
