<svg width="27" height="32" viewBox="0 0 27 32" fill="none" xmlns="http://www.w3.org/2000/svg">
<rect width="27" height="31.8218" rx="8" fill="#D4DEFF"/>
<path d="M13.4831 4.00017C13.275 4.00459 13.0766 4.08865 12.9287 4.23503L11.5957 5.55323L9.78237 5.07716C9.5752 5.02279 9.35495 5.05243 9.16951 5.15961C8.98407 5.26679 8.84845 5.44285 8.79214 5.6495L8.29914 7.45753L6.49111 7.95053C6.28489 8.00707 6.10927 8.14262 6.00233 8.32779C5.89539 8.51296 5.86574 8.73282 5.91983 8.9397L6.39484 10.7541L5.07664 12.0871C4.92626 12.2392 4.84192 12.4445 4.84192 12.6584C4.84192 12.8723 4.92626 13.0775 5.07664 13.2297L6.39484 14.5627L5.91877 16.3749C5.86441 16.5821 5.89404 16.8024 6.00122 16.9878C6.1084 17.1732 6.28446 17.3088 6.49111 17.3652L8.29914 17.8582L8.63133 19.0748C8.62701 19.1092 8.62489 19.1438 8.62498 19.1785V27.0094C8.62502 27.1564 8.66495 27.3007 8.74053 27.4268C8.81611 27.553 8.9245 27.6562 9.05415 27.7256C9.1838 27.795 9.32984 27.8279 9.47672 27.8208C9.6236 27.8137 9.7658 27.7669 9.88817 27.6854L13.3498 25.378C13.4429 25.3159 13.5571 25.3159 13.6502 25.378L17.1118 27.6854C17.2342 27.7669 17.3764 27.8137 17.5232 27.8208C17.6701 27.8279 17.8162 27.795 17.9458 27.7256C18.0755 27.6562 18.1839 27.553 18.2594 27.4268C18.335 27.3007 18.375 27.1564 18.375 27.0094V19.1785C18.3751 19.1438 18.373 19.1092 18.3686 19.0748L18.7008 17.8582L20.5078 17.3652C20.7142 17.3088 20.8901 17.1734 20.9972 16.9882C21.1044 16.803 21.1342 16.583 21.0801 16.376L20.6051 14.5627L21.9233 13.2297C22.0737 13.0775 22.158 12.8723 22.158 12.6584C22.158 12.4445 22.0737 12.2392 21.9233 12.0871L20.6051 10.7541L21.0812 8.94076C21.1356 8.73359 21.1059 8.51333 20.9987 8.3279C20.8916 8.14246 20.7155 8.00684 20.5089 7.95053L18.7008 7.45753L18.2078 5.6495C18.1515 5.44285 18.0159 5.26679 17.8305 5.15961C17.645 5.05243 17.4248 5.02279 17.2176 5.07716L15.4043 5.55323L14.0713 4.23503C13.9939 4.1585 13.902 4.09828 13.801 4.05793C13.6999 4.01759 13.5918 3.99795 13.4831 4.00017ZM13.5 5.95525L14.5907 7.03435C14.6911 7.13364 14.8155 7.20507 14.9519 7.24162C15.0882 7.27816 15.2318 7.27856 15.3683 7.24276L16.8515 6.85344L17.2557 8.3335C17.293 8.46976 17.3653 8.59392 17.4653 8.69374C17.5653 8.79355 17.6896 8.86557 17.8259 8.90268L19.3049 9.30681L18.9156 10.789C18.8798 10.9255 18.8802 11.0691 18.9167 11.2054C18.9533 11.3418 19.0247 11.4662 19.124 11.5666L20.2031 12.6584L19.124 13.7491C19.0247 13.8495 18.9533 13.9739 18.9167 14.1103C18.8802 14.2466 18.8798 14.3902 18.9156 14.5267L19.3049 16.0099L17.8249 16.413C17.6884 16.4502 17.564 16.5224 17.464 16.6224C17.364 16.7224 17.2918 16.8468 17.2546 16.9832L16.8515 18.4622L15.3683 18.074C15.2319 18.0381 15.0884 18.0383 14.952 18.0746C14.8157 18.111 14.6912 18.1822 14.5907 18.2813L13.5 19.3604L12.4092 18.2813C12.3088 18.1822 12.1843 18.111 12.0479 18.0746C11.9116 18.0383 11.7681 18.0381 11.6317 18.074L10.1484 18.4622L9.74429 16.9832C9.70709 16.8468 9.63491 16.7224 9.5349 16.6224C9.43489 16.5224 9.31051 16.4502 9.17406 16.413L7.69505 16.0099L8.08438 14.5267C8.12017 14.3902 8.11978 14.2466 8.08323 14.1103C8.04668 13.9739 7.97525 13.8495 7.87596 13.7491L6.79686 12.6584L7.87596 11.5666C7.97525 11.4662 8.04668 11.3418 8.08323 11.2054C8.11978 11.0691 8.12017 10.9255 8.08438 10.789L7.69505 9.30575L9.17511 8.90268C9.31157 8.86547 9.43595 8.7933 9.53596 8.69329C9.63597 8.59328 9.70814 8.4689 9.74535 8.33245L10.1484 6.85344L11.6317 7.24276C11.7682 7.27856 11.9117 7.27816 12.0481 7.24162C12.1844 7.20507 12.3089 7.13364 12.4092 7.03435L13.5 5.95525ZM11.5957 19.7625L12.9287 21.0807C13.0808 21.231 13.2861 21.3154 13.5 21.3154C13.7139 21.3154 13.9192 21.231 14.0713 21.0807L15.4043 19.7625L16.75 20.1158V25.4912L14.5516 24.026C13.9167 23.6027 13.0832 23.6027 12.4484 24.026L10.25 25.4912V20.1158L11.5957 19.7625Z" fill="#414141"/>
</svg>
