<svg width="28" height="29" viewBox="0 0 28 29" fill="none" xmlns="http://www.w3.org/2000/svg">
<path d="M2.375 0.25C1.3523 0.25 0.5 1.1023 0.5 2.125V7.375C0.5 8.26937 1.15241 9.03426 2 9.21191V25.375C2 27.2256 3.52437 28.75 5.375 28.75H22.625C24.4756 28.75 26 27.2256 26 25.375V9.21191C26.8476 9.03426 27.5 8.26937 27.5 7.375V2.125C27.5 1.1023 26.6477 0.25 25.625 0.25H2.375ZM2.75 2.5H25.25V7H24.875H3.125H2.75V2.5ZM4.25 9.25H23.75V25.375C23.75 26.0099 23.2599 26.5 22.625 26.5H5.375C4.74013 26.5 4.25 26.0099 4.25 25.375V9.25ZM10.625 12.25C10.4759 12.2479 10.3279 12.2754 10.1896 12.331C10.0512 12.3866 9.92533 12.4691 9.81916 12.5738C9.71299 12.6785 9.62869 12.8032 9.57115 12.9408C9.51361 13.0783 9.48398 13.2259 9.48398 13.375C9.48398 13.5241 9.51361 13.6717 9.57115 13.8092C9.62869 13.9468 9.71299 14.0715 9.81916 14.1762C9.92533 14.2809 10.0512 14.3634 10.1896 14.419C10.3279 14.4746 10.4759 14.5021 10.625 14.5H17.375C17.5241 14.5021 17.6721 14.4746 17.8104 14.419C17.9488 14.3634 18.0747 14.2809 18.1808 14.1762C18.287 14.0715 18.3713 13.9468 18.4289 13.8092C18.4864 13.6717 18.516 13.5241 18.516 13.375C18.516 13.2259 18.4864 13.0783 18.4289 12.9408C18.3713 12.8032 18.287 12.6785 18.1808 12.5738C18.0747 12.4691 17.9488 12.3866 17.8104 12.331C17.6721 12.2754 17.5241 12.2479 17.375 12.25H10.625Z" fill="#2F55DD"/>
</svg>
