<svg width="27" height="28" viewBox="0 0 27 28" fill="none" xmlns="http://www.w3.org/2000/svg">
<path d="M13.5001 0.666016C6.14813 0.666016 0.166748 6.6474 0.166748 13.9993C0.166748 21.3513 6.14813 27.3327 13.5001 27.3327C20.852 27.3327 26.8334 21.3513 26.8334 13.9993C26.8334 6.6474 20.852 0.666016 13.5001 0.666016ZM13.5001 2.66602C19.7712 2.66602 24.8334 7.72828 24.8334 13.9993C24.8334 20.2704 19.7712 25.3327 13.5001 25.3327C7.229 25.3327 2.16675 20.2704 2.16675 13.9993C2.16675 7.72828 7.229 2.66602 13.5001 2.66602ZM18.4805 9.99023C18.2208 9.9978 17.9743 10.1061 17.793 10.2923L11.8334 16.252L9.20711 13.6257C9.11497 13.5297 9.0046 13.4531 8.88247 13.4003C8.76034 13.3475 8.62891 13.3196 8.49587 13.3183C8.36283 13.3169 8.23086 13.3421 8.10768 13.3924C7.98451 13.4427 7.8726 13.517 7.77853 13.6111C7.68445 13.7052 7.61009 13.8171 7.5598 13.9403C7.50951 14.0635 7.4843 14.1954 7.48566 14.3285C7.48701 14.4615 7.51489 14.5929 7.56768 14.7151C7.62046 14.8372 7.69708 14.9476 7.79305 15.0397L11.1264 18.373C11.3139 18.5605 11.5682 18.6658 11.8334 18.6658C12.0986 18.6658 12.3529 18.5605 12.5404 18.373L19.2071 11.7064C19.3514 11.5659 19.4499 11.3851 19.4897 11.1877C19.5295 10.9903 19.5088 10.7855 19.4303 10.6C19.3518 10.4146 19.2191 10.2571 19.0497 10.1483C18.8802 10.0395 18.6818 9.98444 18.4805 9.99023Z" fill="#818181"/>
</svg>
