<svg width="16" height="16" viewBox="0 0 16 16" fill="none" xmlns="http://www.w3.org/2000/svg">
<path d="M14.6667 7.33333V6.16667H12.6667V2H11.0834V6.16667H7.68804L4.93471 2H3.33337V6.16667H1.33337V7.33333H3.33337V8.83333H1.33337V10H3.33337V14H4.91671V10H8.40204L11.0487 14H12.6667V10H14.6667V8.83333H12.6667V7.33333H14.6667ZM11.0834 7.33333V8.83333H9.41737L8.44337 7.33333H11.0834ZM4.91671 4.69467L5.87937 6.16667H4.91671V4.69467ZM4.91671 7.33333H6.63871L7.62204 8.83333H4.91671V7.33333ZM10.1854 10H11.0834V11.3727L10.1854 10Z" fill="white"/>
</svg>
