<svg width="28" height="27" viewBox="0 0 28 27" fill="none" xmlns="http://www.w3.org/2000/svg">
<rect y="0.125" width="28" height="26.75" rx="8" fill="#D5DEFF"/>
<path d="M14 4.125C13.0625 4.125 12.2644 4.51934 11.752 5.11987C11.2395 5.72041 11 6.49045 11 7.25C11 8.00955 11.2395 8.77959 11.752 9.38013C12.2644 9.98066 13.0625 10.375 14 10.375C14.9375 10.375 15.7356 9.98066 16.248 9.38013C16.7605 8.77959 17 8.00955 17 7.25C17 6.49045 16.7605 5.72041 16.248 5.11987C15.7356 4.51934 14.9375 4.125 14 4.125ZM7.5 5.16667C6.72917 5.16667 6.05607 5.4959 5.62695 5.99878C5.19783 6.50166 5 7.14149 5 7.77083C5 8.40017 5.19783 9.04001 5.62695 9.54289C6.05607 10.0458 6.72917 10.375 7.5 10.375C8.27083 10.375 8.94393 10.0458 9.37305 9.54289C9.80217 9.04001 10 8.40017 10 7.77083C10 7.14149 9.80217 6.50166 9.37305 5.99878C8.94393 5.4959 8.27083 5.16667 7.5 5.16667ZM20.5 5.16667C19.7292 5.16667 19.0561 5.4959 18.627 5.99878C18.1978 6.50166 18 7.14149 18 7.77083C18 8.40017 18.1978 9.04001 18.627 9.54289C19.0561 10.0458 19.7292 10.375 20.5 10.375C21.2708 10.375 21.9439 10.0458 22.373 9.54289C22.8022 9.04001 23 8.40017 23 7.77083C23 7.14149 22.8022 6.50166 22.373 5.99878C21.9439 5.4959 21.2708 5.16667 20.5 5.16667ZM14 5.6875C14.5625 5.6875 14.8894 5.8791 15.127 6.15747C15.3645 6.43584 15.5 6.83767 15.5 7.25C15.5 7.66233 15.3645 8.06416 15.127 8.34253C14.8894 8.6209 14.5625 8.8125 14 8.8125C13.4375 8.8125 13.1106 8.6209 12.873 8.34253C12.6355 8.06416 12.5 7.66233 12.5 7.25C12.5 6.83767 12.6355 6.43584 12.873 6.15747C13.1106 5.8791 13.4375 5.6875 14 5.6875ZM7.5 6.72917C7.89583 6.72917 8.09774 6.85566 8.25195 7.03638C8.40617 7.21709 8.5 7.48871 8.5 7.77083C8.5 8.05295 8.40617 8.32457 8.25195 8.50529C8.09774 8.68601 7.89583 8.8125 7.5 8.8125C7.10417 8.8125 6.90226 8.68601 6.74805 8.50529C6.59383 8.32457 6.5 8.05295 6.5 7.77083C6.5 7.48871 6.59383 7.21709 6.74805 7.03638C6.90226 6.85566 7.10417 6.72917 7.5 6.72917ZM20.5 6.72917C20.8958 6.72917 21.0977 6.85566 21.252 7.03638C21.4062 7.21709 21.5 7.48871 21.5 7.77083C21.5 8.05295 21.4062 8.32457 21.252 8.50529C21.0977 8.68601 20.8958 8.8125 20.5 8.8125C20.1042 8.8125 19.9023 8.68601 19.748 8.50529C19.5938 8.32457 19.5 8.05295 19.5 7.77083C19.5 7.48871 19.5938 7.21709 19.748 7.03638C19.9023 6.85566 20.1042 6.72917 20.5 6.72917ZM5.75 11.4167C4.785 11.4167 4 12.2344 4 13.2396V16.625C4 18.9219 5.795 20.7917 8 20.7917C8.355 20.7917 8.70027 20.745 9.03027 20.6513C8.82027 20.1825 8.66508 19.682 8.58008 19.1559C8.39508 19.2028 8.2 19.2292 8 19.2292C6.62 19.2292 5.5 18.0625 5.5 16.625V13.2396C5.5 13.0938 5.61 12.9792 5.75 12.9792H8.51465C8.56465 12.3854 8.78488 11.849 9.12988 11.4167H5.75ZM11.25 11.4167C10.2925 11.4167 9.5 12.2422 9.5 13.2396V18.1875C9.5 20.767 11.5236 22.875 14 22.875C16.4764 22.875 18.5 20.767 18.5 18.1875V13.2396C18.5 12.2422 17.7075 11.4167 16.75 11.4167H11.25ZM18.8701 11.4167C19.2151 11.849 19.4354 12.3854 19.4854 12.9792H22.25C22.39 12.9792 22.5 13.0938 22.5 13.2396V16.625C22.5 18.0625 21.38 19.2292 20 19.2292C19.8 19.2292 19.6049 19.2028 19.4199 19.1559C19.3349 19.682 19.1797 20.1825 18.9697 20.6513C19.2997 20.745 19.645 20.7917 20 20.7917C22.205 20.7917 24 18.9219 24 16.625V13.2396C24 12.2344 23.215 11.4167 22.25 11.4167H18.8701ZM11.25 12.9792H16.75C16.8975 12.9792 17 13.0859 17 13.2396V18.1875C17 19.9225 15.6656 21.3125 14 21.3125C12.3344 21.3125 11 19.9225 11 18.1875V13.2396C11 13.0859 11.1025 12.9792 11.25 12.9792Z" fill="#414141"/>
</svg>
