<svg width="26" height="20" viewBox="0 0 26 20" fill="none" xmlns="http://www.w3.org/2000/svg">
<path d="M3.9375 0C2.05014 0 0.5 1.55014 0.5 3.4375V16.5625C0.5 18.4499 2.05014 20 3.9375 20H22.0625C23.9499 20 25.5 18.4499 25.5 16.5625V3.4375C25.5 1.55014 23.9499 0 22.0625 0H3.9375ZM3.9375 1.875H22.0625C22.9364 1.875 23.625 2.56361 23.625 3.4375V16.5625C23.625 17.4364 22.9364 18.125 22.0625 18.125H3.9375C3.06361 18.125 2.375 17.4364 2.375 16.5625V3.4375C2.375 2.56361 3.06361 1.875 3.9375 1.875ZM13 4.375C8.17841 4.375 4.25 8.30341 4.25 13.125V13.4375C4.24824 13.5617 4.27119 13.6851 4.31752 13.8004C4.36384 13.9156 4.43262 14.0206 4.51985 14.109C4.60708 14.1975 4.71102 14.2678 4.82564 14.3157C4.94025 14.3637 5.06326 14.3884 5.1875 14.3884C5.31174 14.3884 5.43475 14.3637 5.54936 14.3157C5.66398 14.2678 5.76792 14.1975 5.85515 14.109C5.94238 14.0206 6.01116 13.9156 6.05748 13.8004C6.10381 13.6851 6.12676 13.5617 6.125 13.4375V13.125C6.125 9.31659 9.19159 6.25 13 6.25C16.8084 6.25 19.875 9.31659 19.875 13.125V13.4375C19.8732 13.5617 19.8962 13.6851 19.9425 13.8004C19.9888 13.9156 20.0576 14.0206 20.1448 14.109C20.2321 14.1975 20.336 14.2678 20.4506 14.3157C20.5653 14.3637 20.6883 14.3884 20.8125 14.3884C20.9367 14.3884 21.0597 14.3637 21.1744 14.3157C21.289 14.2678 21.3929 14.1975 21.4802 14.109C21.5674 14.0206 21.6362 13.9156 21.6825 13.8004C21.7288 13.6851 21.7518 13.5617 21.75 13.4375V13.125C21.75 8.30341 17.8216 4.375 13 4.375ZM13 8.125C11.8281 8.125 10.8305 8.59821 10.1899 9.31885C9.54937 10.0395 9.25 10.9635 9.25 11.875C9.25 12.7865 9.54937 13.7105 10.1899 14.4312C10.8305 15.1518 11.8281 15.625 13 15.625C14.1719 15.625 15.1695 15.1518 15.8101 14.4312C16.4506 13.7105 16.75 12.7865 16.75 11.875C16.75 10.9635 16.4506 10.0395 15.8101 9.31885C15.1695 8.59821 14.1719 8.125 13 8.125ZM13 10C13.7031 10 14.1118 10.2299 14.4087 10.564C14.7056 10.898 14.875 11.3802 14.875 11.875C14.875 12.3698 14.7056 12.852 14.4087 13.186C14.1118 13.5201 13.7031 13.75 13 13.75C12.2969 13.75 11.8882 13.5201 11.5913 13.186C11.2944 12.852 11.125 12.3698 11.125 11.875C11.125 11.3802 11.2944 10.898 11.5913 10.564C11.8882 10.2299 12.2969 10 13 10Z" fill="black"/>
</svg>
