<svg width="26" height="27" viewBox="0 0 26 27" fill="none" xmlns="http://www.w3.org/2000/svg">
<g clip-path="url(#clip0_3088_1845)">
<path fill-rule="evenodd" clip-rule="evenodd" d="M13.0003 2.66602C7.01708 2.66602 2.16699 7.5161 2.16699 13.4993C2.16699 19.4826 7.01708 24.3327 13.0003 24.3327C18.9836 24.3327 23.8337 19.4826 23.8337 13.4993C23.8337 7.5161 18.9836 2.66602 13.0003 2.66602ZM9.20866 10.791C9.20866 10.2931 9.30673 9.80003 9.49728 9.34001C9.68783 8.87998 9.96712 8.46199 10.3192 8.1099C10.6713 7.75781 11.0893 7.47852 11.5493 7.28797C12.0093 7.09742 12.5024 6.99935 13.0003 6.99935C13.4983 6.99935 13.9913 7.09742 14.4513 7.28797C14.9114 7.47852 15.3294 7.75781 15.6814 8.1099C16.0335 8.46199 16.3128 8.87998 16.5034 9.34001C16.6939 9.80003 16.792 10.2931 16.792 10.791C16.792 11.7966 16.3925 12.7611 15.6814 13.4721C14.9704 14.1832 14.0059 14.5827 13.0003 14.5827C11.9947 14.5827 11.0303 14.1832 10.3192 13.4721C9.60814 12.7611 9.20866 11.7966 9.20866 10.791ZM19.7798 18.8987C18.9689 19.9188 17.9379 20.7425 16.764 21.3082C15.5901 21.874 14.3035 22.1672 13.0003 22.166C11.6972 22.1672 10.4106 21.874 9.23664 21.3082C8.06271 20.7425 7.03177 19.9188 6.22083 18.8987C7.97691 17.6388 10.3732 16.7493 13.0003 16.7493C15.6274 16.7493 18.0237 17.6388 19.7798 18.8987Z" fill="#1A1A1A"/>
</g>
<defs>
<clipPath id="clip0_3088_1845">
<rect width="26" height="26" fill="white" transform="translate(0 0.5)"/>
</clipPath>
</defs>
</svg>
