<svg width="36" height="37" viewBox="0 0 36 37" fill="none" xmlns="http://www.w3.org/2000/svg">
<path d="M18 3.5C9.72905 3.5 3 10.2291 3 18.5C3 26.7709 9.72905 33.5 18 33.5C26.2709 33.5 33 26.7709 33 18.5C33 10.2291 26.2709 3.5 18 3.5ZM18 5.75C25.055 5.75 30.75 11.445 30.75 18.5C30.75 25.555 25.055 31.25 18 31.25C10.945 31.25 5.25 25.555 5.25 18.5C5.25 11.445 10.945 5.75 18 5.75ZM18 10.25C15.5281 10.25 13.5 12.2781 13.5 14.75V15.125C13.4979 15.2741 13.5254 15.4221 13.581 15.5604C13.6366 15.6988 13.7191 15.8247 13.8238 15.9308C13.9285 16.037 14.0532 16.1213 14.1908 16.1788C14.3283 16.2364 14.4759 16.266 14.625 16.266C14.7741 16.266 14.9217 16.2364 15.0592 16.1788C15.1968 16.1213 15.3215 16.037 15.4262 15.9308C15.5309 15.8247 15.6134 15.6988 15.669 15.5604C15.7246 15.4221 15.7521 15.2741 15.75 15.125V14.75C15.75 13.4944 16.7444 12.5 18 12.5C19.2556 12.5 20.25 13.4944 20.25 14.75C20.25 16.5057 19.7935 16.7257 18.9932 17.3545C18.593 17.6689 18.0688 18.0314 17.6206 18.6421C17.1724 19.2528 16.875 20.1041 16.875 21.125C16.8729 21.2741 16.9004 21.4221 16.956 21.5604C17.0116 21.6988 17.0941 21.8247 17.1988 21.9308C17.3035 22.037 17.4282 22.1213 17.5658 22.1788C17.7033 22.2364 17.8509 22.266 18 22.266C18.1491 22.266 18.2967 22.2364 18.4342 22.1788C18.5718 22.1213 18.6965 22.037 18.8012 21.9308C18.9059 21.8247 18.9884 21.6988 19.044 21.5604C19.0996 21.4221 19.1271 21.2741 19.125 21.125C19.125 20.4851 19.2495 20.2251 19.4341 19.9736C19.6187 19.7221 19.9383 19.4725 20.3818 19.124C21.269 18.427 22.5 17.1193 22.5 14.75C22.5 12.2781 20.4719 10.25 18 10.25ZM18 24.5C17.6022 24.5 17.2206 24.658 16.9393 24.9393C16.658 25.2206 16.5 25.6022 16.5 26C16.5 26.3978 16.658 26.7794 16.9393 27.0607C17.2206 27.342 17.6022 27.5 18 27.5C18.3978 27.5 18.7794 27.342 19.0607 27.0607C19.342 26.7794 19.5 26.3978 19.5 26C19.5 25.6022 19.342 25.2206 19.0607 24.9393C18.7794 24.658 18.3978 24.5 18 24.5Z" fill="#2F55DD"/>
</svg>
