<svg width="30" height="31" viewBox="0 0 30 31" fill="none" xmlns="http://www.w3.org/2000/svg">
<path d="M15 0.5C6.72905 0.5 0 7.22905 0 15.5C0 23.7709 6.72905 30.5 15 30.5C23.2709 30.5 30 23.7709 30 15.5C30 7.22905 23.2709 0.5 15 0.5ZM15 2.75C22.055 2.75 27.75 8.44504 27.75 15.5C27.75 22.555 22.055 28.25 15 28.25C7.94504 28.25 2.25 22.555 2.25 15.5C2.25 8.44504 7.94504 2.75 15 2.75ZM15 7.25C12.5281 7.25 10.5 9.2781 10.5 11.75V12.125C10.4979 12.2741 10.5254 12.4221 10.581 12.5604C10.6366 12.6988 10.7191 12.8247 10.8238 12.9308C10.9285 13.037 11.0532 13.1213 11.1908 13.1788C11.3283 13.2364 11.4759 13.266 11.625 13.266C11.7741 13.266 11.9217 13.2364 12.0592 13.1788C12.1968 13.1213 12.3215 13.037 12.4262 12.9308C12.5309 12.8247 12.6134 12.6988 12.669 12.5604C12.7246 12.4221 12.7521 12.2741 12.75 12.125V11.75C12.75 10.4944 13.7444 9.5 15 9.5C16.2556 9.5 17.25 10.4944 17.25 11.75C17.25 13.5057 16.7935 13.7257 15.9932 14.3545C15.593 14.6689 15.0688 15.0314 14.6206 15.6421C14.1724 16.2528 13.875 17.1041 13.875 18.125C13.8729 18.2741 13.9004 18.4221 13.956 18.5604C14.0116 18.6988 14.0941 18.8247 14.1988 18.9308C14.3035 19.037 14.4282 19.1213 14.5658 19.1788C14.7033 19.2364 14.8509 19.266 15 19.266C15.1491 19.266 15.2967 19.2364 15.4342 19.1788C15.5718 19.1213 15.6965 19.037 15.8012 18.9308C15.9059 18.8247 15.9884 18.6988 16.044 18.5604C16.0996 18.4221 16.1271 18.2741 16.125 18.125C16.125 17.4851 16.2495 17.2251 16.4341 16.9736C16.6187 16.7221 16.9383 16.4725 17.3818 16.124C18.269 15.427 19.5 14.1193 19.5 11.75C19.5 9.2781 17.4719 7.25 15 7.25ZM15 21.5C14.6022 21.5 14.2206 21.658 13.9393 21.9393C13.658 22.2206 13.5 22.6022 13.5 23C13.5 23.3978 13.658 23.7794 13.9393 24.0607C14.2206 24.342 14.6022 24.5 15 24.5C15.3978 24.5 15.7794 24.342 16.0607 24.0607C16.342 23.7794 16.5 23.3978 16.5 23C16.5 22.6022 16.342 22.2206 16.0607 21.9393C15.7794 21.658 15.3978 21.5 15 21.5Z" fill="#2F55DD"/>
</svg>
