<svg width="36" height="36" viewBox="0 0 36 36" fill="none" xmlns="http://www.w3.org/2000/svg">
<path d="M28.8457 32.2503C28.9959 32.2542 29.1453 32.228 29.2852 32.1732C29.4251 32.1184 29.5526 32.0362 29.6602 31.9313C29.7678 31.8265 29.8533 31.7011 29.9116 31.5627C29.97 31.4243 30 31.2755 30 31.1253L30 7.87531C30 5.61047 28.1398 3.75031 25.875 3.7503L10.125 3.7503C7.86017 3.7503 6 5.61047 6 7.8753L6 31.1253C6.00011 31.3421 6.06285 31.5542 6.18067 31.7362C6.29849 31.9182 6.46638 32.0623 6.66414 32.1511C6.8619 32.2399 7.08111 32.2697 7.29541 32.2369C7.5097 32.2041 7.70995 32.1101 7.87207 31.9661L10.5381 29.596L13.5469 32.0042C13.7464 32.1639 13.9944 32.251 14.25 32.251C14.5056 32.251 14.7536 32.1639 14.9531 32.0042L18 29.5667L21.0469 32.0042C21.2464 32.1639 21.4944 32.251 21.75 32.251C22.0056 32.251 22.2536 32.1639 22.4531 32.0042L25.4619 29.596L28.1279 31.9661C28.3262 32.1425 28.5804 32.2432 28.8457 32.2503ZM21.75 29.6839L18.7031 27.2464C18.5036 27.0867 18.2556 26.9996 18 26.9996C17.7444 26.9996 17.4964 27.0867 17.2969 27.2464L14.25 29.6839L11.2031 27.2464C10.9958 27.0806 10.7365 26.9935 10.4711 27.0005C10.2057 27.0075 9.95131 27.1081 9.75293 27.2845L8.25 28.6204L8.25 7.8753C8.25 6.82663 9.07633 6.0003 10.125 6.0003L25.875 6.0003C26.9237 6.0003 27.75 6.82664 27.75 7.8753L27.75 28.6204L26.2471 27.2845C26.0487 27.1081 25.7943 27.0075 25.5289 27.0005C25.2635 26.9935 25.0042 27.0806 24.7969 27.2464L21.75 29.6839ZM24.375 22.5003C24.5241 22.5024 24.6721 22.4749 24.8104 22.4193C24.9488 22.3637 25.0747 22.2812 25.1808 22.1765C25.287 22.0718 25.3713 21.9471 25.4289 21.8095C25.4864 21.672 25.516 21.5244 25.516 21.3753C25.516 21.2262 25.4864 21.0786 25.4289 20.9411C25.3713 20.8035 25.287 20.6788 25.1808 20.5741C25.0747 20.4695 24.9488 20.3869 24.8104 20.3313C24.6721 20.2757 24.5241 20.2482 24.375 20.2503L11.625 20.2503C11.4759 20.2482 11.3279 20.2757 11.1896 20.3313C11.0512 20.3869 10.9253 20.4694 10.8192 20.5741C10.713 20.6788 10.6287 20.8035 10.5712 20.9411C10.5136 21.0786 10.484 21.2262 10.484 21.3753C10.484 21.5244 10.5136 21.672 10.5712 21.8095C10.6287 21.9471 10.713 22.0718 10.8192 22.1765C10.9253 22.2812 11.0512 22.3637 11.1896 22.4193C11.3279 22.4749 11.4759 22.5024 11.625 22.5003L24.375 22.5003ZM24.375 16.5003C24.5241 16.5024 24.6721 16.4749 24.8104 16.4193C24.9488 16.3637 25.0747 16.2812 25.1808 16.1765C25.287 16.0718 25.3713 15.9471 25.4289 15.8095C25.4864 15.672 25.516 15.5244 25.516 15.3753C25.516 15.2262 25.4864 15.0786 25.4289 14.9411C25.3713 14.8035 25.287 14.6788 25.1808 14.5741C25.0747 14.4695 24.9488 14.3869 24.8104 14.3313C24.6721 14.2757 24.5241 14.2482 24.375 14.2503L17.625 14.2503C17.4759 14.2482 17.3279 14.2757 17.1896 14.3313C17.0512 14.3869 16.9253 14.4695 16.8192 14.5741C16.713 14.6788 16.6287 14.8035 16.5712 14.9411C16.5136 15.0786 16.484 15.2262 16.484 15.3753C16.484 15.5244 16.5136 15.672 16.5712 15.8095C16.6287 15.9471 16.713 16.0718 16.8192 16.1765C16.9253 16.2812 17.0512 16.3637 17.1896 16.4193C17.3279 16.4749 17.4759 16.5024 17.625 16.5003L24.375 16.5003ZM13.125 16.5003C13.2741 16.5024 13.4221 16.4749 13.5604 16.4193C13.6988 16.3637 13.8247 16.2812 13.9308 16.1765C14.037 16.0718 14.1213 15.9471 14.1789 15.8095C14.2364 15.672 14.266 15.5244 14.266 15.3753C14.266 15.2262 14.2364 15.0786 14.1789 14.9411C14.1213 14.8035 14.037 14.6788 13.9308 14.5741C13.8247 14.4695 13.6988 14.3869 13.5604 14.3313C13.4221 14.2757 13.2741 14.2482 13.125 14.2503L11.625 14.2503C11.4759 14.2482 11.3279 14.2757 11.1896 14.3313C11.0512 14.3869 10.9253 14.4695 10.8192 14.5741C10.713 14.6788 10.6287 14.8035 10.5712 14.9411C10.5136 15.0786 10.484 15.2262 10.484 15.3753C10.484 15.5244 10.5136 15.672 10.5712 15.8095C10.6287 15.9471 10.713 16.0718 10.8192 16.1765C10.9253 16.2812 11.0512 16.3637 11.1896 16.4193C11.3279 16.4749 11.4759 16.5024 11.625 16.5003L13.125 16.5003ZM24.375 12.0003C24.5241 12.0024 24.6721 11.9749 24.8104 11.9193C24.9488 11.8637 25.0747 11.7812 25.1808 11.6765C25.287 11.5718 25.3713 11.4471 25.4289 11.3095C25.4864 11.172 25.516 11.0244 25.516 10.8753C25.516 10.7262 25.4864 10.5786 25.4289 10.4411C25.3713 10.3035 25.287 10.1788 25.1808 10.0741C25.0747 9.96945 24.9488 9.88692 24.8104 9.83133C24.6721 9.77574 24.5241 9.7482 24.375 9.7503L17.625 9.7503C17.4759 9.74819 17.3279 9.77574 17.1896 9.83133C17.0512 9.88692 16.9253 9.96945 16.8192 10.0741C16.713 10.1788 16.6287 10.3035 16.5712 10.4411C16.5136 10.5786 16.484 10.7262 16.484 10.8753C16.484 11.0244 16.5136 11.172 16.5712 11.3095C16.6287 11.4471 16.713 11.5718 16.8192 11.6765C16.9253 11.7812 17.0512 11.8637 17.1896 11.9193C17.3279 11.9749 17.4759 12.0024 17.625 12.0003L24.375 12.0003ZM13.125 12.0003C13.2741 12.0024 13.4221 11.9749 13.5604 11.9193C13.6988 11.8637 13.8247 11.7812 13.9308 11.6765C14.037 11.5718 14.1213 11.4471 14.1789 11.3095C14.2364 11.172 14.266 11.0244 14.266 10.8753C14.266 10.7262 14.2364 10.5786 14.1789 10.4411C14.1213 10.3035 14.037 10.1788 13.9308 10.0741C13.8247 9.96945 13.6988 9.88692 13.5604 9.83133C13.4221 9.77574 13.2741 9.74819 13.125 9.7503L11.625 9.7503C11.4759 9.74819 11.3279 9.77574 11.1896 9.83133C11.0512 9.88692 10.9253 9.96945 10.8192 10.0741C10.713 10.1788 10.6287 10.3035 10.5712 10.4411C10.5136 10.5786 10.484 10.7262 10.484 10.8753C10.484 11.0244 10.5136 11.172 10.5712 11.3095C10.6287 11.4471 10.713 11.5718 10.8192 11.6765C10.9253 11.7812 11.0512 11.8637 11.1896 11.9193C11.3279 11.9749 11.4759 12.0024 11.625 12.0003L13.125 12.0003Z" fill="white"/>
</svg>
