<svg width="22" height="22" viewBox="0 0 22 22" fill="none" xmlns="http://www.w3.org/2000/svg">
<path d="M5.625 2.25C4.51462 2.25 3.6 3.16462 3.6 4.275V14.85H2.925C2.74598 14.85 2.57431 14.9211 2.44772 15.0477C2.32114 15.1743 2.25002 15.346 2.25 15.525V16.425C2.25 18.0324 3.56763 19.35 5.175 19.35H15.075C16.6824 19.35 18 18.0324 18 16.425V4.275C18 3.16462 17.0854 2.25 15.975 2.25H5.625ZM5.625 3.6H15.975C16.3559 3.6 16.65 3.89408 16.65 4.275V16.425C16.65 17.3025 15.9525 18 15.075 18C14.1975 18 13.5 17.3025 13.5 16.425V15.525C13.5 15.346 13.4289 15.1743 13.3023 15.0477C13.1757 14.9211 13.004 14.85 12.825 14.85H4.95V4.275C4.95 3.89408 5.24408 3.6 5.625 3.6ZM7.425 5.85C7.24598 5.85 7.07429 5.92112 6.9477 6.0477C6.82112 6.17429 6.75 6.34598 6.75 6.525C6.75 6.70402 6.82112 6.87571 6.9477 7.0023C7.07429 7.12888 7.24598 7.2 7.425 7.2C7.60402 7.2 7.77571 7.12888 7.9023 7.0023C8.02888 6.87571 8.1 6.70402 8.1 6.525C8.1 6.34598 8.02888 6.17429 7.9023 6.0477C7.77571 5.92112 7.60402 5.85 7.425 5.85ZM9.675 5.85C9.58555 5.84874 9.49675 5.86526 9.41375 5.89861C9.33074 5.93197 9.2552 5.98149 9.1915 6.04429C9.1278 6.1071 9.07721 6.18194 9.04269 6.26446C9.00816 6.34698 8.99039 6.43555 8.99039 6.525C8.99039 6.61445 9.00816 6.70302 9.04269 6.78554C9.07721 6.86806 9.1278 6.9429 9.1915 7.00571C9.2552 7.06851 9.33074 7.11803 9.41375 7.15139C9.49675 7.18474 9.58555 7.20127 9.675 7.2H14.175C14.2644 7.20127 14.3533 7.18474 14.4363 7.15139C14.5193 7.11803 14.5948 7.06851 14.6585 7.00571C14.7222 6.9429 14.7728 6.86806 14.8073 6.78554C14.8418 6.70302 14.8596 6.61445 14.8596 6.525C14.8596 6.43555 14.8418 6.34698 14.8073 6.26446C14.7728 6.18194 14.7222 6.1071 14.6585 6.04429C14.5948 5.98149 14.5193 5.93197 14.4363 5.89861C14.3533 5.86526 14.2644 5.84874 14.175 5.85H9.675ZM7.425 8.55C7.24598 8.55 7.07429 8.62112 6.9477 8.7477C6.82112 8.87429 6.75 9.04598 6.75 9.225C6.75 9.40402 6.82112 9.57571 6.9477 9.7023C7.07429 9.82888 7.24598 9.9 7.425 9.9C7.60402 9.9 7.77571 9.82888 7.9023 9.7023C8.02888 9.57571 8.1 9.40402 8.1 9.225C8.1 9.04598 8.02888 8.87429 7.9023 8.7477C7.77571 8.62112 7.60402 8.55 7.425 8.55ZM9.675 8.55C9.58555 8.54874 9.49675 8.56526 9.41375 8.59861C9.33074 8.63197 9.2552 8.68149 9.1915 8.74429C9.1278 8.8071 9.07721 8.88194 9.04269 8.96446C9.00816 9.04698 8.99039 9.13555 8.99039 9.225C8.99039 9.31445 9.00816 9.40302 9.04269 9.48554C9.07721 9.56806 9.1278 9.6429 9.1915 9.70571C9.2552 9.76851 9.33074 9.81803 9.41375 9.85139C9.49675 9.88474 9.58555 9.90127 9.675 9.9H14.175C14.2644 9.90127 14.3533 9.88474 14.4363 9.85139C14.5193 9.81803 14.5948 9.76851 14.6585 9.70571C14.7222 9.6429 14.7728 9.56806 14.8073 9.48554C14.8418 9.40302 14.8596 9.31445 14.8596 9.225C14.8596 9.13555 14.8418 9.04698 14.8073 8.96446C14.7728 8.88194 14.7222 8.8071 14.6585 8.74429C14.5948 8.68149 14.5193 8.63197 14.4363 8.59861C14.3533 8.56526 14.2644 8.54874 14.175 8.55H9.675ZM7.425 11.25C7.24598 11.25 7.07429 11.3211 6.9477 11.4477C6.82112 11.5743 6.75 11.746 6.75 11.925C6.75 12.104 6.82112 12.2757 6.9477 12.4023C7.07429 12.5289 7.24598 12.6 7.425 12.6C7.60402 12.6 7.77571 12.5289 7.9023 12.4023C8.02888 12.2757 8.1 12.104 8.1 11.925C8.1 11.746 8.02888 11.5743 7.9023 11.4477C7.77571 11.3211 7.60402 11.25 7.425 11.25ZM9.675 11.25C9.58555 11.2487 9.49675 11.2653 9.41375 11.2986C9.33074 11.332 9.2552 11.3815 9.1915 11.4443C9.1278 11.5071 9.07721 11.5819 9.04269 11.6645C9.00816 11.747 8.99039 11.8355 8.99039 11.925C8.99039 12.0145 9.00816 12.103 9.04269 12.1855C9.07721 12.2681 9.1278 12.3429 9.1915 12.4057C9.2552 12.4685 9.33074 12.518 9.41375 12.5514C9.49675 12.5847 9.58555 12.6013 9.675 12.6H14.175C14.2644 12.6013 14.3533 12.5847 14.4363 12.5514C14.5193 12.518 14.5948 12.4685 14.6585 12.4057C14.7222 12.3429 14.7728 12.2681 14.8073 12.1855C14.8418 12.103 14.8596 12.0145 14.8596 11.925C14.8596 11.8355 14.8418 11.747 14.8073 11.6645C14.7728 11.5819 14.7222 11.5071 14.6585 11.4443C14.5948 11.3815 14.5193 11.332 14.4363 11.2986C14.3533 11.2653 14.2644 11.2487 14.175 11.25H9.675ZM3.6 16.2H12.15V16.425C12.15 17.0168 12.3723 17.5381 12.6782 18H5.175C4.29747 18 3.6 17.3025 3.6 16.425V16.2Z" fill="white"/>
</svg>
