<svg width="30" height="32" viewBox="0 0 30 32" fill="none" xmlns="http://www.w3.org/2000/svg">
<path d="M23.6133 0.988281C23.3894 0.988336 23.1706 1.05519 22.9849 1.18028C22.7992 1.30538 22.6551 1.48303 22.5709 1.6905C22.4868 1.89797 22.4664 2.12584 22.5125 2.34494C22.5586 2.56404 22.669 2.76441 22.8296 2.92041L25.4092 5.5H4.875C2.6025 5.5 0.75 7.3525 0.75 9.625V21.7305L3 19.4805V9.625C3 8.59 3.84 7.75 4.875 7.75H25.4092L22.8296 10.3296C22.7216 10.4333 22.6354 10.5574 22.576 10.6948C22.5167 10.8322 22.4853 10.9801 22.4838 11.1297C22.4823 11.2794 22.5106 11.4279 22.5672 11.5664C22.6238 11.705 22.7074 11.8309 22.8133 11.9367C22.9191 12.0426 23.045 12.1262 23.1836 12.1828C23.3221 12.2394 23.4706 12.2678 23.6203 12.2662C23.7699 12.2647 23.9178 12.2333 24.0552 12.174C24.1926 12.1146 24.3167 12.0284 24.4204 11.9204L28.9204 7.42041C29.1313 7.20942 29.2498 6.92332 29.2498 6.625C29.2498 6.32668 29.1313 6.04058 28.9204 5.82959L24.4204 1.32959C24.3155 1.2216 24.1901 1.13575 24.0514 1.07712C23.9128 1.0185 23.7638 0.988287 23.6133 0.988281ZM29.25 10.2695L27 12.5195V22.375C27 23.41 26.16 24.25 25.125 24.25H4.59082L7.17041 21.6704C7.33271 21.5123 7.44351 21.309 7.48831 21.0869C7.53311 20.8648 7.50983 20.6344 7.4215 20.4257C7.33318 20.2171 7.18392 20.04 6.99328 19.9176C6.80264 19.7952 6.57949 19.7332 6.35303 19.7397C6.06086 19.7483 5.78347 19.8701 5.57959 20.0796L1.07959 24.5796C0.868691 24.7906 0.750216 25.0767 0.750216 25.375C0.750216 25.6733 0.868691 25.9594 1.07959 26.1704L5.57959 30.6704C5.68325 30.7784 5.80742 30.8646 5.94481 30.924C6.08221 30.9833 6.23007 31.0147 6.37974 31.0162C6.52941 31.0177 6.67787 30.9894 6.81645 30.9328C6.95502 30.8762 7.08091 30.7926 7.18675 30.6867C7.29259 30.5809 7.37624 30.455 7.43282 30.3164C7.48939 30.1779 7.51775 30.0294 7.51623 29.8797C7.51471 29.7301 7.48334 29.5822 7.42396 29.4448C7.36458 29.3074 7.27838 29.1833 7.17041 29.0796L4.59082 26.5H25.125C27.3975 26.5 29.25 24.6475 29.25 22.375V10.2695Z" fill="#5B5B5B"/>
</svg>
