<svg width="21" height="20" viewBox="0 0 21 20" fill="none" xmlns="http://www.w3.org/2000/svg">
<path d="M10.5 0C4.98603 0 0.5 4.48604 0.5 10C0.5 15.514 4.98603 20 10.5 20C16.014 20 20.5 15.514 20.5 10C20.5 4.48604 16.014 0 10.5 0ZM10.5 1.5C15.2033 1.5 19 5.2967 19 10C19 14.7033 15.2033 18.5 10.5 18.5C5.79669 18.5 2 14.7033 2 10C2 5.2967 5.79669 1.5 10.5 1.5ZM14.2354 6.99316C14.0406 6.99884 13.8556 7.0801 13.7197 7.21973L9.25 11.6895L7.28027 9.71973C7.21116 9.64775 7.12839 9.59028 7.03679 9.5507C6.9452 9.51111 6.84662 9.4902 6.74684 9.48918C6.64706 9.48817 6.54808 9.50707 6.4557 9.54479C6.36332 9.58251 6.27939 9.63828 6.20883 9.70883C6.13828 9.77939 6.08251 9.86332 6.04479 9.9557C6.00707 10.0481 5.98817 10.1471 5.98918 10.2468C5.9902 10.3466 6.01111 10.4452 6.0507 10.5368C6.09028 10.6284 6.14775 10.7112 6.21973 10.7803L8.71973 13.2803C8.86038 13.4209 9.05112 13.4999 9.25 13.4999C9.44888 13.4999 9.63962 13.4209 9.78027 13.2803L14.7803 8.28027C14.8885 8.1749 14.9623 8.03931 14.9922 7.89126C15.0221 7.7432 15.0066 7.58958 14.9477 7.4505C14.8888 7.31141 14.7893 7.19335 14.6622 7.11175C14.5351 7.03015 14.3863 6.98882 14.2354 6.99316Z" fill="#5B5B5B"/>
</svg>
