<svg width="24" height="25" viewBox="0 0 24 25" fill="none" xmlns="http://www.w3.org/2000/svg">
<path d="M9.25 2.00008C9.15062 1.99867 9.05194 2.01703 8.95972 2.05409C8.86749 2.09115 8.78355 2.14617 8.71277 2.21595C8.642 2.28574 8.58579 2.36889 8.54743 2.46059C8.50907 2.55228 8.48932 2.65068 8.48932 2.75007C8.48932 2.84947 8.50907 2.94787 8.54743 3.03956C8.58579 3.13126 8.642 3.21441 8.71277 3.2842C8.78355 3.35398 8.86749 3.409 8.95972 3.44606C9.05194 3.48312 9.15062 3.50148 9.25 3.50007H14.75C14.8494 3.50148 14.9481 3.48312 15.0403 3.44606C15.1325 3.409 15.2164 3.35398 15.2872 3.2842C15.358 3.21441 15.4142 3.13126 15.4526 3.03956C15.4909 2.94787 15.5107 2.84947 15.5107 2.75007C15.5107 2.65068 15.4909 2.55228 15.4526 2.46059C15.4142 2.36889 15.358 2.28574 15.2872 2.21595C15.2164 2.14617 15.1325 2.09115 15.0403 2.05409C14.9481 2.01703 14.8494 1.99867 14.75 2.00008H9.25ZM19.0586 3.99226C18.9092 3.99416 18.7637 4.04065 18.6409 4.12576C18.5181 4.21088 18.4235 4.33074 18.3692 4.46998C18.315 4.60922 18.3036 4.76149 18.3364 4.90727C18.3693 5.05304 18.445 5.18568 18.5537 5.28816L19.7266 6.42879C19.7972 6.49754 19.8806 6.55171 19.9721 6.58821C20.0637 6.62471 20.1615 6.64282 20.26 6.64151C20.3586 6.6402 20.4559 6.6195 20.5464 6.58058C20.6369 6.54166 20.7189 6.48529 20.7877 6.41468C20.8564 6.34408 20.9106 6.26063 20.9471 6.16909C20.9835 6.07755 21.0016 5.97973 21.0003 5.88119C20.999 5.78266 20.9783 5.68535 20.9394 5.59482C20.9004 5.5043 20.844 5.42233 20.7734 5.35359L19.5996 4.21199C19.5287 4.14105 19.4443 4.08506 19.3514 4.04732C19.2584 4.00958 19.1589 3.99086 19.0586 3.99226ZM12 4.50008C7.03832 4.50008 3 8.5384 3 13.5001C3 18.4618 7.03832 22.5001 12 22.5001C16.9617 22.5001 21 18.4618 21 13.5001C21 8.5384 16.9617 4.50008 12 4.50008ZM12 6.00007C16.151 6.00007 19.5 9.34906 19.5 13.5001C19.5 17.6511 16.151 21.0001 12 21.0001C7.84898 21.0001 4.5 17.6511 4.5 13.5001C4.5 9.34906 7.84898 6.00007 12 6.00007ZM11.9883 7.48933C11.7895 7.49244 11.6002 7.5743 11.4617 7.71694C11.3233 7.85958 11.2471 8.05133 11.25 8.25007V13.7501C11.2486 13.8495 11.267 13.9481 11.304 14.0404C11.3411 14.1326 11.3961 14.2165 11.4659 14.2873C11.5357 14.3581 11.6188 14.4143 11.7105 14.4526C11.8022 14.491 11.9006 14.5108 12 14.5108C12.0994 14.5108 12.1978 14.491 12.2895 14.4526C12.3812 14.4143 12.4643 14.3581 12.5341 14.2873C12.6039 14.2165 12.6589 14.1326 12.696 14.0404C12.733 13.9481 12.7514 13.8495 12.75 13.7501V8.25007C12.7514 8.14969 12.7327 8.05004 12.6949 7.95703C12.6571 7.86402 12.6011 7.77954 12.53 7.70859C12.459 7.63765 12.3745 7.58169 12.2814 7.54403C12.1883 7.50636 12.0887 7.48776 11.9883 7.48933Z" fill="white"/>
</svg>
