<svg width="86" height="80" viewBox="0 0 86 80" fill="none" xmlns="http://www.w3.org/2000/svg">
<path d="M10.3853 0.0214844C5.16482 0.0214844 0.916504 4.2698 0.916504 9.49023V70.5111C0.916504 75.7315 5.16482 79.9798 10.3853 79.9798H19.4759C17.8094 78.2481 16.6002 76.0808 16.0279 73.6673H10.3853C8.64511 73.6673 7.229 72.2512 7.229 70.5111V9.49023C7.229 7.75009 8.64511 6.33398 10.3853 6.33398H16.0279C16.6023 3.92051 17.8094 1.75321 19.4759 0.0214844H10.3853ZM29.3228 0.0214844C24.1307 0.0214844 19.854 4.2982 19.854 9.49023V70.5111C19.854 75.7031 24.1307 79.9798 29.3228 79.9798H75.6144C80.8064 79.9798 85.0832 75.7031 85.0832 70.5111V28.4277C85.083 27.5907 84.7504 26.788 84.1585 26.1962L58.9085 0.946167C58.3167 0.354256 57.514 0.0216454 56.6769 0.0214844H29.3228ZM29.3228 6.33398H53.5207V22.1152C53.5207 27.3073 57.7974 31.584 62.9894 31.584H78.7707V70.5111C78.7707 72.2922 77.3956 73.6673 75.6144 73.6673H29.3228C27.5416 73.6673 26.1665 72.2922 26.1665 70.5111V9.49023C26.1665 7.70906 27.5416 6.33398 29.3228 6.33398ZM59.8332 10.7971L74.3075 25.2715H62.9894C61.2082 25.2715 59.8332 23.8964 59.8332 22.1152V10.7971ZM39.8436 42.1048C39.4253 42.0989 39.0101 42.1762 38.622 42.3321C38.2339 42.4881 37.8806 42.7196 37.5828 43.0133C37.2849 43.307 37.0484 43.6569 36.8869 44.0428C36.7255 44.4287 36.6424 44.8428 36.6424 45.2611C36.6424 45.6794 36.7255 46.0935 36.8869 46.4793C37.0484 46.8652 37.2849 47.2152 37.5828 47.5088C37.8806 47.8025 38.2339 48.034 38.622 48.19C39.0101 48.346 39.4253 48.4232 39.8436 48.4173H65.0936C65.5118 48.4232 65.9271 48.346 66.3152 48.19C66.7033 48.034 67.0566 47.8025 67.3544 47.5088C67.6523 47.2152 67.8888 46.8652 68.0502 46.4793C68.2116 46.0935 68.2948 45.6794 68.2948 45.2611C68.2948 44.8428 68.2116 44.4287 68.0502 44.0428C67.8888 43.6569 67.6523 43.307 67.3544 43.0133C67.0566 42.7196 66.7033 42.4881 66.3152 42.3321C65.9271 42.1762 65.5118 42.0989 65.0936 42.1048H39.8436ZM39.8436 56.834C39.4253 56.8281 39.0101 56.9053 38.622 57.0613C38.2339 57.2173 37.8806 57.4488 37.5828 57.7425C37.2849 58.0362 37.0484 58.3861 36.8869 58.772C36.7255 59.1578 36.6424 59.572 36.6424 59.9902C36.6424 60.4085 36.7255 60.8226 36.8869 61.2085C37.0484 61.5944 37.2849 61.9443 37.5828 62.238C37.8806 62.5317 38.2339 62.7632 38.622 62.9192C39.0101 63.0751 39.4253 63.1524 39.8436 63.1465H58.7811C59.1993 63.1524 59.6146 63.0751 60.0027 62.9192C60.3908 62.7632 60.7441 62.5317 61.0419 62.238C61.3398 61.9443 61.5763 61.5944 61.7377 61.2085C61.8992 60.8226 61.9823 60.4085 61.9823 59.9902C61.9823 59.572 61.8992 59.1578 61.7377 58.772C61.5763 58.3861 61.3398 58.0362 61.0419 57.7425C60.7441 57.4488 60.3908 57.2173 60.0027 57.0613C59.6146 56.9053 59.1993 56.8281 58.7811 56.834H39.8436Z" fill="white"/>
</svg>
