<svg width="30" height="28" viewBox="0 0 30 28" fill="none" xmlns="http://www.w3.org/2000/svg">
<path d="M4.875 0.75C4.25325 0.75 3.75 1.25325 3.75 1.875V2.3877C1.60877 2.90049 0 4.8336 0 7.125V22.875C0 25.554 2.19605 27.75 4.875 27.75H25.125C27.804 27.75 30 25.554 30 22.875V7.125C30 4.44605 27.804 2.25 25.125 2.25H11.25V1.875C11.25 1.25325 10.7467 0.75 10.125 0.75H4.875ZM4.875 4.5H25.125C26.5875 4.5 27.75 5.66245 27.75 7.125V22.875C27.75 24.3375 26.5875 25.5 25.125 25.5H4.875C3.41245 25.5 2.25 24.3375 2.25 22.875V7.125C2.25 5.66245 3.41245 4.5 4.875 4.5ZM6.375 8.25C6.22592 8.24789 6.07792 8.27543 5.93958 8.33102C5.80124 8.38661 5.67533 8.46914 5.56916 8.57382C5.46299 8.67849 5.37869 8.80323 5.32115 8.94077C5.26361 9.07831 5.23398 9.22591 5.23398 9.375C5.23398 9.52409 5.26361 9.6717 5.32115 9.80923C5.37869 9.94677 5.46299 10.0715 5.56916 10.1762C5.67533 10.2809 5.80124 10.3634 5.93958 10.419C6.07792 10.4746 6.22592 10.5021 6.375 10.5H8.625C8.77408 10.5021 8.92208 10.4746 9.06042 10.419C9.19876 10.3634 9.32467 10.2809 9.43084 10.1762C9.53701 10.0715 9.62131 9.94677 9.67885 9.80923C9.73639 9.6717 9.76602 9.52409 9.76602 9.375C9.76602 9.22591 9.73639 9.07831 9.67885 8.94077C9.62131 8.80323 9.53701 8.67849 9.43084 8.57382C9.32467 8.46914 9.19876 8.38661 9.06042 8.33102C8.92208 8.27543 8.77408 8.24789 8.625 8.25H6.375ZM18 8.25C14.2854 8.25 11.25 11.2854 11.25 15C11.25 18.7146 14.2854 21.75 18 21.75C21.7146 21.75 24.75 18.7146 24.75 15C24.75 11.2854 21.7146 8.25 18 8.25ZM18 10.5C20.4986 10.5 22.5 12.5014 22.5 15C22.5 17.4986 20.4986 19.5 18 19.5C15.5014 19.5 13.5 17.4986 13.5 15C13.5 12.5014 15.5014 10.5 18 10.5Z" fill="#5B5B5B"/>
</svg>
