<svg width="25" height="28" viewBox="0 0 25 28" fill="none" xmlns="http://www.w3.org/2000/svg">
<rect x="0.5" width="24" height="28" rx="8" fill="#E0E6FF"/>
<path d="M10.75 4C9.6017 4 8.65285 4.88331 8.52539 6H6.75C5.51625 6 4.5 7.01625 4.5 8.25V21.75C4.5 22.9838 5.51625 24 6.75 24H18.25C19.4838 24 20.5 22.9838 20.5 21.75V8.25C20.5 7.01625 19.4838 6 18.25 6H16.4746C16.3471 4.88331 15.3983 4 14.25 4H10.75ZM10.75 5.5H14.25C14.6732 5.5 15 5.82675 15 6.25C15 6.67325 14.6732 7 14.25 7H10.75C10.3268 7 10 6.67325 10 6.25C10 5.82675 10.3268 5.5 10.75 5.5ZM6.75 7.5H8.88477C9.29062 8.10095 9.97736 8.5 10.75 8.5H14.25C15.0226 8.5 15.7094 8.10095 16.1152 7.5H18.25C18.6732 7.5 19 7.82675 19 8.25V21.75C19 22.1733 18.6732 22.5 18.25 22.5H6.75C6.32675 22.5 6 22.1733 6 21.75V8.25C6 7.82675 6.32675 7.5 6.75 7.5ZM8.75 11C8.65062 10.9986 8.55194 11.017 8.45972 11.054C8.36749 11.0911 8.28355 11.1461 8.21277 11.2159C8.142 11.2857 8.08579 11.3688 8.04743 11.4605C8.00907 11.5522 7.98932 11.6506 7.98932 11.75C7.98932 11.8494 8.00907 11.9478 8.04743 12.0395C8.08579 12.1312 8.142 12.2143 8.21277 12.2841C8.28355 12.3539 8.36749 12.4089 8.45972 12.446C8.55194 12.483 8.65062 12.5014 8.75 12.5H16.25C16.3494 12.5014 16.4481 12.483 16.5403 12.446C16.6325 12.4089 16.7164 12.3539 16.7872 12.2841C16.858 12.2143 16.9142 12.1312 16.9526 12.0395C16.9909 11.9478 17.0107 11.8494 17.0107 11.75C17.0107 11.6506 16.9909 11.5522 16.9526 11.4605C16.9142 11.3688 16.858 11.2857 16.7872 11.2159C16.7164 11.1461 16.6325 11.0911 16.5403 11.054C16.4481 11.017 16.3494 10.9986 16.25 11H8.75ZM8.75 15C8.65062 14.9986 8.55194 15.017 8.45972 15.054C8.36749 15.0911 8.28355 15.1461 8.21277 15.2159C8.142 15.2857 8.08579 15.3688 8.04743 15.4605C8.00907 15.5522 7.98932 15.6506 7.98932 15.75C7.98932 15.8494 8.00907 15.9478 8.04743 16.0395C8.08579 16.1312 8.142 16.2143 8.21277 16.2841C8.28355 16.3539 8.36749 16.4089 8.45972 16.446C8.55194 16.483 8.65062 16.5014 8.75 16.5H12.25C12.3494 16.5014 12.4481 16.483 12.5403 16.446C12.6325 16.4089 12.7164 16.3539 12.7872 16.2841C12.858 16.2143 12.9142 16.1312 12.9526 16.0395C12.9909 15.9478 13.0107 15.8494 13.0107 15.75C13.0107 15.6506 12.9909 15.5522 12.9526 15.4605C12.9142 15.3688 12.858 15.2857 12.7872 15.2159C12.7164 15.1461 12.6325 15.0911 12.5403 15.054C12.4481 15.017 12.3494 14.9986 12.25 15H8.75ZM8.75 19C8.65062 18.9986 8.55194 19.017 8.45972 19.054C8.36749 19.0911 8.28355 19.1461 8.21277 19.2159C8.142 19.2857 8.08579 19.3688 8.04743 19.4605C8.00907 19.5522 7.98932 19.6506 7.98932 19.75C7.98932 19.8494 8.00907 19.9478 8.04743 20.0395C8.08579 20.1312 8.142 20.2143 8.21277 20.2841C8.28355 20.3539 8.36749 20.4089 8.45972 20.446C8.55194 20.483 8.65062 20.5014 8.75 20.5H14.25C14.3494 20.5014 14.4481 20.483 14.5403 20.446C14.6325 20.4089 14.7164 20.3539 14.7872 20.2841C14.858 20.2143 14.9142 20.1312 14.9526 20.0395C14.9909 19.9478 15.0107 19.8494 15.0107 19.75C15.0107 19.6506 14.9909 19.5522 14.9526 19.4605C14.9142 19.3688 14.858 19.2857 14.7872 19.2159C14.7164 19.1461 14.6325 19.0911 14.5403 19.054C14.4481 19.017 14.3494 18.9986 14.25 19H8.75Z" fill="#414141"/>
</svg>
