<svg width="24" height="31" viewBox="0 0 24 31" fill="none" xmlns="http://www.w3.org/2000/svg">
<path d="M9.375 0.75C7.65255 0.75 6.22928 2.07497 6.03809 3.75H3.375C1.52437 3.75 0 5.27437 0 7.125V27.375C0 29.2256 1.52437 30.75 3.375 30.75H20.625C22.4756 30.75 24 29.2256 24 27.375V7.125C24 5.27437 22.4756 3.75 20.625 3.75H17.9619C17.7707 2.07497 16.3474 0.75 14.625 0.75H9.375ZM9.375 3H14.625C15.2599 3 15.75 3.49013 15.75 4.125C15.75 4.75987 15.2599 5.25 14.625 5.25H9.375C8.74013 5.25 8.25 4.75987 8.25 4.125C8.25 3.49013 8.74013 3 9.375 3ZM3.375 6H6.57715C7.18593 6.90142 8.21604 7.5 9.375 7.5H14.625C15.784 7.5 16.8141 6.90142 17.4229 6H20.625C21.2599 6 21.75 6.49013 21.75 7.125V27.375C21.75 28.0099 21.2599 28.5 20.625 28.5H3.375C2.74013 28.5 2.25 28.0099 2.25 27.375V7.125C2.25 6.49013 2.74013 6 3.375 6ZM6.375 11.25C6.22592 11.2479 6.07792 11.2754 5.93958 11.331C5.80124 11.3866 5.67533 11.4691 5.56916 11.5738C5.46299 11.6785 5.37869 11.8032 5.32115 11.9408C5.26361 12.0783 5.23398 12.2259 5.23398 12.375C5.23398 12.5241 5.26361 12.6717 5.32115 12.8092C5.37869 12.9468 5.46299 13.0715 5.56916 13.1762C5.67533 13.2809 5.80124 13.3634 5.93958 13.419C6.07792 13.4746 6.22592 13.5021 6.375 13.5H17.625C17.7741 13.5021 17.9221 13.4746 18.0604 13.419C18.1988 13.3634 18.3247 13.2809 18.4308 13.1762C18.537 13.0715 18.6213 12.9468 18.6788 12.8092C18.7364 12.6717 18.766 12.5241 18.766 12.375C18.766 12.2259 18.7364 12.0783 18.6788 11.9408C18.6213 11.8032 18.537 11.6785 18.4308 11.5738C18.3247 11.4691 18.1988 11.3866 18.0604 11.331C17.9221 11.2754 17.7741 11.2479 17.625 11.25H6.375ZM6.375 17.25C6.22592 17.2479 6.07792 17.2754 5.93958 17.331C5.80124 17.3866 5.67533 17.4691 5.56916 17.5738C5.46299 17.6785 5.37869 17.8032 5.32115 17.9408C5.26361 18.0783 5.23398 18.2259 5.23398 18.375C5.23398 18.5241 5.26361 18.6717 5.32115 18.8092C5.37869 18.9468 5.46299 19.0715 5.56916 19.1762C5.67533 19.2809 5.80124 19.3634 5.93958 19.419C6.07792 19.4746 6.22592 19.5021 6.375 19.5H11.625C11.7741 19.5021 11.9221 19.4746 12.0604 19.419C12.1988 19.3634 12.3247 19.2809 12.4308 19.1762C12.537 19.0715 12.6213 18.9468 12.6789 18.8092C12.7364 18.6717 12.766 18.5241 12.766 18.375C12.766 18.2259 12.7364 18.0783 12.6789 17.9408C12.6213 17.8032 12.537 17.6785 12.4308 17.5738C12.3247 17.4691 12.1988 17.3866 12.0604 17.331C11.9221 17.2754 11.7741 17.2479 11.625 17.25H6.375ZM6.375 23.25C6.22592 23.2479 6.07792 23.2754 5.93958 23.331C5.80124 23.3866 5.67533 23.4691 5.56916 23.5738C5.46299 23.6785 5.37869 23.8032 5.32115 23.9408C5.26361 24.0783 5.23398 24.2259 5.23398 24.375C5.23398 24.5241 5.26361 24.6717 5.32115 24.8092C5.37869 24.9468 5.46299 25.0715 5.56916 25.1762C5.67533 25.2809 5.80124 25.3634 5.93958 25.419C6.07792 25.4746 6.22592 25.5021 6.375 25.5H14.625C14.7741 25.5021 14.9221 25.4746 15.0604 25.419C15.1988 25.3634 15.3247 25.2809 15.4308 25.1762C15.537 25.0715 15.6213 24.9468 15.6789 24.8092C15.7364 24.6717 15.766 24.5241 15.766 24.375C15.766 24.2259 15.7364 24.0783 15.6789 23.9408C15.6213 23.8032 15.537 23.6785 15.4308 23.5738C15.3247 23.4691 15.1988 23.3866 15.0604 23.331C14.9221 23.2754 14.7741 23.2479 14.625 23.25H6.375Z" fill="#2F55DD"/>
</svg>
