<svg width="36" height="36" viewBox="0 0 36 36" fill="none" xmlns="http://www.w3.org/2000/svg">
<path d="M17.9839 4.50011C17.6911 4.50439 17.4116 4.62262 17.2046 4.8297L12.7046 9.3297C12.5966 9.43336 12.5104 9.55753 12.451 9.69492C12.3917 9.83232 12.3603 9.98018 12.3588 10.1298C12.3572 10.2795 12.3856 10.428 12.4422 10.5666C12.4988 10.7051 12.5824 10.831 12.6883 10.9369C12.7941 11.0427 12.92 11.1264 13.0586 11.1829C13.1971 11.2395 13.3456 11.2679 13.4953 11.2663C13.6449 11.2648 13.7928 11.2334 13.9302 11.1741C14.0676 11.1147 14.1917 11.0285 14.2954 10.9205L16.875 8.34093V24.3751C16.8729 24.5242 16.9004 24.6722 16.956 24.8105C17.0116 24.9489 17.0941 25.0748 17.1988 25.1809C17.3035 25.2871 17.4282 25.3714 17.5658 25.429C17.7033 25.4865 17.8509 25.5161 18 25.5161C18.1491 25.5161 18.2967 25.4865 18.4342 25.429C18.5718 25.3714 18.6965 25.2871 18.8012 25.1809C18.9059 25.0748 18.9884 24.9489 19.044 24.8105C19.0996 24.6722 19.1271 24.5242 19.125 24.3751V8.34093L21.7046 10.9205C21.8083 11.0285 21.9324 11.1147 22.0698 11.1741C22.2072 11.2334 22.3551 11.2648 22.5047 11.2663C22.6544 11.2679 22.8029 11.2395 22.9414 11.1829C23.08 11.1264 23.2059 11.0427 23.3117 10.9369C23.4176 10.831 23.5012 10.7051 23.5578 10.5666C23.6144 10.428 23.6427 10.2795 23.6412 10.1298C23.6397 9.98018 23.6083 9.83232 23.549 9.69492C23.4896 9.55753 23.4034 9.43336 23.2954 9.3297L18.7954 4.8297C18.689 4.7233 18.5624 4.6393 18.423 4.58269C18.2836 4.52608 18.1343 4.498 17.9839 4.50011ZM8.625 12.7501C6.36017 12.7501 4.5 14.6103 4.5 16.8751V27.3751C4.5 29.6399 6.36017 31.5001 8.625 31.5001H27.375C29.6398 31.5001 31.5 29.6399 31.5 27.3751V16.8751C31.5 14.6103 29.6398 12.7501 27.375 12.7501H25.875C25.7259 12.748 25.5779 12.7755 25.4396 12.8311C25.3012 12.8867 25.1753 12.9693 25.0692 13.0739C24.963 13.1786 24.8787 13.3033 24.8212 13.4409C24.7636 13.5784 24.734 13.726 24.734 13.8751C24.734 14.0242 24.7636 14.1718 24.8212 14.3093C24.8787 14.4469 24.963 14.5716 25.0692 14.6763C25.1753 14.781 25.3012 14.8635 25.4396 14.9191C25.5779 14.9747 25.7259 15.0022 25.875 15.0001H27.375C28.4237 15.0001 29.25 15.8264 29.25 16.8751V27.3751C29.25 28.4238 28.4237 29.2501 27.375 29.2501H8.625C7.57633 29.2501 6.75 28.4238 6.75 27.3751V16.8751C6.75 15.8264 7.57633 15.0001 8.625 15.0001H10.125C10.2741 15.0022 10.4221 14.9747 10.5604 14.9191C10.6988 14.8635 10.8247 14.781 10.9308 14.6763C11.037 14.5716 11.1213 14.4469 11.1789 14.3093C11.2364 14.1718 11.266 14.0242 11.266 13.8751C11.266 13.726 11.2364 13.5784 11.1789 13.4409C11.1213 13.3033 11.037 13.1786 10.9308 13.0739C10.8247 12.9693 10.6988 12.8867 10.5604 12.8311C10.4221 12.7755 10.2741 12.748 10.125 12.7501H8.625Z" fill="#5B5B5B"/>
</svg>
