<svg width="28" height="28" viewBox="0 0 28 28" fill="none" xmlns="http://www.w3.org/2000/svg">
<path d="M13.9839 0.500111C13.6911 0.504391 13.4116 0.622625 13.2046 0.829701L8.70459 5.3297C8.59662 5.43336 8.51042 5.55753 8.45104 5.69492C8.39166 5.83232 8.36029 5.98018 8.35877 6.12985C8.35725 6.27952 8.38561 6.42799 8.44218 6.56656C8.49876 6.70513 8.58241 6.83102 8.68825 6.93686C8.79409 7.0427 8.91998 7.12635 9.05855 7.18293C9.19713 7.2395 9.34559 7.26786 9.49526 7.26634C9.64493 7.26482 9.79279 7.23345 9.93019 7.17407C10.0676 7.11469 10.1917 7.02849 10.2954 6.92052L12.875 4.34093V20.3751C12.8729 20.5242 12.9004 20.6722 12.956 20.8105C13.0116 20.9489 13.0941 21.0748 13.1988 21.1809C13.3035 21.2871 13.4282 21.3714 13.5658 21.429C13.7033 21.4865 13.8509 21.5161 14 21.5161C14.1491 21.5161 14.2967 21.4865 14.4342 21.429C14.5718 21.3714 14.6965 21.2871 14.8012 21.1809C14.9059 21.0748 14.9884 20.9489 15.044 20.8105C15.0996 20.6722 15.1271 20.5242 15.125 20.3751V4.34093L17.7046 6.92052C17.8083 7.02849 17.9324 7.11469 18.0698 7.17407C18.2072 7.23345 18.3551 7.26482 18.5047 7.26634C18.6544 7.26786 18.8029 7.2395 18.9414 7.18293C19.08 7.12635 19.2059 7.0427 19.3117 6.93686C19.4176 6.83102 19.5012 6.70513 19.5578 6.56656C19.6144 6.42799 19.6427 6.27952 19.6412 6.12985C19.6397 5.98018 19.6083 5.83232 19.549 5.69492C19.4896 5.55753 19.4034 5.43336 19.2954 5.3297L14.7954 0.829701C14.689 0.723296 14.5624 0.639304 14.423 0.582692C14.2836 0.526081 14.1343 0.498 13.9839 0.500111ZM4.625 8.75011C2.36017 8.75011 0.5 10.6103 0.5 12.8751V23.3751C0.5 25.6399 2.36017 27.5001 4.625 27.5001H23.375C25.6398 27.5001 27.5 25.6399 27.5 23.3751V12.8751C27.5 10.6103 25.6398 8.75011 23.375 8.75011H21.875C21.7259 8.748 21.5779 8.77554 21.4396 8.83113C21.3012 8.88673 21.1753 8.96926 21.0692 9.07393C20.963 9.17861 20.8787 9.30334 20.8212 9.44088C20.7636 9.57842 20.734 9.72602 20.734 9.87511C20.734 10.0242 20.7636 10.1718 20.8212 10.3093C20.8787 10.4469 20.963 10.5716 21.0692 10.6763C21.1753 10.781 21.3012 10.8635 21.4396 10.9191C21.5779 10.9747 21.7259 11.0022 21.875 11.0001H23.375C24.4237 11.0001 25.25 11.8264 25.25 12.8751V23.3751C25.25 24.4238 24.4237 25.2501 23.375 25.2501H4.625C3.57633 25.2501 2.75 24.4238 2.75 23.3751V12.8751C2.75 11.8264 3.57633 11.0001 4.625 11.0001H6.125C6.27408 11.0022 6.42208 10.9747 6.56042 10.9191C6.69876 10.8635 6.82467 10.781 6.93084 10.6763C7.03701 10.5716 7.12131 10.4469 7.17885 10.3093C7.23639 10.1718 7.26602 10.0242 7.26602 9.87511C7.26602 9.72602 7.23639 9.57842 7.17885 9.44088C7.12131 9.30334 7.03701 9.17861 6.93084 9.07393C6.82467 8.96926 6.69876 8.88673 6.56042 8.83113C6.42208 8.77554 6.27408 8.748 6.125 8.75011H4.625Z" fill="#5B5B5B"/>
</svg>
