<svg width="36" height="36" viewBox="0 0 36 36" fill="none" xmlns="http://www.w3.org/2000/svg">
<path d="M11.005 12.1699C7.78609 12.1699 5.17578 14.7802 5.17578 17.9991C5.17578 21.218 7.78609 23.8283 11.005 23.8283H15.6683V21.4966H11.005C9.07317 21.4966 7.50745 19.9309 7.50745 17.9991C7.50745 16.0673 9.07317 14.5016 11.005 14.5016H15.6683V12.1699H11.005ZM20.3317 12.1699V14.5016H24.995C26.9268 14.5016 28.4925 16.0673 28.4925 17.9991C28.4925 19.9309 26.9268 21.4966 24.995 21.4966H20.3317V23.8283H24.995C28.2139 23.8283 30.8242 21.218 30.8242 17.9991C30.8242 14.7802 28.2139 12.1699 24.995 12.1699H20.3317ZM12.1708 16.8333V19.1649H23.8292V16.8333H12.1708Z" fill="#5B5B5B"/>
</svg>
