<svg width="30" height="24" viewBox="0 0 30 24" fill="none" xmlns="http://www.w3.org/2000/svg">
<path d="M4.875 0.75C2.19605 0.75 0 2.94605 0 5.625V18.375C0 21.054 2.19605 23.25 4.875 23.25H17.625C20.304 23.25 22.5 21.054 22.5 18.375V17.3628L28.2964 20.8403C28.4671 20.9427 28.662 20.9979 28.8611 21.0004C29.0602 21.0028 29.2563 20.9524 29.4296 20.8542C29.6028 20.7561 29.7469 20.6137 29.8471 20.4417C29.9473 20.2696 30.0001 20.0741 30 19.875V4.125C30.0001 3.97439 29.9699 3.8253 29.9112 3.68657C29.8526 3.54785 29.7667 3.4223 29.6586 3.31739C29.5506 3.21247 29.4226 3.13032 29.2822 3.0758C29.1418 3.02128 28.9919 2.99551 28.8413 3C28.649 3.00576 28.4614 3.06073 28.2964 3.15967L22.5 6.63721V5.625C22.5 2.94605 20.304 0.75 17.625 0.75H4.875ZM4.875 3H17.625C19.0875 3 20.25 4.16245 20.25 5.625V8.58984V15.3618V18.375C20.25 19.8375 19.0875 21 17.625 21H4.875C3.41245 21 2.25 19.8375 2.25 18.375V5.625C2.25 4.16245 3.41245 3 4.875 3ZM27.75 6.11279V17.8872L22.5 14.7378V9.26221L27.75 6.11279Z" fill="#5B5B5B"/>
</svg>
