<svg width="36" height="36" viewBox="0 0 36 36" fill="none" xmlns="http://www.w3.org/2000/svg">
<circle cx="18" cy="18" r="18" fill="#2F55DD"/>
<path d="M27.7345 10.4925C27.5397 10.4982 27.3548 10.5794 27.2189 10.7191L14.2491 23.6888L8.77941 18.2191C8.7103 18.1471 8.62753 18.0896 8.53593 18.05C8.44434 18.0104 8.34576 17.9895 8.24598 17.9885C8.1462 17.9875 8.04722 18.0064 7.95484 18.0441C7.86246 18.0818 7.77853 18.1376 7.70797 18.2082C7.63741 18.2787 7.58164 18.3627 7.54393 18.455C7.50621 18.5474 7.48731 18.6464 7.48832 18.7462C7.48933 18.846 7.51025 18.9445 7.54984 19.0361C7.58942 19.1277 7.64689 19.2105 7.71887 19.2796L13.7189 25.2796C13.8595 25.4202 14.0503 25.4992 14.2491 25.4992C14.448 25.4992 14.6388 25.4202 14.7794 25.2796L28.2794 11.7796C28.3876 11.6742 28.4615 11.5386 28.4913 11.3906C28.5212 11.2425 28.5057 11.0889 28.4468 10.9498C28.3879 10.8107 28.2884 10.6927 28.1613 10.6111C28.0342 10.5295 27.8855 10.4882 27.7345 10.4925Z" fill="white"/>
</svg>
