<svg width="24" height="24" viewBox="0 0 24 24" fill="none" xmlns="http://www.w3.org/2000/svg">
<path d="M4.75 3C3.51625 3 2.5 4.01625 2.5 5.25V18.75C2.5 19.9838 3.51625 21 4.75 21H7.75C8.32899 21 8.84937 20.7625 9.25 20.3975C9.65063 20.7625 10.171 21 10.75 21H13.25C13.829 21 14.3494 20.7625 14.75 20.3975C15.1506 20.7625 15.671 21 16.25 21H19.25C20.4838 21 21.5 19.9838 21.5 18.75V5.25C21.5 4.01625 20.4838 3 19.25 3H16.25C15.0162 3 14 4.01625 14 5.25V6.15332C13.7628 6.06728 13.5153 6 13.25 6H10.75C10.4847 6 10.2372 6.06728 10 6.15332V5.25C10 4.01625 8.98375 3 7.75 3H4.75ZM4.75 4.5H7.75C8.17325 4.5 8.5 4.82675 8.5 5.25V8.25V18.75C8.5 19.1733 8.17325 19.5 7.75 19.5H4.75C4.32675 19.5 4 19.1733 4 18.75V5.25C4 4.82675 4.32675 4.5 4.75 4.5ZM16.25 4.5H19.25C19.6733 4.5 20 4.82675 20 5.25V18.75C20 19.1733 19.6733 19.5 19.25 19.5H16.25C15.8268 19.5 15.5 19.1733 15.5 18.75V8.25V5.25C15.5 4.82675 15.8268 4.5 16.25 4.5ZM6.23828 5.98926C6.03954 5.99236 5.85016 6.07423 5.71173 6.21686C5.5733 6.3595 5.49715 6.55125 5.5 6.75V13.75C5.49859 13.8494 5.51696 13.9481 5.55402 14.0403C5.59108 14.1325 5.6461 14.2164 5.71588 14.2872C5.78566 14.358 5.86882 14.4142 5.96051 14.4526C6.0522 14.4909 6.15061 14.5107 6.25 14.5107C6.34939 14.5107 6.4478 14.4909 6.53949 14.4526C6.63118 14.4142 6.71434 14.358 6.78412 14.2872C6.8539 14.2164 6.90892 14.1325 6.94598 14.0403C6.98304 13.9481 7.00141 13.8494 7 13.75V6.75C7.00144 6.64962 6.98271 6.54997 6.94493 6.45695C6.90715 6.36394 6.85108 6.27946 6.78005 6.20852C6.70901 6.13757 6.62446 6.08161 6.5314 6.04395C6.43834 6.00629 6.33866 5.98769 6.23828 5.98926ZM17.7383 5.98926C17.5395 5.99236 17.3502 6.07423 17.2117 6.21686C17.0733 6.3595 16.9971 6.55125 17 6.75V13.75C16.9986 13.8494 17.017 13.9481 17.054 14.0403C17.0911 14.1325 17.1461 14.2164 17.2159 14.2872C17.2857 14.358 17.3688 14.4142 17.4605 14.4526C17.5522 14.4909 17.6506 14.5107 17.75 14.5107C17.8494 14.5107 17.9478 14.4909 18.0395 14.4526C18.1312 14.4142 18.2143 14.358 18.2841 14.2872C18.3539 14.2164 18.4089 14.1325 18.446 14.0403C18.483 13.9481 18.5014 13.8494 18.5 13.75V6.75C18.5014 6.64962 18.4827 6.54997 18.4449 6.45695C18.4071 6.36394 18.3511 6.27946 18.28 6.20852C18.209 6.13757 18.1245 6.08161 18.0314 6.04395C17.9383 6.00629 17.8387 5.98769 17.7383 5.98926ZM10.75 7.5H13.25C13.6732 7.5 14 7.82675 14 8.25V18.75C14 19.1733 13.6732 19.5 13.25 19.5H10.75C10.3268 19.5 10 19.1733 10 18.75V8.25C10 7.82675 10.3268 7.5 10.75 7.5ZM11.75 9C11.6506 8.99859 11.5519 9.01696 11.4597 9.05402C11.3675 9.09108 11.2836 9.1461 11.2128 9.21588C11.142 9.28566 11.0858 9.36882 11.0474 9.46051C11.0091 9.5522 10.9893 9.65061 10.9893 9.75C10.9893 9.84939 11.0091 9.9478 11.0474 10.0395C11.0858 10.1312 11.142 10.2143 11.2128 10.2841C11.2836 10.3539 11.3675 10.4089 11.4597 10.446C11.5519 10.483 11.6506 10.5014 11.75 10.5H12.25C12.3494 10.5014 12.4481 10.483 12.5403 10.446C12.6325 10.4089 12.7164 10.3539 12.7872 10.2841C12.858 10.2143 12.9142 10.1312 12.9526 10.0395C12.9909 9.9478 13.0107 9.84939 13.0107 9.75C13.0107 9.65061 12.9909 9.5522 12.9526 9.46051C12.9142 9.36882 12.858 9.28566 12.7872 9.21588C12.7164 9.1461 12.6325 9.09108 12.5403 9.05402C12.4481 9.01696 12.3494 8.99859 12.25 9H11.75ZM5.75 16.5C5.65062 16.4986 5.55194 16.517 5.45972 16.554C5.36749 16.5911 5.28355 16.6461 5.21277 16.7159C5.142 16.7857 5.08579 16.8688 5.04743 16.9605C5.00907 17.0522 4.98932 17.1506 4.98932 17.25C4.98932 17.3494 5.00907 17.4478 5.04743 17.5395C5.08579 17.6312 5.142 17.7143 5.21277 17.7841C5.28355 17.8539 5.36749 17.9089 5.45972 17.946C5.55194 17.983 5.65062 18.0014 5.75 18H6.75C6.84938 18.0014 6.94806 17.983 7.04028 17.946C7.13251 17.9089 7.21645 17.8539 7.28723 17.7841C7.358 17.7143 7.41421 17.6312 7.45257 17.5395C7.49093 17.4478 7.51068 17.3494 7.51068 17.25C7.51068 17.1506 7.49093 17.0522 7.45257 16.9605C7.41421 16.8688 7.358 16.7857 7.28723 16.7159C7.21645 16.6461 7.13251 16.5911 7.04028 16.554C6.94806 16.517 6.84938 16.4986 6.75 16.5H5.75ZM11.75 16.5C11.6506 16.4986 11.5519 16.517 11.4597 16.554C11.3675 16.5911 11.2836 16.6461 11.2128 16.7159C11.142 16.7857 11.0858 16.8688 11.0474 16.9605C11.0091 17.0522 10.9893 17.1506 10.9893 17.25C10.9893 17.3494 11.0091 17.4478 11.0474 17.5395C11.0858 17.6312 11.142 17.7143 11.2128 17.7841C11.2836 17.8539 11.3675 17.9089 11.4597 17.946C11.5519 17.983 11.6506 18.0014 11.75 18H12.25C12.3494 18.0014 12.4481 17.983 12.5403 17.946C12.6325 17.9089 12.7164 17.8539 12.7872 17.7841C12.858 17.7143 12.9142 17.6312 12.9526 17.5395C12.9909 17.4478 13.0107 17.3494 13.0107 17.25C13.0107 17.1506 12.9909 17.0522 12.9526 16.9605C12.9142 16.8688 12.858 16.7857 12.7872 16.7159C12.7164 16.6461 12.6325 16.5911 12.5403 16.554C12.4481 16.517 12.3494 16.4986 12.25 16.5H11.75ZM17.25 16.5C17.1506 16.4986 17.0519 16.517 16.9597 16.554C16.8675 16.5911 16.7836 16.6461 16.7128 16.7159C16.642 16.7857 16.5858 16.8688 16.5474 16.9605C16.5091 17.0522 16.4893 17.1506 16.4893 17.25C16.4893 17.3494 16.5091 17.4478 16.5474 17.5395C16.5858 17.6312 16.642 17.7143 16.7128 17.7841C16.7836 17.8539 16.8675 17.9089 16.9597 17.946C17.0519 17.983 17.1506 18.0014 17.25 18H18.25C18.3494 18.0014 18.4481 17.983 18.5403 17.946C18.6325 17.9089 18.7164 17.8539 18.7872 17.7841C18.858 17.7143 18.9142 17.6312 18.9526 17.5395C18.9909 17.4478 19.0107 17.3494 19.0107 17.25C19.0107 17.1506 18.9909 17.0522 18.9526 16.9605C18.9142 16.8688 18.858 16.7857 18.7872 16.7159C18.7164 16.6461 18.6325 16.5911 18.5403 16.554C18.4481 16.517 18.3494 16.4986 18.25 16.5H17.25Z" fill="#2F55DD"/>
</svg>
