<svg width="20" height="20" viewBox="0 0 20 20" fill="none" xmlns="http://www.w3.org/2000/svg">
<path d="M18.1199 15.0076C17.9548 15.0037 17.798 14.9347 17.6837 14.8156L10.0006 7.13248L2.31746 14.8156C2.2592 14.8756 2.1895 14.9233 2.11247 14.9558C2.03545 14.9884 1.95268 15.0052 1.86905 15.0052C1.74467 15.0052 1.62312 14.968 1.51996 14.8985C1.4168 14.829 1.33673 14.7303 1.28997 14.6151C1.24322 14.4998 1.23192 14.3732 1.25752 14.2515C1.28312 14.1298 1.34445 14.0185 1.43367 13.9318L9.55867 5.80679C9.67588 5.68963 9.83483 5.62381 10.0006 5.62381C10.1663 5.62381 10.3252 5.68963 10.4425 5.80679L18.5675 13.9318C18.6583 14.019 18.7208 14.1317 18.7465 14.255C18.7722 14.3783 18.7601 14.5065 18.7117 14.6228C18.6633 14.7392 18.5809 14.8381 18.4753 14.9068C18.3697 14.9755 18.2458 15.0106 18.1199 15.0076Z" fill="#2F55DD"/>
</svg>
