<svg width="36" height="34" viewBox="0 0 36 34" fill="none" xmlns="http://www.w3.org/2000/svg">
<path d="M11.005 10.9922C7.78609 10.9922 5.17578 13.6025 5.17578 16.8214C5.17578 20.0402 7.78609 22.6506 11.005 22.6506H15.6683V20.3189H11.005C9.07317 20.3189 7.50745 18.7532 7.50745 16.8214C7.50745 14.8896 9.07317 13.3239 11.005 13.3239H15.6683V10.9922H11.005ZM20.3317 10.9922V13.3239H24.995C26.9268 13.3239 28.4925 14.8896 28.4925 16.8214C28.4925 18.7532 26.9268 20.3189 24.995 20.3189H20.3317V22.6506H24.995C28.2139 22.6506 30.8242 20.0402 30.8242 16.8214C30.8242 13.6025 28.2139 10.9922 24.995 10.9922H20.3317ZM12.1708 15.6555V17.9872H23.8292V15.6555H12.1708Z" fill="#5B5B5B"/>
</svg>
