<svg width="36" height="36" viewBox="0 0 36 36" fill="none" xmlns="http://www.w3.org/2000/svg">
<circle cx="18" cy="18" r="18" fill="#2F55DD"/>
<g clip-path="url(#clip0_5032_3903)">
<rect x="6" y="6" width="24" height="24" rx="2" fill="#2F55DD"/>
<path d="M10.7509 9.00008C10.6515 8.99867 10.5529 9.01703 10.4606 9.05409C10.3684 9.09115 10.2845 9.14617 10.2137 9.21595C10.1429 9.28574 10.0867 9.36889 10.0483 9.46059C10.01 9.55228 9.99023 9.65068 9.99023 9.75007C9.99023 9.84947 10.01 9.94787 10.0483 10.0396C10.0867 10.1313 10.1429 10.2144 10.2137 10.2842C10.2845 10.354 10.3684 10.409 10.4606 10.4461C10.5529 10.4831 10.6515 10.5015 10.7509 10.5001H11.0009V11.5001C11.0009 14.465 12.8871 16.9426 15.5009 17.9591V18.0411C12.8871 19.0576 11.0009 21.5351 11.0009 24.5001V25.5001H10.7509C10.6515 25.4987 10.5529 25.517 10.4606 25.5541C10.3684 25.5912 10.2845 25.6462 10.2137 25.716C10.1429 25.7857 10.0867 25.8689 10.0483 25.9606C10.01 26.0523 9.99023 26.1507 9.99023 26.2501C9.99023 26.3495 10.01 26.4479 10.0483 26.5396C10.0867 26.6313 10.1429 26.7144 10.2137 26.7842C10.2845 26.854 10.3684 26.909 10.4606 26.9461C10.5529 26.9831 10.6515 27.0015 10.7509 27.0001H11.7509H24.2509H25.2509C25.3503 27.0015 25.449 26.9831 25.5412 26.9461C25.6334 26.909 25.7174 26.854 25.7881 26.7842C25.8589 26.7144 25.9151 26.6313 25.9535 26.5396C25.9918 26.4479 26.0116 26.3495 26.0116 26.2501C26.0116 26.1507 25.9918 26.0523 25.9535 25.9606C25.9151 25.8689 25.8589 25.7857 25.7881 25.716C25.7174 25.6462 25.6334 25.5912 25.5412 25.5541C25.449 25.517 25.3503 25.4987 25.2509 25.5001H25.0009V24.5001C25.0009 21.5351 23.1147 19.0576 20.5009 18.0411V17.9591C23.1147 16.9426 25.0009 14.465 25.0009 11.5001V10.5001H25.2509C25.3503 10.5015 25.449 10.4831 25.5412 10.4461C25.6334 10.409 25.7174 10.354 25.7881 10.2842C25.8589 10.2144 25.9151 10.1313 25.9535 10.0396C25.9918 9.94787 26.0116 9.84947 26.0116 9.75007C26.0116 9.65068 25.9918 9.55228 25.9535 9.46059C25.9151 9.36889 25.8589 9.28574 25.7881 9.21595C25.7174 9.14617 25.6334 9.09115 25.5412 9.05409C25.449 9.01703 25.3503 8.99867 25.2509 9.00008H24.2509H11.7509H10.7509ZM12.5009 10.5001H23.5009V11.5001C23.5009 14.0093 21.8264 16.1113 19.541 16.7774C19.3852 16.8228 19.2484 16.9175 19.151 17.0473C19.0537 17.1771 19.001 17.3349 19.0009 17.4971V18.503C19.001 18.6652 19.0537 18.8231 19.151 18.9528C19.2484 19.0826 19.3852 19.1773 19.541 19.2227C21.8264 19.8888 23.5009 21.9908 23.5009 24.5001V25.5001H12.5009V24.5001C12.5009 21.9908 14.1754 19.8888 16.4609 19.2227C16.6166 19.1773 16.7534 19.0826 16.8508 18.9528C16.9482 18.8231 17.0008 18.6652 17.0009 18.503V17.4971C17.0008 17.3349 16.9482 17.1771 16.8508 17.0473C16.7534 16.9175 16.6166 16.8228 16.4609 16.7774C14.1754 16.1113 12.5009 14.0093 12.5009 11.5001V10.5001ZM14.54 12.0001C14.237 12.0001 13.9985 12.2684 14.041 12.5684C14.317 14.5084 15.9849 16.0001 18.0009 16.0001C20.0169 16.0001 21.6849 14.5084 21.9609 12.5684C22.0034 12.2684 21.7649 12.0001 21.4619 12.0001H14.54Z" fill="white"/>
</g>
<defs>
<clipPath id="clip0_5032_3903">
<rect x="6" y="6" width="24" height="24" rx="2" fill="white"/>
</clipPath>
</defs>
</svg>
