<svg width="36" height="36" viewBox="0 0 36 36" fill="none" xmlns="http://www.w3.org/2000/svg">
<circle cx="18" cy="18" r="18" fill="#2F55DD"/>
<path d="M10.25 8.5C9.5682 8.5 9 9.0682 9 9.75V13.25C9 13.8463 9.43494 14.3562 10 14.4746V25.25C10 26.4838 11.0162 27.5 12.25 27.5H23.75C24.9838 27.5 26 26.4838 26 25.25V14.4746C26.5651 14.3562 27 13.8463 27 13.25V9.75C27 9.0682 26.4318 8.5 25.75 8.5H10.25ZM10.5 10H25.5V13H25.25H10.75H10.5V10ZM11.5 14.5H24.5V25.25C24.5 25.6733 24.1732 26 23.75 26H12.25C11.8268 26 11.5 25.6733 11.5 25.25V14.5ZM15.75 16.5C15.6506 16.4986 15.5519 16.517 15.4597 16.554C15.3675 16.5911 15.2836 16.6461 15.2128 16.7159C15.142 16.7857 15.0858 16.8688 15.0474 16.9605C15.0091 17.0522 14.9893 17.1506 14.9893 17.25C14.9893 17.3494 15.0091 17.4478 15.0474 17.5395C15.0858 17.6312 15.142 17.7143 15.2128 17.7841C15.2836 17.8539 15.3675 17.9089 15.4597 17.946C15.5519 17.983 15.6506 18.0014 15.75 18H20.25C20.3494 18.0014 20.4481 17.983 20.5403 17.946C20.6325 17.9089 20.7164 17.8539 20.7872 17.7841C20.858 17.7143 20.9142 17.6312 20.9526 17.5395C20.9909 17.4478 21.0107 17.3494 21.0107 17.25C21.0107 17.1506 20.9909 17.0522 20.9526 16.9605C20.9142 16.8688 20.858 16.7857 20.7872 16.7159C20.7164 16.6461 20.6325 16.5911 20.5403 16.554C20.4481 16.517 20.3494 16.4986 20.25 16.5H15.75Z" fill="white"/>
</svg>
