<svg width="36" height="36" viewBox="0 0 36 36" fill="none" xmlns="http://www.w3.org/2000/svg">
<circle cx="18" cy="18" r="18" fill="#2F55DD"/>
<rect x="6" y="6" width="24" height="24" rx="2" fill="#2F55DD"/>
<path d="M18 8C12.486 8 8 12.486 8 18C8 23.514 12.486 28 18 28C23.514 28 28 23.514 28 18C28 12.486 23.514 8 18 8ZM18 9.5C22.7033 9.5 26.5 13.2967 26.5 18C26.5 22.7033 22.7033 26.5 18 26.5C13.2967 26.5 9.5 22.7033 9.5 18C9.5 13.2967 13.2967 9.5 18 9.5ZM18 12.5C16.3521 12.5 15 13.8521 15 15.5V15.75C14.9986 15.8494 15.017 15.9481 15.054 16.0403C15.0911 16.1325 15.1461 16.2164 15.2159 16.2872C15.2857 16.358 15.3688 16.4142 15.4605 16.4526C15.5522 16.4909 15.6506 16.5107 15.75 16.5107C15.8494 16.5107 15.9478 16.4909 16.0395 16.4526C16.1312 16.4142 16.2143 16.358 16.2841 16.2872C16.3539 16.2164 16.4089 16.1325 16.446 16.0403C16.483 15.9481 16.5014 15.8494 16.5 15.75V15.5C16.5 14.6629 17.1629 14 18 14C18.8371 14 19.5 14.6629 19.5 15.5C19.5 16.6705 19.1957 16.8171 18.6621 17.2363C18.3953 17.4459 18.0459 17.6876 17.7471 18.0947C17.4483 18.5019 17.25 19.0694 17.25 19.75C17.2486 19.8494 17.267 19.9481 17.304 20.0403C17.3411 20.1325 17.3961 20.2164 17.4659 20.2872C17.5357 20.358 17.6188 20.4142 17.7105 20.4526C17.8022 20.4909 17.9006 20.5107 18 20.5107C18.0994 20.5107 18.1978 20.4909 18.2895 20.4526C18.3812 20.4142 18.4643 20.358 18.5341 20.2872C18.6039 20.2164 18.6589 20.1325 18.696 20.0403C18.733 19.9481 18.7514 19.8494 18.75 19.75C18.75 19.3234 18.833 19.1501 18.9561 18.9824C19.0791 18.8147 19.2922 18.6483 19.5879 18.416C20.1793 17.9513 21 17.0795 21 15.5C21 13.8521 19.6479 12.5 18 12.5ZM18 22C17.7348 22 17.4804 22.1054 17.2929 22.2929C17.1054 22.4804 17 22.7348 17 23C17 23.2652 17.1054 23.5196 17.2929 23.7071C17.4804 23.8946 17.7348 24 18 24C18.2652 24 18.5196 23.8946 18.7071 23.7071C18.8946 23.5196 19 23.2652 19 23C19 22.7348 18.8946 22.4804 18.7071 22.2929C18.5196 22.1054 18.2652 22 18 22Z" fill="white"/>
</svg>
