<svg width="49" height="48" viewBox="0 0 49 48" fill="none" xmlns="http://www.w3.org/2000/svg">
<path d="M37.9258 6.06596C37.602 6.04846 37.2759 6.09744 36.9609 6.21244L36.4902 6.37064L5.83984 17.191C5.37984 17.351 5.00047 17.6415 4.73047 18.0015H12.5801L34.6602 10.2007C35.1002 11.4307 36.2502 12.2007 37.4902 12.2007C37.8202 12.2007 38.1602 12.1508 38.4902 12.0308L40.5996 18.0015H43.7793L40.3203 8.20072L40.1504 7.73197C39.9304 7.10197 39.4791 6.60205 38.8691 6.31205C38.5691 6.16705 38.2495 6.08346 37.9258 6.06596ZM34.9219 16.1089C34.6616 16.0931 34.3934 16.1297 34.1309 16.2222C33.3509 16.5022 32.8505 17.2215 32.8105 18.0015H36.7891C36.7891 17.8115 36.7595 17.631 36.6895 17.441C36.412 16.661 35.7028 16.1563 34.9219 16.1089ZM24.5996 16.1519C24.0896 16.1519 23.5703 16.2417 23.0703 16.4117C22.1903 16.7217 21.4499 17.2815 20.9199 18.0015H28.4805C27.4805 16.8315 26.0496 16.1519 24.5996 16.1519ZM8 21.0015C6.63641 21.0015 5.5 22.1379 5.5 23.5015V39.5015C5.5 40.8651 6.63641 42.0015 8 42.0015H41C42.3636 42.0015 43.5 40.8651 43.5 39.5015V23.5015C43.5 22.1379 42.3636 21.0015 41 21.0015H8ZM11.5 24.0015H37.5C37.5 25.6585 38.843 27.0015 40.5 27.0015V36.0015C38.843 36.0015 37.5 37.3445 37.5 39.0015H11.5C11.5 37.3445 10.157 36.0015 8.5 36.0015V27.0015C10.157 27.0015 11.5 25.6585 11.5 24.0015ZM24.5 26.0015C21.739 26.0015 19.5 28.4635 19.5 31.5015C19.5 34.5395 21.739 37.0015 24.5 37.0015C27.261 37.0015 29.5 34.5395 29.5 31.5015C29.5 28.4635 27.261 26.0015 24.5 26.0015ZM24.5 29.0015C25.584 29.0015 26.5 30.1465 26.5 31.5015C26.5 32.8565 25.584 34.0015 24.5 34.0015C23.416 34.0015 22.5 32.8565 22.5 31.5015C22.5 30.1465 23.416 29.0015 24.5 29.0015ZM14 29.5015C13.4696 29.5015 12.9609 29.7122 12.5858 30.0873C12.2107 30.4624 12 30.9711 12 31.5015C12 32.0319 12.2107 32.5406 12.5858 32.9157C12.9609 33.2908 13.4696 33.5015 14 33.5015C14.5304 33.5015 15.0391 33.2908 15.4142 32.9157C15.7893 32.5406 16 32.0319 16 31.5015C16 30.9711 15.7893 30.4624 15.4142 30.0873C15.0391 29.7122 14.5304 29.5015 14 29.5015ZM35 29.5015C34.4696 29.5015 33.9609 29.7122 33.5858 30.0873C33.2107 30.4624 33 30.9711 33 31.5015C33 32.0319 33.2107 32.5406 33.5858 32.9157C33.9609 33.2908 34.4696 33.5015 35 33.5015C35.5304 33.5015 36.0391 33.2908 36.4142 32.9157C36.7893 32.5406 37 32.0319 37 31.5015C37 30.9711 36.7893 30.4624 36.4142 30.0873C36.0391 29.7122 35.5304 29.5015 35 29.5015Z" fill="#4CAF50"/>
</svg>
