<svg width="49" height="48" viewBox="0 0 49 48" fill="none" xmlns="http://www.w3.org/2000/svg">
<path d="M9 8C6.5325 8 4.5 10.0325 4.5 12.5V35.5C4.5 37.9675 6.5325 40 9 40H40C42.4675 40 44.5 37.9675 44.5 35.5V12.5C44.5 10.0325 42.4675 8 40 8H9ZM9 11H40C40.8465 11 41.5 11.6535 41.5 12.5V35.5C41.5 36.3465 40.8465 37 40 37H9C8.1535 37 7.5 36.3465 7.5 35.5V12.5C7.5 11.6535 8.1535 11 9 11ZM36.9707 12.9863C36.5811 12.9977 36.2113 13.1602 35.9395 13.4395L33 16.3789L32.0605 15.4395C31.9223 15.2955 31.7568 15.1806 31.5736 15.1014C31.3904 15.0222 31.1932 14.9804 30.9937 14.9784C30.7941 14.9763 30.5962 15.0141 30.4114 15.0896C30.2266 15.165 30.0588 15.2766 29.9177 15.4177C29.7766 15.5588 29.665 15.7266 29.5896 15.9114C29.5141 16.0962 29.4763 16.2941 29.4784 16.4937C29.4804 16.6932 29.5222 16.8904 29.6014 17.0736C29.6806 17.2568 29.7955 17.4223 29.9395 17.5605L31.9395 19.5605C32.2208 19.8417 32.6022 19.9997 33 19.9997C33.3978 19.9997 33.7792 19.8417 34.0605 19.5605L38.0605 15.5605C38.2769 15.3498 38.4247 15.0786 38.4844 14.7825C38.5442 14.4864 38.5131 14.1792 38.3953 13.901C38.2776 13.6228 38.0786 13.3867 37.8244 13.2235C37.5702 13.0603 37.2726 12.9776 36.9707 12.9863ZM12 15C11.8012 14.9972 11.6039 15.0339 11.4194 15.108C11.235 15.1822 11.0671 15.2922 10.9255 15.4318C10.784 15.5713 10.6716 15.7376 10.5949 15.921C10.5181 16.1044 10.4786 16.3012 10.4786 16.5C10.4786 16.6988 10.5181 16.8956 10.5949 17.079C10.6716 17.2624 10.784 17.4287 10.9255 17.5682C11.0671 17.7078 11.235 17.8178 11.4194 17.892C11.6039 17.9661 11.8012 18.0028 12 18H25C25.1988 18.0028 25.3961 17.9661 25.5806 17.892C25.765 17.8178 25.9329 17.7078 26.0745 17.5682C26.216 17.4287 26.3284 17.2624 26.4051 17.079C26.4819 16.8956 26.5214 16.6988 26.5214 16.5C26.5214 16.3012 26.4819 16.1044 26.4051 15.921C26.3284 15.7376 26.216 15.5713 26.0745 15.4318C25.9329 15.2922 25.765 15.1822 25.5806 15.108C25.3961 15.0339 25.1988 14.9972 25 15H12ZM36.9707 19.9863C36.5811 19.9977 36.2113 20.1602 35.9395 20.4395L33 23.3789L32.0605 22.4395C31.9223 22.2955 31.7568 22.1806 31.5736 22.1014C31.3904 22.0222 31.1932 21.9804 30.9937 21.9784C30.7941 21.9763 30.5962 22.0141 30.4114 22.0896C30.2266 22.165 30.0588 22.2766 29.9177 22.4177C29.7766 22.5588 29.665 22.7266 29.5896 22.9114C29.5141 23.0962 29.4763 23.2941 29.4784 23.4937C29.4804 23.6932 29.5222 23.8904 29.6014 24.0736C29.6806 24.2568 29.7955 24.4223 29.9395 24.5605L31.9395 26.5605C32.2208 26.8417 32.6022 26.9997 33 26.9997C33.3978 26.9997 33.7792 26.8417 34.0605 26.5605L38.0605 22.5605C38.2769 22.3498 38.4247 22.0786 38.4844 21.7825C38.5442 21.4864 38.5131 21.1792 38.3953 20.901C38.2776 20.6228 38.0786 20.3867 37.8244 20.2235C37.5702 20.0603 37.2726 19.9776 36.9707 19.9863ZM12 22.5C11.8012 22.4972 11.6039 22.5339 11.4194 22.608C11.235 22.6822 11.0671 22.7922 10.9255 22.9318C10.784 23.0713 10.6716 23.2376 10.5949 23.421C10.5181 23.6044 10.4786 23.8012 10.4786 24C10.4786 24.1988 10.5181 24.3956 10.5949 24.579C10.6716 24.7624 10.784 24.9287 10.9255 25.0682C11.0671 25.2078 11.235 25.3178 11.4194 25.392C11.6039 25.4661 11.8012 25.5028 12 25.5H25C25.1988 25.5028 25.3961 25.4661 25.5806 25.392C25.765 25.3178 25.9329 25.2078 26.0745 25.0682C26.216 24.9287 26.3284 24.7624 26.4051 24.579C26.4819 24.3956 26.5214 24.1988 26.5214 24C26.5214 23.8012 26.4819 23.6044 26.4051 23.421C26.3284 23.2376 26.216 23.0713 26.0745 22.9318C25.9329 22.7922 25.765 22.6822 25.5806 22.608C25.3961 22.5339 25.1988 22.4972 25 22.5H12ZM36.9707 26.9863C36.5811 26.9977 36.2113 27.1602 35.9395 27.4395L33 30.3789L32.0605 29.4395C31.9223 29.2955 31.7568 29.1806 31.5736 29.1014C31.3904 29.0222 31.1932 28.9804 30.9937 28.9784C30.7941 28.9763 30.5962 29.0141 30.4114 29.0896C30.2266 29.165 30.0588 29.2766 29.9177 29.4177C29.7766 29.5588 29.665 29.7266 29.5896 29.9114C29.5141 30.0962 29.4763 30.2941 29.4784 30.4937C29.4804 30.6932 29.5222 30.8904 29.6014 31.0736C29.6806 31.2568 29.7955 31.4223 29.9395 31.5605L31.9395 33.5605C32.2208 33.8417 32.6022 33.9997 33 33.9997C33.3978 33.9997 33.7792 33.8417 34.0605 33.5605L38.0605 29.5605C38.2769 29.3498 38.4247 29.0786 38.4844 28.7825C38.5442 28.4864 38.5131 28.1792 38.3953 27.901C38.2776 27.6228 38.0786 27.3867 37.8244 27.2235C37.5702 27.0603 37.2726 26.9776 36.9707 26.9863ZM12 30C11.8012 29.9972 11.6039 30.0339 11.4194 30.108C11.235 30.1822 11.0671 30.2922 10.9255 30.4318C10.784 30.5713 10.6716 30.7376 10.5949 30.921C10.5181 31.1044 10.4786 31.3012 10.4786 31.5C10.4786 31.6988 10.5181 31.8956 10.5949 32.079C10.6716 32.2624 10.784 32.4287 10.9255 32.5682C11.0671 32.7078 11.235 32.8178 11.4194 32.892C11.6039 32.9661 11.8012 33.0028 12 33H25C25.1988 33.0028 25.3961 32.9661 25.5806 32.892C25.765 32.8178 25.9329 32.7078 26.0745 32.5682C26.216 32.4287 26.3284 32.2624 26.4051 32.079C26.4819 31.8956 26.5214 31.6988 26.5214 31.5C26.5214 31.3012 26.4819 31.1044 26.4051 30.921C26.3284 30.7376 26.216 30.5713 26.0745 30.4318C25.9329 30.2922 25.765 30.1822 25.5806 30.108C25.3961 30.0339 25.1988 29.9972 25 30H12Z" fill="#2599FF"/>
</svg>
