<svg width="345" height="337" viewBox="0 0 345 337" fill="none" xmlns="http://www.w3.org/2000/svg">
<path d="M50.5086 309.862C117.84 345.041 227.006 345.041 294.337 309.862C361.668 274.683 361.677 217.657 294.337 182.478C226.998 147.299 117.84 147.307 50.5006 182.478C-16.8389 217.649 -16.8309 274.675 50.5086 309.862Z" fill="#F5F5F5"/>
<path d="M135.586 279.313C153.732 287.961 183.146 287.961 201.252 279.313C219.358 270.664 219.398 256.65 201.252 248.001C183.106 239.352 153.7 239.352 135.586 248.001C117.472 256.65 117.408 270.672 135.586 279.313Z" fill="#EBEBEB"/>
<path d="M292.672 257.906L227.807 295.344C227.27 295.616 226.676 295.758 226.073 295.758C225.471 295.758 224.877 295.616 224.34 295.344L143.258 248.513C143.049 248.442 142.868 248.307 142.739 248.128C142.61 247.948 142.541 247.733 142.541 247.512C142.541 247.291 142.61 247.076 142.739 246.896C142.868 246.717 143.049 246.582 143.258 246.511L208.123 209.073C208.661 208.801 209.255 208.659 209.857 208.659C210.46 208.659 211.054 208.801 211.591 209.073L292.696 255.904C292.905 255.978 293.085 256.115 293.211 256.296C293.338 256.477 293.404 256.693 293.402 256.914C293.399 257.135 293.327 257.349 293.196 257.527C293.066 257.705 292.882 257.838 292.672 257.906Z" fill="#EBEBEB"/>
<path d="M310.724 52.109V69.3023C310.724 69.3023 303.661 72.6096 290.704 72.6096C277.747 72.6096 270.684 69.2942 270.684 69.2942V52.4774L284.201 14.223C284.017 15.4243 284.722 16.6255 286.307 17.5704C287.467 18.2863 288.786 18.7054 290.146 18.7906C291.506 18.8758 292.867 18.6245 294.107 18.0589C294.455 17.922 294.793 17.7587 295.116 17.5704C296.798 16.6014 297.518 15.2721 297.19 14.0068L310.724 52.109Z" fill="#F5F5F5"/>
<path opacity="0.5" d="M310.724 52.109V69.3023C310.724 69.3023 303.661 72.6096 290.704 72.6096C277.747 72.6096 270.684 69.2942 270.684 69.2942V52.4774L284.201 14.223C284.017 15.4243 284.722 16.6255 286.307 17.5704C287.467 18.2863 288.786 18.7054 290.146 18.7906C291.506 18.8758 292.867 18.6245 294.107 18.0589C294.455 17.922 294.793 17.7587 295.116 17.5704C296.798 16.6014 297.518 15.2721 297.19 14.0068L310.724 52.109Z" fill="white"/>
<path d="M309.169 172.629C308.009 174.158 306.538 175.425 304.853 176.345C297.021 180.87 284.328 180.87 276.504 176.345C274.817 175.426 273.343 174.159 272.18 172.629C271.277 171.428 270.742 169.989 270.643 168.489V177.418C270.787 180.269 272.733 183.096 276.504 185.274C284.328 189.791 297.021 189.791 304.853 185.274C308.761 183.016 310.723 180.053 310.723 177.09V168.169C310.693 169.783 310.149 171.346 309.169 172.629Z" fill="#F5F5F5"/>
<path d="M309.169 163.7C308.009 165.229 306.538 166.495 304.853 167.415C304.388 167.68 303.916 167.928 303.427 168.16C296.036 171.684 285.313 171.684 277.93 168.16C277.441 167.928 276.961 167.68 276.504 167.415C274.817 166.496 273.343 165.23 272.18 163.7C271.277 162.501 270.743 161.065 270.643 159.568V168.489C270.742 169.989 271.277 171.427 272.18 172.629C273.343 174.159 274.817 175.425 276.504 176.344C284.328 180.869 297.021 180.869 304.853 176.344C306.538 175.424 308.009 174.158 309.169 172.629C310.149 171.345 310.693 169.782 310.723 168.168V159.239C310.694 160.854 310.149 162.416 309.169 163.7Z" fill="#EBEBEB"/>
<path d="M309.169 154.771C308.007 156.301 306.537 157.57 304.853 158.495C304.388 158.759 303.916 158.999 303.427 159.24C296.036 162.763 285.313 162.763 277.93 159.24C277.441 158.999 276.961 158.759 276.504 158.495C274.818 157.57 273.345 156.301 272.18 154.771C271.277 153.572 270.743 152.136 270.643 150.639V159.568C270.743 161.065 271.277 162.501 272.18 163.7C273.343 165.23 274.817 166.496 276.504 167.416C276.961 167.68 277.441 167.928 277.93 168.16C285.313 171.684 296.036 171.684 303.427 168.16C303.916 167.928 304.388 167.68 304.853 167.416C306.538 166.495 308.009 165.229 309.169 163.7C310.149 162.417 310.694 160.854 310.723 159.24V150.311C310.695 151.925 310.15 153.488 309.169 154.771Z" fill="#F5F5F5"/>
<path d="M270.643 52.4443V150.639C270.743 152.136 271.277 153.572 272.18 154.771C273.345 156.301 274.818 157.569 276.504 158.495C276.961 158.759 277.441 158.999 277.93 159.239C279.866 160.142 281.904 160.806 284 161.217L280.372 57.7296L270.643 52.4443Z" fill="#F5F5F5"/>
<path d="M300.983 57.73L297.348 161.218C299.444 160.806 301.482 160.142 303.418 159.24C303.906 159 304.379 158.759 304.843 158.495C306.527 157.57 307.998 156.301 309.159 154.771C310.14 153.489 310.685 151.925 310.713 150.311V52.1084L300.983 57.73Z" fill="#F5F5F5"/>
<path d="M270.643 52.4443V150.639C270.743 152.136 271.277 153.572 272.18 154.771C273.345 156.301 274.818 157.569 276.504 158.495C276.961 158.759 277.441 158.999 277.93 159.239C279.866 160.142 281.904 160.806 284 161.217L280.372 57.7296L270.643 52.4443Z" fill="#2F55DD" fill-opacity="0.2"/>
<path d="M300.983 57.73L297.348 161.218C299.444 160.806 301.482 160.142 303.418 159.24C303.906 159 304.379 158.759 304.843 158.495C306.527 157.57 307.998 156.301 309.159 154.771C310.14 153.489 310.685 151.925 310.713 150.311V52.1084L300.983 57.73Z" fill="#2F55DD" fill-opacity="0.2"/>
<path d="M280.373 57.7305V160.233C281.559 160.643 282.771 160.975 284.001 161.226C286.199 161.67 288.437 161.893 290.679 161.891C292.922 161.889 295.159 161.666 297.358 161.226C298.588 160.975 299.8 160.643 300.986 160.233V57.7305H280.373Z" fill="#EBEBEB"/>
<path d="M295.083 17.5298C294.759 17.718 294.422 17.8813 294.074 18.0183C292.834 18.5838 291.473 18.8351 290.113 18.7499C288.752 18.6647 287.434 18.2457 286.274 17.5298C284.672 16.6168 283.984 15.3836 284.168 14.1824L288.78 1.26546C288.932 0.887745 289.195 0.56477 289.533 0.338959C289.872 0.113147 290.271 -0.00494277 290.678 0.000194354C291.086 -0.00545847 291.487 0.112317 291.827 0.338091C292.167 0.563865 292.431 0.887109 292.584 1.26546L297.149 13.9502C297.461 15.2154 296.764 16.5608 295.083 17.5298Z" fill="#2F55DD" fill-opacity="0.2"/>
<path d="M304.853 185.274C298.126 189.158 287.811 189.694 280.076 186.876C279.643 186.726 279.219 186.558 278.802 186.371L278.226 186.131C277.625 185.859 277.049 185.562 276.504 185.25C272.732 183.072 270.786 180.245 270.642 177.394V201.723C270.498 204.798 272.444 207.897 276.504 210.235C276.985 210.515 277.489 210.78 278.01 211.036C278.202 211.132 278.41 211.204 278.602 211.292C278.939 211.436 279.267 211.588 279.611 211.717C279.956 211.845 280.148 211.909 280.412 211.997C280.676 212.085 280.981 212.205 281.277 212.293C281.573 212.381 281.934 212.477 282.262 212.565C282.59 212.653 282.766 212.71 283.023 212.766C283.279 212.822 283.783 212.934 284.168 213.006C284.384 213.006 284.6 213.102 284.816 213.134C285.249 213.214 285.689 213.27 286.13 213.334L286.65 213.406C287.139 213.462 287.627 213.502 288.116 213.534H288.5C289.037 213.574 289.573 213.59 290.102 213.598H290.358C290.935 213.598 291.511 213.598 292.088 213.598H292.216C292.824 213.598 293.433 213.526 294.042 213.47C297.609 213.167 301.082 212.172 304.268 210.539C304.444 210.443 304.628 210.363 304.804 210.259C308.712 208.001 310.674 205.038 310.674 202.075V177.09C310.722 180.053 308.76 183.016 304.853 185.274Z" fill="#2F55DD" fill-opacity="0.2"/>
<path d="M63.0974 199.465C60.7831 198.88 48.4267 191.849 47.1694 190.992C45.9122 190.135 43.4297 188.366 43.4297 185.314C43.4297 182.616 43.71 157.166 45.9202 144.874C46.6463 141.05 48.1469 137.415 50.3297 134.193C52.5125 130.97 55.3313 128.228 58.6129 126.135C66.3006 121.37 74.0284 117.919 80.5389 120.626C87.0494 123.332 92.9914 128.305 95.5539 134.311C98.1165 140.317 99.8703 152.345 100.054 156.998C100.239 161.651 100.054 177.603 100.054 179.02C100.054 180.438 99.7982 182.279 92.1665 187.028C84.5349 191.777 73.9963 197.439 70.7371 198.904C68.3128 199.89 65.6396 200.086 63.0974 199.465Z" fill="#37474F"/>
<path d="M61.1923 129.443C60.4876 129.843 58.4536 128.842 58.1493 128.338C57.845 127.833 57.7649 123.469 59.2864 121.058C60.8079 118.648 70.2974 114.204 72.6438 114.532C73.5226 114.675 74.363 114.996 75.1134 115.475C75.8639 115.954 76.5086 116.582 77.0082 117.319C77.2964 117.935 77.6168 121.995 77.0082 122.828C76.3996 123.661 74.2294 122.38 74.0372 122.027C73.845 121.675 74.7499 118.704 73.2364 118.087C71.843 117.527 65.2283 120.338 62.5377 122.596C61.3685 123.581 61.4245 126.023 61.4806 127.233C61.5366 128.442 61.5447 129.235 61.1923 129.443Z" fill="#455A64"/>
<path d="M59.2868 158.095C60.6481 144.874 63.0986 137.154 76.0316 131.396C88.9645 125.639 93.9856 130.54 95.8194 134.952C98.2218 141.134 99.8795 152.506 100.056 156.998C100.24 161.651 100.056 177.603 100.056 179.02C100.056 180.438 99.7994 182.279 92.1677 187.028C84.5361 191.777 73.9975 197.439 70.7383 198.904C68.3166 199.897 65.6433 200.102 63.0986 199.489C62.5875 199.333 62.0895 199.138 61.6091 198.904C57.5811 193.731 58.0375 170.171 59.2868 158.095Z" fill="#455A64"/>
<path d="M89.4346 126.231C86.0552 124.253 80.5137 122.948 72.3775 126.575C57.835 133.054 54.1433 141.166 52.6778 155.404C52.4135 158.015 52.0211 161.122 51.877 164.461L50.6758 163.732C50.8439 160.129 51.1963 157.046 51.4766 154.259C53.0782 139.917 57.3785 131.989 71.2724 125.798C78.9681 122.371 84.0212 122.819 87.3686 124.509C88.0874 125.046 88.7771 125.621 89.4346 126.231Z" fill="#263238"/>
<path d="M89.9405 126.6C86.5691 124.622 81.0195 123.317 72.8914 126.944C58.3408 133.423 54.6491 141.535 53.1836 155.773C52.9194 158.384 52.527 161.491 52.3828 164.83L51.1816 164.102C51.3498 160.498 51.7022 157.415 51.9824 154.628C53.584 140.286 57.8844 132.35 71.7783 126.168C79.474 122.74 84.6632 123.309 88.0106 124.99C88.6836 125.49 89.3279 126.028 89.9405 126.6Z" fill="#455A64"/>
<path d="M85.2325 139.173L80.8361 136.658C80.6192 136.536 80.363 136.505 80.1231 136.571C79.8832 136.637 79.679 136.795 79.5548 137.01L75.0463 144.85C74.9207 145.066 74.8856 145.323 74.9486 145.564C75.0116 145.806 75.1677 146.013 75.3827 146.14L79.723 148.67C79.9388 148.796 80.1954 148.831 80.437 148.768C80.6786 148.705 80.8854 148.549 81.0123 148.334L85.5769 140.446C85.6395 140.34 85.6802 140.223 85.6968 140.101C85.7133 139.979 85.7053 139.855 85.6732 139.737C85.6411 139.618 85.5856 139.507 85.5099 139.41C85.4342 139.313 85.3399 139.232 85.2325 139.173Z" fill="#263238"/>
<path d="M80.5149 147.773L84.8472 140.302C84.8784 140.248 84.8987 140.189 84.9067 140.128C84.9147 140.066 84.9104 140.004 84.894 139.944C84.8776 139.884 84.8494 139.829 84.8111 139.78C84.7728 139.731 84.7252 139.691 84.671 139.661L80.667 137.387C80.5586 137.326 80.4304 137.31 80.3105 137.343C80.1906 137.376 80.0885 137.455 80.0264 137.563L75.7421 145.002C75.6812 145.111 75.6656 145.239 75.6986 145.359C75.7315 145.479 75.8105 145.581 75.9183 145.643L79.8502 147.941C79.9044 147.976 79.9651 147.998 80.0284 148.008C80.0918 148.019 80.1565 148.016 80.2187 148C80.2809 147.984 80.3392 147.956 80.3901 147.917C80.4411 147.878 80.4835 147.829 80.5149 147.773Z" fill="#455A64"/>
<path d="M81.4438 144.202C81.5592 144.132 81.6569 144.036 81.7291 143.922C81.8014 143.809 81.8462 143.679 81.8602 143.545V139.966C81.8602 139.733 81.676 139.661 81.4438 139.789C81.3283 139.859 81.2306 139.955 81.1584 140.069C81.0861 140.183 81.0413 140.312 81.0273 140.446V144.026C81.0273 144.258 81.2115 144.33 81.4438 144.202Z" fill="#37474F"/>
<path d="M79.1215 145.547C79.2367 145.475 79.3341 145.378 79.4062 145.263C79.4783 145.148 79.5234 145.018 79.5379 144.883V141.311C79.5379 141.079 79.3457 140.999 79.1215 141.135C79.0052 141.204 78.9069 141.299 78.8345 141.413C78.7621 141.527 78.7178 141.657 78.7051 141.791V145.371C78.7291 145.595 78.8893 145.675 79.1215 145.547Z" fill="#37474F"/>
<path d="M65.2772 169.274C65.2772 169.274 67.4553 171.068 69.0249 177.827C70.5945 184.586 71.5394 193.098 69.8257 194.123C68.112 195.148 65.6375 193.002 65.0209 192.265C63.7556 190.752 64.068 174.688 65.2772 169.274Z" fill="#263238"/>
<path d="M65.2754 169.275C65.2754 169.275 67.4536 171.069 69.0231 177.827C70.5927 184.586 71.5377 193.099 69.8239 194.124L96.2504 178.54C97.9802 177.515 98.4046 168.57 96.843 161.811C95.81 157.367 93.9121 155.253 92.7429 154.324C92.4747 154.117 92.1506 153.995 91.8124 153.973C91.4741 153.952 91.1372 154.032 90.845 154.204L65.2754 169.275Z" fill="#37474F"/>
<path d="M92.1982 155.357C93.4635 155.982 95.6096 157.703 96.5786 162.276C96.742 162.898 96.7273 163.554 96.5361 164.169C96.345 164.783 95.9851 165.332 95.4975 165.751C94.6166 166.376 75.7016 177.131 73.1951 178.628C71.033 179.918 69.9118 178.204 69.4394 177.131C68.6386 175.225 67.9499 173.743 67.3573 172.606C66.9048 171.366 66.1984 170.234 65.2832 169.283L90.4845 155.429C90.7424 155.278 91.0335 155.192 91.3323 155.179C91.6311 155.167 91.9285 155.228 92.1982 155.357Z" fill="#263238"/>
<path d="M52.6954 165.575C53.0614 166.952 53.2999 168.359 53.4081 169.779C53.4081 170.067 53.0157 170.22 52.9036 170.22C51.9878 170.035 51.1402 169.603 50.4531 168.97C50.5815 167.76 50.801 166.56 51.1098 165.383L52.6954 165.575Z" fill="#263238"/>
<path d="M53.5122 164.446C53.5122 164.143 53.4225 163.847 53.2544 163.596C53.0864 163.344 52.8475 163.148 52.568 163.032C52.2885 162.917 51.981 162.886 51.6843 162.945C51.3876 163.004 51.115 163.15 50.9011 163.364C50.6872 163.578 50.5415 163.85 50.4825 164.147C50.4235 164.444 50.4538 164.751 50.5696 165.031C50.6853 165.31 50.8814 165.549 51.1329 165.717C51.3844 165.885 51.6801 165.975 51.9827 165.975C52.3883 165.975 52.7774 165.814 53.0642 165.527C53.351 165.24 53.5122 164.851 53.5122 164.446Z" fill="#263238"/>
<path d="M72.6426 118.015C74.3163 117.855 75.8938 118.015 76.2942 119.689C76.6946 121.363 76.5505 122.892 76.2942 123.1C75.4462 122.993 74.6549 122.617 74.036 122.027C73.8438 121.667 74.7487 118.704 73.2352 118.087C73.0496 118.026 72.8537 118.001 72.6586 118.015H72.6426Z" fill="#263238"/>
<path d="M91.0052 154.116C91.2641 153.963 91.5567 153.876 91.857 153.864C92.1574 153.851 92.4562 153.913 92.7269 154.044C93.9922 154.668 96.1383 156.39 97.1073 160.963C97.2697 161.585 97.2546 162.241 97.0635 162.855C96.8724 163.469 96.5131 164.018 96.0262 164.438C95.1453 165.063 76.2384 175.818 73.7319 177.315C71.5697 178.604 70.4406 176.891 69.9681 175.818C67.3495 170.34 65.2754 169.275 65.2754 169.275L91.0052 154.116Z" fill="#37474F"/>
<path d="M86.4725 247.28L65.2672 235.044C64.7135 234.682 64.2526 234.194 63.9216 233.621C63.5906 233.048 63.3987 232.406 63.3613 231.745V231.985C63.3974 231.324 63.5888 230.681 63.9199 230.108C64.251 229.534 64.7126 229.047 65.2672 228.686L107.91 204.069C108.499 203.769 109.151 203.612 109.812 203.612C110.473 203.612 111.125 203.769 111.714 204.069L132.919 216.313C133.474 216.672 133.937 217.158 134.268 217.73C134.599 218.302 134.79 218.944 134.825 219.605V219.364C134.79 220.025 134.6 220.667 134.27 221.241C133.94 221.814 133.48 222.301 132.927 222.664L90.2843 247.28C89.6939 247.581 89.0408 247.737 88.3784 247.737C87.716 247.737 87.0629 247.581 86.4725 247.28Z" fill="#7896FF"/>
<path opacity="0.7" d="M86.4725 247.28L65.2672 235.044C64.7135 234.682 64.2526 234.194 63.9216 233.621C63.5906 233.048 63.3987 232.406 63.3613 231.745V231.985C63.3974 231.324 63.5888 230.681 63.9199 230.108C64.251 229.534 64.7126 229.047 65.2672 228.686L107.91 204.069C108.499 203.769 109.151 203.612 109.812 203.612C110.473 203.612 111.125 203.769 111.714 204.069L132.919 216.313C133.474 216.672 133.937 217.158 134.268 217.73C134.599 218.302 134.79 218.944 134.825 219.605V219.364C134.79 220.025 134.6 220.667 134.27 221.241C133.94 221.814 133.48 222.301 132.927 222.664L90.2843 247.28C89.6939 247.581 89.0408 247.737 88.3784 247.737C87.716 247.737 87.0629 247.581 86.4725 247.28Z" fill="black"/>
<path d="M88.3391 215.345L65.236 228.686C64.6814 229.048 64.2198 229.535 63.8887 230.108C63.5575 230.681 63.3661 231.324 63.3301 231.985V231.745C63.3674 232.406 63.5593 233.049 63.8903 233.622C64.2214 234.195 64.6823 234.682 65.236 235.044L86.4412 247.281C87.0273 247.593 87.6834 247.75 88.3472 247.737L88.3391 215.345Z" fill="#7896FF"/>
<path opacity="0.7" d="M88.3391 215.345L65.236 228.686C64.6814 229.048 64.2198 229.535 63.8887 230.108C63.5575 230.681 63.3661 231.324 63.3301 231.985V231.745C63.3674 232.406 63.5593 233.049 63.8903 233.622C64.2214 234.195 64.6823 234.682 65.236 235.044L86.4412 247.281C87.0273 247.593 87.6834 247.75 88.3472 247.737L88.3391 215.345Z" fill="black"/>
<path d="M65.2596 230.888L86.4568 243.132C87.0486 243.428 87.7011 243.582 88.3627 243.582C89.0244 243.582 89.6769 243.428 90.2687 243.132L132.911 218.508C133.968 217.899 133.968 216.906 132.911 216.313L111.706 204.069C111.117 203.769 110.465 203.612 109.804 203.612C109.143 203.612 108.491 203.769 107.902 204.069L65.2596 228.686C64.2025 229.294 64.2025 230.279 65.2596 230.888Z" fill="#7896FF"/>
<path opacity="0.5" d="M65.2596 230.888L86.4568 243.132C87.0486 243.428 87.7011 243.582 88.3627 243.582C89.0244 243.582 89.6769 243.428 90.2687 243.132L132.911 218.508C133.968 217.899 133.968 216.906 132.911 216.313L111.706 204.069C111.117 203.769 110.465 203.612 109.804 203.612C109.143 203.612 108.491 203.769 107.902 204.069L65.2596 228.686C64.2025 229.294 64.2025 230.279 65.2596 230.888Z" fill="black"/>
<path d="M65.2598 226.86V228.895L87.2658 241.603C87.6009 241.796 87.9805 241.897 88.3669 241.897C88.7533 241.897 89.133 241.796 89.468 241.603L132.912 216.514V214.416L88.3629 236.038L65.2598 226.86Z" fill="#7896FF"/>
<path d="M86.4647 239.105L65.2594 226.861C64.7039 226.5 64.2417 226.013 63.9104 225.44C63.5791 224.866 63.3883 224.223 63.3535 223.561V219.645C63.3883 218.984 63.5791 218.34 63.9104 217.767C64.2417 217.194 64.7039 216.707 65.2594 216.346L107.902 191.721C108.491 191.421 109.143 191.265 109.804 191.265C110.465 191.265 111.117 191.421 111.706 191.721L132.911 203.966C133.467 204.326 133.929 204.813 134.26 205.387C134.592 205.96 134.782 206.604 134.817 207.265V211.189C134.777 211.836 134.583 212.464 134.252 213.021C133.92 213.578 133.461 214.048 132.911 214.392L90.2685 239.081C89.6814 239.385 89.0306 239.545 88.3695 239.55C87.7083 239.554 87.0556 239.401 86.4647 239.105Z" fill="#7896FF"/>
<path opacity="0.6" d="M86.4647 239.105L65.2594 226.861C64.7039 226.5 64.2417 226.013 63.9104 225.44C63.5791 224.866 63.3883 224.223 63.3535 223.561V219.645C63.3883 218.984 63.5791 218.34 63.9104 217.767C64.2417 217.194 64.7039 216.707 65.2594 216.346L107.902 191.721C108.491 191.421 109.143 191.265 109.804 191.265C110.465 191.265 111.117 191.421 111.706 191.721L132.911 203.966C133.467 204.326 133.929 204.813 134.26 205.387C134.592 205.96 134.782 206.604 134.817 207.265V211.189C134.777 211.836 134.583 212.464 134.252 213.021C133.92 213.578 133.461 214.048 132.911 214.392L90.2685 239.081C89.6814 239.385 89.0306 239.545 88.3695 239.55C87.7083 239.554 87.0556 239.401 86.4647 239.105Z" fill="black"/>
<path d="M88.3391 203.005L65.236 216.346C64.6805 216.707 64.2182 217.194 63.887 217.767C63.5557 218.341 63.3649 218.984 63.3301 219.646V223.561C63.3649 224.223 63.5557 224.867 63.887 225.44C64.2182 226.013 64.6805 226.5 65.236 226.861L86.4412 239.105C87.0241 239.418 87.6778 239.575 88.3391 239.562V203.005Z" fill="#7896FF"/>
<path opacity="0.7" d="M88.3391 203.005L65.236 216.346C64.6805 216.707 64.2182 217.194 63.887 217.767C63.5557 218.341 63.3649 218.984 63.3301 219.646V223.561C63.3649 224.223 63.5557 224.867 63.887 225.44C64.2182 226.013 64.6805 226.5 65.236 226.861L86.4412 239.105C87.0241 239.418 87.6778 239.575 88.3391 239.562V203.005Z" fill="black"/>
<path d="M65.2596 218.54L86.4568 230.785C87.0473 231.085 87.7003 231.241 88.3627 231.241C89.0252 231.241 89.6782 231.085 90.2687 230.785L132.911 206.168C133.968 205.559 133.968 204.566 132.911 203.966L111.706 191.721C111.117 191.421 110.465 191.265 109.804 191.265C109.143 191.265 108.491 191.421 107.902 191.721L65.2596 216.346C64.2025 216.955 64.2025 217.94 65.2596 218.54Z" fill="#7896FF"/>
<path opacity="0.5" d="M65.2596 218.54L86.4568 230.785C87.0473 231.085 87.7003 231.241 88.3627 231.241C89.0252 231.241 89.6782 231.085 90.2687 230.785L132.911 206.168C133.968 205.559 133.968 204.566 132.911 203.966L111.706 191.721C111.117 191.421 110.465 191.265 109.804 191.265C109.143 191.265 108.491 191.421 107.902 191.721L65.2596 216.346C64.2025 216.955 64.2025 217.94 65.2596 218.54Z" fill="black"/>
<path d="M94.834 208.811C92.4876 210.172 92.4876 212.358 94.834 213.703C96.1533 214.367 97.6095 214.712 99.0862 214.712C100.563 214.712 102.019 214.367 103.339 213.703C105.685 212.358 105.685 210.172 103.339 208.811C102.02 208.143 100.564 207.796 99.0862 207.796C97.6089 207.796 96.1522 208.143 94.834 208.811Z" fill="#7896FF"/>
<path d="M129.46 210.244C129.242 210.386 129.061 210.578 128.932 210.804C128.802 211.029 128.728 211.282 128.715 211.541C128.715 212.022 129.051 212.222 129.46 211.99C129.677 211.848 129.858 211.656 129.987 211.431C130.117 211.205 130.191 210.952 130.204 210.693C130.204 210.212 129.868 210.012 129.46 210.244Z" fill="#7896FF"/>
<path d="M129.46 213.119C129.242 213.261 129.061 213.453 128.932 213.679C128.802 213.904 128.728 214.157 128.715 214.416C128.715 214.897 129.051 215.097 129.46 214.865C129.68 214.726 129.863 214.535 129.993 214.309C130.123 214.082 130.195 213.828 130.204 213.568C130.204 213.087 129.868 212.887 129.46 213.119Z" fill="#7896FF"/>
<path d="M77.5841 263.465C77.4861 263.465 77.3897 263.441 77.3038 263.393L56.7552 251.453C56.2232 251.145 55.7815 250.703 55.4745 250.17C55.1675 249.637 55.0059 249.033 55.0059 248.418C55.0059 247.804 55.1675 247.2 55.4745 246.667C55.7815 246.134 56.2232 245.692 56.7552 245.383L71.8183 236.687C71.9461 236.622 72.094 236.608 72.2314 236.649C72.3688 236.69 72.4854 236.782 72.5572 236.906C72.629 237.03 72.6505 237.177 72.6173 237.316C72.5841 237.456 72.4988 237.577 72.3789 237.656L57.3238 246.328C56.9653 246.541 56.6683 246.843 56.462 247.206C56.2558 247.568 56.1473 247.978 56.1473 248.394C56.1473 248.811 56.2558 249.221 56.462 249.583C56.6683 249.945 56.9653 250.248 57.3238 250.46L77.8724 262.384C77.9414 262.421 78.0021 262.471 78.0503 262.532C78.0985 262.593 78.1332 262.664 78.1521 262.74C78.171 262.816 78.1737 262.894 78.16 262.971C78.1463 263.048 78.1165 263.121 78.0726 263.185C78.0244 263.272 77.9535 263.344 77.8674 263.393C77.7813 263.443 77.6833 263.468 77.5841 263.465Z" fill="#7896FF"/>
<path d="M103.32 251.934L98.8679 234.06C98.8044 233.814 98.7214 233.573 98.6197 233.339L99.917 233.155L97.0902 231.553C96.497 231.231 95.8273 231.076 95.1529 231.106C94.4785 231.136 93.8249 231.349 93.2623 231.722L74.7237 242.452C73.451 243.286 72.3925 244.408 71.6342 245.727C70.876 247.046 70.4392 248.525 70.3594 250.044V271.538C70.3594 273.251 70.7758 274.428 71.6326 274.837L74.2913 276.374L73.6507 274.677L73.7948 274.621C76.8459 273.163 77.951 270.505 78.8639 267.87L82.3954 257.66C83.3084 255.025 85.5986 252.006 87.4725 250.909C89.3464 249.812 92.0211 250.909 93.3985 253.311L95.1762 256.418C95.7189 257.405 96.537 258.212 97.5306 258.741L100.237 260.342L99.5486 259.269C100.112 259.271 100.664 259.121 101.15 258.837C103 257.732 103.993 254.657 103.32 251.934Z" fill="#7896FF"/>
<path opacity="0.7" d="M103.32 251.934L98.8679 234.06C98.8044 233.814 98.7214 233.573 98.6197 233.339L99.917 233.155L97.0902 231.553C96.497 231.231 95.8273 231.076 95.1529 231.106C94.4785 231.136 93.8249 231.349 93.2623 231.722L74.7237 242.452C73.451 243.286 72.3925 244.408 71.6342 245.727C70.876 247.046 70.4392 248.525 70.3594 250.044V271.538C70.3594 273.251 70.7758 274.428 71.6326 274.837L74.2913 276.374L73.6507 274.677L73.7948 274.621C76.8459 273.163 77.951 270.505 78.8639 267.87L82.3954 257.66C83.3084 255.025 85.5986 252.006 87.4725 250.909C89.3464 249.812 92.0211 250.909 93.3985 253.311L95.1762 256.418C95.7189 257.405 96.537 258.212 97.5306 258.741L100.237 260.342L99.5486 259.269C100.112 259.271 100.664 259.121 101.15 258.837C103 257.732 103.993 254.657 103.32 251.934Z" fill="black"/>
<path d="M98.6214 233.339L99.9187 233.155L97.0919 231.553C96.4987 231.231 95.829 231.076 95.1546 231.106C94.4802 231.136 93.8266 231.349 93.264 231.722L74.7255 242.452C73.69 243.098 72.8051 243.958 72.1309 244.975L76.5433 247.666L99.1099 234.917L98.8937 234.06C98.8224 233.813 98.7313 233.572 98.6214 233.339Z" fill="#7896FF"/>
<path opacity="0.5" d="M98.6214 233.339L99.9187 233.155L97.0919 231.553C96.4987 231.231 95.829 231.076 95.1546 231.106C94.4802 231.136 93.8266 231.349 93.264 231.722L74.7255 242.452C73.69 243.098 72.8051 243.958 72.1309 244.975L76.5433 247.666L99.1099 234.917L98.8937 234.06C98.8224 233.813 98.7313 233.572 98.6214 233.339Z" fill="black"/>
<path d="M103.977 260.502C102.079 261.6 99.4128 260.502 98.0274 258.1L96.2576 254.993C94.8723 252.591 92.2536 251.493 90.3237 252.591C88.3938 253.688 86.1595 256.699 85.2466 259.341L81.7231 269.543C80.8102 272.178 79.697 274.837 76.646 276.294C74.3397 277.399 73.2266 276.006 73.2266 273.219V251.71C73.3091 250.191 73.748 248.713 74.5076 247.396C75.2672 246.078 76.3262 244.958 77.5989 244.126L96.1696 233.355C96.6698 233.005 97.2512 232.788 97.8587 232.725C98.4662 232.662 99.0797 232.756 99.6411 232.996C100.202 233.237 100.693 233.617 101.067 234.1C101.44 234.583 101.684 235.154 101.775 235.758L106.228 253.64C106.884 256.314 105.883 259.405 103.977 260.502Z" fill="#7896FF"/>
<path opacity="0.6" d="M103.977 260.502C102.079 261.6 99.4128 260.502 98.0274 258.1L96.2576 254.993C94.8723 252.591 92.2536 251.493 90.3237 252.591C88.3938 253.688 86.1595 256.699 85.2466 259.341L81.7231 269.543C80.8102 272.178 79.697 274.837 76.646 276.294C74.3397 277.399 73.2266 276.006 73.2266 273.219V251.71C73.3091 250.191 73.748 248.713 74.5076 247.396C75.2672 246.078 76.3262 244.958 77.5989 244.126L96.1696 233.355C96.6698 233.005 97.2512 232.788 97.8587 232.725C98.4662 232.662 99.0797 232.756 99.6411 232.996C100.202 233.237 100.693 233.617 101.067 234.1C101.44 234.583 101.684 235.154 101.775 235.758L106.228 253.64C106.884 256.314 105.883 259.405 103.977 260.502Z" fill="black"/>
<path d="M96.7802 239.546L97.2446 242.181L99.3027 240.867L99.7592 243.502L97.7091 244.823L98.1736 247.458L96.1235 248.771L95.6591 246.136L93.609 247.458L93.1445 244.815L95.1946 243.502L94.7301 240.867L96.7802 239.546Z" fill="#263238"/>
<path d="M97.372 239.857L97.8364 242.492L99.8865 241.179L100.351 243.813L98.3009 245.135L98.7654 247.769L96.7153 249.083L96.2508 246.448L94.2008 247.761L93.7363 245.127L95.7864 243.813L95.3219 241.179L97.372 239.857Z" fill="#7896FF"/>
<path d="M81.2426 248.875C81.2974 249.246 81.2521 249.625 81.1113 249.973C80.9705 250.32 80.7394 250.624 80.4418 250.853C79.8733 251.213 79.3127 250.917 79.1846 250.188C79.1272 249.817 79.1713 249.437 79.3123 249.089C79.4533 248.74 79.6859 248.437 79.9854 248.21C80.546 247.85 81.1305 248.146 81.2426 248.875Z" fill="#263238"/>
<path d="M82.171 254.144C82.2284 254.515 82.1843 254.895 82.0433 255.244C81.9023 255.592 81.6697 255.895 81.3702 256.122C80.8017 256.483 80.2411 256.186 80.113 255.466C80.0547 255.094 80.0984 254.714 80.2395 254.366C80.3805 254.017 80.6136 253.714 80.9138 253.488C81.4743 253.119 82.0429 253.415 82.171 254.144Z" fill="#263238"/>
<path d="M83.757 250.189C83.8152 250.56 83.7715 250.94 83.6305 251.288C83.4894 251.637 83.2563 251.94 82.9562 252.167C82.3876 252.535 81.827 252.239 81.6989 251.51C81.6406 251.139 81.6844 250.758 81.8254 250.41C81.9665 250.062 82.1995 249.758 82.4997 249.532C83.0683 249.172 83.6288 249.46 83.757 250.189Z" fill="#263238"/>
<path d="M79.6587 252.822C79.7169 253.194 79.6732 253.574 79.5322 253.922C79.3911 254.271 79.158 254.574 78.8579 254.8C78.2893 255.169 77.7287 254.872 77.6006 254.144C77.5432 253.772 77.5874 253.393 77.7283 253.044C77.8693 252.696 78.1019 252.392 78.4014 252.166C78.97 251.805 79.5305 252.094 79.6587 252.822Z" fill="#263238"/>
<path d="M81.2824 248.899C81.3397 249.27 81.2956 249.65 81.1546 249.998C81.0136 250.347 80.7811 250.65 80.4816 250.877C79.913 251.237 79.3524 250.949 79.2243 250.22C79.166 249.849 79.2098 249.469 79.3508 249.121C79.4919 248.772 79.7249 248.469 80.0251 248.242C80.5937 247.874 81.1302 248.17 81.2824 248.899Z" fill="#263238"/>
<path d="M82.214 254.168C82.2723 254.539 82.2285 254.92 82.0875 255.268C81.9464 255.616 81.7134 255.92 81.4132 256.146C80.8446 256.514 80.2841 256.218 80.1559 255.489C80.0977 255.118 80.1414 254.738 80.2824 254.389C80.4235 254.041 80.6566 253.738 80.9567 253.511C81.5253 253.151 82.0859 253.439 82.214 254.168Z" fill="#263238"/>
<path d="M83.8 250.22C83.8568 250.59 83.8123 250.969 83.6713 251.316C83.5303 251.663 83.2981 251.965 82.9992 252.19C82.4386 252.559 81.8701 252.262 81.7419 251.534C81.6863 251.162 81.7312 250.783 81.8721 250.435C82.0129 250.087 82.2445 249.784 82.5427 249.556C83.1113 249.195 83.6719 249.492 83.8 250.22Z" fill="#263238"/>
<path d="M79.6978 252.855C79.7552 253.226 79.7111 253.606 79.5701 253.954C79.4291 254.303 79.1965 254.606 78.897 254.833C78.3365 255.193 77.7679 254.897 77.6398 254.168C77.585 253.797 77.6303 253.418 77.7711 253.07C77.9119 252.723 78.143 252.419 78.4406 252.19C79.0091 251.83 79.5697 252.126 79.6978 252.855Z" fill="#263238"/>
<path d="M81.3234 248.923C81.3817 249.294 81.338 249.674 81.1969 250.023C81.0559 250.371 80.8228 250.675 80.5226 250.901C79.9621 251.269 79.3935 250.973 79.2654 250.244C79.2097 249.873 79.2547 249.494 79.3955 249.146C79.5364 248.798 79.768 248.494 80.0662 248.266C80.6347 247.906 81.1953 248.194 81.3234 248.923Z" fill="#263238"/>
<path d="M82.2531 254.2C82.3099 254.57 82.2654 254.948 82.1244 255.295C81.9834 255.642 81.7512 255.944 81.4523 256.17C80.8918 256.538 80.3232 256.242 80.1951 255.513C80.1394 255.142 80.1844 254.763 80.3252 254.415C80.4661 254.067 80.6977 253.763 80.9959 253.535C81.5644 253.175 82.125 253.471 82.2531 254.2Z" fill="#263238"/>
<path d="M83.8449 250.245C83.9005 250.616 83.8556 250.995 83.7147 251.343C83.5739 251.691 83.3422 251.995 83.044 252.223C82.4755 252.583 81.9149 252.287 81.7868 251.566C81.7285 251.195 81.7723 250.815 81.9133 250.466C82.0544 250.118 82.2874 249.814 82.5876 249.588C83.1482 249.22 83.7167 249.516 83.8449 250.245Z" fill="#263238"/>
<path d="M79.7453 252.879C79.8009 253.25 79.7559 253.629 79.6151 253.977C79.4742 254.325 79.2427 254.629 78.9445 254.857C78.3759 255.217 77.8153 254.929 77.6872 254.2C77.6289 253.829 77.6726 253.448 77.8137 253.1C77.9547 252.752 78.1878 252.448 78.488 252.222C79.0486 251.854 79.6171 252.15 79.7453 252.879Z" fill="#263238"/>
<path d="M81.3711 248.954C81.4267 249.326 81.3818 249.705 81.2409 250.053C81.1001 250.401 80.8685 250.704 80.5703 250.932C80.0017 251.293 79.4412 250.996 79.313 250.268C79.2563 249.898 79.3008 249.519 79.4418 249.172C79.5827 248.825 79.815 248.523 80.1138 248.298C80.6744 247.929 81.243 248.25 81.3711 248.954Z" fill="#263238"/>
<path d="M82.3019 254.223C82.3575 254.594 82.3126 254.974 82.1717 255.322C82.0309 255.67 81.7993 255.973 81.5011 256.201C80.9325 256.562 80.372 256.273 80.2438 255.545C80.1856 255.173 80.2293 254.793 80.3703 254.445C80.5114 254.096 80.7445 253.793 81.0446 253.567C81.6052 253.198 82.1738 253.495 82.3019 254.223Z" fill="#263238"/>
<path d="M83.8872 250.268C83.9455 250.639 83.9017 251.019 83.7607 251.368C83.6196 251.716 83.3866 252.019 83.0864 252.246C82.5178 252.614 81.9572 252.318 81.8291 251.589C81.7717 251.218 81.8159 250.838 81.9569 250.49C82.0978 250.141 82.3304 249.838 82.6299 249.611C83.1985 249.251 83.7591 249.539 83.8872 250.268Z" fill="#263238"/>
<path d="M79.7856 252.903C79.8439 253.275 79.8002 253.655 79.6591 254.003C79.5181 254.352 79.285 254.655 78.9848 254.881C78.4163 255.25 77.8557 254.953 77.7276 254.225C77.6702 253.853 77.7143 253.474 77.8553 253.125C77.9963 252.777 78.2289 252.474 78.5284 252.247C79.0969 251.886 79.6575 252.175 79.7856 252.903Z" fill="#263238"/>
<path d="M81.4113 248.978C81.4687 249.349 81.4245 249.729 81.2835 250.078C81.1425 250.426 80.91 250.729 80.6105 250.956C80.0419 251.317 79.4813 251.028 79.3532 250.3C79.2949 249.928 79.3387 249.548 79.4797 249.2C79.6208 248.851 79.8538 248.548 80.154 248.322C80.7226 247.953 81.2831 248.249 81.4113 248.978Z" fill="#263238"/>
<path d="M82.3423 254.248C82.4005 254.619 82.3568 255 82.2158 255.348C82.0747 255.696 81.8416 256 81.5415 256.226C80.9729 256.594 80.4123 256.298 80.2842 255.569C80.2268 255.198 80.2709 254.818 80.4119 254.47C80.5529 254.122 80.7855 253.818 81.085 253.591C81.6536 253.231 82.2141 253.519 82.3423 254.248Z" fill="#263238"/>
<path d="M83.9263 250.3C83.9828 250.672 83.9382 251.051 83.7973 251.399C83.6564 251.747 83.4243 252.051 83.1254 252.278C82.5569 252.639 81.9963 252.342 81.8682 251.614C81.8108 251.242 81.8549 250.863 81.9959 250.514C82.1369 250.166 82.3695 249.863 82.669 249.636C83.2376 249.275 83.7981 249.572 83.9263 250.3Z" fill="#263238"/>
<path d="M79.8249 252.934C79.8823 253.306 79.8382 253.685 79.6972 254.034C79.5562 254.382 79.3236 254.685 79.0241 254.912C78.4636 255.273 77.895 254.976 77.7669 254.248C77.7119 253.878 77.7571 253.5 77.898 253.153C78.0389 252.807 78.2701 252.504 78.5677 252.278C79.1362 251.909 79.6968 252.206 79.8249 252.934Z" fill="#263238"/>
<path d="M81.4523 249.003C81.5106 249.374 81.4669 249.754 81.3258 250.102C81.1848 250.451 80.9517 250.754 80.6515 250.981C80.091 251.349 79.5224 251.053 79.3943 250.324C79.3386 249.953 79.3836 249.573 79.5244 249.225C79.6653 248.878 79.8969 248.574 80.1951 248.346C80.7637 247.986 81.3242 248.25 81.4523 249.003Z" fill="#263238"/>
<path d="M82.382 254.28C82.4385 254.651 82.394 255.031 82.2531 255.379C82.1122 255.727 81.8801 256.031 81.5812 256.258C81.0207 256.618 80.4521 256.322 80.324 255.593C80.2683 255.222 80.3133 254.843 80.4541 254.495C80.595 254.147 80.8266 253.843 81.1248 253.615C81.6933 253.255 82.2539 253.551 82.382 254.28Z" fill="#263238"/>
<path d="M83.9666 250.324C84.024 250.695 83.9799 251.075 83.8389 251.423C83.6979 251.772 83.4653 252.075 83.1658 252.302C82.6053 252.662 82.0367 252.374 81.9086 251.645C81.8521 251.274 81.8966 250.894 82.0375 250.546C82.1784 250.198 82.4105 249.895 82.7094 249.667C83.2779 249.299 83.8385 249.595 83.9666 250.324Z" fill="#263238"/>
<path d="M79.8741 252.958C79.9298 253.329 79.8849 253.709 79.744 254.057C79.6032 254.405 79.3715 254.708 79.0733 254.936C78.5048 255.297 77.9442 255.008 77.8161 254.28C77.7578 253.908 77.8015 253.528 77.9426 253.18C78.0836 252.831 78.3167 252.528 78.6169 252.302C79.1775 251.933 79.746 252.254 79.8741 252.958Z" fill="#263238"/>
<path d="M81.4992 249.051C81.5548 249.422 81.5099 249.801 81.369 250.149C81.2282 250.497 80.9966 250.801 80.6984 251.029C80.1298 251.389 79.5692 251.093 79.4411 250.372C79.3828 250.001 79.4265 249.621 79.5676 249.272C79.7086 248.924 79.9417 248.62 80.2419 248.394C80.8025 248.01 81.371 248.306 81.4992 249.051Z" fill="#263238"/>
<path d="M82.4288 254.304C82.4845 254.676 82.4395 255.055 82.2987 255.403C82.1578 255.751 81.9262 256.054 81.628 256.282C81.0595 256.643 80.4989 256.354 80.3708 255.626C80.3125 255.254 80.3562 254.874 80.4973 254.526C80.6383 254.177 80.8714 253.874 81.1716 253.648C81.7321 253.279 82.3007 253.576 82.4288 254.304Z" fill="#263238"/>
<path d="M84.0161 250.349C84.0726 250.72 84.0281 251.1 83.8871 251.448C83.7462 251.796 83.5141 252.099 83.2153 252.327C82.6467 252.695 82.0862 252.399 81.958 251.67C81.9006 251.299 81.9448 250.919 82.0858 250.571C82.2267 250.222 82.4593 249.919 82.7588 249.692C83.3194 249.332 83.888 249.62 84.0161 250.349Z" fill="#263238"/>
<path d="M79.9145 252.983C79.9728 253.354 79.9291 253.734 79.788 254.082C79.647 254.431 79.4139 254.734 79.1137 254.96C78.5452 255.329 77.9846 255.033 77.8565 254.304C77.7991 253.933 77.8432 253.553 77.9842 253.204C78.1252 252.856 78.3578 252.553 78.6573 252.326C79.2258 251.965 79.7864 252.254 79.9145 252.983Z" fill="#263238"/>
<path d="M81.5402 249.05C81.5984 249.422 81.5547 249.802 81.4137 250.15C81.2726 250.499 81.0395 250.802 80.7394 251.028C80.1708 251.397 79.6102 251.1 79.4821 250.372C79.4238 250 79.4676 249.62 79.6086 249.272C79.7497 248.923 79.9827 248.62 80.2829 248.394C80.8515 248.033 81.412 248.33 81.5402 249.05Z" fill="#263238"/>
<path d="M82.4692 254.328C82.5275 254.7 82.4838 255.08 82.3427 255.428C82.2017 255.776 81.9686 256.08 81.6684 256.306C81.0998 256.675 80.5393 256.378 80.4112 255.65C80.3538 255.278 80.3979 254.898 80.5389 254.55C80.6799 254.202 80.9124 253.898 81.212 253.672C81.7805 253.311 82.3411 253.599 82.4692 254.328Z" fill="#263238"/>
<path d="M84.0547 250.38C84.1121 250.751 84.0679 251.131 83.9269 251.479C83.786 251.827 83.5534 252.131 83.2539 252.358C82.6853 252.718 82.1247 252.422 81.9966 251.693C81.9399 251.323 81.9844 250.944 82.1253 250.597C82.2663 250.251 82.4986 249.948 82.7974 249.723C83.366 249.355 83.9265 249.651 84.0547 250.38Z" fill="#263238"/>
<path d="M79.9562 253.055C80.0136 253.426 79.9694 253.806 79.8285 254.154C79.6875 254.502 79.4549 254.806 79.1554 255.033C78.5948 255.393 78.0263 255.097 77.8981 254.376C77.8399 254.005 77.8836 253.624 78.0246 253.276C78.1657 252.928 78.3987 252.624 78.6989 252.398C79.2675 251.99 79.8281 252.254 79.9562 253.055Z" fill="#263238"/>
<path d="M81.5805 249.09C81.6373 249.46 81.5928 249.839 81.4518 250.186C81.3108 250.533 81.0786 250.835 80.7797 251.06C80.2112 251.429 79.6506 251.132 79.5225 250.404C79.4651 250.032 79.5092 249.653 79.6502 249.304C79.7912 248.956 80.0238 248.653 80.3233 248.426C80.8919 248.065 81.4524 248.362 81.5805 249.09Z" fill="#263238"/>
<path d="M82.5098 254.36C82.5672 254.731 82.523 255.111 82.382 255.459C82.241 255.808 82.0085 256.111 81.709 256.338C81.1484 256.698 80.5798 256.402 80.4517 255.673C80.3949 255.303 80.4394 254.925 80.5804 254.578C80.7214 254.231 80.9536 253.929 81.2525 253.703C81.8211 253.335 82.3816 253.631 82.5098 254.36Z" fill="#263238"/>
<path d="M84.0955 250.404C84.1529 250.775 84.1088 251.155 83.9678 251.503C83.8268 251.852 83.5942 252.155 83.2947 252.382C82.7342 252.742 82.1656 252.454 82.0375 251.725C81.981 251.354 82.0255 250.974 82.1664 250.626C82.3073 250.278 82.5394 249.975 82.8383 249.747C83.4068 249.379 83.9674 249.675 84.0955 250.404Z" fill="#263238"/>
<path d="M79.9959 253.055C80.0542 253.426 80.0105 253.806 79.8694 254.154C79.7284 254.503 79.4953 254.806 79.1951 255.033C78.6346 255.401 78.074 255.105 77.9379 254.376C77.8814 254.005 77.9259 253.625 78.0668 253.277C78.2077 252.929 78.4398 252.625 78.7387 252.398C79.3072 252.014 79.8678 252.31 79.9959 253.055Z" fill="#263238"/>
<path d="M81.6209 249.115C81.6783 249.486 81.6342 249.866 81.4932 250.214C81.3522 250.563 81.1196 250.866 80.8201 251.093C80.2596 251.453 79.691 251.157 79.5629 250.436C79.5064 250.065 79.5509 249.685 79.6918 249.337C79.8327 248.989 80.0648 248.686 80.3637 248.458C80.9322 248.09 81.4928 248.386 81.6209 249.115Z" fill="#263238"/>
<path d="M82.5497 254.384C82.6071 254.756 82.563 255.136 82.422 255.484C82.281 255.832 82.0484 256.136 81.7489 256.362C81.1884 256.723 80.6278 256.435 80.4997 255.706C80.4414 255.334 80.4851 254.954 80.6262 254.606C80.7672 254.258 81.0003 253.954 81.3005 253.728C81.8611 253.359 82.4216 253.656 82.5497 254.384Z" fill="#263238"/>
<path d="M84.143 250.428C84.1995 250.8 84.155 251.179 84.0141 251.527C83.8732 251.875 83.6411 252.179 83.3422 252.406C82.7737 252.775 82.2131 252.478 82.085 251.75C82.0276 251.378 82.0717 250.999 82.2127 250.65C82.3537 250.302 82.5863 249.998 82.8858 249.772C83.4463 249.411 84.0149 249.708 84.143 250.428Z" fill="#263238"/>
<path d="M80.0415 253.054C80.0965 253.424 80.0512 253.802 79.9103 254.149C79.7695 254.495 79.5382 254.798 79.2407 255.024C78.6721 255.393 78.1115 255.096 77.9834 254.368C77.926 253.996 77.9702 253.616 78.1111 253.268C78.2521 252.92 78.4847 252.616 78.7842 252.39C79.3448 252.045 79.9133 252.342 80.0415 253.054Z" fill="#263238"/>
<path d="M81.6684 249.139C81.7249 249.51 81.6804 249.89 81.5395 250.238C81.3986 250.586 81.1665 250.889 80.8676 251.117C80.2991 251.485 79.7385 251.189 79.6104 250.46C79.553 250.089 79.5971 249.709 79.7381 249.361C79.8791 249.012 80.1117 248.709 80.4112 248.482C80.9717 248.122 81.5403 248.41 81.6684 249.139Z" fill="#263238"/>
<path d="M82.5981 254.409C82.6546 254.78 82.6101 255.16 82.4692 255.508C82.3283 255.856 82.0962 256.159 81.7973 256.387C81.2288 256.755 80.6682 256.459 80.5401 255.73C80.4827 255.359 80.5268 254.979 80.6678 254.631C80.8088 254.283 81.0413 253.979 81.3409 253.752C81.9335 253.392 82.47 253.688 82.5981 254.409Z" fill="#263238"/>
<path d="M84.1827 250.461C84.2401 250.832 84.196 251.212 84.055 251.56C83.914 251.908 83.6815 252.212 83.3819 252.439C82.8134 252.799 82.2528 252.503 82.1247 251.782C82.0664 251.411 82.1101 251.03 82.2512 250.682C82.3922 250.334 82.6253 250.03 82.9255 249.804C83.5341 249.436 84.0546 249.732 84.1827 250.461Z" fill="#263238"/>
<path d="M80.0831 253.094C80.1405 253.466 80.0964 253.846 79.9554 254.194C79.8144 254.542 79.5819 254.846 79.2823 255.072C78.7138 255.433 78.1532 255.136 78.0251 254.416C77.9668 254.044 78.0105 253.664 78.1516 253.316C78.2926 252.967 78.5257 252.664 78.8259 252.438C79.3944 252.069 79.955 252.366 80.0831 253.094Z" fill="#263238"/>
<path d="M81.7095 249.171C81.766 249.543 81.7214 249.922 81.5805 250.27C81.4396 250.618 81.2075 250.922 80.9087 251.149C80.3401 251.51 79.7795 251.214 79.6514 250.485C79.594 250.114 79.6381 249.734 79.7791 249.385C79.9201 249.037 80.1527 248.734 80.4522 248.507C81.0208 248.146 81.5813 248.443 81.7095 249.171Z" fill="#263238"/>
<path d="M82.6378 254.44C82.6952 254.811 82.6511 255.191 82.5101 255.539C82.3691 255.888 82.1365 256.191 81.837 256.418C81.2685 256.778 80.7079 256.482 80.5798 255.761C80.5215 255.39 80.5652 255.01 80.7063 254.662C80.8473 254.313 81.0804 254.01 81.3806 253.783C81.9331 253.415 82.5097 253.711 82.6378 254.44Z" fill="#263238"/>
<path d="M84.2225 250.485C84.2808 250.856 84.237 251.237 84.096 251.585C83.9549 251.933 83.7219 252.237 83.4217 252.463C82.8611 252.831 82.2926 252.535 82.1644 251.806C82.1079 251.435 82.1525 251.056 82.2934 250.707C82.4343 250.359 82.6664 250.056 82.9652 249.828C83.5338 249.46 84.0944 249.756 84.2225 250.485Z" fill="#263238"/>
<path d="M80.1223 253.119C80.1805 253.491 80.1368 253.871 79.9958 254.219C79.8547 254.567 79.6216 254.871 79.3215 255.097C78.7609 255.466 78.1923 255.169 78.0642 254.441C78.0086 254.069 78.0535 253.69 78.1944 253.342C78.3352 252.994 78.5668 252.69 78.865 252.463C79.4336 252.102 79.9941 252.39 80.1223 253.119Z" fill="#263238"/>
<path d="M96.7805 239.546L97.3731 239.858L95.3231 241.18L94.7305 240.867L96.7805 239.546Z" fill="#263238"/>
<path d="M95.1946 243.501L95.7872 243.813L93.7371 245.127L93.1445 244.814L95.1946 243.501Z" fill="#263238"/>
<path d="M97.8367 242.493L97.7246 241.876L99.3022 240.867L99.8868 241.18L97.8367 242.493Z" fill="#263238"/>
<path d="M93.1445 244.814L93.7371 245.127L94.2016 247.761L93.609 247.457L93.1445 244.814Z" fill="#263238"/>
<path d="M96.1238 248.771L96.7164 249.083L96.252 246.448L95.7715 246.761L96.1238 248.771Z" fill="#263238"/>
<path d="M81.7095 249.171C81.766 249.543 81.7214 249.922 81.5805 250.27C81.4396 250.618 81.2075 250.922 80.9087 251.149C80.3401 251.51 79.7795 251.214 79.6514 250.485C79.594 250.114 79.6381 249.734 79.7791 249.385C79.9201 249.037 80.1527 248.734 80.4522 248.507C81.0208 248.146 81.5813 248.443 81.7095 249.171Z" fill="#7896FF"/>
<path d="M82.6378 254.44C82.6952 254.811 82.6511 255.191 82.5101 255.539C82.3691 255.888 82.1365 256.191 81.837 256.418C81.2685 256.778 80.7079 256.482 80.5798 255.761C80.5215 255.39 80.5652 255.01 80.7063 254.662C80.8473 254.313 81.0804 254.01 81.3806 253.783C81.9331 253.415 82.5097 253.711 82.6378 254.44Z" fill="#7896FF"/>
<path d="M84.2225 250.485C84.2808 250.856 84.237 251.237 84.096 251.585C83.9549 251.933 83.7219 252.237 83.4217 252.463C82.8611 252.831 82.2926 252.535 82.1644 251.806C82.1079 251.435 82.1525 251.056 82.2934 250.707C82.4343 250.359 82.6664 250.056 82.9652 249.828C83.5338 249.46 84.0944 249.756 84.2225 250.485Z" fill="#7896FF"/>
<path d="M80.1223 253.119C80.1805 253.491 80.1368 253.871 79.9958 254.219C79.8547 254.567 79.6216 254.871 79.3215 255.097C78.7609 255.466 78.1923 255.169 78.0642 254.441C78.0086 254.069 78.0535 253.69 78.1944 253.342C78.3352 252.994 78.5668 252.69 78.865 252.463C79.4336 252.102 79.9941 252.39 80.1223 253.119Z" fill="#7896FF"/>
<path d="M101.409 25.3774L92.8001 30.3423C92.8478 29.9652 92.8719 29.5854 92.8722 29.2052V26.7147C92.8722 22.2783 89.7571 20.4764 85.9212 22.7107C84.2629 23.7267 82.8471 25.0933 81.7731 26.7147C81.1405 21.1091 76.7681 19.059 71.4507 22.1261C65.701 25.4494 61.0403 33.5215 61.0403 40.1522V43.8839C61.0036 45.3734 61.3048 46.8518 61.9212 48.2082L54.77 52.3324C53.647 53.0658 52.7123 54.0532 52.0418 55.2149C51.3712 56.3766 50.9835 57.6798 50.9102 59.0191C50.9102 61.4775 52.6399 62.4785 54.77 61.2453L101.409 34.3223C102.532 33.5889 103.466 32.6015 104.137 31.4398C104.808 30.2781 105.195 28.9749 105.269 27.6356C105.269 25.1451 103.555 24.1441 101.409 25.3774Z" fill="#D2D2D2"/>
<path d="M280.268 249.138L278.666 248.233L279.803 247.721C279.803 247.721 280.692 247.961 280.716 248.001C280.709 248.208 280.687 248.414 280.652 248.618L280.268 249.138Z" fill="#2F55DD" fill-opacity="0.2"/>
<path d="M280.268 249.138L278.666 248.233L279.803 247.721C279.803 247.721 280.692 247.961 280.716 248.001C280.709 248.208 280.687 248.414 280.652 248.618L280.268 249.138Z" fill="#7896FF"/>
<path opacity="0.1" d="M280.268 249.138L278.666 248.233L279.803 247.721C279.803 247.721 280.692 247.961 280.716 248.001C280.709 248.208 280.687 248.414 280.652 248.618L280.268 249.138Z" fill="white"/>
<path d="M220.672 279.16C221.382 279.519 222.166 279.707 222.962 279.707C223.758 279.707 224.543 279.519 225.252 279.16L276.616 249.53L199.739 205.134L197.945 204.101L146.582 233.73C145.324 234.459 145.324 235.652 146.582 236.373L220.672 279.16Z" fill="#7896FF"/>
<path opacity="0.8" d="M220.672 279.16C221.382 279.519 222.166 279.707 222.962 279.707C223.758 279.707 224.543 279.519 225.252 279.16L276.616 249.53L199.739 205.134L197.945 204.101L146.582 233.73C145.324 234.459 145.324 235.652 146.582 236.373L220.672 279.16Z" fill="white"/>
<path d="M239.962 223.136L257.876 233.442L269.472 226.747L282.933 234.547V244.245C282.933 245.422 281.612 247.096 281.132 246.823C280.243 247.038 279.379 247.344 278.553 247.736C277.206 248.502 275.956 249.427 274.829 250.491L233.668 226.731L239.962 223.136Z" fill="#2F55DD" fill-opacity="0.2"/>
<path d="M239.962 223.136L257.876 233.442L269.472 226.747L282.933 234.547V244.245C282.933 245.422 281.612 247.096 281.132 246.823C280.243 247.038 279.379 247.344 278.553 247.736C277.206 248.502 275.956 249.427 274.829 250.491L233.668 226.731L239.962 223.136Z" fill="#7896FF"/>
<path opacity="0.1" d="M239.962 223.136L257.876 233.442L269.472 226.747L282.933 234.547V244.245C282.933 245.422 281.612 247.096 281.132 246.823C280.243 247.038 279.379 247.344 278.553 247.736C277.206 248.502 275.956 249.427 274.829 250.491L233.668 226.731L239.962 223.136Z" fill="white"/>
<path d="M225.276 279.152L228.376 277.358L274.878 250.515C274.913 249.908 275.134 249.327 275.511 248.85C276.06 248.12 276.752 247.51 277.545 247.056C278.208 246.65 278.962 246.416 279.739 246.375C280.259 246.368 280.766 246.534 281.18 246.848C281.786 245.659 282.081 244.337 282.037 243.004H283.799C283.799 245.406 282.998 247.873 282.013 248.433L281.124 248.954C280.62 249.242 280.219 249.258 280.219 248.954V248.481C280.219 247.953 279.419 247.977 278.426 248.553C277.433 249.13 276.64 250.011 276.64 250.539V251.02C276.64 251.292 275.951 251.901 275.118 252.381L230.145 278.351L225.276 281.154C224.572 281.519 223.788 281.703 222.994 281.691V279.657C223.786 279.689 224.572 279.515 225.276 279.152Z" fill="#7896FF"/>
<path opacity="0.6" d="M225.276 279.152L228.376 277.358L274.878 250.515C274.913 249.908 275.134 249.327 275.511 248.85C276.06 248.12 276.752 247.51 277.545 247.056C278.208 246.65 278.962 246.416 279.739 246.375C280.259 246.368 280.766 246.534 281.18 246.848C281.786 245.659 282.081 244.337 282.037 243.004H283.799C283.799 245.406 282.998 247.873 282.013 248.433L281.124 248.954C280.62 249.242 280.219 249.258 280.219 248.954V248.481C280.219 247.953 279.419 247.977 278.426 248.553C277.433 249.13 276.64 250.011 276.64 250.539V251.02C276.64 251.292 275.951 251.901 275.118 252.381L230.145 278.351L225.276 281.154C224.572 281.519 223.788 281.703 222.994 281.691V279.657C223.786 279.689 224.572 279.515 225.276 279.152Z" fill="white"/>
<path d="M145.621 235.012V237.086C145.648 237.363 145.746 237.628 145.906 237.855C146.066 238.083 146.282 238.265 146.534 238.383L215.779 278.359L220.64 281.162C221.345 281.527 222.129 281.711 222.923 281.698V279.664C222.124 279.684 221.334 279.493 220.632 279.112L217.541 277.326L146.534 236.317C146.281 236.198 146.064 236.015 145.904 235.786C145.744 235.557 145.646 235.29 145.621 235.012Z" fill="#7896FF"/>
<path opacity="0.1" d="M145.621 235.012V237.086C145.648 237.363 145.746 237.628 145.906 237.855C146.066 238.083 146.282 238.265 146.534 238.383L215.779 278.359L220.64 281.162C221.345 281.527 222.129 281.711 222.923 281.698V279.664C222.124 279.684 221.334 279.493 220.632 279.112L217.541 277.326L146.534 236.317C146.281 236.198 146.064 236.015 145.904 235.786C145.744 235.557 145.646 235.29 145.621 235.012Z" fill="white"/>
<path d="M222.961 265.995V277.879C223.491 277.895 224.016 277.77 224.482 277.518L230.088 274.267L273.003 249.49V237.094L222.961 265.995Z" fill="white"/>
<path d="M147.854 224.113V233.25C147.882 233.779 148.034 234.294 148.298 234.754C148.563 235.213 148.932 235.603 149.375 235.893L215.842 274.252L221.447 277.503C221.914 277.754 222.439 277.878 222.969 277.863V267.253L147.854 224.113Z" fill="#F0F0F0"/>
<path d="M273.037 249.475C273.08 248.867 273.306 248.286 273.686 247.809C274.237 247.084 274.929 246.476 275.72 246.023C276.378 245.611 277.13 245.374 277.906 245.334C278.428 245.33 278.936 245.496 279.355 245.807V233.435L273.053 237.078L273.037 249.475Z" fill="#455A64"/>
<path d="M275.56 246.128C274.83 246.559 274.193 247.13 273.686 247.809C273.306 248.286 273.08 248.867 273.037 249.475V237.655H275.552L275.56 246.128Z" fill="#F5F5F5"/>
<path d="M199.723 190.591L276.6 234.988V236.021C276.6 236.589 277.401 236.822 278.386 236.229C279.37 235.636 280.179 234.948 280.179 233.963L280.275 232.986L201.933 187.756L201.621 187.572C201.539 187.717 201.492 187.879 201.484 188.045V188.525C201.5 189.118 200.708 190.039 199.723 190.591Z" fill="#7896FF"/>
<path opacity="0.6" d="M199.723 190.591L276.6 234.988V236.021C276.6 236.589 277.401 236.822 278.386 236.229C279.37 235.636 280.179 234.948 280.179 233.963L280.275 232.986L201.933 187.756L201.621 187.572C201.539 187.717 201.492 187.879 201.484 188.045V188.525C201.5 189.118 200.708 190.039 199.723 190.591Z" fill="white"/>
<path d="M225.277 264.673L275.504 235.668C276.136 235.34 276.721 235.068 276.969 235.196L276.641 235.012L199.764 190.615L198.867 190.095C198.464 189.98 198.041 189.953 197.627 190.015C197.212 190.077 196.816 190.227 196.464 190.455L146.63 219.236C145.373 219.965 145.373 221.15 146.63 221.878L220.737 264.673C221.441 265.026 222.219 265.21 223.007 265.21C223.795 265.21 224.573 265.026 225.277 264.673Z" fill="#7896FF"/>
<path opacity="0.8" d="M225.277 264.673L275.504 235.668C276.136 235.34 276.721 235.068 276.969 235.196L276.641 235.012L199.764 190.615L198.867 190.095C198.464 189.98 198.041 189.953 197.627 190.015C197.212 190.077 196.816 190.227 196.464 190.455L146.63 219.236C145.373 219.965 145.373 221.15 146.63 221.878L220.737 264.673C221.441 265.026 222.219 265.21 223.007 265.21C223.795 265.21 224.573 265.026 225.277 264.673Z" fill="white"/>
<path d="M201.637 187.596L201.949 187.78L280.292 233.034C280.331 232.95 280.389 232.876 280.46 232.818L280.724 232.665L281.293 232.345L281.989 231.937C282.124 231.847 282.286 231.806 282.448 231.82C282.609 231.835 282.761 231.904 282.878 232.017C282.911 232.039 282.941 232.066 282.966 232.097C283.061 232.193 283.139 232.304 283.198 232.425C283.284 232.564 283.353 232.712 283.407 232.866C283.468 233.03 283.519 233.199 283.559 233.37C283.607 233.57 283.639 233.762 283.679 233.971C283.701 234.09 283.714 234.21 283.719 234.331C283.719 234.427 283.719 234.515 283.719 234.627C283.719 234.739 283.719 235.076 283.719 235.308V233.106C283.636 232.382 283.386 231.688 282.989 231.078C282.591 230.468 282.057 229.958 281.429 229.59L207.314 186.795C206.704 186.435 206.018 186.221 205.311 186.169C204.604 186.118 203.895 186.231 203.238 186.499L202.301 187.044L201.901 187.268C201.785 187.352 201.694 187.465 201.637 187.596Z" fill="#7896FF"/>
<path opacity="0.8" d="M201.637 187.596L201.949 187.78L280.292 233.034C280.331 232.95 280.389 232.876 280.46 232.818L280.724 232.665L281.293 232.345L281.989 231.937C282.124 231.847 282.286 231.806 282.448 231.82C282.609 231.835 282.761 231.904 282.878 232.017C282.911 232.039 282.941 232.066 282.966 232.097C283.061 232.193 283.139 232.304 283.198 232.425C283.284 232.564 283.353 232.712 283.407 232.866C283.468 233.03 283.519 233.199 283.559 233.37C283.607 233.57 283.639 233.762 283.679 233.971C283.701 234.09 283.714 234.21 283.719 234.331C283.719 234.427 283.719 234.515 283.719 234.627C283.719 234.739 283.719 235.076 283.719 235.308V233.106C283.636 232.382 283.386 231.688 282.989 231.078C282.591 230.468 282.057 229.958 281.429 229.59L207.314 186.795C206.704 186.435 206.018 186.221 205.311 186.169C204.604 186.118 203.895 186.231 203.238 186.499L202.301 187.044L201.901 187.268C201.785 187.352 201.694 187.465 201.637 187.596Z" fill="white"/>
<path d="M225.277 264.682L228.385 262.88L264.108 242.267L275.512 235.685C276.313 235.204 276.985 235.036 277.025 235.284V235.797C277.025 236.373 277.826 236.373 278.811 235.797C279.176 235.638 279.496 235.391 279.742 235.078C279.988 234.765 280.153 234.395 280.22 234.003V233.442C280.209 233.317 280.226 233.191 280.272 233.074C280.318 232.958 280.391 232.853 280.485 232.77L280.749 232.617L281.318 232.297L282.014 231.889C282.149 231.799 282.311 231.758 282.473 231.772C282.634 231.787 282.786 231.856 282.903 231.969C282.936 231.991 282.966 232.018 282.991 232.049C283.051 232.111 283.102 232.181 283.143 232.257C283.177 232.292 283.204 232.333 283.223 232.377C283.309 232.516 283.378 232.664 283.432 232.818C283.493 232.982 283.544 233.151 283.584 233.322C283.632 233.522 283.664 233.715 283.704 233.923C283.726 234.042 283.739 234.162 283.744 234.283C283.744 234.379 283.744 234.467 283.744 234.579C283.744 234.692 283.744 235.028 283.744 235.26V242.98H281.982V235.26C281.982 235.076 281.982 234.892 281.982 234.716L281.934 234.275C281.938 234.262 281.938 234.248 281.934 234.235C281.774 235.636 280.437 236.886 279.276 237.542C278.631 237.949 277.891 238.181 277.129 238.215C276.542 238.223 275.972 238.015 275.528 237.63L275.368 237.719L275.063 237.903L230.09 263.873L225.277 266.708C224.584 267.062 223.814 267.241 223.035 267.228V265.194C223.813 265.211 224.584 265.035 225.277 264.682Z" fill="#7896FF"/>
<path opacity="0.6" d="M225.277 264.682L228.385 262.88L264.108 242.267L275.512 235.685C276.313 235.204 276.985 235.036 277.025 235.284V235.797C277.025 236.373 277.826 236.373 278.811 235.797C279.176 235.638 279.496 235.391 279.742 235.078C279.988 234.765 280.153 234.395 280.22 234.003V233.442C280.209 233.317 280.226 233.191 280.272 233.074C280.318 232.958 280.391 232.853 280.485 232.77L280.749 232.617L281.318 232.297L282.014 231.889C282.149 231.799 282.311 231.758 282.473 231.772C282.634 231.787 282.786 231.856 282.903 231.969C282.936 231.991 282.966 232.018 282.991 232.049C283.051 232.111 283.102 232.181 283.143 232.257C283.177 232.292 283.204 232.333 283.223 232.377C283.309 232.516 283.378 232.664 283.432 232.818C283.493 232.982 283.544 233.151 283.584 233.322C283.632 233.522 283.664 233.715 283.704 233.923C283.726 234.042 283.739 234.162 283.744 234.283C283.744 234.379 283.744 234.467 283.744 234.579C283.744 234.692 283.744 235.028 283.744 235.26V242.98H281.982V235.26C281.982 235.076 281.982 234.892 281.982 234.716L281.934 234.275C281.938 234.262 281.938 234.248 281.934 234.235C281.774 235.636 280.437 236.886 279.276 237.542C278.631 237.949 277.891 238.181 277.129 238.215C276.542 238.223 275.972 238.015 275.528 237.63L275.368 237.719L275.063 237.903L230.09 263.873L225.277 266.708C224.584 267.062 223.814 267.241 223.035 267.228V265.194C223.813 265.211 224.584 265.035 225.277 264.682Z" fill="white"/>
<path d="M145.621 220.534V222.624C145.646 222.903 145.744 223.169 145.904 223.398C146.064 223.627 146.281 223.811 146.534 223.93L215.779 263.906L220.64 266.716C221.345 267.081 222.129 267.265 222.923 267.253V265.219C222.125 265.236 221.337 265.049 220.632 264.674L217.541 262.889L146.534 221.88C146.276 221.757 146.055 221.568 145.894 221.331C145.734 221.095 145.639 220.819 145.621 220.534Z" fill="#7896FF"/>
<path opacity="0.1" d="M145.621 220.534V222.624C145.646 222.903 145.744 223.169 145.904 223.398C146.064 223.627 146.281 223.811 146.534 223.93L215.779 263.906L220.64 266.716C221.345 267.081 222.129 267.265 222.923 267.253V265.219C222.125 265.236 221.337 265.049 220.632 264.674L217.541 262.889L146.534 221.88C146.276 221.757 146.055 221.568 145.894 221.331C145.734 221.095 145.639 220.819 145.621 220.534Z" fill="white"/>
<path d="M196.4 190.455C196.751 190.227 197.148 190.077 197.562 190.015C197.976 189.953 198.399 189.98 198.802 190.095L199.699 190.615C200.684 190.038 201.477 189.118 201.477 188.549V188.068C201.484 187.902 201.531 187.741 201.613 187.596C201.676 187.466 201.773 187.355 201.893 187.276L202.294 187.051L203.23 186.507C203.887 186.239 204.596 186.126 205.303 186.177C206.01 186.229 206.696 186.443 207.307 186.803L281.421 229.598L281.501 229.646L229.201 259.844C228.728 260.086 228.205 260.211 227.675 260.211C227.145 260.211 226.622 260.086 226.149 259.844L151.555 216.353L196.4 190.455Z" fill="#263238"/>
<path d="M233.388 255.457L231.41 254.319C231.943 254.134 232.514 254.093 233.068 254.199C233.596 254.472 233.388 255.457 233.388 255.457Z" fill="#7896FF"/>
<path opacity="0.7" d="M233.388 255.457L231.41 254.319C231.943 254.134 232.514 254.093 233.068 254.199C233.596 254.472 233.388 255.457 233.388 255.457Z" fill="black"/>
<path d="M234.749 254.231C234.524 253.987 234.251 253.793 233.947 253.66C233.643 253.527 233.315 253.458 232.983 253.458C232.651 253.458 232.323 253.527 232.019 253.66C231.715 253.793 231.442 253.987 231.217 254.231C229.288 256.001 229.191 257.755 228.391 257.731C227.59 257.707 227.59 243.597 227.59 243.597L235.205 250.652L234.749 254.231Z" fill="#7896FF"/>
<path opacity="0.7" d="M234.749 254.231C234.524 253.987 234.251 253.793 233.947 253.66C233.643 253.527 233.315 253.458 232.983 253.458C232.651 253.458 232.323 253.527 232.019 253.66C231.715 253.793 231.442 253.987 231.217 254.231C229.288 256.001 229.191 257.755 228.391 257.731C227.59 257.707 227.59 243.597 227.59 243.597L235.205 250.652L234.749 254.231Z" fill="black"/>
<path d="M155.134 202.94L155.006 202.868L156.223 202.163L208.66 171.893L285.064 221.334C286.321 222.063 286.546 223.12 285.561 223.68L283.775 224.714L234.766 253.054L234.413 252.798L155.134 202.94Z" fill="#7896FF"/>
<path opacity="0.5" d="M155.134 202.94L155.006 202.868L156.223 202.163L208.66 171.893L285.064 221.334C286.321 222.063 286.546 223.12 285.561 223.68L283.775 224.714L234.766 253.054L234.413 252.798L155.134 202.94Z" fill="black"/>
<path d="M228.224 236.918L232.02 236.117V251.332C229.729 252.309 228.272 253.222 228.016 255.136L228.224 236.918Z" fill="#455A64"/>
<path d="M233.693 251.533L282.246 223.505C282.691 223.216 283.061 222.826 283.327 222.366C283.593 221.907 283.746 221.392 283.775 220.862V205.879L234.75 234.428C234.75 234.428 234.165 236.55 232.428 237.214C230.69 237.879 232.019 238.56 232.019 238.56V251.372C233.517 251.156 233.693 251.533 233.693 251.533Z" fill="#F0F0F0"/>
<path d="M229.216 236.397C229.72 236.109 230.121 236.093 230.121 236.397V236.869C230.121 237.398 230.921 237.374 231.914 236.797C232.907 236.221 233.708 235.34 233.708 234.811V234.331C233.708 234.058 234.389 233.45 235.222 232.969L156.231 187.708L155.005 188.413C154.836 188.593 154.729 188.823 154.701 189.069V189.55C154.701 190.078 153.9 190.967 152.915 191.536C151.93 192.104 151.122 192.136 151.122 191.608V191.127C151.122 190.855 150.721 190.879 150.225 191.167L229.216 236.397Z" fill="#7896FF"/>
<path opacity="0.6" d="M229.216 236.397C229.72 236.109 230.121 236.093 230.121 236.397V236.869C230.121 237.398 230.921 237.374 231.914 236.797C232.907 236.221 233.708 235.34 233.708 234.811V234.331C233.708 234.058 234.389 233.45 235.222 232.969L156.231 187.708L155.005 188.413C154.836 188.593 154.729 188.823 154.701 189.069V189.55C154.701 190.078 153.9 190.967 152.915 191.536C151.93 192.104 151.122 192.136 151.122 191.608V191.127C151.122 190.855 150.721 190.879 150.225 191.167L229.216 236.397Z" fill="black"/>
<path d="M155.134 188.453L155.006 188.381L156.223 187.677L208.66 157.406L285.064 201.53C286.321 202.259 286.546 203.308 285.561 203.877L283.775 204.902L234.75 234.427L155.134 188.453Z" fill="#7896FF"/>
<path opacity="0.5" d="M155.134 188.453L155.006 188.381L156.223 187.677L208.66 157.406L285.064 201.53C286.321 202.259 286.546 203.308 285.561 203.877L283.775 204.902L234.75 234.427L155.134 188.453Z" fill="black"/>
<path d="M151.105 190.64L230.08 236.237L227.318 238.4L148.639 192.978C148.831 192.394 149.197 191.882 149.688 191.513L151.105 190.64Z" fill="#7896FF"/>
<path opacity="0.5" d="M151.105 190.64L230.08 236.237L227.318 238.4L148.639 192.978C148.831 192.394 149.197 191.882 149.688 191.513L151.105 190.64Z" fill="black"/>
<path d="M148.904 213.359C148.855 213.328 148.809 213.294 148.767 213.254C148.731 213.237 148.701 213.209 148.679 213.174C148.615 213.111 148.561 213.038 148.519 212.958C148.484 212.928 148.456 212.889 148.439 212.846C148.353 212.709 148.286 212.561 148.239 212.406C148.172 212.239 148.119 212.068 148.079 211.893C148.031 211.701 147.999 211.509 147.967 211.3C147.939 211.182 147.923 211.062 147.919 210.94V210.644C147.919 210.428 147.919 210.195 147.919 209.963V196.918C147.904 195.548 148.154 194.189 148.655 192.914L227.334 238.336L227.662 258.772L148.992 213.335L148.904 213.359Z" fill="#7896FF"/>
<path opacity="0.7" d="M148.904 213.359C148.855 213.328 148.809 213.294 148.767 213.254C148.731 213.237 148.701 213.209 148.679 213.174C148.615 213.111 148.561 213.038 148.519 212.958C148.484 212.928 148.456 212.889 148.439 212.846C148.353 212.709 148.286 212.561 148.239 212.406C148.172 212.239 148.119 212.068 148.079 211.893C148.031 211.701 147.999 211.509 147.967 211.3C147.939 211.182 147.923 211.062 147.919 210.94V210.644C147.919 210.428 147.919 210.195 147.919 209.963V196.918C147.904 195.548 148.154 194.189 148.655 192.914L227.334 238.336L227.662 258.772L148.992 213.335L148.904 213.359Z" fill="black"/>
<path opacity="0.79" d="M227.279 238.368C227.279 238.368 165.313 209.371 159.676 206.712C155.952 204.958 154.126 208.642 155.007 212.454C155.808 215.785 159.067 219.22 159.067 219.22L148.937 213.367C148.888 213.336 148.842 213.302 148.801 213.262C148.764 213.245 148.734 213.217 148.713 213.182C148.648 213.119 148.594 213.046 148.552 212.966C148.517 212.936 148.49 212.897 148.472 212.854C148.387 212.717 148.319 212.569 148.272 212.414C148.206 212.247 148.152 212.076 148.112 211.901C148.064 211.709 148.032 211.517 148 211.308C147.972 211.19 147.956 211.07 147.952 210.948V210.652C147.952 210.436 147.952 210.203 147.952 209.971V196.918C147.937 195.548 148.188 194.189 148.688 192.914L227.279 238.368Z" fill="#263238"/>
<path d="M226.549 242.348H228.311C228.269 241.016 228.561 239.695 229.159 238.504C229.578 238.815 230.087 238.98 230.609 238.976C231.384 238.937 232.137 238.7 232.795 238.288C233.588 237.837 234.28 237.229 234.829 236.502C234.871 236.452 234.909 236.398 234.941 236.342C235.252 235.899 235.433 235.377 235.462 234.836L281.964 207.993L283.566 207.072L285.584 205.911C285.76 205.831 285.91 205.704 286.019 205.545C286.127 205.385 286.19 205.199 286.201 205.006V202.948C286.192 203.144 286.13 203.335 286.021 203.498C285.913 203.662 285.761 203.793 285.584 203.877L280.243 206.952L235.278 232.922C234.437 233.403 233.756 234.011 233.756 234.284V234.764C233.706 235.069 233.56 235.349 233.34 235.565C232.954 236.029 232.487 236.42 231.962 236.718C230.969 237.295 230.168 237.319 230.168 236.79V236.318C230.168 236.037 229.776 236.061 229.272 236.318L228.383 236.838C227.35 237.479 226.549 239.921 226.549 242.348Z" fill="#7896FF"/>
<path d="M228.313 242.347V255.392C228.313 255.577 228.313 255.761 228.313 255.937L228.353 256.377C228.349 256.391 228.349 256.404 228.353 256.417C228.513 255.016 229.85 253.767 231.011 253.11C231.659 252.702 232.401 252.47 233.166 252.438C233.753 252.43 234.323 252.638 234.767 253.022L234.919 252.934L235.232 252.75L280.197 226.78L282.783 225.29L283.52 224.858L285.698 223.601C285.841 223.511 285.96 223.387 286.044 223.24C286.128 223.094 286.174 222.929 286.179 222.76V224.818C286.173 224.977 286.129 225.133 286.051 225.272C285.973 225.411 285.863 225.53 285.73 225.619C285.474 225.771 285.202 225.915 284.929 226.083L284.425 226.379L283.56 226.876C283.368 226.996 283.192 227.1 283.024 227.188C282.855 227.276 282.759 227.348 282.647 227.404L281.983 227.797L246.259 248.409L234.855 254.992C234.054 255.473 233.39 255.641 233.342 255.392C233.339 255.363 233.339 255.334 233.342 255.304V254.848C233.342 254.271 232.541 254.271 231.556 254.848C231.191 255.007 230.871 255.254 230.625 255.567C230.379 255.88 230.214 256.249 230.147 256.642V257.202C230.158 257.327 230.141 257.453 230.095 257.57C230.049 257.687 229.976 257.791 229.882 257.875L229.618 258.027L229.057 258.347L228.361 258.756C228.226 258.846 228.064 258.887 227.902 258.872C227.741 258.858 227.589 258.788 227.472 258.676C227.436 258.658 227.405 258.63 227.384 258.596C227.319 258.536 227.265 258.465 227.224 258.387C227.193 258.353 227.166 258.316 227.144 258.275C227.058 258.138 226.991 257.99 226.943 257.835C226.876 257.672 226.822 257.503 226.783 257.33C226.735 257.13 226.703 256.938 226.671 256.73C226.643 256.612 226.627 256.491 226.623 256.369C226.623 256.273 226.623 256.185 226.623 256.073C226.623 255.961 226.623 255.625 226.623 255.392V242.347H228.313Z" fill="#7896FF"/>
<g opacity="0.6">
<path d="M226.549 242.347H228.311C228.269 241.015 228.561 239.694 229.159 238.503C229.578 238.814 230.087 238.979 230.609 238.975C231.384 238.936 232.137 238.699 232.795 238.287C233.588 237.836 234.28 237.228 234.829 236.501C234.871 236.451 234.909 236.397 234.941 236.341C235.252 235.898 235.433 235.376 235.462 234.835L281.964 207.992L283.566 207.071L285.584 205.91C285.76 205.83 285.91 205.703 286.019 205.544C286.127 205.384 286.19 205.198 286.201 205.005V202.947C286.192 203.144 286.13 203.334 286.021 203.497C285.913 203.661 285.761 203.792 285.584 203.876L280.243 206.951L235.278 232.921C234.437 233.402 233.756 234.01 233.756 234.283V234.763C233.706 235.068 233.56 235.348 233.34 235.564C232.954 236.028 232.487 236.419 231.962 236.717C230.969 237.294 230.168 237.318 230.168 236.789V236.317C230.168 236.036 229.776 236.06 229.272 236.317L228.383 236.837C227.35 237.478 226.549 239.92 226.549 242.347Z" fill="black"/>
<path d="M228.311 242.346V255.391C228.311 255.576 228.311 255.76 228.311 255.936L228.351 256.376C228.347 256.39 228.347 256.403 228.351 256.417C228.511 255.015 229.848 253.766 231.01 253.109C231.657 252.701 232.399 252.47 233.164 252.437C233.751 252.429 234.321 252.637 234.765 253.021L234.917 252.933L235.23 252.749L280.195 226.779L282.781 225.289L283.518 224.857L285.696 223.6C285.84 223.51 285.958 223.386 286.042 223.24C286.126 223.093 286.172 222.928 286.177 222.759V224.817C286.171 224.976 286.127 225.132 286.049 225.271C285.971 225.41 285.861 225.529 285.728 225.618C285.472 225.77 285.2 225.914 284.928 226.082L284.423 226.378L283.558 226.875C283.366 226.995 283.19 227.099 283.022 227.187C282.853 227.275 282.757 227.347 282.645 227.403L281.981 227.796L246.257 248.408L234.853 254.991C234.053 255.472 233.388 255.64 233.34 255.391C233.337 255.362 233.337 255.333 233.34 255.303V254.847C233.34 254.27 232.539 254.27 231.554 254.847C231.189 255.006 230.869 255.253 230.623 255.566C230.377 255.879 230.212 256.248 230.145 256.641V257.201C230.156 257.326 230.139 257.452 230.093 257.569C230.047 257.686 229.974 257.79 229.88 257.874L229.616 258.026L229.056 258.346L228.359 258.755C228.224 258.845 228.062 258.886 227.9 258.871C227.739 258.857 227.587 258.787 227.47 258.675C227.434 258.657 227.403 258.629 227.382 258.595C227.317 258.535 227.263 258.464 227.222 258.386C227.191 258.353 227.164 258.315 227.142 258.274C227.056 258.137 226.989 257.989 226.941 257.834C226.874 257.671 226.82 257.502 226.781 257.329C226.733 257.129 226.701 256.937 226.669 256.729C226.641 256.611 226.625 256.49 226.621 256.368C226.621 256.272 226.621 256.184 226.621 256.072C226.621 255.96 226.621 255.624 226.621 255.391V242.346H228.311Z" fill="black"/>
</g>
<path d="M148.6 192.938L223.379 236.117L279.899 203.485C280.084 203.423 280.244 203.305 280.358 203.147C280.472 202.989 280.533 202.799 280.533 202.604C280.533 202.409 280.472 202.219 280.358 202.061C280.244 201.903 280.084 201.785 279.899 201.723L205.905 158.992L156.255 187.677L155.03 188.39C154.864 188.569 154.76 188.796 154.734 189.038V189.519C154.734 190.047 153.933 190.936 152.948 191.505C152.898 191.538 152.844 191.565 152.788 191.585L151.138 190.632L150.337 191.08L150.225 191.136L149.649 191.473C149.158 191.843 148.792 192.355 148.6 192.938Z" fill="#263238"/>
<path d="M275.727 203.805L273.477 202.604L275.527 202.115C275.724 202.345 275.848 202.629 275.883 202.93C275.919 203.23 275.865 203.535 275.727 203.805Z" fill="#2F55DD" fill-opacity="0.2"/>
<g style="mix-blend-mode:multiply" opacity="0.5">
<path d="M275.727 203.805L273.477 202.604L275.527 202.115C275.724 202.345 275.848 202.629 275.883 202.93C275.919 203.23 275.865 203.535 275.727 203.805Z" fill="#2F55DD" fill-opacity="0.2"/>
</g>
<path d="M216.09 233.835C216.799 234.194 217.582 234.382 218.376 234.382C219.171 234.382 219.954 234.194 220.663 233.835L272.026 204.205L195.149 155.605L193.347 154.563L141.992 188.389C140.735 189.118 140.735 190.303 141.992 191.032L216.09 233.835Z" fill="#7896FF"/>
<path d="M235.374 173.591L274.181 199.889L253.288 183.873L264.883 177.178L278.369 184.986V198.912C278.369 200.097 277.047 201.771 276.567 201.499C275.678 201.714 274.814 202.02 273.988 202.412C272.641 203.178 271.391 204.102 270.265 205.166L229.111 177.194L235.374 173.591Z" fill="#7896FF"/>
<path opacity="0.2" d="M235.374 173.591L274.181 199.889L253.288 183.873L264.883 177.178L278.369 184.986V198.912C278.369 200.097 277.047 201.771 276.567 201.499C275.678 201.714 274.814 202.02 273.988 202.412C272.641 203.178 271.391 204.102 270.265 205.166L229.111 177.194L235.374 173.591Z" fill="black"/>
<path d="M218.373 216.45V232.53C218.905 232.542 219.432 232.418 219.903 232.17L225.508 228.919L268.431 204.142V187.533L218.373 216.45Z" fill="white"/>
<path d="M143.266 174.575V187.925C143.295 188.453 143.448 188.968 143.712 189.427C143.976 189.886 144.345 190.276 144.787 190.567L211.254 228.926L216.859 232.177C217.328 232.424 217.851 232.548 218.381 232.537V217.706L143.266 174.575Z" fill="#F0F0F0"/>
<path d="M268.455 204.141C268.494 203.534 268.718 202.953 269.096 202.475C269.643 201.746 270.335 201.138 271.13 200.689C271.791 200.277 272.546 200.04 273.324 200.001C273.828 199.95 274.336 200.068 274.765 200.337V183.889L268.463 187.532L268.455 204.141Z" fill="#455A64"/>
<path d="M270.97 200.786C270.243 201.225 269.607 201.798 269.096 202.475C268.718 202.953 268.494 203.534 268.455 204.141V188.125H270.962L270.97 200.786Z" fill="#F5F5F5"/>
<path d="M195.143 141.07L272.02 185.474V186.499C272.02 187.076 272.82 187.3 273.805 186.716C274.79 186.131 275.607 185.426 275.607 184.441L275.703 183.464L197.361 138.235L197.04 138.051C196.96 138.198 196.916 138.363 196.912 138.531V139.004C196.92 139.572 196.128 140.493 195.143 141.07Z" fill="#7896FF"/>
<path opacity="0.2" d="M195.143 141.07L272.02 185.474V186.499C272.02 187.076 272.82 187.3 273.805 186.716C274.79 186.131 275.607 185.426 275.607 184.441L275.703 183.464L197.361 138.235L197.04 138.051C196.96 138.198 196.916 138.363 196.912 138.531V139.004C196.92 139.572 196.128 140.493 195.143 141.07Z" fill="black"/>
<path d="M220.663 215.129L270.921 186.132C271.562 185.795 272.146 185.523 272.386 185.651L272.058 185.475L195.181 141.071L194.276 140.558C193.874 140.439 193.45 140.409 193.035 140.471C192.62 140.533 192.223 140.686 191.874 140.918L141.992 169.691C140.735 170.42 140.735 171.613 141.992 172.334L216.106 215.129C216.812 215.486 217.593 215.672 218.384 215.672C219.176 215.672 219.956 215.486 220.663 215.129Z" fill="#7896FF"/>
<path d="M197.049 138.051L197.369 138.235L275.728 183.464C275.767 183.381 275.825 183.307 275.896 183.248L276.16 183.104L276.721 182.776L277.417 182.367C277.553 182.279 277.714 182.239 277.876 182.253C278.037 182.268 278.189 182.336 278.306 182.447C278.339 182.47 278.369 182.497 278.394 182.528C278.487 182.627 278.568 182.737 278.635 182.856C278.717 182.995 278.784 183.143 278.835 183.296C278.898 183.464 278.951 183.635 278.995 183.809C279.035 184.001 279.075 184.193 279.107 184.401C279.131 184.523 279.148 184.646 279.155 184.77V185.058C279.155 185.274 279.155 185.507 279.155 185.747V183.545C279.075 182.819 278.826 182.123 278.428 181.511C278.03 180.899 277.495 180.389 276.865 180.021L202.751 137.226C202.14 136.866 201.454 136.653 200.746 136.603C200.039 136.553 199.33 136.668 198.674 136.938L197.738 137.482L197.345 137.715C197.216 137.796 197.114 137.913 197.049 138.051Z" fill="#7896FF"/>
<path d="M220.663 233.835L223.762 232.041L270.265 205.19C270.306 204.583 270.529 204.003 270.905 203.525C271.455 202.797 272.147 202.19 272.94 201.739C273.6 201.333 274.352 201.099 275.126 201.058C275.648 201.047 276.159 201.214 276.575 201.531C277.173 200.337 277.464 199.013 277.424 197.679H279.186C279.186 200.081 278.385 202.548 277.4 203.116L276.511 203.637C276.007 203.925 275.614 203.941 275.614 203.637V203.164C275.614 202.636 274.813 202.66 273.812 203.228C272.811 203.797 272.027 204.694 272.027 205.222V205.695C272.027 205.967 271.346 206.576 270.505 207.064L225.532 233.034L220.663 235.845C219.958 236.21 219.174 236.394 218.381 236.381V234.347C219.173 234.374 219.959 234.198 220.663 233.835Z" fill="#7896FF"/>
<path opacity="0.4" d="M220.663 233.835L223.762 232.041L270.265 205.19C270.306 204.583 270.529 204.003 270.905 203.525C271.455 202.797 272.147 202.19 272.94 201.739C273.6 201.333 274.352 201.099 275.126 201.058C275.648 201.047 276.159 201.214 276.575 201.531C277.173 200.337 277.464 199.013 277.424 197.679H279.186C279.186 200.081 278.385 202.548 277.4 203.116L276.511 203.637C276.007 203.925 275.614 203.941 275.614 203.637V203.164C275.614 202.636 274.813 202.66 273.812 203.228C272.811 203.797 272.027 204.694 272.027 205.222V205.695C272.027 205.967 271.346 206.576 270.505 207.064L225.532 233.034L220.663 235.845C219.958 236.21 219.174 236.394 218.381 236.381V234.347C219.173 234.374 219.959 234.198 220.663 233.835Z" fill="black"/>
<path d="M220.649 215.136L223.748 213.343L259.472 192.73L270.923 186.131C271.724 185.659 272.397 185.491 272.445 185.739V186.259C272.445 186.828 273.246 186.828 274.231 186.259C274.597 186.1 274.917 185.852 275.164 185.537C275.41 185.223 275.573 184.852 275.64 184.458V183.897C275.628 183.772 275.646 183.646 275.692 183.529C275.738 183.412 275.811 183.308 275.904 183.224L276.169 183.08L276.729 182.752L277.426 182.344C277.561 182.255 277.723 182.215 277.884 182.229C278.045 182.244 278.197 182.312 278.315 182.424C278.348 182.446 278.377 182.473 278.403 182.504C278.465 182.569 278.519 182.641 278.563 182.72C278.593 182.755 278.62 182.792 278.643 182.832C278.726 182.971 278.793 183.119 278.843 183.272C278.906 183.44 278.96 183.611 279.003 183.785C279.043 183.977 279.083 184.169 279.116 184.378C279.14 184.499 279.156 184.622 279.164 184.746V185.034C279.164 185.25 279.164 185.483 279.164 185.723V197.639H277.402V185.787C277.402 185.603 277.402 185.411 277.402 185.234L277.362 184.794C277.202 186.195 275.864 187.445 274.695 188.101C274.051 188.511 273.311 188.743 272.549 188.774C271.962 188.782 271.392 188.574 270.947 188.189L270.795 188.277L270.483 188.462L225.51 214.432L220.641 217.243C219.945 217.598 219.172 217.777 218.391 217.763V215.729C219.181 215.724 219.958 215.52 220.649 215.136Z" fill="#7896FF"/>
<path opacity="0.4" d="M220.649 215.136L223.748 213.343L259.472 192.73L270.923 186.131C271.724 185.659 272.397 185.491 272.445 185.739V186.259C272.445 186.828 273.246 186.828 274.231 186.259C274.597 186.1 274.917 185.852 275.164 185.537C275.41 185.223 275.573 184.852 275.64 184.458V183.897C275.628 183.772 275.646 183.646 275.692 183.529C275.738 183.412 275.811 183.308 275.904 183.224L276.169 183.08L276.729 182.752L277.426 182.344C277.561 182.255 277.723 182.215 277.884 182.229C278.045 182.244 278.197 182.312 278.315 182.424C278.348 182.446 278.377 182.473 278.403 182.504C278.465 182.569 278.519 182.641 278.563 182.72C278.593 182.755 278.62 182.792 278.643 182.832C278.726 182.971 278.793 183.119 278.843 183.272C278.906 183.44 278.96 183.611 279.003 183.785C279.043 183.977 279.083 184.169 279.116 184.378C279.14 184.499 279.156 184.622 279.164 184.746V185.034C279.164 185.25 279.164 185.483 279.164 185.723V197.639H277.402V185.787C277.402 185.603 277.402 185.411 277.402 185.234L277.362 184.794C277.202 186.195 275.864 187.445 274.695 188.101C274.051 188.511 273.311 188.743 272.549 188.774C271.962 188.782 271.392 188.574 270.947 188.189L270.795 188.277L270.483 188.462L225.51 214.432L220.641 217.243C219.945 217.598 219.172 217.777 218.391 217.763V215.729C219.181 215.724 219.958 215.52 220.649 215.136Z" fill="black"/>
<path d="M141.041 170.988V173.054C141.065 173.332 141.162 173.598 141.32 173.827C141.479 174.056 141.695 174.24 141.946 174.36L211.199 214.336L216.06 217.147C216.763 217.51 217.544 217.694 218.334 217.683V215.649C217.54 215.667 216.754 215.479 216.052 215.104L212.961 213.319L141.994 172.334C141.725 172.221 141.493 172.036 141.324 171.798C141.156 171.56 141.058 171.279 141.041 170.988Z" fill="#7896FF"/>
<path opacity="0.2" d="M141.041 170.988V173.054C141.065 173.332 141.162 173.598 141.32 173.827C141.479 174.056 141.695 174.24 141.946 174.36L211.199 214.336L216.06 217.147C216.763 217.51 217.544 217.694 218.334 217.683V215.649C217.54 215.667 216.754 215.479 216.052 215.104L212.961 213.319L141.994 172.334C141.725 172.221 141.493 172.036 141.324 171.798C141.156 171.56 141.058 171.279 141.041 170.988Z" fill="black"/>
<path d="M141.041 189.679V191.745C141.065 192.022 141.162 192.289 141.32 192.518C141.479 192.746 141.695 192.93 141.946 193.05L211.231 233.034L216.092 235.845C216.795 236.208 217.576 236.393 218.367 236.382V234.348C217.572 234.365 216.786 234.177 216.084 233.803L212.993 232.017L141.994 191.024C141.725 190.912 141.493 190.726 141.324 190.488C141.156 190.25 141.058 189.97 141.041 189.679Z" fill="#7896FF"/>
<path opacity="0.2" d="M141.041 189.679V191.745C141.065 192.022 141.162 192.289 141.32 192.518C141.479 192.746 141.695 192.93 141.946 193.05L211.231 233.034L216.092 235.845C216.795 236.208 217.576 236.393 218.367 236.382V234.348C217.572 234.365 216.786 234.177 216.084 233.803L212.993 232.017L141.994 191.024C141.725 190.912 141.493 190.726 141.324 190.488C141.156 190.25 141.058 189.97 141.041 189.679Z" fill="black"/>
<path d="M173.023 117.021L165.672 130.123L176.387 135.824L184.186 124.213L173.023 117.021Z" fill="#F5A97D"/>
<path d="M199.108 87.5126C195.024 86.8159 188.841 86.6317 184.821 93.5266C180.801 100.422 172.137 117.439 172.137 117.439C172.137 117.439 177.198 123.989 184.525 125.182L196.497 106.187L199.108 87.5126Z" fill="#7896FF"/>
<path d="M189.456 247.961H180.311V263.617H189.456V247.961Z" fill="#F5A97D"/>
<path d="M162.982 244.15L153.837 244.462L153.381 227.893L162.518 227.581L162.982 244.15Z" fill="#F5A97D"/>
<path d="M180.312 259.1V257.794C179.439 258.171 177.405 265.931 173.777 269.238C170.894 271.873 166.962 274.908 165.961 277.839C164.92 280.89 171.439 282.579 174.129 282.099C177.261 281.546 182.69 279.344 184.051 277.294C185.413 275.244 186.053 272.241 187.158 270.743C188.264 269.246 190.818 267.54 191.419 265.834C191.747 264.881 191.355 262.799 190.898 261.03C190.474 259.428 190.009 257.634 189.457 257.786V258.779C188.792 259.516 186.958 260.245 184.884 260.325C183.547 260.389 180.304 260.125 180.312 259.1Z" fill="#263238"/>
<path d="M153.741 241.643C153.269 241.643 152.884 242.332 151.835 243.461C150.27 245.042 148.451 246.349 146.454 247.329C143.026 249.05 136.388 251.685 133.361 253.054C131.479 253.903 131.567 256.178 133.513 257.475C135.459 258.772 140.152 259.701 145.797 258.436C148.864 257.747 152.868 254.912 155.407 255.064C157.945 255.217 162.678 255.185 164.544 253.895C166.41 252.606 165.665 249.891 165.137 247.489C164.56 244.91 163.735 240.962 162.878 241.139V241.939C161.781 243.605 156.184 244.286 153.765 243.06L153.741 241.643Z" fill="#263238"/>
<path d="M226.292 152.753C228.294 166.887 225.595 169.57 212.166 183.136C204.959 190.415 193.307 201.09 193.307 201.09C193.307 201.09 193.475 205.606 193.563 215.728C193.651 224.641 189.928 253.646 189.928 253.646C189.928 253.646 183.857 256.201 179.693 253.55C179.693 253.55 177.811 231.969 176.794 220.717C175.417 205.502 174.696 197.83 175.473 194.555C176.162 191.664 189.831 174.399 192.987 169.562L163.934 186.443C164.497 190.72 164.78 195.03 164.782 199.344C164.462 211.444 162.973 235.612 162.973 235.612C162.973 235.612 156.326 238.583 153.027 236.021C153.027 236.021 144.658 183.168 144.658 178.827C144.658 172.237 173.279 152.561 178.7 147.98C181.791 145.37 185.235 142.543 185.235 142.543L226.292 152.753Z" fill="#455A64"/>
<path d="M192.989 169.57C189.933 167.096 187.633 163.814 186.35 160.097C186.51 162.522 186.855 164.931 187.383 167.304C188.184 170.443 163.936 186.443 163.936 186.443L192.989 169.57Z" fill="#37474F"/>
<path d="M209.134 62.2347C210.77 55.2546 206.437 48.27 199.457 46.6341C192.477 44.9983 185.492 49.3306 183.857 56.3107C182.221 63.2908 186.553 70.2754 193.533 71.9112C200.513 73.5471 207.498 69.2148 209.134 62.2347Z" fill="#263238"/>
<path d="M223.772 95.3766C223.772 95.3766 226.975 98.0032 226.975 106.3V124.213L226.519 154.34C220.112 161.315 191.284 158.672 184.148 143.457C184.148 143.457 184.204 111.657 184.204 104.53C184.204 97.4026 188.208 88.1533 199.099 87.5127L213.21 90.796L223.772 95.3766Z" fill="#263238"/>
<path d="M218.934 68.501C218.934 68.501 216.828 78.3829 215.987 80.0085C215.426 81.0106 214.499 81.7568 213.4 82.0906L213.545 75.1396L218.934 68.501Z" fill="#263238"/>
<path d="M216.293 54.3429C217.024 54.2607 217.764 54.3456 218.458 54.5911C219.151 54.8367 219.78 55.2364 220.297 55.7603C222.027 57.5301 221.058 63.0717 218.903 68.5011L214.939 68.9576L216.293 54.3429Z" fill="#263238"/>
<path d="M213.785 68.9574C214.586 69.4299 215.715 67.9084 216.692 66.8834C217.669 65.8583 220.872 64.481 222.465 67.8203C224.059 71.1597 221.056 75.7723 218.542 76.5651C214.201 77.9264 213.545 75.1396 213.545 75.1396L213.216 90.7953C209.476 94.9755 196.688 93.9985 199.098 90.3789V85.5741C199.098 85.5741 195.166 86.1747 193.252 85.8784C190.049 85.3819 188.047 82.8674 187.078 79.4079C185.524 73.8584 184.932 69.3819 186.277 58.4669C187.727 46.5029 201.637 46.3828 209.148 51.1076C216.66 55.8323 213.785 68.9574 213.785 68.9574Z" fill="#F5A97D"/>
<path d="M202.726 71.6957H202.053C200.879 71.6957 199.753 71.2292 198.922 70.3987C198.092 69.5682 197.625 68.4418 197.625 67.2673C197.625 66.0928 198.092 64.9664 198.922 64.1359C199.753 63.3054 200.879 62.8389 202.053 62.8389H202.734C203.909 62.8389 205.035 63.3054 205.866 64.1359C206.696 64.9664 207.163 66.0928 207.163 67.2673C207.163 68.4418 206.696 69.5682 205.866 70.3987C205.035 71.2292 203.909 71.6957 202.734 71.6957H202.726ZM202.053 63.5836C201.076 63.5836 200.14 63.9717 199.449 64.6625C198.758 65.3534 198.37 66.2903 198.37 67.2673C198.37 68.2443 198.758 69.1812 199.449 69.8721C200.14 70.5629 201.076 70.951 202.053 70.951H202.734C203.711 70.951 204.648 70.5629 205.339 69.8721C206.03 69.1812 206.418 68.2443 206.418 67.2673C206.418 66.2903 206.03 65.3534 205.339 64.6625C204.648 63.9717 203.711 63.5836 202.734 63.5836H202.053Z" fill="#263238"/>
<path d="M189.242 71.6957H188.561C187.387 71.6957 186.26 71.2292 185.43 70.3987C184.599 69.5682 184.133 68.4418 184.133 67.2673C184.133 66.0928 184.599 64.9664 185.43 64.1359C186.26 63.3054 187.387 62.8389 188.561 62.8389H189.242C190.416 62.8389 191.543 63.3054 192.373 64.1359C193.204 64.9664 193.67 66.0928 193.67 67.2673C193.67 68.4418 193.204 69.5682 192.373 70.3987C191.543 71.2292 190.416 71.6957 189.242 71.6957ZM188.561 63.5836C187.584 63.5836 186.647 63.9717 185.956 64.6625C185.266 65.3534 184.878 66.2903 184.878 67.2673C184.878 68.2443 185.266 69.1812 185.956 69.8721C186.647 70.5629 187.584 70.951 188.561 70.951H189.242C190.219 70.951 191.156 70.5629 191.847 69.8721C192.538 69.1812 192.926 68.2443 192.926 67.2673C192.926 66.2903 192.538 65.3534 191.847 64.6625C191.156 63.9717 190.219 63.5836 189.242 63.5836H188.561Z" fill="#263238"/>
<path d="M197.672 66.3954C197.402 66.0285 197.05 65.7295 196.644 65.5224C196.238 65.3153 195.79 65.2056 195.334 65.2022C194.954 65.164 194.571 65.2167 194.216 65.356C193.861 65.4952 193.544 65.717 193.292 66.003L192.699 65.5546C193.023 65.1712 193.437 64.8735 193.903 64.6877C194.37 64.502 194.875 64.4339 195.374 64.4895C195.951 64.4952 196.519 64.6384 197.03 64.9072C197.541 65.1759 197.981 65.5626 198.313 66.0351L197.672 66.3954Z" fill="#263238"/>
<path d="M216.164 66.3633H206.746V67.108H216.164V66.3633Z" fill="#263238"/>
<path d="M213.783 70.295C214.184 70.295 215.697 67.7804 216.69 66.8835C218.06 65.6343 216.29 54.343 216.29 54.343C216.29 54.343 217.611 51.5322 214.969 48.6332C213.095 46.5672 209.956 46.3349 204.598 45.4941C201.787 45.0537 197.527 44.2609 194.716 43.7403C191.369 43.1157 188.59 42.4591 186.228 44.5411C185.3 45.345 184.645 46.4163 184.351 47.6079C184.057 48.7995 184.139 50.0529 184.586 51.1958C185.264 52.6213 186.471 53.727 187.949 54.2789C187.949 54.2789 189.407 55.5762 194.492 56.1928C199.577 56.8094 207.497 56.0807 208.578 55.9286C210.052 55.7284 210.364 57.1538 211.165 61.0617C211.861 64.4651 212.462 70.2709 213.783 70.295Z" fill="#263238"/>
<path d="M216.282 55.2554L221.087 52.6688C220.933 52.3458 220.716 52.0573 220.447 51.8207C220.179 51.5841 219.866 51.4043 219.526 51.292C219.186 51.1798 218.827 51.1375 218.471 51.1676C218.114 51.1978 217.768 51.2998 217.452 51.4676C216.809 51.8297 216.33 52.4241 216.113 53.1286C215.895 53.8332 215.956 54.5942 216.282 55.2554Z" fill="#263238"/>
<path d="M199.108 85.6144C199.108 85.6144 206.235 84.181 208.717 82.8597C210.182 82.0947 211.382 80.9058 212.161 79.4482C211.784 80.9002 211.119 82.2617 210.207 83.4523C208.381 85.7826 199.1 87.4963 199.1 87.4963L199.108 85.6144Z" fill="#D78136"/>
<path d="M200.819 67.1799C200.83 67.4611 200.923 67.7329 201.088 67.9613C201.252 68.1897 201.48 68.3646 201.743 68.4643C202.006 68.564 202.293 68.5841 202.568 68.5219C202.842 68.4598 203.092 68.3183 203.287 68.1149C203.481 67.9116 203.612 67.6555 203.662 67.3786C203.712 67.1017 203.679 66.8161 203.568 66.5576C203.457 66.2991 203.272 66.079 203.037 65.9248C202.801 65.7706 202.526 65.6891 202.244 65.6904C202.053 65.6946 201.864 65.7364 201.689 65.8136C201.514 65.8907 201.355 66.0016 201.223 66.1399C201.09 66.2782 200.987 66.4412 200.917 66.6197C200.848 66.7982 200.814 66.9885 200.819 67.1799Z" fill="#263238"/>
<path d="M203.109 61.2706L206.168 62.9523C206.375 62.5358 206.416 62.0568 206.284 61.6112C206.151 61.1657 205.856 60.7865 205.456 60.5499C205.255 60.439 205.035 60.3697 204.807 60.346C204.579 60.3224 204.349 60.3448 204.13 60.4121C203.911 60.4794 203.707 60.5901 203.532 60.7376C203.357 60.8851 203.213 61.0663 203.109 61.2706Z" fill="#263238"/>
<path d="M199.753 77.0371L196.494 78.2623C196.564 78.4812 196.678 78.6836 196.828 78.8574C196.979 79.0312 197.162 79.1728 197.369 79.2738C197.575 79.3747 197.8 79.4329 198.03 79.4449C198.259 79.4569 198.489 79.4224 198.704 79.3434C199.144 79.1694 199.498 78.8319 199.694 78.4018C199.89 77.9718 199.911 77.4826 199.753 77.0371Z" fill="#D78136"/>
<path d="M187.719 62.5194L190.506 60.3813C190.377 60.1946 190.21 60.0362 190.018 59.9156C189.825 59.795 189.61 59.7146 189.386 59.6794C189.161 59.6443 188.932 59.655 188.711 59.7109C188.491 59.7668 188.284 59.8668 188.104 60.0049C187.729 60.2942 187.479 60.7169 187.408 61.1851C187.336 61.6534 187.448 62.1313 187.719 62.5194Z" fill="#263238"/>
<path d="M188.944 66.7708C188.955 67.052 189.048 67.3237 189.213 67.5521C189.377 67.7805 189.605 67.9555 189.868 68.0552C190.131 68.1549 190.418 68.1749 190.693 68.1128C190.967 68.0506 191.217 67.9091 191.412 67.7058C191.606 67.5025 191.737 67.2464 191.787 66.9694C191.837 66.6925 191.804 66.407 191.693 66.1484C191.582 65.8899 191.397 65.6698 191.162 65.5156C190.926 65.3614 190.651 65.2799 190.369 65.2813C190.178 65.2854 189.989 65.3273 189.814 65.4044C189.639 65.4815 189.48 65.5924 189.348 65.7307C189.215 65.869 189.112 66.0321 189.042 66.2105C188.973 66.389 188.939 66.5794 188.944 66.7708Z" fill="#263238"/>
<path d="M195.998 65.627L195.838 74.2836L190.721 73.1545L195.998 65.627Z" fill="#D78136"/>
<path d="M187.255 137.594V138.395C187.254 138.805 187.146 139.207 186.941 139.561C186.736 139.915 186.441 140.209 186.086 140.413L163.847 153.226C163.493 153.431 163.091 153.538 162.682 153.538C162.273 153.538 161.871 153.431 161.517 153.226L120.716 129.674C120.361 129.47 120.066 129.177 119.861 128.822C119.656 128.468 119.547 128.066 119.547 127.656V127.088L162.678 151.985L187.255 137.594Z" fill="#7896FF"/>
<path opacity="0.6" d="M187.255 137.594V138.395C187.254 138.805 187.146 139.207 186.941 139.561C186.736 139.915 186.441 140.209 186.086 140.413L163.847 153.226C163.493 153.431 163.091 153.538 162.682 153.538C162.273 153.538 161.871 153.431 161.517 153.226L120.716 129.674C120.361 129.47 120.066 129.177 119.861 128.822C119.656 128.468 119.547 128.066 119.547 127.656V127.088L162.678 151.985L187.255 137.594Z" fill="black"/>
<path d="M119.57 127.096L143.763 113.13C143.974 113.008 144.215 112.943 144.459 112.943C144.704 112.943 144.944 113.008 145.156 113.13L187.118 137.362C187.164 137.39 187.203 137.429 187.23 137.476C187.256 137.523 187.27 137.577 187.27 137.631C187.27 137.685 187.256 137.738 187.23 137.785C187.203 137.832 187.164 137.871 187.118 137.899L162.702 151.993L119.57 127.096Z" fill="#7896FF"/>
<path opacity="0.5" d="M119.57 127.096L143.763 113.13C143.974 113.008 144.215 112.943 144.459 112.943C144.704 112.943 144.944 113.008 145.156 113.13L187.118 137.362C187.164 137.39 187.203 137.429 187.23 137.476C187.256 137.523 187.27 137.577 187.27 137.631C187.27 137.685 187.256 137.738 187.23 137.785C187.203 137.832 187.164 137.871 187.118 137.899L162.702 151.993L119.57 127.096Z" fill="black"/>
<path d="M162.902 149.942L175.947 142.415L137.797 120.393L124.68 127.88L162.902 149.942Z" fill="#263238"/>
<path d="M169.317 129.01L169.076 129.146L162.678 132.838L151.306 126.272L151.074 126.135L157.705 122.308L169.317 129.01Z" fill="#263238"/>
<path d="M169.075 129.146L162.676 132.837L151.305 126.271L157.703 122.579L169.075 129.146Z" fill="#263238"/>
<path opacity="0.7" d="M162.678 151.993V153.546C162.27 153.546 161.87 153.438 161.517 153.234L120.716 129.682C120.361 129.478 120.066 129.184 119.861 128.83C119.656 128.476 119.547 128.074 119.547 127.664V127.096L162.678 151.993Z" fill="black"/>
<path d="M162.013 152.338C161.625 152.492 161.207 152.556 160.791 152.524C160.374 152.492 159.971 152.365 159.611 152.153L118.994 128.706C118.641 128.503 118.338 128.225 118.105 127.892C117.872 127.558 117.716 127.177 117.649 126.776L113.204 100.253C113.179 100.105 113.166 99.9553 113.164 99.8049C113.159 99.0681 113.447 98.3595 113.965 97.835L156.175 122.211C156.443 122.359 156.675 122.564 156.853 122.812C157.032 123.06 157.153 123.344 157.208 123.645L162.013 152.338Z" fill="#7896FF"/>
<path opacity="0.5" d="M162.013 152.338C161.625 152.492 161.207 152.556 160.791 152.524C160.374 152.492 159.971 152.365 159.611 152.153L118.994 128.706C118.641 128.503 118.338 128.225 118.105 127.892C117.872 127.558 117.716 127.177 117.649 126.776L113.204 100.253C113.179 100.105 113.166 99.9553 113.164 99.8049C113.159 99.0681 113.447 98.3595 113.965 97.835L156.175 122.211C156.443 122.359 156.675 122.564 156.853 122.812C157.032 123.06 157.153 123.344 157.208 123.645L162.013 152.338Z" fill="black"/>
<path d="M162.678 151.993L162.406 152.153C162.283 152.224 162.154 152.286 162.022 152.337L157.217 123.644C157.166 123.347 157.051 123.065 156.88 122.817C156.708 122.57 156.484 122.363 156.224 122.211L114.014 97.8346C114.181 97.6694 114.37 97.5267 114.574 97.4102L156.873 121.827C157.133 121.978 157.357 122.185 157.528 122.433C157.7 122.681 157.815 122.963 157.866 123.26L162.678 151.993Z" fill="#2F55DD" fill-opacity="0.2"/>
<path d="M139.142 127.856C138.846 126.086 137.012 123.724 135.05 122.595C133.088 121.466 131.735 121.978 132.039 123.756C132.343 125.534 134.169 127.888 136.131 129.025C138.093 130.162 139.446 129.634 139.142 127.856Z" fill="#7896FF"/>
<path d="M147.462 145.123C147.378 143.973 147.155 142.839 146.798 141.743C146.173 139.781 144.315 132.222 140.071 131.084C139.566 130.933 139.031 130.916 138.517 131.036C137.34 131.357 136.804 132.582 136.571 133.679C136.355 135.3 136.355 136.943 136.571 138.564C135.919 137.818 135.154 137.177 134.305 136.666C133.552 136.099 132.644 135.775 131.703 135.737C131.572 135.731 131.441 135.757 131.322 135.812C131.204 135.868 131.1 135.952 131.022 136.057C130.87 136.338 131.022 136.69 131.262 136.938C131.687 137.451 132.207 137.883 132.632 138.396C132.964 138.843 133.272 139.308 133.552 139.789C134.089 140.654 134.69 141.471 135.29 142.296C136.444 144.01 137.892 145.506 139.566 146.716C141.493 148.02 143.678 148.891 145.973 149.271C149.072 149.655 152.083 149.607 154.037 148.926L147.462 145.123Z" fill="#F5A97D"/>
<path d="M222.922 95.6084C220.063 94.135 215.883 99.9728 217.212 106.075C218.542 112.177 225.092 133.631 225.092 133.631C225.092 133.631 195.503 136.273 192.988 136.586C191.234 136.794 189.272 135.905 187.647 135.368C185.436 134.632 183.202 134.119 181.024 133.318C180.645 133.144 180.232 133.057 179.815 133.062C179.605 133.071 179.405 133.149 179.244 133.284C179.083 133.418 178.972 133.602 178.926 133.807C178.915 134.057 178.979 134.305 179.11 134.519C179.809 135.944 180.859 137.168 182.161 138.075C182.792 138.448 183.392 138.871 183.955 139.34C184.299 139.685 185.06 140.638 184.756 141.158L173 147.925C173 147.925 175.707 150.279 185.509 147.532C189.042 146.608 192.49 145.384 195.815 143.873C195.815 143.873 230.682 145.322 236.984 143.416C239.21 142.736 240.011 141.158 238.506 133.983C236.784 125.671 231.843 110.511 230.722 106.507C228.263 97.8347 227.679 98.0349 222.922 95.6084Z" fill="#F5A97D"/>
<path d="M221.449 94.3672C221.449 94.3672 226.174 95.6965 228.208 98.3712C230.242 101.046 238.089 126.92 238.089 126.92C236.038 128.631 233.639 129.875 231.059 130.567C228.478 131.258 225.779 131.38 223.147 130.924C223.147 130.924 216.836 113.026 216.164 108.245C214.97 100.838 218.59 95.0078 221.449 94.3672Z" fill="#7896FF"/>
<path d="M195.952 111.729C195.568 109.727 196.817 108.646 198.747 109.327C199.768 109.746 200.677 110.4 201.4 111.234C202.124 112.069 202.641 113.061 202.911 114.132C203.296 116.158 196.329 113.715 195.952 111.729Z" fill="#7896FF"/>
<path d="M209.156 117.966L203.478 114.355C203.767 115.892 201.693 115.676 199.827 115.027C197.961 114.379 195.679 113.065 195.382 111.528L190.433 111.464C189.977 111.464 189.969 112.056 190.433 112.545C191.658 113.914 194.509 116.341 200.499 118.431C206.489 120.521 208.788 119.872 209.653 119.232C209.933 118.991 209.677 118.295 209.156 117.966Z" fill="#7896FF"/>
</svg>
