<svg width="330" height="108" viewBox="0 0 330 108" fill="none" xmlns="http://www.w3.org/2000/svg">
<g clip-path="url(#clip0_2638_1016)">
<rect width="330" height="108" rx="10" fill="#2F55DD"/>
<path d="M149.721 108.985H155.417L158.265 104.053L155.417 99.1211H149.721L146.874 104.053L149.721 108.985Z" stroke="#E0F0FF" stroke-linecap="round" stroke-linejoin="round"/>
<path d="M141.115 104.053H146.811L149.658 99.1213L146.811 94.1846H141.115L138.267 99.1213L141.115 104.053Z" stroke="#E0F0FF" stroke-linecap="round" stroke-linejoin="round"/>
<path d="M149.721 99.1215H155.417L158.265 94.1848L155.417 89.2529H149.721L146.874 94.1848L149.721 99.1215Z" stroke="#E0F0FF" stroke-linecap="round" stroke-linejoin="round"/>
<path d="M149.658 99.8853C150.08 99.8853 150.422 99.5433 150.422 99.1214C150.422 98.6995 150.08 98.3574 149.658 98.3574C149.237 98.3574 148.895 98.6995 148.895 99.1214C148.895 99.5433 149.237 99.8853 149.658 99.8853Z" fill="#E0F0FF"/>
<path d="M137.764 89.5279C138.186 89.5279 138.528 89.1859 138.528 88.764C138.528 88.342 138.186 88 137.764 88C137.342 88 137 88.342 137 88.764C137 89.1859 137.342 89.5279 137.764 89.5279Z" fill="#E0F0FF"/>
<path d="M163.777 94.3244C163.777 94.1722 163.822 94.0234 163.907 93.8968C163.991 93.7703 164.112 93.6718 164.253 93.6137C164.393 93.5557 164.548 93.5407 164.697 93.5708C164.847 93.6009 164.984 93.6746 165.091 93.7826C165.198 93.8906 165.271 94.028 165.3 94.1774C165.329 94.3269 165.313 94.4816 165.255 94.622C165.196 94.7624 165.096 94.8821 164.969 94.966C164.842 95.0499 164.693 95.0942 164.541 95.0932C164.44 95.0932 164.34 95.0733 164.247 95.0346C164.154 94.9959 164.07 94.9392 163.999 94.8678C163.928 94.7963 163.872 94.7115 163.834 94.6183C163.796 94.525 163.776 94.4252 163.777 94.3244Z" fill="#E0F0FF"/>
<path d="M157.501 94.3245C157.501 94.1724 157.546 94.0238 157.631 93.8973C157.715 93.7709 157.835 93.6724 157.976 93.6142C158.116 93.556 158.271 93.5408 158.42 93.5704C158.569 93.6001 158.706 93.6733 158.813 93.7808C158.921 93.8884 158.994 94.0253 159.024 94.1745C159.053 94.3236 159.038 94.4782 158.98 94.6187C158.922 94.7591 158.823 94.8792 158.697 94.9637C158.57 95.0482 158.422 95.0932 158.27 95.0932C158.066 95.0932 157.87 95.0122 157.726 94.8681C157.582 94.7239 157.501 94.5284 157.501 94.3245Z" fill="#E0F0FF"/>
<path d="M158.27 94.3145H164.541" stroke="#E0F0FF" stroke-linecap="round" stroke-linejoin="round"/>
<path d="M141.115 94.1839L137.764 88.7637" stroke="#E0F0FF" stroke-linecap="round" stroke-linejoin="round"/>
<path d="M314.721 91.9848H320.417L323.265 87.053L320.417 82.1211H314.721L311.874 87.053L314.721 91.9848Z" stroke="#E0F0FF" stroke-linecap="round" stroke-linejoin="round"/>
<path d="M313.895 102.811L311.047 97.8789H305.351" stroke="#E0F0FF" stroke-linecap="round" stroke-linejoin="round"/>
<path d="M306.115 87.0531H311.811L314.658 82.1213L311.811 77.1846H306.115L303.267 82.1213L306.115 87.0531Z" stroke="#E0F0FF" stroke-linecap="round" stroke-linejoin="round"/>
<path d="M314.721 82.1215H320.417L323.265 77.1848L320.417 72.2529H314.721L311.874 77.1848L314.721 82.1215Z" stroke="#E0F0FF" stroke-linecap="round" stroke-linejoin="round"/>
<path d="M314.658 82.8853C315.08 82.8853 315.422 82.5433 315.422 82.1214C315.422 81.6995 315.08 81.3574 314.658 81.3574C314.237 81.3574 313.895 81.6995 313.895 82.1214C313.895 82.5433 314.237 82.8853 314.658 82.8853Z" fill="#E0F0FF"/>
<path d="M302.764 72.5279C303.186 72.5279 303.528 72.1859 303.528 71.764C303.528 71.342 303.186 71 302.764 71C302.342 71 302 71.342 302 71.764C302 72.1859 302.342 72.5279 302.764 72.5279Z" fill="#E0F0FF"/>
<path d="M313.131 102.811C313.131 102.66 313.175 102.512 313.259 102.386C313.343 102.261 313.463 102.163 313.602 102.105C313.742 102.047 313.895 102.032 314.044 102.062C314.192 102.091 314.328 102.164 314.435 102.271C314.542 102.377 314.614 102.514 314.644 102.662C314.673 102.81 314.658 102.964 314.6 103.103C314.543 103.243 314.445 103.362 314.319 103.446C314.193 103.53 314.046 103.575 313.895 103.575C313.794 103.575 313.695 103.555 313.602 103.517C313.51 103.478 313.425 103.422 313.354 103.351C313.283 103.28 313.227 103.196 313.189 103.103C313.15 103.01 313.131 102.911 313.131 102.811Z" fill="#E0F0FF"/>
<path d="M305.351 98.6431C305.773 98.6431 306.115 98.3011 306.115 97.8792C306.115 97.4573 305.773 97.1152 305.351 97.1152C304.929 97.1152 304.587 97.4573 304.587 97.8792C304.587 98.3011 304.929 98.6431 305.351 98.6431Z" fill="#E0F0FF"/>
<path d="M328.777 77.3244C328.777 77.1722 328.822 77.0234 328.907 76.8968C328.991 76.7703 329.112 76.6718 329.253 76.6137C329.393 76.5557 329.548 76.5407 329.697 76.5708C329.847 76.6009 329.984 76.6746 330.091 76.7826C330.198 76.8906 330.271 77.028 330.3 77.1774C330.329 77.3269 330.313 77.4816 330.255 77.622C330.196 77.7624 330.096 77.8821 329.969 77.966C329.842 78.0499 329.693 78.0942 329.541 78.0932C329.44 78.0932 329.34 78.0733 329.247 78.0346C329.154 77.9959 329.07 77.9392 328.999 77.8678C328.928 77.7963 328.872 77.7115 328.834 77.6183C328.796 77.525 328.776 77.4252 328.777 77.3244Z" fill="#E0F0FF"/>
<path d="M310.989 98.6431C311.411 98.6431 311.753 98.3011 311.753 97.8792C311.753 97.4573 311.411 97.1152 310.989 97.1152C310.567 97.1152 310.225 97.4573 310.225 97.8792C310.225 98.3011 310.567 98.6431 310.989 98.6431Z" fill="#E0F0FF"/>
<path d="M322.501 77.3245C322.501 77.1724 322.546 77.0238 322.631 76.8973C322.715 76.7709 322.835 76.6724 322.976 76.6142C323.116 76.556 323.271 76.5408 323.42 76.5704C323.569 76.6001 323.706 76.6733 323.813 76.7808C323.921 76.8884 323.994 77.0253 324.024 77.1745C324.053 77.3236 324.038 77.4782 323.98 77.6187C323.922 77.7591 323.823 77.8792 323.697 77.9637C323.57 78.0482 323.422 78.0932 323.27 78.0932C323.066 78.0932 322.87 78.0122 322.726 77.8681C322.582 77.7239 322.501 77.5284 322.501 77.3245Z" fill="#E0F0FF"/>
<path d="M313.895 91.9904C313.894 91.8379 313.938 91.6886 314.022 91.5615C314.106 91.4343 314.226 91.335 314.367 91.2762C314.508 91.2175 314.663 91.2018 314.812 91.2313C314.962 91.2608 315.099 91.3342 315.207 91.442C315.315 91.5498 315.388 91.6872 315.418 91.8368C315.447 91.9864 315.431 92.1413 315.373 92.282C315.314 92.4227 315.215 92.5427 315.087 92.6268C314.96 92.7109 314.811 92.7553 314.659 92.7544C314.456 92.7531 314.263 92.6722 314.12 92.5292C313.977 92.3862 313.896 92.1926 313.895 91.9904Z" fill="#E0F0FF"/>
<path d="M323.27 77.3145H329.541" stroke="#E0F0FF" stroke-linecap="round" stroke-linejoin="round"/>
<path d="M314.658 91.9893L310.988 97.8785" stroke="#E0F0FF" stroke-linecap="round" stroke-linejoin="round"/>
<path d="M306.115 77.1839L302.764 71.7637" stroke="#E0F0FF" stroke-linecap="round" stroke-linejoin="round"/>
<path d="M4.72144 21.9848H10.4173L13.2652 17.053L10.4173 12.1211H4.72144L1.87354 17.053L4.72144 21.9848Z" stroke="#E0F0FF" stroke-linecap="round" stroke-linejoin="round"/>
<path d="M3.8948 32.8108L1.0469 27.8789H-4.64893" stroke="#E0F0FF" stroke-linecap="round" stroke-linejoin="round"/>
<path d="M-3.88531 17.0531H1.81051L4.65843 12.1213L1.81051 7.18457H-3.88531L-6.73322 12.1213L-3.88531 17.0531Z" stroke="#E0F0FF" stroke-linecap="round" stroke-linejoin="round"/>
<path d="M4.72144 12.1215H10.4173L13.2652 7.1848L10.4173 2.25293H4.72144L1.87354 7.1848L4.72144 12.1215Z" stroke="#E0F0FF" stroke-linecap="round" stroke-linejoin="round"/>
<path d="M4.6585 12.8853C5.08042 12.8853 5.42244 12.5433 5.42244 12.1214C5.42244 11.6995 5.08042 11.3574 4.6585 11.3574C4.23657 11.3574 3.89453 11.6995 3.89453 12.1214C3.89453 12.5433 4.23657 12.8853 4.6585 12.8853Z" fill="#E0F0FF"/>
<path d="M3.13062 32.8108C3.13062 32.6597 3.17541 32.512 3.25936 32.3864C3.3433 32.2608 3.46261 32.1629 3.60221 32.105C3.7418 32.0472 3.89542 32.0321 4.04361 32.0616C4.19181 32.091 4.32793 32.1638 4.43477 32.2706C4.54161 32.3775 4.61437 32.5136 4.64385 32.6618C4.67332 32.81 4.6582 32.9636 4.60038 33.1032C4.54255 33.2428 4.44463 33.3621 4.319 33.446C4.19337 33.53 4.04566 33.5748 3.89456 33.5748C3.79424 33.5748 3.6949 33.555 3.60221 33.5166C3.50952 33.4782 3.42531 33.422 3.35437 33.351C3.28343 33.2801 3.22716 33.1959 3.18877 33.1032C3.15038 33.0105 3.13062 32.9112 3.13062 32.8108Z" fill="#E0F0FF"/>
<path d="M18.7769 7.32444C18.7769 7.17218 18.8221 7.02335 18.9068 6.89682C18.9915 6.77029 19.1118 6.67176 19.2526 6.61372C19.3934 6.55568 19.5482 6.54074 19.6974 6.57079C19.8467 6.60085 19.9837 6.67455 20.091 6.78255C20.1983 6.89056 20.2712 7.02799 20.3003 7.17744C20.3294 7.32689 20.3135 7.48162 20.2545 7.62201C20.1956 7.7624 20.0963 7.88213 19.9693 7.96602C19.8422 8.04991 19.6931 8.09418 19.5408 8.09323C19.4401 8.09323 19.3404 8.07331 19.2474 8.03462C19.1544 7.99592 19.0699 7.93922 18.9989 7.86777C18.9279 7.79631 18.8717 7.71152 18.8336 7.61828C18.7955 7.52503 18.7762 7.42517 18.7769 7.32444Z" fill="#E0F0FF"/>
<path d="M0.98862 28.6431C1.41054 28.6431 1.75258 28.3011 1.75258 27.8792C1.75258 27.4573 1.41054 27.1152 0.98862 27.1152C0.566699 27.1152 0.22467 27.4573 0.22467 27.8792C0.22467 28.3011 0.566699 28.6431 0.98862 28.6431Z" fill="#E0F0FF"/>
<path d="M12.501 7.32445C12.501 7.1724 12.5461 7.02376 12.6305 6.89733C12.715 6.77091 12.8351 6.67237 12.9756 6.61419C13.116 6.556 13.2706 6.54077 13.4197 6.57044C13.5689 6.6001 13.7059 6.67332 13.8134 6.78084C13.9209 6.88836 13.9941 7.02534 14.0238 7.17447C14.0534 7.3236 14.0382 7.47818 13.98 7.61865C13.9218 7.75913 13.8233 7.87921 13.6969 7.96368C13.5705 8.04816 13.4218 8.09324 13.2698 8.09324C13.0659 8.09324 12.8703 8.01225 12.7261 7.86807C12.582 7.7239 12.501 7.52835 12.501 7.32445Z" fill="#E0F0FF"/>
<path d="M3.89455 21.9904C3.89359 21.8379 3.93799 21.6886 4.0221 21.5615C4.1062 21.4343 4.22622 21.335 4.36689 21.2762C4.50757 21.2175 4.66255 21.2018 4.81213 21.2313C4.96171 21.2608 5.09913 21.3342 5.20694 21.442C5.31475 21.5498 5.38807 21.6872 5.41758 21.8368C5.44709 21.9864 5.43146 22.1413 5.37267 22.282C5.31389 22.4227 5.2146 22.5427 5.08743 22.6268C4.96027 22.7109 4.81097 22.7553 4.65851 22.7544C4.45629 22.7531 4.2627 22.6722 4.1197 22.5292C3.97671 22.3862 3.89581 22.1926 3.89455 21.9904Z" fill="#E0F0FF"/>
<path d="M13.27 7.31445H19.5412" stroke="#E0F0FF" stroke-linecap="round" stroke-linejoin="round"/>
<path d="M4.65818 21.9893L0.988281 27.8785" stroke="#E0F0FF" stroke-linecap="round" stroke-linejoin="round"/>
<path d="M290.721 12.9848H296.417L299.265 8.05296L296.417 3.12109H290.721L287.874 8.05296L290.721 12.9848Z" stroke="#E0F0FF" stroke-linecap="round" stroke-linejoin="round"/>
<path d="M289.895 23.8108L287.047 18.8789H281.351" stroke="#E0F0FF" stroke-linecap="round" stroke-linejoin="round"/>
<path d="M282.115 8.05313H287.811L290.658 3.12127L287.811 -1.81543H282.115L279.267 3.12127L282.115 8.05313Z" stroke="#E0F0FF" stroke-linecap="round" stroke-linejoin="round"/>
<path d="M290.721 3.1215H296.417L299.265 -1.8152L296.417 -6.74707H290.721L287.874 -1.8152L290.721 3.1215Z" stroke="#E0F0FF" stroke-linecap="round" stroke-linejoin="round"/>
<path d="M290.658 3.88534C291.08 3.88534 291.422 3.5433 291.422 3.12138C291.422 2.69946 291.08 2.35742 290.658 2.35742C290.237 2.35742 289.895 2.69946 289.895 3.12138C289.895 3.5433 290.237 3.88534 290.658 3.88534Z" fill="#E0F0FF"/>
<path d="M289.131 23.8108C289.131 23.6597 289.175 23.512 289.259 23.3864C289.343 23.2608 289.463 23.1629 289.602 23.105C289.742 23.0472 289.895 23.0321 290.044 23.0616C290.192 23.091 290.328 23.1638 290.435 23.2706C290.542 23.3775 290.614 23.5136 290.644 23.6618C290.673 23.81 290.658 23.9636 290.6 24.1032C290.543 24.2428 290.445 24.3621 290.319 24.446C290.193 24.53 290.046 24.5748 289.895 24.5748C289.794 24.5748 289.695 24.555 289.602 24.5166C289.51 24.4782 289.425 24.422 289.354 24.351C289.283 24.2801 289.227 24.1959 289.189 24.1032C289.15 24.0105 289.131 23.9112 289.131 23.8108Z" fill="#E0F0FF"/>
<path d="M281.351 19.6431C281.773 19.6431 282.115 19.3011 282.115 18.8792C282.115 18.4573 281.773 18.1152 281.351 18.1152C280.929 18.1152 280.587 18.4573 280.587 18.8792C280.587 19.3011 280.929 19.6431 281.351 19.6431Z" fill="#E0F0FF"/>
<path d="M286.989 19.6431C287.411 19.6431 287.753 19.3011 287.753 18.8792C287.753 18.4573 287.411 18.1152 286.989 18.1152C286.567 18.1152 286.225 18.4573 286.225 18.8792C286.225 19.3011 286.567 19.6431 286.989 19.6431Z" fill="#E0F0FF"/>
<path d="M289.895 12.9904C289.894 12.8379 289.938 12.6886 290.022 12.5615C290.106 12.4343 290.226 12.335 290.367 12.2762C290.508 12.2175 290.663 12.2018 290.812 12.2313C290.962 12.2608 291.099 12.3342 291.207 12.442C291.315 12.5498 291.388 12.6872 291.418 12.8368C291.447 12.9864 291.431 13.1413 291.373 13.282C291.314 13.4227 291.215 13.5427 291.087 13.6268C290.96 13.7109 290.811 13.7553 290.659 13.7544C290.456 13.7531 290.263 13.6722 290.12 13.5292C289.977 13.3862 289.896 13.1926 289.895 12.9904Z" fill="#E0F0FF"/>
<path d="M290.658 12.9893L286.988 18.8785" stroke="#E0F0FF" stroke-linecap="round" stroke-linejoin="round"/>
</g>
<defs>
<clipPath id="clip0_2638_1016">
<rect width="330" height="108" rx="10" fill="white"/>
</clipPath>
</defs>
</svg>
