<svg width="328" height="163" viewBox="0 0 328 163" fill="none" xmlns="http://www.w3.org/2000/svg">
<g clip-path="url(#clip0_3681_1297)">
<rect width="328" height="163" rx="10" fill="#2F55DD"/>
<path d="M184.576 80.4234C184.461 80.2781 184.276 80.2076 184.094 80.2403C183.912 80.2729 183.763 80.4033 183.707 80.5792L177.741 99.1158C177.688 99.2792 177.723 99.4582 177.833 99.5898C177.944 99.7215 178.114 99.7874 178.284 99.7644L196.851 97.2584C197.028 97.2344 197.18 97.117 197.247 96.9508C197.314 96.7846 197.288 96.5949 197.177 96.4539L184.576 80.4234Z" stroke="#D2D2D2" stroke-linecap="round" stroke-linejoin="round"/>
<path d="M184.183 80.7324L187.5 97.9094" stroke="#D2D2D2" stroke-linecap="round" stroke-linejoin="round"/>
<path d="M8.79406 65.4234C8.67981 65.2781 8.49469 65.2076 8.31273 65.2403C8.13076 65.2729 7.98165 65.4033 7.92501 65.5792L-1.25916 94.1158C-1.31176 94.2792 -1.27683 94.4582 -1.16665 94.5898C-1.05648 94.7215 -0.886459 94.7874 -0.716323 94.7644L27.867 90.9065C28.0448 90.8825 28.1961 90.7651 28.2635 90.5988C28.3309 90.4326 28.3041 90.243 28.1932 90.102L8.79406 65.4234Z" stroke="#D2D2D2" stroke-linecap="round" stroke-linejoin="round"/>
<path d="M8.40039 65.7324L13.5079 92.176" stroke="#D2D2D2" stroke-linecap="round" stroke-linejoin="round"/>
<path d="M235.938 23.4234C235.824 23.2781 235.639 23.2076 235.457 23.2403C235.275 23.2729 235.126 23.4033 235.069 23.5792L229.741 40.1354C229.688 40.2988 229.723 40.4778 229.833 40.6095C229.944 40.7411 230.114 40.8071 230.284 40.7841L246.867 38.5458C247.045 38.5218 247.196 38.4044 247.264 38.2382C247.331 38.0719 247.304 37.8823 247.193 37.7413L235.938 23.4234Z" stroke="#D2D2D2" stroke-linecap="round" stroke-linejoin="round"/>
<path d="M235.545 23.7324L238.508 39.0743" stroke="#D2D2D2" stroke-linecap="round" stroke-linejoin="round"/>
<path d="M316.576 46.4234C316.461 46.2781 316.276 46.2076 316.094 46.2403C315.912 46.2729 315.763 46.4033 315.707 46.5792L309.741 65.1158C309.688 65.2792 309.723 65.4582 309.833 65.5898C309.944 65.7215 310.114 65.7874 310.284 65.7644L328.851 63.2584C329.028 63.2344 329.18 63.117 329.247 62.9508C329.314 62.7846 329.288 62.5949 329.177 62.4539L316.576 46.4234Z" stroke="#D2D2D2" stroke-linecap="round" stroke-linejoin="round"/>
<path d="M316.183 46.7324L319.5 63.9094" stroke="#D2D2D2" stroke-linecap="round" stroke-linejoin="round"/>
<path d="M266.576 120.423C266.461 120.278 266.276 120.208 266.094 120.24C265.912 120.273 265.763 120.403 265.707 120.579L259.741 139.116C259.688 139.279 259.723 139.458 259.833 139.59C259.944 139.721 260.114 139.787 260.284 139.764L278.851 137.258C279.028 137.234 279.18 137.117 279.247 136.951C279.314 136.785 279.288 136.595 279.177 136.454L266.576 120.423Z" stroke="#D2D2D2" stroke-linecap="round" stroke-linejoin="round"/>
<path d="M266.183 120.732L269.5 137.909" stroke="#D2D2D2" stroke-linecap="round" stroke-linejoin="round"/>
</g>
<defs>
<clipPath id="clip0_3681_1297">
<rect width="328" height="163" rx="10" fill="white"/>
</clipPath>
</defs>
</svg>
