<svg width="25" height="24" viewBox="0 0 25 24" fill="none" xmlns="http://www.w3.org/2000/svg">
<path d="M7.10248 3C5.59259 3 4.35248 4.24011 4.35248 5.75V6H3.60248C3.50309 5.99859 3.40442 6.01696 3.3122 6.05402C3.21997 6.09108 3.13603 6.1461 3.06525 6.21588C2.99448 6.28566 2.93827 6.36882 2.89991 6.46051C2.86155 6.5522 2.8418 6.65061 2.8418 6.75C2.8418 6.84939 2.86155 6.9478 2.89991 7.03949C2.93827 7.13118 2.99448 7.21434 3.06525 7.28412C3.13603 7.3539 3.21997 7.40892 3.3122 7.44598C3.40442 7.48304 3.50309 7.50141 3.60248 7.5H6.60248C6.70186 7.50141 6.80053 7.48304 6.89276 7.44598C6.98499 7.40892 7.06893 7.3539 7.13971 7.28412C7.21048 7.21434 7.26668 7.13118 7.30505 7.03949C7.34341 6.9478 7.36316 6.84939 7.36316 6.75C7.36316 6.65061 7.34341 6.5522 7.30505 6.46051C7.26668 6.36882 7.21048 6.28566 7.13971 6.21588C7.06893 6.1461 6.98499 6.09108 6.89276 6.05402C6.80053 6.01696 6.70186 5.99859 6.60248 6H5.85248V5.75C5.85248 5.05089 6.40337 4.5 7.10248 4.5H18.1025C18.8016 4.5 19.3525 5.05089 19.3525 5.75V18.75C19.3525 19.4491 18.8016 20 18.1025 20H7.10248C6.40337 20 5.85248 19.4491 5.85248 18.75V18H6.60248C6.70186 18.0014 6.80053 17.983 6.89276 17.946C6.98499 17.9089 7.06893 17.8539 7.13971 17.7841C7.21048 17.7143 7.26668 17.6312 7.30505 17.5395C7.34341 17.4478 7.36316 17.3494 7.36316 17.25C7.36316 17.1506 7.34341 17.0522 7.30505 16.9605C7.26668 16.8688 7.21048 16.7857 7.13971 16.7159C7.06893 16.6461 6.98499 16.5911 6.89276 16.554C6.80053 16.517 6.70186 16.4986 6.60248 16.5H5.85248V15.5H4.35248V16.5H3.60248C3.50309 16.4986 3.40442 16.517 3.3122 16.554C3.21997 16.5911 3.13603 16.6461 3.06525 16.7159C2.99448 16.7857 2.93827 16.8688 2.89991 16.9605C2.86155 17.0522 2.8418 17.1506 2.8418 17.25C2.8418 17.3494 2.86155 17.4478 2.89991 17.5395C2.93827 17.6312 2.99448 17.7143 3.06525 17.7841C3.13603 17.8539 3.21997 17.9089 3.3122 17.946C3.40442 17.983 3.50309 18.0014 3.60248 18H4.35248V18.75C4.35248 20.2599 5.59259 21.5 7.10248 21.5H18.1025C19.6124 21.5 20.8525 20.2599 20.8525 18.75V5.75C20.8525 4.24011 19.6124 3 18.1025 3H7.10248ZM9.60248 6C9.40357 6.00002 9.21282 6.07904 9.07217 6.21969C8.93152 6.36034 8.8525 6.55109 8.85248 6.75V10.25C8.8525 10.4489 8.93152 10.6397 9.07217 10.7803C9.21282 10.921 9.40357 11 9.60248 11H16.1025C16.3014 11 16.4921 10.921 16.6328 10.7803C16.7734 10.6397 16.8525 10.4489 16.8525 10.25V6.75C16.8525 6.55109 16.7734 6.36034 16.6328 6.21969C16.4921 6.07904 16.3014 6.00002 16.1025 6H9.60248ZM10.3525 7.5H15.3525V9.5H10.3525V7.5ZM4.35248 8.5V9.5H3.60248C3.50309 9.49859 3.40442 9.51696 3.3122 9.55402C3.21997 9.59108 3.13603 9.6461 3.06525 9.71588C2.99448 9.78566 2.93827 9.86882 2.89991 9.96051C2.86155 10.0522 2.8418 10.1506 2.8418 10.25C2.8418 10.3494 2.86155 10.4478 2.89991 10.5395C2.93827 10.6312 2.99448 10.7143 3.06525 10.7841C3.13603 10.8539 3.21997 10.9089 3.3122 10.946C3.40442 10.983 3.50309 11.0014 3.60248 11H6.60248C6.70186 11.0014 6.80053 10.983 6.89276 10.946C6.98499 10.9089 7.06893 10.8539 7.13971 10.7841C7.21048 10.7143 7.26668 10.6312 7.30505 10.5395C7.34341 10.4478 7.36316 10.3494 7.36316 10.25C7.36316 10.1506 7.34341 10.0522 7.30505 9.96051C7.26668 9.86882 7.21048 9.78566 7.13971 9.71588C7.06893 9.6461 6.98499 9.59108 6.89276 9.55402C6.80053 9.51696 6.70186 9.49859 6.60248 9.5H5.85248V8.5H4.35248ZM4.35248 12V13H3.60248C3.50309 12.9986 3.40442 13.017 3.3122 13.054C3.21997 13.0911 3.13603 13.1461 3.06525 13.2159C2.99448 13.2857 2.93827 13.3688 2.89991 13.4605C2.86155 13.5522 2.8418 13.6506 2.8418 13.75C2.8418 13.8494 2.86155 13.9478 2.89991 14.0395C2.93827 14.1312 2.99448 14.2143 3.06525 14.2841C3.13603 14.3539 3.21997 14.4089 3.3122 14.446C3.40442 14.483 3.50309 14.5014 3.60248 14.5H6.60248C6.70186 14.5014 6.80053 14.483 6.89276 14.446C6.98499 14.4089 7.06893 14.3539 7.13971 14.2841C7.21048 14.2143 7.26668 14.1312 7.30505 14.0395C7.34341 13.9478 7.36316 13.8494 7.36316 13.75C7.36316 13.6506 7.34341 13.5522 7.30505 13.4605C7.26668 13.3688 7.21048 13.2857 7.13971 13.2159C7.06893 13.1461 6.98499 13.0911 6.89276 13.054C6.80053 13.017 6.70186 12.9986 6.60248 13H5.85248V12H4.35248ZM9.60248 13C9.5031 12.9986 9.40442 13.017 9.3122 13.054C9.21997 13.0911 9.13603 13.1461 9.06525 13.2159C8.99447 13.2857 8.93827 13.3688 8.89991 13.4605C8.86155 13.5522 8.8418 13.6506 8.8418 13.75C8.8418 13.8494 8.86155 13.9478 8.89991 14.0395C8.93827 14.1312 8.99447 14.2143 9.06525 14.2841C9.13603 14.3539 9.21997 14.4089 9.3122 14.446C9.40442 14.483 9.5031 14.5014 9.60248 14.5H16.1025C16.2019 14.5014 16.3005 14.483 16.3928 14.446C16.485 14.4089 16.5689 14.3539 16.6397 14.2841C16.7105 14.2143 16.7667 14.1312 16.805 14.0395C16.8434 13.9478 16.8632 13.8494 16.8632 13.75C16.8632 13.6506 16.8434 13.5522 16.805 13.4605C16.7667 13.3688 16.7105 13.2857 16.6397 13.2159C16.5689 13.1461 16.485 13.0911 16.3928 13.054C16.3005 13.017 16.2019 12.9986 16.1025 13H9.60248ZM9.60248 16.5C9.5031 16.4986 9.40442 16.517 9.3122 16.554C9.21997 16.5911 9.13603 16.6461 9.06525 16.7159C8.99447 16.7857 8.93827 16.8688 8.89991 16.9605C8.86155 17.0522 8.8418 17.1506 8.8418 17.25C8.8418 17.3494 8.86155 17.4478 8.89991 17.5395C8.93827 17.6312 8.99447 17.7143 9.06525 17.7841C9.13603 17.8539 9.21997 17.9089 9.3122 17.946C9.40442 17.983 9.5031 18.0014 9.60248 18H16.1025C16.2019 18.0014 16.3005 17.983 16.3928 17.946C16.485 17.9089 16.5689 17.8539 16.6397 17.7841C16.7105 17.7143 16.7667 17.6312 16.805 17.5395C16.8434 17.4478 16.8632 17.3494 16.8632 17.25C16.8632 17.1506 16.8434 17.0522 16.805 16.9605C16.7667 16.8688 16.7105 16.7857 16.6397 16.7159C16.5689 16.6461 16.485 16.5911 16.3928 16.554C16.3005 16.517 16.2019 16.4986 16.1025 16.5H9.60248Z" fill="white"/>
</svg>
