<svg width="32" height="41" viewBox="0 0 32 41" fill="none" xmlns="http://www.w3.org/2000/svg">
<path d="M15.9766 0.978699C15.5791 0.984909 15.2003 1.14863 14.9235 1.43391C14.6466 1.71919 14.4943 2.10269 14.5 2.50018V4.00018H7.5C5.0325 4.00018 3 6.03268 3 8.50018V17.5002C3 19.9677 5.0325 22.0002 7.5 22.0002H24.5C26.9675 22.0002 29 19.9677 29 17.5002V8.50018C29 6.03268 26.9675 4.00018 24.5 4.00018H17.5V2.50018C17.5029 2.29942 17.4654 2.10012 17.3899 1.91409C17.3143 1.72807 17.2022 1.55911 17.0601 1.41722C16.918 1.27533 16.7489 1.16341 16.5628 1.08808C16.3767 1.01276 16.1773 0.975561 15.9766 0.978699ZM7.5 7.00018H24.5C25.3465 7.00018 26 7.65368 26 8.50018V17.5002C26 18.3467 25.3465 19.0002 24.5 19.0002H7.5C6.6535 19.0002 6 18.3467 6 17.5002V8.50018C6 7.65368 6.6535 7.00018 7.5 7.00018ZM11.5 10.0002C10.837 10.0002 10.2011 10.2636 9.73223 10.7324C9.26339 11.2013 9 11.8371 9 12.5002C9 13.1632 9.26339 13.7991 9.73223 14.268C10.2011 14.7368 10.837 15.0002 11.5 15.0002C12.163 15.0002 12.7989 14.7368 13.2678 14.268C13.7366 13.7991 14 13.1632 14 12.5002C14 11.8371 13.7366 11.2013 13.2678 10.7324C12.7989 10.2636 12.163 10.0002 11.5 10.0002ZM20.5 10.0002C19.837 10.0002 19.2011 10.2636 18.7322 10.7324C18.2634 11.2013 18 11.8371 18 12.5002C18 13.1632 18.2634 13.7991 18.7322 14.268C19.2011 14.7368 19.837 15.0002 20.5 15.0002C21.163 15.0002 21.7989 14.7368 22.2678 14.268C22.7366 13.7991 23 13.1632 23 12.5002C23 11.8371 22.7366 11.2013 22.2678 10.7324C21.7989 10.2636 21.163 10.0002 20.5 10.0002ZM4.5 25.0002C2.0325 25.0002 0 27.0327 0 29.5002V30.2639C0 32.6089 0.96218 34.8617 2.6875 36.4689C2.6875 36.4696 2.6875 36.4702 2.6875 36.4709C5.01149 38.6347 9.21711 41.0002 16 41.0002C22.7829 41.0002 26.9883 38.634 29.3125 36.4689C31.0375 34.862 32 32.6078 32 30.2619V29.5002C32 27.0327 29.9675 25.0002 27.5 25.0002H4.5ZM4.5 28.0002H27.5C28.3465 28.0002 29 28.6537 29 29.5002V30.2619C29 31.79 28.3785 33.2406 27.2695 34.2736C25.4437 35.9745 22.1011 38.0002 16 38.0002C9.89889 38.0002 6.55648 35.9738 4.73047 34.2736C3.62253 33.2409 3 31.7902 3 30.2639V29.5002C3 28.6537 3.6535 28.0002 4.5 28.0002Z" fill="#5B5B5B"/>
</svg>
