<svg width="15" height="14" viewBox="0 0 15 14" fill="none" xmlns="http://www.w3.org/2000/svg">
<path d="M7.50016 0.333008C3.82426 0.333008 0.833496 3.32377 0.833496 6.99967C0.833496 8.09145 1.12107 9.11194 1.5874 10.0218L0.864746 12.609C0.696429 13.2102 1.2908 13.8045 1.89209 13.6364L4.48128 12.9137C5.39041 13.3791 6.40941 13.6663 7.50016 13.6663C11.1761 13.6663 14.1668 10.6756 14.1668 6.99967C14.1668 3.32377 11.1761 0.333008 7.50016 0.333008ZM7.50016 1.33301C10.6356 1.33301 13.1668 3.86424 13.1668 6.99967C13.1668 10.1351 10.6356 12.6663 7.50016 12.6663C6.49963 12.6663 5.5637 12.4062 4.74756 11.9515C4.63252 11.8874 4.49683 11.8712 4.36995 11.9066L1.90771 12.5934L2.59521 10.1325C2.63073 10.0054 2.61458 9.86945 2.55029 9.75423C2.09471 8.9375 1.8335 8.00118 1.8335 6.99967C1.8335 3.86424 4.36473 1.33301 7.50016 1.33301ZM5.16683 6.33366C4.7985 6.33366 4.50016 6.63199 4.50016 7.00033C4.50016 7.36866 4.7985 7.66699 5.16683 7.66699C5.53516 7.66699 5.8335 7.36866 5.8335 7.00033C5.8335 6.63199 5.53516 6.33366 5.16683 6.33366ZM7.50016 6.33366C7.13183 6.33366 6.8335 6.63199 6.8335 7.00033C6.8335 7.36866 7.13183 7.66699 7.50016 7.66699C7.8685 7.66699 8.16683 7.36866 8.16683 7.00033C8.16683 6.63199 7.8685 6.33366 7.50016 6.33366ZM9.8335 6.33366C9.46516 6.33366 9.16683 6.63199 9.16683 7.00033C9.16683 7.36866 9.46516 7.66699 9.8335 7.66699C10.2018 7.66699 10.5002 7.36866 10.5002 7.00033C10.5002 6.63199 10.2018 6.33366 9.8335 6.33366Z" fill="#5D5D5D"/>
</svg>
