<svg width="24" height="24" viewBox="0 0 24 24" fill="none" xmlns="http://www.w3.org/2000/svg">
<path d="M11.9792 1.00023C11.8928 1.00285 11.8076 1.02036 11.7272 1.05199L1.4772 5.05199C1.38183 5.08503 1.2941 5.13698 1.21928 5.20473C1.14446 5.27247 1.08408 5.35462 1.04176 5.44626C0.999447 5.53789 0.976058 5.63713 0.973001 5.73802C0.969943 5.83891 0.987279 5.93937 1.02397 6.0334C1.06066 6.12743 1.11595 6.21309 1.18653 6.28524C1.25711 6.3574 1.34153 6.41456 1.43473 6.45332C1.52793 6.49207 1.62799 6.51162 1.72892 6.51079C1.82985 6.50996 1.92958 6.48876 2.02212 6.44847L11.9997 2.55492L21.9772 6.44847C22.0697 6.48876 22.1695 6.50996 22.2704 6.51079C22.3713 6.51162 22.4714 6.49207 22.5646 6.45332C22.6578 6.41456 22.7422 6.3574 22.8128 6.28524C22.8834 6.21309 22.9387 6.12743 22.9754 6.0334C23.012 5.93937 23.0294 5.83891 23.0263 5.73802C23.0233 5.63713 22.9999 5.5379 22.9576 5.44626C22.9152 5.35462 22.8549 5.27247 22.78 5.20473C22.7052 5.13698 22.6175 5.08503 22.5221 5.05199L12.2721 1.05199C12.1789 1.01535 12.0793 0.997749 11.9792 1.00023ZM4.74966 7.50023C3.79218 7.50023 2.99966 8.29275 2.99966 9.25023V19.2502C2.99966 20.2077 3.79218 21.0002 4.74966 21.0002H10.2819C10.6257 21.5961 11.2614 22.0002 11.9997 22.0002C12.738 22.0002 13.3736 21.5961 13.7174 21.0002H19.2497C20.2071 21.0002 20.9997 20.2077 20.9997 19.2502V9.25023C20.9997 8.29275 20.2071 7.50023 19.2497 7.50023H13.9997C13.1285 7.50023 12.3818 7.93909 11.8766 8.57836C11.2807 7.92657 10.4445 7.50023 9.49966 7.50023H4.74966ZM4.74966 9.00023H9.49966C10.4656 9.00023 11.2497 9.78432 11.2497 10.7502V19.5002H4.74966C4.60214 19.5002 4.49966 19.3978 4.49966 19.2502V9.25023C4.49966 9.10271 4.60214 9.00023 4.74966 9.00023ZM13.9997 9.00023H19.2497C19.3972 9.00023 19.4997 9.10271 19.4997 9.25023V19.2502C19.4997 19.3978 19.3972 19.5002 19.2497 19.5002H12.7497V10.7502V10.2502C12.7497 9.55112 13.3005 9.00023 13.9997 9.00023Z" fill="white"/>
</svg>
