<svg width="34" height="34" viewBox="0 0 34 34" fill="none" xmlns="http://www.w3.org/2000/svg">
<circle cx="17" cy="17" r="17" fill="#268CE6"/>
<path d="M16.9884 7.98935C16.7896 7.99245 16.6002 8.07432 16.4618 8.21696C16.3234 8.35959 16.2472 8.55135 16.2501 8.75009V19.4395L14.5304 17.7198C14.4604 17.6478 14.3768 17.5906 14.2844 17.5515C14.1919 17.5124 14.0926 17.4923 13.9923 17.4923C13.843 17.4923 13.6971 17.5369 13.5734 17.6203C13.4496 17.7037 13.3535 17.8221 13.2974 17.9604C13.2413 18.0987 13.2277 18.2507 13.2584 18.3967C13.2891 18.5428 13.3627 18.6764 13.4698 18.7804L16.4698 21.7804C16.6105 21.921 16.8012 21.9999 17.0001 21.9999C17.199 21.9999 17.3897 21.921 17.5304 21.7804L20.5304 18.7804C20.6023 18.7113 20.6598 18.6285 20.6994 18.5369C20.739 18.4453 20.7599 18.3467 20.7609 18.2469C20.7619 18.1472 20.743 18.0482 20.7053 17.9558C20.6676 17.8634 20.6118 17.7795 20.5412 17.7089C20.4707 17.6384 20.3868 17.5826 20.2944 17.5449C20.202 17.5072 20.103 17.4883 20.0032 17.4893C19.9035 17.4903 19.8049 17.5112 19.7133 17.5508C19.6217 17.5904 19.5389 17.6478 19.4698 17.7198L17.7501 19.4395V8.75009C17.7515 8.64971 17.7328 8.55006 17.695 8.45705C17.6572 8.36403 17.6012 8.27955 17.5301 8.20861C17.4591 8.13767 17.3745 8.0817 17.2815 8.04404C17.1884 8.00638 17.0887 7.98778 16.9884 7.98935ZM8.73836 20.4893C8.53962 20.4925 8.35023 20.5743 8.21181 20.717C8.07338 20.8596 7.99723 21.0513 8.00008 21.2501V23.2501C8.00008 24.76 9.24019 26.0001 10.7501 26.0001H23.2501C24.76 26.0001 26.0001 24.76 26.0001 23.2501V21.2501C26.0015 21.1507 25.9831 21.052 25.9461 20.9598C25.909 20.8676 25.854 20.7836 25.7842 20.7129C25.7144 20.6421 25.6313 20.5859 25.5396 20.5475C25.4479 20.5092 25.3495 20.4894 25.2501 20.4894C25.1507 20.4894 25.0523 20.5092 24.9606 20.5475C24.8689 20.5859 24.7857 20.6421 24.716 20.7129C24.6462 20.7836 24.5912 20.8676 24.5541 20.9598C24.517 21.052 24.4987 21.1507 24.5001 21.2501V23.2501C24.5001 23.9492 23.9492 24.5001 23.2501 24.5001H10.7501C10.051 24.5001 9.50008 23.9492 9.50008 23.2501V21.2501C9.50152 21.1497 9.48279 21.0501 9.44501 20.957C9.40723 20.864 9.35116 20.7796 9.28012 20.7086C9.20909 20.6377 9.12454 20.5817 9.03147 20.544C8.93841 20.5064 8.83874 20.4878 8.73836 20.4893Z" fill="white"/>
</svg>
