<svg width="20" height="18" viewBox="0 0 20 18" fill="none" xmlns="http://www.w3.org/2000/svg">
<path d="M3.10254 0C1.86879 0 0.852539 1.01625 0.852539 2.25V15.75C0.852539 16.9838 1.86879 18 3.10254 18H6.10254C6.68152 18 7.20191 17.7625 7.60254 17.3975C8.00317 17.7625 8.52355 18 9.10254 18H11.6025C12.1815 18 12.7019 17.7625 13.1025 17.3975C13.5032 17.7625 14.0236 18 14.6025 18H17.6025C18.8363 18 19.8525 16.9838 19.8525 15.75V2.25C19.8525 1.01625 18.8363 0 17.6025 0H14.6025C13.3688 0 12.3525 1.01625 12.3525 2.25V3.15332C12.1153 3.06728 11.8678 3 11.6025 3H9.10254C8.83724 3 8.58978 3.06728 8.35254 3.15332V2.25C8.35254 1.01625 7.33629 0 6.10254 0H3.10254ZM3.10254 1.5H6.10254C6.52579 1.5 6.85254 1.82675 6.85254 2.25V5.25V15.75C6.85254 16.1733 6.52579 16.5 6.10254 16.5H3.10254C2.67929 16.5 2.35254 16.1733 2.35254 15.75V2.25C2.35254 1.82675 2.67929 1.5 3.10254 1.5ZM14.6025 1.5H17.6025C18.0258 1.5 18.3525 1.82675 18.3525 2.25V15.75C18.3525 16.1733 18.0258 16.5 17.6025 16.5H14.6025C14.1793 16.5 13.8525 16.1733 13.8525 15.75V5.25V2.25C13.8525 1.82675 14.1793 1.5 14.6025 1.5ZM4.59082 2.98926C4.39208 2.99236 4.20269 3.07423 4.06427 3.21686C3.92584 3.3595 3.84969 3.55125 3.85254 3.75V10.75C3.85113 10.8494 3.86949 10.9481 3.90655 11.0403C3.94361 11.1325 3.99864 11.2164 4.06842 11.2872C4.1382 11.358 4.22136 11.4142 4.31305 11.4526C4.40474 11.4909 4.50315 11.5107 4.60254 11.5107C4.70193 11.5107 4.80034 11.4909 4.89203 11.4526C4.98372 11.4142 5.06688 11.358 5.13666 11.2872C5.20644 11.2164 5.26146 11.1325 5.29852 11.0403C5.33558 10.9481 5.35394 10.8494 5.35254 10.75V3.75C5.35398 3.64962 5.33525 3.54997 5.29747 3.45695C5.25969 3.36394 5.20362 3.27946 5.13258 3.20852C5.06155 3.13757 4.977 3.08161 4.88394 3.04395C4.79088 3.00629 4.6912 2.98769 4.59082 2.98926ZM16.0908 2.98926C15.8921 2.99236 15.7027 3.07423 15.5643 3.21686C15.4258 3.3595 15.3497 3.55125 15.3525 3.75V10.75C15.3511 10.8494 15.3695 10.9481 15.4066 11.0403C15.4436 11.1325 15.4986 11.2164 15.5684 11.2872C15.6382 11.358 15.7214 11.4142 15.813 11.4526C15.9047 11.4909 16.0031 11.5107 16.1025 11.5107C16.2019 11.5107 16.3003 11.4909 16.392 11.4526C16.4837 11.4142 16.5669 11.358 16.6367 11.2872C16.7064 11.2164 16.7615 11.1325 16.7985 11.0403C16.8356 10.9481 16.8539 10.8494 16.8525 10.75V3.75C16.854 3.64962 16.8353 3.54997 16.7975 3.45695C16.7597 3.36394 16.7036 3.27946 16.6326 3.20852C16.5615 3.13757 16.477 3.08161 16.3839 3.04395C16.2909 3.00629 16.1912 2.98769 16.0908 2.98926ZM9.10254 4.5H11.6025C12.0258 4.5 12.3525 4.82675 12.3525 5.25V15.75C12.3525 16.1733 12.0258 16.5 11.6025 16.5H9.10254C8.67929 16.5 8.35254 16.1733 8.35254 15.75V5.25C8.35254 4.82675 8.67929 4.5 9.10254 4.5ZM10.1025 6C10.0032 5.99859 9.90448 6.01696 9.81226 6.05402C9.72003 6.09108 9.63609 6.1461 9.56531 6.21588C9.49454 6.28566 9.43833 6.36882 9.39997 6.46051C9.36161 6.5522 9.34186 6.65061 9.34186 6.75C9.34186 6.84939 9.36161 6.9478 9.39997 7.03949C9.43833 7.13118 9.49454 7.21434 9.56531 7.28412C9.63609 7.3539 9.72003 7.40892 9.81226 7.44598C9.90448 7.48304 10.0032 7.50141 10.1025 7.5H10.6025C10.7019 7.50141 10.8006 7.48304 10.8928 7.44598C10.985 7.40892 11.069 7.3539 11.1398 7.28412C11.2105 7.21434 11.2667 7.13118 11.3051 7.03949C11.3435 6.9478 11.3632 6.84939 11.3632 6.75C11.3632 6.65061 11.3435 6.5522 11.3051 6.46051C11.2667 6.36882 11.2105 6.28566 11.1398 6.21588C11.069 6.1461 10.985 6.09108 10.8928 6.05402C10.8006 6.01696 10.7019 5.99859 10.6025 6H10.1025ZM4.10254 13.5C4.00316 13.4986 3.90448 13.517 3.81226 13.554C3.72003 13.5911 3.63609 13.6461 3.56531 13.7159C3.49454 13.7857 3.43833 13.8688 3.39997 13.9605C3.36161 14.0522 3.34186 14.1506 3.34186 14.25C3.34186 14.3494 3.36161 14.4478 3.39997 14.5395C3.43833 14.6312 3.49454 14.7143 3.56531 14.7841C3.63609 14.8539 3.72003 14.9089 3.81226 14.946C3.90448 14.983 4.00316 15.0014 4.10254 15H5.10254C5.20192 15.0014 5.3006 14.983 5.39282 14.946C5.48505 14.9089 5.56899 14.8539 5.63977 14.7841C5.71054 14.7143 5.76675 14.6312 5.80511 14.5395C5.84347 14.4478 5.86322 14.3494 5.86322 14.25C5.86322 14.1506 5.84347 14.0522 5.80511 13.9605C5.76675 13.8688 5.71054 13.7857 5.63977 13.7159C5.56899 13.6461 5.48505 13.5911 5.39282 13.554C5.3006 13.517 5.20192 13.4986 5.10254 13.5H4.10254ZM10.1025 13.5C10.0032 13.4986 9.90448 13.517 9.81226 13.554C9.72003 13.5911 9.63609 13.6461 9.56531 13.7159C9.49454 13.7857 9.43833 13.8688 9.39997 13.9605C9.36161 14.0522 9.34186 14.1506 9.34186 14.25C9.34186 14.3494 9.36161 14.4478 9.39997 14.5395C9.43833 14.6312 9.49454 14.7143 9.56531 14.7841C9.63609 14.8539 9.72003 14.9089 9.81226 14.946C9.90448 14.983 10.0032 15.0014 10.1025 15H10.6025C10.7019 15.0014 10.8006 14.983 10.8928 14.946C10.985 14.9089 11.069 14.8539 11.1398 14.7841C11.2105 14.7143 11.2667 14.6312 11.3051 14.5395C11.3435 14.4478 11.3632 14.3494 11.3632 14.25C11.3632 14.1506 11.3435 14.0522 11.3051 13.9605C11.2667 13.8688 11.2105 13.7857 11.1398 13.7159C11.069 13.6461 10.985 13.5911 10.8928 13.554C10.8006 13.517 10.7019 13.4986 10.6025 13.5H10.1025ZM15.6025 13.5C15.5032 13.4986 15.4045 13.517 15.3123 13.554C15.22 13.5911 15.1361 13.6461 15.0653 13.7159C14.9945 13.7857 14.9383 13.8688 14.9 13.9605C14.8616 14.0522 14.8419 14.1506 14.8419 14.25C14.8419 14.3494 14.8616 14.4478 14.9 14.5395C14.9383 14.6312 14.9945 14.7143 15.0653 14.7841C15.1361 14.8539 15.22 14.9089 15.3123 14.946C15.4045 14.983 15.5032 15.0014 15.6025 15H16.6025C16.7019 15.0014 16.8006 14.983 16.8928 14.946C16.985 14.9089 17.069 14.8539 17.1398 14.7841C17.2105 14.7143 17.2667 14.6312 17.3051 14.5395C17.3435 14.4478 17.3632 14.3494 17.3632 14.25C17.3632 14.1506 17.3435 14.0522 17.3051 13.9605C17.2667 13.8688 17.2105 13.7857 17.1398 13.7159C17.069 13.6461 16.985 13.5911 16.8928 13.554C16.8006 13.517 16.7019 13.4986 16.6025 13.5H15.6025Z" fill="white"/>
</svg>
