<svg width="40" height="40" viewBox="0 0 40 40" fill="none" xmlns="http://www.w3.org/2000/svg">
<path d="M20 0C8.9974 0 0 8.9974 0 20C0 31.0026 8.9974 40 20 40C31.0026 40 40 31.0026 40 20C40 8.9974 31.0026 0 20 0ZM20 3.33333C29.1667 3.33333 36.6667 10.8333 36.6667 20C36.6667 29.1667 29.1667 36.6667 20 36.6667C10.8333 36.6667 3.33333 29.1667 3.33333 20C3.33333 10.8333 10.8333 3.33333 20 3.33333ZM30 10L16.8229 16.8229L10 30L23.1771 23.1771L30 10ZM20 18.1771C21.0026 18.1771 21.8229 18.9974 21.8229 20C21.8229 21.0026 21.0026 21.8229 20 21.8229C18.9974 21.8229 18.1771 21.0026 18.1771 20C18.1771 18.9974 18.9974 18.1771 20 18.1771Z" fill="#FC9338"/>
</svg>
