<svg width="43" height="31" viewBox="0 0 43 31" fill="none" xmlns="http://www.w3.org/2000/svg">
<path d="M30.4048 20C30.4048 20.7956 30.0887 21.5587 29.5261 22.1213C28.9635 22.6839 28.2004 23 27.4048 23C26.6091 23 25.8461 22.6839 25.2835 22.1213C24.7209 21.5587 24.4048 20.7956 24.4048 20C24.4048 19.2044 24.7209 18.4413 25.2835 17.8787C25.8461 17.3161 26.6091 17 27.4048 17C28.2004 17 28.9635 17.3161 29.5261 17.8787C30.0887 18.4413 30.4048 19.2044 30.4048 20ZM30.4048 14C31.2004 14 31.9635 13.6839 32.5261 13.1213C33.0887 12.5587 33.4048 11.7956 33.4048 11C33.4048 10.2044 33.0887 9.44129 32.5261 8.87868C31.9635 8.31607 31.2004 8 30.4048 8C29.6091 8 28.8461 8.31607 28.2835 8.87868C27.7209 9.44129 27.4048 10.2044 27.4048 11C27.4048 11.7956 27.7209 12.5587 28.2835 13.1213C28.8461 13.6839 29.6091 14 30.4048 14ZM12.4048 9.5C12.8026 9.5 13.1841 9.65804 13.4654 9.93934C13.7467 10.2206 13.9048 10.6022 13.9048 11V14H16.9048C17.3026 14 17.6841 14.158 17.9654 14.4393C18.2467 14.7206 18.4048 15.1022 18.4048 15.5C18.4048 15.8978 18.2467 16.2794 17.9654 16.5607C17.6841 16.842 17.3026 17 16.9048 17H13.9048V20C13.9048 20.3978 13.7467 20.7794 13.4654 21.0607C13.1841 21.342 12.8026 21.5 12.4048 21.5C12.007 21.5 11.6254 21.342 11.3441 21.0607C11.0628 20.7794 10.9048 20.3978 10.9048 20V17H7.90479C7.50696 17 7.12543 16.842 6.84413 16.5607C6.56282 16.2794 6.40479 15.8978 6.40479 15.5C6.40479 15.1022 6.56282 14.7206 6.84413 14.4393C7.12543 14.158 7.50696 14 7.90479 14H10.9048V11C10.9048 10.6022 11.0628 10.2206 11.3441 9.93934C11.6254 9.65804 12.007 9.5 12.4048 9.5ZM0.404785 15.5C0.404785 7.2155 7.12029 0.5 15.4048 0.5H27.4048C35.6893 0.5 42.4048 7.2155 42.4048 15.5C42.4048 23.7845 35.6893 30.5 27.4048 30.5H15.4048C7.12029 30.5 0.404785 23.7845 0.404785 15.5ZM15.4048 3.5C12.2222 3.5 9.16994 4.76428 6.9195 7.01472C4.66907 9.26515 3.40479 12.3174 3.40479 15.5C3.40479 18.6826 4.66907 21.7348 6.9195 23.9853C9.16994 26.2357 12.2222 27.5 15.4048 27.5H27.4048C30.5874 27.5 33.6396 26.2357 35.8901 23.9853C38.1405 21.7348 39.4048 18.6826 39.4048 15.5C39.4048 12.3174 38.1405 9.26515 35.8901 7.01472C33.6396 4.76428 30.5874 3.5 27.4048 3.5H15.4048Z" fill="white"/>
</svg>
