<svg width="19" height="20" viewBox="0 0 19 20" fill="none" xmlns="http://www.w3.org/2000/svg">
<path d="M9.32812 0.000118782C9.1682 0.00558004 9.01422 0.0620409 8.88867 0.161252L1.78223 5.75988C0.880278 6.4707 0.352539 7.55687 0.352539 8.7052V18.2501C0.352539 18.9319 0.920742 19.5001 1.60254 19.5001H6.60254C7.28434 19.5001 7.85254 18.9319 7.85254 18.2501V13.2501C7.85254 13.1026 7.95502 13.0001 8.10254 13.0001H10.6025C10.7501 13.0001 10.8525 13.1026 10.8525 13.2501V18.2501C10.8525 18.9319 11.4207 19.5001 12.1025 19.5001H17.1025C17.7843 19.5001 18.3525 18.9319 18.3525 18.2501V8.7052C18.3525 7.55687 17.8248 6.4707 16.9229 5.75988L9.81641 0.161252C9.67771 0.0516892 9.50479 -0.00537685 9.32812 0.000118782ZM9.35254 1.7052L15.9951 6.9386C16.5372 7.36578 16.8525 8.01552 16.8525 8.7052V18.0001H12.3525V13.2501C12.3525 12.2926 11.56 11.5001 10.6025 11.5001H8.10254C7.14506 11.5001 6.35254 12.2926 6.35254 13.2501V18.0001H1.85254V8.7052C1.85254 8.01552 2.16791 7.36578 2.70996 6.9386L9.35254 1.7052Z" fill="#FC9338"/>
</svg>
