<svg width="36" height="36" viewBox="0 0 36 36" fill="none" xmlns="http://www.w3.org/2000/svg">
<path d="M18 4.5C16.4087 4.5 14.8826 5.13214 13.7574 6.25736C12.6321 7.38258 12 8.9087 12 10.5C12 12.0913 12.6321 13.6174 13.7574 14.7426C14.8826 15.8679 16.4087 16.5 18 16.5C19.5913 16.5 21.1174 15.8679 22.2426 14.7426C23.3679 13.6174 24 12.0913 24 10.5C24 8.9087 23.3679 7.38258 22.2426 6.25736C21.1174 5.13214 19.5913 4.5 18 4.5ZM18 21C13.494 21 4.5 23.262 4.5 27.75V30C4.5 30.828 5.172 31.5 6 31.5H30C30.828 31.5 31.5 30.828 31.5 30V27.75C31.5 23.262 22.506 21 18 21Z" fill="white"/>
</svg>
