<?xml version="1.0" encoding="UTF-8"?>
<svg xmlns="http://www.w3.org/2000/svg" id="Layer_1" data-name="Layer 1" viewBox="0 0 24 24">
  <path d="M22,16.051V7.5c0-2.481-2.019-4.5-4.5-4.5H6.5c-2.481,0-4.5,2.019-4.5,4.5v8.551c-1.14,.232-2,1.242-2,2.449,0,1.378,1.122,2.5,2.5,2.5H21.5c1.378,0,2.5-1.122,2.5-2.5,0-1.207-.86-2.217-2-2.449ZM6.5,4h11c1.93,0,3.5,1.57,3.5,3.5v8.5h-5.5c-.133,0-.26,.053-.354,.146l-.854,.854h-4.586l-.854-.854c-.094-.094-.221-.146-.354-.146H3V7.5c0-1.93,1.57-3.5,3.5-3.5Zm15,16H2.5c-.827,0-1.5-.673-1.5-1.5s.673-1.5,1.5-1.5h5.793l.854,.854c.094,.094,.221,.146,.354,.146h5c.133,0,.26-.053,.354-.146l.854-.854h5.793c.827,0,1.5,.673,1.5,1.5s-.673,1.5-1.5,1.5ZM7.5,14c1.378,0,2.5-1.122,2.5-2.5v-3c0-1.378-1.122-2.5-2.5-2.5s-2.5,1.122-2.5,2.5v3c0,1.378,1.122,2.5,2.5,2.5Zm-1.5-5.5c0-.827,.673-1.5,1.5-1.5s1.5,.673,1.5,1.5v3c0,.827-.673,1.5-1.5,1.5s-1.5-.673-1.5-1.5v-3Zm10.5,5.5c1.378,0,2.5-1.122,2.5-2.5v-3c0-1.378-1.122-2.5-2.5-2.5s-2.5,1.122-2.5,2.5v3c0,1.378,1.122,2.5,2.5,2.5Zm-1.5-5.5c0-.827,.673-1.5,1.5-1.5s1.5,.673,1.5,1.5v3c0,.827-.673,1.5-1.5,1.5s-1.5-.673-1.5-1.5v-3Zm-4.335-.006c-.205-.186-.221-.501-.035-.706l1.471-1.624c.281-.311,.9-.082,.9,.335v7c0,.276-.224,.5-.5,.5s-.5-.224-.5-.5V7.764l-.629,.695c-.186,.206-.502,.219-.706,.035Z"/>
</svg>
