<svg width="22" height="22" viewBox="0 0 22 22" fill="none" xmlns="http://www.w3.org/2000/svg">
<path d="M7.99268 12.6947V9.41426C7.99268 7.26523 9.14203 5.28032 11.0059 4.21054L13.2722 2.90977C16.1973 1.23047 21.4343 5.37243 19.2357 9.16258" stroke="#FFA500" stroke-width="1.67999" stroke-linejoin="round"/>
<path d="M7.99268 9.43109L10.8861 7.78062C12.7285 6.72965 14.989 6.72958 16.8315 7.78043L19.1226 9.08718C22.0392 10.7509 21.0513 17.2712 16.6624 17.2712" stroke="#FFA500" stroke-width="1.67999" stroke-linejoin="round"/>
<path d="M10.8555 7.7793L13.6709 9.39073C15.5383 10.4595 16.6904 12.4464 16.6904 14.598V17.1165C16.6904 20.4376 10.514 22.8496 8.3335 19.1017" stroke="#FFA500" stroke-width="1.67999" stroke-linejoin="round"/>
<path d="M13.7913 9.47461V12.5936C13.7913 14.747 12.6373 16.7352 10.7675 17.8034L8.51183 19.0919C5.58665 20.7633 0.34964 16.6409 2.54824 12.8687" stroke="#FFA500" stroke-width="1.67999" stroke-linejoin="round"/>
<path d="M13.7912 12.5687L10.9 14.2183C9.05727 15.2697 6.79622 15.2698 4.95339 14.2185L2.66433 12.9126C-0.256114 11.2442 0.731475 4.72852 5.11919 4.72852" stroke="#FFA500" stroke-width="1.67999" stroke-linejoin="round"/>
<path d="M10.9281 14.2201L8.11272 12.6087C6.24536 11.5399 5.09326 9.55301 5.09326 7.4014V4.88297C5.09326 1.56185 11.2697 -0.850134 13.4502 2.89772" stroke="#FFA500" stroke-width="1.67999" stroke-linejoin="round"/>
</svg>
