<svg width="95" height="15" viewBox="0 0 95 15" fill="none" xmlns="http://www.w3.org/2000/svg">
    <path
        d="M12.0896 14.5H0.929609L1.12961 13.64C1.67628 13.64 2.08961 13.5933 2.36961 13.5C2.64961 13.4067 2.85628 13.2267 2.98961 12.96C3.12294 12.6933 3.24294 12.3 3.34961 11.78L4.92961 4.16C5.03628 3.65333 5.08294 3.26 5.06961 2.98C5.05628 2.7 4.93628 2.50667 4.70961 2.4C4.48294 2.28 4.08961 2.22 3.52961 2.22L3.68961 1.36H10.3496L10.1896 2.22C9.62961 2.22 9.19628 2.28 8.88961 2.4C8.59628 2.50667 8.37628 2.7 8.22961 2.98C8.09628 3.26 7.97628 3.66 7.86961 4.18L6.20961 12.1C6.11628 12.5933 6.14961 12.9133 6.30961 13.06C6.48294 13.2067 6.85628 13.28 7.42961 13.28H8.62961C9.17628 13.28 9.63628 13.2333 10.0096 13.14C10.3963 13.0467 10.7229 12.8867 10.9896 12.66C11.2696 12.4333 11.5229 12.1267 11.7496 11.74C11.9896 11.3533 12.2429 10.8667 12.5096 10.28H13.5096L12.0896 14.5ZM16.6445 14.74C16.0711 14.74 15.6511 14.62 15.3845 14.38C15.1311 14.14 15.0045 13.8467 15.0045 13.5C15.0045 13.3267 15.0245 13.1267 15.0645 12.9C15.1045 12.66 15.1911 12.2467 15.3245 11.66L16.2645 7.22C16.2645 7.22 16.2778 7.15333 16.3045 7.02C16.3311 6.87333 16.3445 6.72667 16.3445 6.58C16.3445 6.44667 16.2978 6.32 16.2045 6.2C16.1245 6.08 15.9511 6.02 15.6845 6.02C15.5111 6.02 15.3578 6.02667 15.2245 6.04C15.1045 6.05333 15.0445 6.06 15.0445 6.06V5.2L18.4845 4.98H19.5245L18.0445 11.98C18.0445 11.98 18.0245 12.0867 17.9845 12.3C17.9445 12.5 17.9245 12.6733 17.9245 12.82C17.9245 13.0733 18.0511 13.2 18.3045 13.2C18.6511 13.2 18.9311 13.0867 19.1445 12.86C19.3711 12.6333 19.5645 12.4333 19.7245 12.26L20.3445 12.72C20.1178 13.04 19.8645 13.3533 19.5845 13.66C19.3178 13.9667 18.9578 14.22 18.5045 14.42C18.0511 14.62 17.4311 14.7267 16.6445 14.74ZM18.4245 3.66C17.9311 3.66 17.5378 3.52 17.2445 3.24C16.9645 2.94667 16.8245 2.56667 16.8245 2.1C16.8245 1.63333 16.9645 1.26 17.2445 0.979999C17.5245 0.686666 17.9178 0.54 18.4245 0.54C18.9578 0.54 19.3578 0.68 19.6245 0.959999C19.9045 1.24 20.0445 1.61333 20.0445 2.08C20.0445 2.56 19.9045 2.94667 19.6245 3.24C19.3578 3.52 18.9578 3.66 18.4245 3.66ZM29.0084 14.74C28.3284 14.74 27.8617 14.62 27.6084 14.38C27.3684 14.14 27.2484 13.82 27.2484 13.42C27.2484 13.26 27.2617 13.12 27.2884 13C27.315 12.8667 27.335 12.7667 27.3484 12.7L28.5484 8.48C28.5484 8.48 28.5684 8.37333 28.6084 8.16C28.6617 7.94667 28.6884 7.72 28.6884 7.48C28.6884 7.26667 28.655 7.09333 28.5884 6.96C28.535 6.81333 28.4217 6.74 28.2484 6.74C28.0217 6.74 27.7684 6.87333 27.4884 7.14C27.2217 7.40667 26.9484 7.75333 26.6684 8.18C26.3884 8.60667 26.115 9.06667 25.8484 9.56C25.595 10.04 25.3617 10.5133 25.1484 10.98C24.9484 11.4333 24.795 11.82 24.6884 12.14L25.2084 8.94C25.3684 8.67333 25.575 8.32 25.8284 7.88C26.0817 7.42667 26.3884 6.97333 26.7484 6.52C27.1217 6.05333 27.5684 5.66667 28.0884 5.36C28.6084 5.04 29.2284 4.88 29.9484 4.88C30.6284 4.88 31.075 5.03333 31.2884 5.34C31.515 5.63333 31.6284 6.00667 31.6284 6.46C31.6284 6.71333 31.6084 6.95333 31.5684 7.18C31.5284 7.40667 31.4817 7.62 31.4284 7.82L30.2284 12.34C30.2284 12.34 30.215 12.3933 30.1884 12.5C30.175 12.5933 30.1684 12.6933 30.1684 12.8C30.1684 13.0667 30.3084 13.2 30.5884 13.2C30.895 13.2 31.1617 13.0933 31.3884 12.88C31.6284 12.6533 31.8217 12.4467 31.9684 12.26L32.5884 12.72C32.535 12.8 32.435 12.9467 32.2884 13.16C32.1417 13.3733 31.9284 13.6067 31.6484 13.86C31.3684 14.1 31.015 14.3067 30.5884 14.48C30.1617 14.6533 29.635 14.74 29.0084 14.74ZM24.2484 14.5H21.4084L22.9884 7.2C22.9884 7.2 22.995 7.12667 23.0084 6.98C23.035 6.83333 23.0484 6.7 23.0484 6.58C23.0484 6.39333 23.0017 6.25333 22.9084 6.16C22.815 6.05333 22.6417 6 22.3884 6C22.2817 6 22.155 6.00667 22.0084 6.02C21.8617 6.03333 21.7884 6.04 21.7884 6.04V5.2L25.0684 4.98H26.0084L25.0284 8.78H25.6084L24.2484 14.5ZM36.3116 14.5H33.4716L35.7716 2.64C35.7716 2.64 35.7783 2.58667 35.7916 2.48C35.805 2.36 35.8116 2.22 35.8116 2.06C35.8116 1.92667 35.7783 1.78667 35.7116 1.64C35.645 1.48 35.4783 1.4 35.2116 1.4C35.0383 1.4 34.885 1.40667 34.7516 1.42C34.6316 1.43333 34.5716 1.44 34.5716 1.44V0.62L38.1116 0.399999H38.9716L37.1316 9.76L37.0716 10.4L36.3116 14.5ZM40.9516 14.7C40.3916 14.7 39.9516 14.5933 39.6316 14.38C39.325 14.1533 39.0983 13.8933 38.9516 13.6C38.805 13.2933 38.685 13.02 38.5916 12.78L37.5916 9.92L39.6116 8.46L41.1716 12.02C41.3183 12.3267 41.4716 12.5933 41.6316 12.82C41.7916 13.0333 42.0183 13.14 42.3116 13.14C42.6583 13.14 42.9183 13.06 43.0916 12.9C43.2783 12.7267 43.485 12.5 43.7116 12.22L44.3316 12.62C44.225 12.7933 44.0916 13 43.9316 13.24C43.785 13.4667 43.5916 13.6933 43.3516 13.92C43.1116 14.1467 42.7983 14.3333 42.4116 14.48C42.025 14.6267 41.5383 14.7 40.9516 14.7ZM38.0316 9.98L36.7516 10.88L36.8716 9.46H37.3116L40.2916 7.14C40.4116 7.04667 40.505 6.94 40.5716 6.82C40.6383 6.7 40.6716 6.58667 40.6716 6.48C40.6716 6.32 40.6116 6.17333 40.4916 6.04C40.385 5.90667 40.165 5.83333 39.8316 5.82L39.8916 5.14H44.6316L44.5716 5.82C43.9983 5.83333 43.4983 5.97333 43.0716 6.24C42.645 6.49333 42.2516 6.76 41.8916 7.04L39.4316 9L38.0316 9.98Z"
        fill="white" />
    <path
        d="M45.5784 14.76H44.7384L45.4784 10.44H46.4384C46.465 11.2933 46.5584 11.9533 46.7184 12.42C46.8784 12.8733 47.1184 13.1867 47.4384 13.36C47.7717 13.5333 48.1984 13.62 48.7184 13.62C49.2117 13.62 49.6784 13.5533 50.1184 13.42C50.5584 13.2733 50.9184 13.04 51.1984 12.72C51.4917 12.3867 51.6384 11.94 51.6384 11.38C51.6384 10.9133 51.525 10.5267 51.2984 10.22C51.085 9.9 50.7984 9.62 50.4384 9.38C50.0784 9.14 49.6984 8.91333 49.2984 8.7C48.8317 8.43333 48.3984 8.16 47.9984 7.88C47.5984 7.58667 47.2717 7.23333 47.0184 6.82C46.7784 6.40667 46.6584 5.89333 46.6584 5.28C46.6584 4.37333 46.8717 3.61333 47.2984 3C47.7384 2.38667 48.3384 1.92667 49.0984 1.62C49.8717 1.3 50.7584 1.14 51.7584 1.14C52.2384 1.14 52.6317 1.18 52.9384 1.26C53.2584 1.34 53.525 1.42 53.7384 1.5C53.9517 1.58 54.1384 1.62 54.2984 1.62C54.405 1.62 54.525 1.59333 54.6584 1.54C54.7917 1.47333 54.8984 1.34 54.9784 1.14H55.7184L54.9384 5.34H54.0384C53.9984 4.12667 53.7917 3.28 53.4184 2.8C53.0584 2.32 52.505 2.08 51.7584 2.08C50.945 2.08 50.325 2.24 49.8984 2.56C49.4717 2.88 49.2584 3.35333 49.2584 3.98C49.2584 4.38 49.3717 4.72667 49.5984 5.02C49.8384 5.3 50.145 5.55333 50.5184 5.78C50.905 6.00667 51.3117 6.23333 51.7384 6.46C52.2317 6.71333 52.6917 7 53.1184 7.32C53.5584 7.64 53.9117 8.02667 54.1784 8.48C54.4584 8.93333 54.5984 9.49333 54.5984 10.16C54.5984 11.1333 54.345 11.96 53.8384 12.64C53.345 13.32 52.6584 13.84 51.7784 14.2C50.9117 14.56 49.9184 14.74 48.7984 14.74C48.1717 14.74 47.6984 14.6867 47.3784 14.58C47.0584 14.4867 46.8184 14.3933 46.6584 14.3C46.5117 14.1933 46.3717 14.14 46.2384 14.14C46.0784 14.14 45.9384 14.2 45.8184 14.32C45.6984 14.4267 45.6184 14.5733 45.5784 14.76ZM58.9288 14.5H56.0888L58.3888 2.64C58.3888 2.64 58.3955 2.58667 58.4088 2.48C58.4222 2.36 58.4288 2.22 58.4288 2.06C58.4288 1.92667 58.3955 1.78667 58.3288 1.64C58.2622 1.48 58.0955 1.4 57.8288 1.4C57.6555 1.4 57.5022 1.40667 57.3688 1.42C57.2488 1.43333 57.1888 1.44 57.1888 1.44V0.62L60.7288 0.399999H61.5888L59.7488 9.76L59.6888 10.4L58.9288 14.5ZM63.5688 14.7C63.0088 14.7 62.5688 14.5933 62.2488 14.38C61.9422 14.1533 61.7155 13.8933 61.5688 13.6C61.4222 13.2933 61.3022 13.02 61.2088 12.78L60.2088 9.92L62.2288 8.46L63.7888 12.02C63.9355 12.3267 64.0888 12.5933 64.2488 12.82C64.4088 13.0333 64.6355 13.14 64.9288 13.14C65.2755 13.14 65.5355 13.06 65.7088 12.9C65.8955 12.7267 66.1022 12.5 66.3288 12.22L66.9488 12.62C66.8422 12.7933 66.7088 13 66.5488 13.24C66.4022 13.4667 66.2088 13.6933 65.9688 13.92C65.7288 14.1467 65.4155 14.3333 65.0288 14.48C64.6422 14.6267 64.1555 14.7 63.5688 14.7ZM60.6488 9.98L59.3688 10.88L59.4888 9.46H59.9288L62.9088 7.14C63.0288 7.04667 63.1222 6.94 63.1888 6.82C63.2555 6.7 63.2888 6.58667 63.2888 6.48C63.2888 6.32 63.2288 6.17333 63.1088 6.04C63.0022 5.90667 62.7822 5.83333 62.4488 5.82L62.5088 5.14H67.2488L67.1888 5.82C66.6155 5.83333 66.1155 5.97333 65.6888 6.24C65.2622 6.49333 64.8688 6.76 64.5088 7.04L62.0488 9L60.6488 9.98ZM71.4579 14.76C70.7512 14.76 70.0912 14.6333 69.4779 14.38C68.8646 14.1267 68.3712 13.7133 67.9979 13.14C67.6246 12.5533 67.4379 11.76 67.4379 10.76C67.4379 9.96 67.5646 9.20667 67.8179 8.5C68.0712 7.79333 68.4379 7.17333 68.9179 6.64C69.4112 6.09333 70.0046 5.66667 70.6979 5.36C71.3912 5.04 72.1779 4.88 73.0579 4.88C73.7646 4.88 74.4179 5.00667 75.0179 5.26C75.6179 5.5 76.1046 5.91333 76.4779 6.5C76.8512 7.08667 77.0379 7.88667 77.0379 8.9C77.0379 9.7 76.9112 10.4533 76.6579 11.16C76.4046 11.8667 76.0379 12.4933 75.5579 13.04C75.0912 13.5733 74.5112 13.9933 73.8179 14.3C73.1246 14.6067 72.3379 14.76 71.4579 14.76ZM71.6579 13.8C72.0046 13.8 72.3179 13.6667 72.5979 13.4C72.8912 13.12 73.1379 12.74 73.3379 12.26C73.5512 11.78 73.7179 11.22 73.8379 10.58C73.9579 9.92667 74.0179 9.22 74.0179 8.46C74.0179 7.94 73.9846 7.48667 73.9179 7.1C73.8512 6.7 73.7246 6.38667 73.5379 6.16C73.3646 5.93333 73.1179 5.82 72.7979 5.82C72.4512 5.82 72.1312 5.95333 71.8379 6.22C71.5579 6.48667 71.3112 6.86 71.0979 7.34C70.8979 7.82 70.7379 8.38667 70.6179 9.04C70.5112 9.68 70.4579 10.3733 70.4579 11.12C70.4579 11.64 70.4912 12.1 70.5579 12.5C70.6246 12.9 70.7446 13.22 70.9179 13.46C71.1046 13.6867 71.3512 13.8 71.6579 13.8ZM82.2196 14.76C81.5129 14.76 80.8529 14.6333 80.2396 14.38C79.6263 14.1267 79.1329 13.7133 78.7596 13.14C78.3863 12.5533 78.1996 11.76 78.1996 10.76C78.1996 9.96 78.3263 9.20667 78.5796 8.5C78.8329 7.79333 79.1996 7.17333 79.6796 6.64C80.1729 6.09333 80.7663 5.66667 81.4596 5.36C82.1529 5.04 82.9396 4.88 83.8196 4.88C84.5263 4.88 85.1796 5.00667 85.7796 5.26C86.3796 5.5 86.8663 5.91333 87.2396 6.5C87.6129 7.08667 87.7996 7.88667 87.7996 8.9C87.7996 9.7 87.6729 10.4533 87.4196 11.16C87.1663 11.8667 86.7996 12.4933 86.3196 13.04C85.8529 13.5733 85.2729 13.9933 84.5796 14.3C83.8863 14.6067 83.0996 14.76 82.2196 14.76ZM82.4196 13.8C82.7663 13.8 83.0796 13.6667 83.3596 13.4C83.6529 13.12 83.8996 12.74 84.0996 12.26C84.3129 11.78 84.4796 11.22 84.5996 10.58C84.7196 9.92667 84.7796 9.22 84.7796 8.46C84.7796 7.94 84.7463 7.48667 84.6796 7.1C84.6129 6.7 84.4863 6.38667 84.2996 6.16C84.1263 5.93333 83.8796 5.82 83.5596 5.82C83.2129 5.82 82.8929 5.95333 82.5996 6.22C82.3196 6.48667 82.0729 6.86 81.8596 7.34C81.6596 7.82 81.4996 8.38667 81.3796 9.04C81.2729 9.68 81.2196 10.3733 81.2196 11.12C81.2196 11.64 81.2529 12.1 81.3196 12.5C81.3863 12.9 81.5063 13.22 81.6796 13.46C81.8663 13.6867 82.1129 13.8 82.4196 13.8ZM90.9213 14.74C90.228 14.74 89.768 14.6133 89.5413 14.36C89.3147 14.0933 89.2013 13.7867 89.2013 13.44C89.2013 13.2133 89.2213 12.96 89.2613 12.68C89.3147 12.4 89.3813 12.0467 89.4613 11.62L91.2613 2.62C91.2613 2.62 91.268 2.55333 91.2813 2.42C91.308 2.27333 91.3213 2.12 91.3213 1.96C91.3213 1.82667 91.2813 1.7 91.2013 1.58C91.1347 1.44667 90.968 1.38 90.7013 1.38C90.528 1.38 90.3747 1.38667 90.2413 1.4C90.1213 1.41333 90.0613 1.42 90.0613 1.42V0.62L93.6413 0.399999H94.4613L92.2013 11.9C92.2013 11.9 92.1813 12.02 92.1413 12.26C92.1013 12.4867 92.0813 12.6733 92.0813 12.82C92.0813 12.9533 92.1213 13.0533 92.2013 13.12C92.2947 13.1733 92.4013 13.2 92.5213 13.2C92.8547 13.2 93.128 13.0867 93.3413 12.86C93.568 12.6333 93.7613 12.4333 93.9213 12.26L94.5413 12.72C94.328 13.04 94.0813 13.3533 93.8013 13.66C93.5213 13.9667 93.1547 14.2267 92.7013 14.44C92.248 14.64 91.6547 14.74 90.9213 14.74Z"
        fill="#FC9338" />
</svg>
