<svg width="40" height="36" viewBox="0 0 40 36" fill="none" xmlns="http://www.w3.org/2000/svg">
<path d="M33.9258 0.0640027C33.602 0.0465027 33.2759 0.0954871 32.9609 0.210487L32.4902 0.36869L1.83984 11.189C1.37984 11.349 1.00047 11.6396 0.730469 11.9995H8.58008L30.6602 4.19877C31.1002 5.42877 32.2502 6.19877 33.4902 6.19877C33.8202 6.19877 34.1602 6.14885 34.4902 6.02885L36.5996 11.9995H39.7793L36.3203 2.19877L36.1504 1.73002C35.9304 1.10002 35.4791 0.600096 34.8691 0.310096C34.5691 0.165096 34.2495 0.0815027 33.9258 0.0640027ZM30.9219 10.107C30.6616 10.0912 30.3934 10.1278 30.1309 10.2203C29.3509 10.5003 28.8505 11.2196 28.8105 11.9995H32.7891C32.7891 11.8096 32.7595 11.629 32.6895 11.439C32.412 10.659 31.7028 10.1543 30.9219 10.107ZM20.5996 10.1499C20.0896 10.1499 19.5703 10.2397 19.0703 10.4097C18.1903 10.7197 17.4499 11.2795 16.9199 11.9995H24.4805C23.4805 10.8295 22.0496 10.1499 20.5996 10.1499ZM4 14.9995C2.63641 14.9995 1.5 16.136 1.5 17.4995V33.4995C1.5 34.8631 2.63641 35.9995 4 35.9995H37C38.3636 35.9995 39.5 34.8631 39.5 33.4995V17.4995C39.5 16.136 38.3636 14.9995 37 14.9995H4ZM7.5 17.9995H33.5C33.5 19.6565 34.843 20.9995 36.5 20.9995V29.9995C34.843 29.9995 33.5 31.3426 33.5 32.9995H7.5C7.5 31.3426 6.157 29.9995 4.5 29.9995V20.9995C6.157 20.9995 7.5 19.6565 7.5 17.9995ZM20.5 19.9995C17.739 19.9995 15.5 22.4615 15.5 25.4995C15.5 28.5375 17.739 30.9995 20.5 30.9995C23.261 30.9995 25.5 28.5375 25.5 25.4995C25.5 22.4615 23.261 19.9995 20.5 19.9995ZM20.5 22.9995C21.584 22.9995 22.5 24.1446 22.5 25.4995C22.5 26.8545 21.584 27.9995 20.5 27.9995C19.416 27.9995 18.5 26.8545 18.5 25.4995C18.5 24.1446 19.416 22.9995 20.5 22.9995ZM10 23.4995C9.46957 23.4995 8.96086 23.7103 8.58579 24.0853C8.21071 24.4604 8 24.9691 8 25.4995C8 26.03 8.21071 26.5387 8.58579 26.9138C8.96086 27.2888 9.46957 27.4995 10 27.4995C10.5304 27.4995 11.0391 27.2888 11.4142 26.9138C11.7893 26.5387 12 26.03 12 25.4995C12 24.9691 11.7893 24.4604 11.4142 24.0853C11.0391 23.7103 10.5304 23.4995 10 23.4995ZM31 23.4995C30.4696 23.4995 29.9609 23.7103 29.5858 24.0853C29.2107 24.4604 29 24.9691 29 25.4995C29 26.03 29.2107 26.5387 29.5858 26.9138C29.9609 27.2888 30.4696 27.4995 31 27.4995C31.5304 27.4995 32.0391 27.2888 32.4142 26.9138C32.7893 26.5387 33 26.03 33 25.4995C33 24.9691 32.7893 24.4604 32.4142 24.0853C32.0391 23.7103 31.5304 23.4995 31 23.4995Z" fill="white"/>
</svg>
