<svg width="34" height="34" viewBox="0 0 34 34" fill="none" xmlns="http://www.w3.org/2000/svg">
<path d="M16.6667 0C7.47691 0 0 7.47691 0 16.6667C0 25.8564 7.47691 33.3333 16.6667 33.3333C21.9575 33.3333 26.6797 30.8526 29.7298 27.0003C29.8325 26.8717 29.9088 26.7241 29.9544 26.566C29.9999 26.4078 30.0137 26.2422 29.9951 26.0787C29.9765 25.9152 29.9258 25.7569 29.8458 25.6131C29.7659 25.4692 29.6584 25.3425 29.5294 25.2403C29.4004 25.1381 29.2525 25.0624 29.0942 25.0175C28.9358 24.9726 28.7702 24.9593 28.6067 24.9786C28.4433 24.9979 28.2853 25.0492 28.1417 25.1297C27.9981 25.2102 27.8719 25.3182 27.7702 25.4476C25.1736 28.727 21.1775 30.8333 16.6667 30.8333C8.82809 30.8333 2.5 24.5052 2.5 16.6667C2.5 8.82809 8.82809 2.5 16.6667 2.5C21.1775 2.5 25.1736 4.60634 27.7702 7.88574C27.8719 8.01513 27.9981 8.12317 28.1417 8.20365C28.2853 8.28413 28.4433 8.33547 28.6067 8.35473C28.7702 8.37398 28.9358 8.36078 29.0942 8.31587C29.2525 8.27096 29.4004 8.19522 29.5294 8.09301C29.6584 7.99081 29.7659 7.86413 29.8458 7.72026C29.9258 7.57639 29.9765 7.41816 29.9951 7.25463C30.0137 7.09111 29.9999 6.92552 29.9544 6.76737C29.9088 6.60921 29.8325 6.4616 29.7298 6.33301C26.6797 2.48074 21.9575 0 16.6667 0ZM27.0703 10.4036C26.8215 10.4037 26.5784 10.478 26.3721 10.617C26.1658 10.756 26.0057 10.9534 25.9122 11.1839C25.8187 11.4144 25.7961 11.6676 25.8472 11.911C25.8984 12.1545 26.0211 12.3771 26.1995 12.5505L29.0641 15.415L12.085 15.4004C11.9193 15.3978 11.7548 15.4282 11.6011 15.4898C11.4473 15.5514 11.3073 15.6429 11.1892 15.7591C11.0711 15.8752 10.9772 16.0137 10.9131 16.1664C10.849 16.3191 10.8158 16.4831 10.8156 16.6487C10.8154 16.8144 10.8481 16.9784 10.9118 17.1313C10.9756 17.2842 11.069 17.4229 11.1868 17.5394C11.3046 17.6559 11.4444 17.7477 11.598 17.8097C11.7517 17.8717 11.9161 17.9025 12.0817 17.9004L29.0674 17.915L26.1995 20.7829C26.0796 20.8981 25.9838 21.036 25.9178 21.1887C25.8518 21.3413 25.817 21.5056 25.8153 21.6719C25.8136 21.8382 25.8451 22.0032 25.908 22.1572C25.9708 22.3111 26.0638 22.451 26.1814 22.5686C26.299 22.6862 26.4389 22.7792 26.5928 22.842C26.7468 22.9049 26.9118 22.9364 27.0781 22.9347C27.2444 22.933 27.4087 22.8982 27.5613 22.8322C27.714 22.7662 27.8519 22.6704 27.9671 22.5505L32.9671 17.5505C33.2015 17.316 33.3331 16.9981 33.3331 16.6667C33.3331 16.3352 33.2015 16.0173 32.9671 15.7829L27.9671 10.7829C27.8506 10.6629 27.7112 10.5675 27.5572 10.5024C27.4031 10.4372 27.2376 10.4037 27.0703 10.4036Z" fill="#FC9338"/>
</svg>