<svg width="25" height="24" viewBox="0 0 25 24" fill="none" xmlns="http://www.w3.org/2000/svg">
<path d="M12.8525 3C10.6552 3 8.85254 4.80271 8.85254 7C8.85254 9.19729 10.6552 11 12.8525 11C15.0498 11 16.8525 9.19729 16.8525 7C16.8525 4.80271 15.0498 3 12.8525 3ZM12.8525 5C13.969 5 14.8525 5.88359 14.8525 7C14.8525 8.11641 13.969 9 12.8525 9C11.7361 9 10.8525 8.11641 10.8525 7C10.8525 5.88359 11.7361 5 12.8525 5ZM12.8525 14C11.1076 14 9.0397 14.4098 7.30176 15.0957C6.43279 15.4387 5.64724 15.846 5.01855 16.3691C4.38987 16.8922 3.85254 17.5994 3.85254 18.5V21H21.8525V20V18.5C21.8525 17.5994 21.3152 16.8922 20.6865 16.3691C20.0578 15.846 19.2723 15.4387 18.4033 15.0957C16.6654 14.4098 14.5975 14 12.8525 14ZM12.8525 16C14.2666 16 16.1986 16.374 17.6709 16.9551C18.4071 17.2456 19.0295 17.592 19.4072 17.9062C19.785 18.2205 19.8525 18.4346 19.8525 18.5V19H5.85254V18.5C5.85254 18.4346 5.92013 18.2205 6.29785 17.9062C6.67558 17.592 7.29803 17.2456 8.03418 16.9551C9.50648 16.374 11.4385 16 12.8525 16Z" fill="#12077B"/>
</svg>
