<svg width="21" height="16" viewBox="0 0 21 16" fill="none" xmlns="http://www.w3.org/2000/svg">
<path d="M3.10254 0C1.86879 0 0.852539 1.01625 0.852539 2.25V13.75C0.852539 14.9838 1.86879 16 3.10254 16H18.6025C19.8363 16 20.8525 14.9838 20.8525 13.75V2.25C20.8525 1.01625 19.8363 0 18.6025 0H3.10254ZM3.10254 1.5H18.6025C19.0258 1.5 19.3525 1.82675 19.3525 2.25V13.75C19.3525 14.1732 19.0258 14.5 18.6025 14.5H3.10254C2.67929 14.5 2.35254 14.1732 2.35254 13.75V2.25C2.35254 1.82675 2.67929 1.5 3.10254 1.5ZM17.0879 2.49316C16.8931 2.49884 16.7082 2.5801 16.5723 2.71973L15.1025 4.18945L14.6328 3.71973C14.5637 3.64775 14.4809 3.59028 14.3893 3.5507C14.2977 3.51111 14.1992 3.4902 14.0994 3.48918C13.9996 3.48817 13.9006 3.50707 13.8082 3.54479C13.7159 3.58251 13.6319 3.63828 13.5614 3.70883C13.4908 3.77939 13.435 3.86332 13.3973 3.9557C13.3596 4.04808 13.3407 4.14706 13.3417 4.24684C13.3427 4.34662 13.3636 4.4452 13.4032 4.53679C13.4428 4.62839 13.5003 4.71116 13.5723 4.78027L14.5723 5.78027C14.7129 5.92087 14.9037 5.99986 15.1025 5.99986C15.3014 5.99986 15.4922 5.92087 15.6328 5.78027L17.6328 3.78027C17.741 3.6749 17.8149 3.53931 17.8447 3.39126C17.8746 3.2432 17.8591 3.08958 17.8002 2.9505C17.7413 2.81141 17.6418 2.69335 17.5147 2.61175C17.3876 2.53015 17.2389 2.48882 17.0879 2.49316ZM4.60254 3.5C4.50316 3.49859 4.40448 3.51696 4.31226 3.55402C4.22003 3.59108 4.13609 3.6461 4.06531 3.71588C3.99454 3.78566 3.93833 3.86882 3.89997 3.96051C3.86161 4.0522 3.84186 4.15061 3.84186 4.25C3.84186 4.34939 3.86161 4.4478 3.89997 4.53949C3.93833 4.63118 3.99454 4.71434 4.06531 4.78412C4.13609 4.8539 4.22003 4.90892 4.31226 4.94598C4.40448 4.98304 4.50316 5.00141 4.60254 5H11.1025C11.2019 5.00141 11.3006 4.98304 11.3928 4.94598C11.485 4.90892 11.569 4.8539 11.6398 4.78412C11.7105 4.71434 11.7667 4.63118 11.8051 4.53949C11.8435 4.4478 11.8632 4.34939 11.8632 4.25C11.8632 4.15061 11.8435 4.0522 11.8051 3.96051C11.7667 3.86882 11.7105 3.78566 11.6398 3.71588C11.569 3.6461 11.485 3.59108 11.3928 3.55402C11.3006 3.51696 11.2019 3.49859 11.1025 3.5H4.60254ZM17.0879 5.99316C16.8931 5.99884 16.7082 6.0801 16.5723 6.21973L15.1025 7.68945L14.6328 7.21973C14.5637 7.14775 14.4809 7.09028 14.3893 7.0507C14.2977 7.01111 14.1992 6.99019 14.0994 6.98918C13.9996 6.98817 13.9006 7.00707 13.8082 7.04479C13.7159 7.08251 13.6319 7.13828 13.5614 7.20883C13.4908 7.27939 13.435 7.36332 13.3973 7.4557C13.3596 7.54808 13.3407 7.64706 13.3417 7.74684C13.3427 7.84662 13.3636 7.9452 13.4032 8.03679C13.4428 8.12839 13.5003 8.21116 13.5723 8.28027L14.5723 9.28027C14.7129 9.42087 14.9037 9.49986 15.1025 9.49986C15.3014 9.49986 15.4922 9.42087 15.6328 9.28027L17.6328 7.28027C17.741 7.1749 17.8149 7.03931 17.8447 6.89126C17.8746 6.7432 17.8591 6.58958 17.8002 6.4505C17.7413 6.31141 17.6418 6.19335 17.5147 6.11175C17.3876 6.03015 17.2389 5.98882 17.0879 5.99316ZM4.60254 7.25C4.50316 7.24859 4.40448 7.26696 4.31226 7.30402C4.22003 7.34108 4.13609 7.3961 4.06531 7.46588C3.99454 7.53566 3.93833 7.61882 3.89997 7.71051C3.86161 7.8022 3.84186 7.90061 3.84186 8C3.84186 8.09939 3.86161 8.1978 3.89997 8.28949C3.93833 8.38118 3.99454 8.46434 4.06531 8.53412C4.13609 8.6039 4.22003 8.65892 4.31226 8.69598C4.40448 8.73304 4.50316 8.75141 4.60254 8.75H11.1025C11.2019 8.75141 11.3006 8.73304 11.3928 8.69598C11.485 8.65892 11.569 8.6039 11.6398 8.53412C11.7105 8.46434 11.7667 8.38118 11.8051 8.28949C11.8435 8.1978 11.8632 8.09939 11.8632 8C11.8632 7.90061 11.8435 7.8022 11.8051 7.71051C11.7667 7.61882 11.7105 7.53566 11.6398 7.46588C11.569 7.3961 11.485 7.34108 11.3928 7.30402C11.3006 7.26696 11.2019 7.24859 11.1025 7.25H4.60254ZM17.0879 9.49316C16.8931 9.49884 16.7082 9.5801 16.5723 9.71973L15.1025 11.1895L14.6328 10.7197C14.5637 10.6477 14.4809 10.5903 14.3893 10.5507C14.2977 10.5111 14.1992 10.4902 14.0994 10.4892C13.9996 10.4882 13.9006 10.5071 13.8082 10.5448C13.7159 10.5825 13.6319 10.6383 13.5614 10.7088C13.4908 10.7794 13.435 10.8633 13.3973 10.9557C13.3596 11.0481 13.3407 11.1471 13.3417 11.2468C13.3427 11.3466 13.3636 11.4452 13.4032 11.5368C13.4428 11.6284 13.5003 11.7112 13.5723 11.7803L14.5723 12.7803C14.7129 12.9209 14.9037 12.9999 15.1025 12.9999C15.3014 12.9999 15.4922 12.9209 15.6328 12.7803L17.6328 10.7803C17.741 10.6749 17.8149 10.5393 17.8447 10.3913C17.8746 10.2432 17.8591 10.0896 17.8002 9.9505C17.7413 9.81141 17.6418 9.69335 17.5147 9.61175C17.3876 9.53015 17.2389 9.48882 17.0879 9.49316ZM4.60254 11C4.50316 10.9986 4.40448 11.017 4.31226 11.054C4.22003 11.0911 4.13609 11.1461 4.06531 11.2159C3.99454 11.2857 3.93833 11.3688 3.89997 11.4605C3.86161 11.5522 3.84186 11.6506 3.84186 11.75C3.84186 11.8494 3.86161 11.9478 3.89997 12.0395C3.93833 12.1312 3.99454 12.2143 4.06531 12.2841C4.13609 12.3539 4.22003 12.4089 4.31226 12.446C4.40448 12.483 4.50316 12.5014 4.60254 12.5H11.1025C11.2019 12.5014 11.3006 12.483 11.3928 12.446C11.485 12.4089 11.569 12.3539 11.6398 12.2841C11.7105 12.2143 11.7667 12.1312 11.8051 12.0395C11.8435 11.9478 11.8632 11.8494 11.8632 11.75C11.8632 11.6506 11.8435 11.5522 11.8051 11.4605C11.7667 11.3688 11.7105 11.2857 11.6398 11.2159C11.569 11.1461 11.485 11.0911 11.3928 11.054C11.3006 11.017 11.2019 10.9986 11.1025 11H4.60254Z" fill="#12077B"/>
</svg>
