<svg width="25" height="24" viewBox="0 0 25 24" fill="none" xmlns="http://www.w3.org/2000/svg">
<path d="M12.3525 2C11.564 2 10.8038 2.09971 10.0781 2.26855C9.92674 2.30388 9.79011 2.38534 9.68707 2.50167C9.58403 2.61801 9.51967 2.76347 9.50288 2.91797L9.3437 4.36914C9.29164 4.84468 9.01695 5.26543 8.60249 5.50488C8.18886 5.74386 7.6868 5.77033 7.24897 5.57812H7.248L5.91499 4.99121C5.77281 4.92864 5.61471 4.91176 5.46252 4.9429C5.31033 4.97403 5.17156 5.05165 5.06538 5.16504C4.02913 6.26979 3.23383 7.60753 2.78218 9.10059C2.73719 9.24919 2.73942 9.40809 2.78858 9.55537C2.83773 9.70265 2.93137 9.83105 3.05659 9.92285L4.23921 10.79C4.62539 11.074 4.85249 11.5214 4.85249 12C4.85249 12.4789 4.62539 12.9267 4.23921 13.21L3.05659 14.0762C2.93137 14.168 2.83773 14.2964 2.78858 14.4437C2.73942 14.5909 2.73719 14.7498 2.78218 14.8984C3.23378 16.3913 4.02845 17.7301 5.06538 18.835C5.17168 18.9482 5.3105 19.0256 5.46268 19.0566C5.61486 19.0875 5.7729 19.0705 5.91499 19.0078L7.248 18.4209C7.68604 18.2283 8.18857 18.256 8.60249 18.4951C9.01695 18.7346 9.29164 19.1553 9.3437 19.6309L9.50288 21.082C9.5198 21.2362 9.5841 21.3814 9.68694 21.4975C9.78977 21.6136 9.92609 21.695 10.0771 21.7305C10.8032 21.8999 11.564 22 12.3525 22C13.1409 22 13.9012 21.9003 14.6269 21.7314C14.7782 21.6961 14.9149 21.6147 15.0179 21.4983C15.121 21.382 15.1853 21.2365 15.2021 21.082L15.3613 19.6309C15.4133 19.1553 15.688 18.7346 16.1025 18.4951C16.5161 18.2561 17.0182 18.2287 17.456 18.4209L18.79 19.0078C18.9321 19.0705 19.0901 19.0875 19.2423 19.0566C19.3945 19.0256 19.5333 18.9482 19.6396 18.835C20.6758 17.7302 21.4712 16.3915 21.9228 14.8984C21.9678 14.7498 21.9656 14.5909 21.9164 14.4437C21.8673 14.2964 21.7736 14.168 21.6484 14.0762L20.4658 13.21C20.0796 12.9267 19.8525 12.4789 19.8525 12C19.8525 11.5211 20.0796 11.0733 20.4658 10.79L21.6484 9.92383C21.7736 9.83203 21.8673 9.70363 21.9164 9.55635C21.9656 9.40907 21.9678 9.25017 21.9228 9.10156C21.4712 7.60851 20.6758 6.26979 19.6396 5.16504C19.5333 5.05182 19.3945 4.97438 19.2423 4.94342C19.0901 4.91246 18.9321 4.9295 18.79 4.99219L17.456 5.5791C17.0182 5.77131 16.5161 5.74386 16.1025 5.50488C15.688 5.26543 15.4133 4.84468 15.3613 4.36914L15.2021 2.91797C15.1852 2.76378 15.1209 2.61862 15.018 2.50249C14.9152 2.38636 14.7789 2.30497 14.6279 2.26953C13.9018 2.10008 13.1409 2 12.3525 2ZM12.3525 3.5C12.8396 3.5 13.3075 3.58744 13.7763 3.66992L13.8701 4.53223C13.974 5.48169 14.5259 6.32617 15.3525 6.80371C16.1796 7.28157 17.1865 7.3365 18.0605 6.95215L18.8535 6.60352C19.4624 7.3347 19.9445 8.16059 20.2812 9.06543L19.5781 9.58105C18.8083 10.1458 18.3525 11.0449 18.3525 12C18.3525 12.9551 18.8083 13.8542 19.5781 14.4189L20.2812 14.9346C19.9445 15.8394 19.4624 16.6653 18.8535 17.3965L18.0605 17.0479C17.1865 16.6635 16.1796 16.7184 15.3525 17.1963C14.5259 17.6738 13.974 18.5183 13.8701 19.4678L13.7763 20.3301C13.3075 20.4123 12.8394 20.5 12.3525 20.5C11.8653 20.5 11.3975 20.4126 10.9287 20.3301L10.8349 19.4678C10.731 18.5183 10.179 17.6738 9.35249 17.1963C8.52541 16.7184 7.51844 16.6635 6.64448 17.0479L5.85151 17.3965C5.24248 16.6654 4.76046 15.8395 4.42378 14.9346L5.1269 14.4189C5.89672 13.8542 6.35249 12.9551 6.35249 12C6.35249 11.0449 5.89635 10.1452 5.1269 9.58008L4.42378 9.06445C4.76066 8.15927 5.24322 7.33392 5.85249 6.60254L6.64448 6.95117C7.51844 7.33553 8.52541 7.28157 9.35249 6.80371C10.179 6.32617 10.731 5.48169 10.8349 4.53223L10.9287 3.66992C11.3975 3.58767 11.8656 3.5 12.3525 3.5ZM12.3525 8C10.1522 8 8.35249 9.79975 8.35249 12C8.35249 14.2003 10.1522 16 12.3525 16C14.5527 16 16.3525 14.2003 16.3525 12C16.3525 9.79975 14.5527 8 12.3525 8ZM12.3525 9.5C13.7421 9.5 14.8525 10.6104 14.8525 12C14.8525 13.3896 13.7421 14.5 12.3525 14.5C10.9629 14.5 9.85249 13.3896 9.85249 12C9.85249 10.6104 10.9629 9.5 12.3525 9.5Z" fill="white"/>
</svg>
