<svg width="17" height="16" viewBox="0 0 17 16" fill="none" xmlns="http://www.w3.org/2000/svg">
<path d="M9.65934 2.33306C9.52798 2.33495 9.40265 2.38846 9.31042 2.48203C9.2182 2.57559 9.1665 2.70168 9.1665 2.83306V5.42811C8.2806 5.52692 6.82414 5.78082 5.35791 6.73019C3.69317 7.8081 2.21323 9.78981 2.17887 13.0616C2.17837 13.0641 2.17677 13.0656 2.17627 13.0681H2.17757C2.17722 13.1041 2.1665 13.1301 2.1665 13.1664C2.16664 13.2904 2.21282 13.4099 2.29609 13.5017C2.37936 13.5936 2.49378 13.6512 2.61715 13.6635C2.74052 13.6757 2.86405 13.6417 2.96375 13.568C3.06346 13.4943 3.13223 13.3862 3.15674 13.2647C3.55252 11.286 4.78623 10.4091 6.15348 9.95936C7.30747 9.5798 8.43731 9.57968 9.1665 9.61821V12.1664C9.16654 12.2653 9.19589 12.3619 9.25083 12.4441C9.30578 12.5263 9.38386 12.5904 9.4752 12.6282C9.56655 12.666 9.66706 12.6759 9.76403 12.6567C9.861 12.6374 9.95008 12.5898 10.02 12.5199L14.6867 7.85324C14.7804 7.75947 14.8331 7.63231 14.8331 7.49972C14.8331 7.36714 14.7804 7.23998 14.6867 7.14621L10.02 2.47954C9.97275 2.43225 9.91647 2.39492 9.85452 2.36976C9.79257 2.3446 9.7262 2.33212 9.65934 2.33306ZM10.1665 4.04009L13.6261 7.49972L10.1665 10.9594V9.12798C10.1666 9.00345 10.1201 8.88337 10.0363 8.79126C9.95252 8.69915 9.83736 8.64162 9.71338 8.62993C9.01873 8.56489 7.42973 8.48694 5.84098 9.00949C5.09874 9.25362 4.36165 9.66449 3.729 10.2517C4.23536 9.01361 5.01508 8.144 5.90153 7.57004C7.35952 6.626 9.03491 6.39655 9.70296 6.34738C9.82892 6.33816 9.94673 6.28162 10.0327 6.18911C10.1187 6.0966 10.1665 5.97498 10.1665 5.84868V4.04009Z" fill="#5D5D5D"/>
</svg>
