<svg width="34" height="34" viewBox="0 0 34 34" fill="none" xmlns="http://www.w3.org/2000/svg">
<circle cx="17" cy="17" r="17" fill="#268CE6"/>
<path d="M8.1765 25.4963C8.201 25.4988 8.226 25.4998 8.2505 25.4998C8.6045 25.4998 8.9145 25.2503 8.9855 24.8968C10.0345 19.6488 15.504 19.2753 18 19.3913V23.2498C18 23.5528 18.1825 23.8263 18.463 23.9428C18.743 24.0583 19.0655 23.9948 19.2805 23.7803L26.2805 16.7803C26.5735 16.4878 26.5735 16.0123 26.2805 15.7198L19.2805 8.71982C19.066 8.50532 18.7435 8.44082 18.463 8.55732C18.1825 8.67282 18 8.94632 18 9.24982V13.0973C15.1835 13.4653 7.5 15.3333 7.5 24.7498C7.5 25.1353 7.7925 25.4583 8.1765 25.4963Z" fill="white"/>
</svg>
