<svg width="37" height="37" viewBox="0 0 37 37" fill="none" xmlns="http://www.w3.org/2000/svg">
<path d="M25.9499 32.4104L32.1022 28.5512L25.9499 24.6901V32.4104ZM5.80967 9.89943H26.5997V7.91223H5.80967V9.89943ZM28.1278 36.5C25.9141 36.5 24.0362 35.7283 22.4941 34.1849C20.9508 32.6429 20.1791 30.765 20.1791 28.5512C20.1791 26.3375 20.9508 24.4589 22.4941 22.9155C24.0375 21.3722 25.9154 20.6011 28.1278 20.6025C30.3403 20.6038 32.2188 21.3748 33.7635 22.9155C35.3082 24.4563 36.0793 26.3348 36.0766 28.5512C36.0766 30.7636 35.3056 32.6415 33.7635 34.1849C32.2188 35.7283 30.3403 36.5 28.1278 36.5ZM0.307129 33.8232V3.71131C0.307129 2.82104 0.619781 2.06326 1.24508 1.43796C1.87039 0.812652 2.62817 0.5 3.51843 0.5H28.8929C29.7805 0.5 30.5376 0.812652 31.1643 1.43796C31.7896 2.06326 32.1022 2.82104 32.1022 3.71131V15.5232C31.779 15.404 31.4584 15.3019 31.1404 15.2172C30.8212 15.1324 30.4794 15.0661 30.115 15.0184V3.71131C30.115 3.40528 29.9879 3.12442 29.7335 2.86873C29.4791 2.61305 29.1983 2.48587 28.8909 2.48719H3.51843C3.21241 2.48719 2.93155 2.61437 2.67586 2.86873C2.42018 3.1231 2.293 3.40395 2.29432 3.71131V30.4073H14.9011C14.9912 30.9504 15.1077 31.4817 15.2508 32.001C15.3952 32.5203 15.5959 33.0158 15.8529 33.4874L15.7854 33.555L13.5299 31.9136L10.8552 33.8232L8.18039 31.9136L5.50563 33.8232L2.82888 31.9136L0.307129 33.8232ZM5.81166 24.8809H15.1694C15.2435 24.5166 15.335 24.1754 15.4436 23.8575C15.5522 23.5395 15.6794 23.2183 15.8251 22.8937H5.81166V24.8809ZM5.81166 17.3911H20.338C20.9872 16.8785 21.6827 16.4512 22.4246 16.1094C23.1665 15.7663 23.9594 15.5311 24.8033 15.404H5.80967L5.81166 17.3911Z" fill="#FAFAFF"/>
</svg>
